<?xml version="1.0" encoding="UTF-8"?>
<!DOCTYPE svg PUBLIC "-//W3C//DTD SVG 1.1//EN" "http://www.w3.org/Graphics/SVG/1.1/DTD/svg11.dtd">
<svg width="148mm" height="95mm" viewBox="0 0 14800 9500" version="1.1" xmlns="http://www.w3.org/2000/svg" stroke-width="28.222" stroke-linejoin="round" xml:space="preserve">
 <path fill="rgb(255,255,255)" stroke="none" d="M 7386,9483 L -5,9483 -5,-1 14777,-1 14777,9483 7386,9483 Z"/>
 <path fill="none" stroke="rgb(0,0,0)" stroke-linejoin="round" d="M 7386,9483 L -5,9483 -5,-1 14777,-1 14777,9483 7386,9483 Z"/>
 <path fill="none" stroke="rgb(179,179,179)" stroke-linejoin="round" d="M 7659,5860 L 1764,5860 1764,1597 13554,1597 13554,5860 7659,5860 Z"/>
 <path fill="none" stroke="rgb(179,179,179)" stroke-linejoin="round" d="M 13554,5859 L 1764,5859"/>
 <path fill="none" stroke="rgb(179,179,179)" stroke-linejoin="round" d="M 13554,5385 L 1764,5385"/>
 <path fill="none" stroke="rgb(179,179,179)" stroke-linejoin="round" d="M 13554,4911 L 1764,4911"/>
 <path fill="none" stroke="rgb(179,179,179)" stroke-linejoin="round" d="M 13554,4438 L 1764,4438"/>
 <path fill="none" stroke="rgb(179,179,179)" stroke-linejoin="round" d="M 13554,3964 L 1764,3964"/>
 <path fill="none" stroke="rgb(179,179,179)" stroke-linejoin="round" d="M 13554,3491 L 1764,3491"/>
 <path fill="none" stroke="rgb(179,179,179)" stroke-linejoin="round" d="M 13554,3017 L 1764,3017"/>
 <path fill="none" stroke="rgb(179,179,179)" stroke-linejoin="round" d="M 13554,2543 L 1764,2543"/>
 <path fill="none" stroke="rgb(179,179,179)" stroke-linejoin="round" d="M 13554,2069 L 1764,2069"/>
 <path fill="none" stroke="rgb(179,179,179)" stroke-linejoin="round" d="M 13554,1596 L 1764,1596"/>
 <path fill="none" stroke="rgb(179,179,179)" stroke-linejoin="round" d="M 1764,6009 L 1764,5859"/>
 <path fill="none" stroke="rgb(179,179,179)" stroke-linejoin="round" d="M 1764,6009 L 1764,5859"/>
 <path fill="none" stroke="rgb(179,179,179)" stroke-linejoin="round" d="M 3729,6009 L 3729,5859"/>
 <path fill="none" stroke="rgb(179,179,179)" stroke-linejoin="round" d="M 3729,6009 L 3729,5859"/>
 <path fill="none" stroke="rgb(179,179,179)" stroke-linejoin="round" d="M 5694,6009 L 5694,5859"/>
 <path fill="none" stroke="rgb(179,179,179)" stroke-linejoin="round" d="M 5694,6009 L 5694,5859"/>
 <path fill="none" stroke="rgb(179,179,179)" stroke-linejoin="round" d="M 7658,6009 L 7658,5859"/>
 <path fill="none" stroke="rgb(179,179,179)" stroke-linejoin="round" d="M 7658,6009 L 7658,5859"/>
 <path fill="none" stroke="rgb(179,179,179)" stroke-linejoin="round" d="M 9623,6009 L 9623,5859"/>
 <path fill="none" stroke="rgb(179,179,179)" stroke-linejoin="round" d="M 9623,6009 L 9623,5859"/>
 <path fill="none" stroke="rgb(179,179,179)" stroke-linejoin="round" d="M 11588,6009 L 11588,5859"/>
 <path fill="none" stroke="rgb(179,179,179)" stroke-linejoin="round" d="M 11588,6009 L 11588,5859"/>
 <path fill="none" stroke="rgb(179,179,179)" stroke-linejoin="round" d="M 13554,6009 L 13554,5859"/>
 <path fill="none" stroke="rgb(179,179,179)" stroke-linejoin="round" d="M 13554,6009 L 13554,5859"/>
 <path fill="none" stroke="rgb(179,179,179)" stroke-linejoin="round" d="M 1764,5859 L 13554,5859"/>
 <path fill="none" stroke="rgb(179,179,179)" stroke-linejoin="round" d="M 1614,5859 L 1764,5859"/>
 <path fill="none" stroke="rgb(179,179,179)" stroke-linejoin="round" d="M 1614,5859 L 1764,5859"/>
 <path fill="none" stroke="rgb(179,179,179)" stroke-linejoin="round" d="M 1614,5385 L 1764,5385"/>
 <path fill="none" stroke="rgb(179,179,179)" stroke-linejoin="round" d="M 1614,5385 L 1764,5385"/>
 <path fill="none" stroke="rgb(179,179,179)" stroke-linejoin="round" d="M 1614,4911 L 1764,4911"/>
 <path fill="none" stroke="rgb(179,179,179)" stroke-linejoin="round" d="M 1614,4911 L 1764,4911"/>
 <path fill="none" stroke="rgb(179,179,179)" stroke-linejoin="round" d="M 1614,4438 L 1764,4438"/>
 <path fill="none" stroke="rgb(179,179,179)" stroke-linejoin="round" d="M 1614,4438 L 1764,4438"/>
 <path fill="none" stroke="rgb(179,179,179)" stroke-linejoin="round" d="M 1614,3964 L 1764,3964"/>
 <path fill="none" stroke="rgb(179,179,179)" stroke-linejoin="round" d="M 1614,3964 L 1764,3964"/>
 <path fill="none" stroke="rgb(179,179,179)" stroke-linejoin="round" d="M 1614,3491 L 1764,3491"/>
 <path fill="none" stroke="rgb(179,179,179)" stroke-linejoin="round" d="M 1614,3491 L 1764,3491"/>
 <path fill="none" stroke="rgb(179,179,179)" stroke-linejoin="round" d="M 1614,3017 L 1764,3017"/>
 <path fill="none" stroke="rgb(179,179,179)" stroke-linejoin="round" d="M 1614,3017 L 1764,3017"/>
 <path fill="none" stroke="rgb(179,179,179)" stroke-linejoin="round" d="M 1614,2543 L 1764,2543"/>
 <path fill="none" stroke="rgb(179,179,179)" stroke-linejoin="round" d="M 1614,2543 L 1764,2543"/>
 <path fill="none" stroke="rgb(179,179,179)" stroke-linejoin="round" d="M 1614,2069 L 1764,2069"/>
 <path fill="none" stroke="rgb(179,179,179)" stroke-linejoin="round" d="M 1614,2069 L 1764,2069"/>
 <path fill="none" stroke="rgb(179,179,179)" stroke-linejoin="round" d="M 1614,1596 L 1764,1596"/>
 <path fill="none" stroke="rgb(179,179,179)" stroke-linejoin="round" d="M 1614,1596 L 1764,1596"/>
 <path fill="none" stroke="rgb(179,179,179)" stroke-linejoin="round" d="M 1764,5859 L 1764,1596"/>
 <path fill="none" stroke="rgb(0,69,134)" stroke-width="80" stroke-linejoin="round" d="M 1764,5622 L 3729,5622 5694,5622 7658,5622 9623,5622 11588,5622 13554,5622"/>
 <path fill="rgb(0,69,134)" stroke="none" d="M 1639,5497 L 1639,5747 1889,5747 1889,5497 1639,5497 Z"/>
 <path fill="none" stroke="rgb(0,69,134)" stroke-linejoin="round" d="M 1639,5497 L 1639,5747 1889,5747 1889,5497 1639,5497 Z"/>
 <path fill="rgb(0,69,134)" stroke="none" d="M 3604,5497 L 3604,5747 3854,5747 3854,5497 3604,5497 Z"/>
 <path fill="none" stroke="rgb(0,69,134)" stroke-linejoin="round" d="M 3604,5497 L 3604,5747 3854,5747 3854,5497 3604,5497 Z"/>
 <path fill="rgb(0,69,134)" stroke="none" d="M 5569,5497 L 5569,5747 5819,5747 5819,5497 5569,5497 Z"/>
 <path fill="none" stroke="rgb(0,69,134)" stroke-linejoin="round" d="M 5569,5497 L 5569,5747 5819,5747 5819,5497 5569,5497 Z"/>
 <path fill="rgb(0,69,134)" stroke="none" d="M 7533,5497 L 7533,5747 7783,5747 7783,5497 7533,5497 Z"/>
 <path fill="none" stroke="rgb(0,69,134)" stroke-linejoin="round" d="M 7533,5497 L 7533,5747 7783,5747 7783,5497 7533,5497 Z"/>
 <path fill="rgb(0,69,134)" stroke="none" d="M 9498,5497 L 9498,5747 9748,5747 9748,5497 9498,5497 Z"/>
 <path fill="none" stroke="rgb(0,69,134)" stroke-linejoin="round" d="M 9498,5497 L 9498,5747 9748,5747 9748,5497 9498,5497 Z"/>
 <path fill="rgb(0,69,134)" stroke="none" d="M 11463,5497 L 11463,5747 11713,5747 11713,5497 11463,5497 Z"/>
 <path fill="none" stroke="rgb(0,69,134)" stroke-linejoin="round" d="M 11463,5497 L 11463,5747 11713,5747 11713,5497 11463,5497 Z"/>
 <path fill="rgb(0,69,134)" stroke="none" d="M 13429,5497 L 13429,5747 13679,5747 13679,5497 13429,5497 Z"/>
 <path fill="none" stroke="rgb(0,69,134)" stroke-linejoin="round" d="M 13429,5497 L 13429,5747 13679,5747 13679,5497 13429,5497 Z"/>
 <path fill="none" stroke="rgb(255,66,14)" stroke-width="80" stroke-linejoin="round" d="M 1764,4229 L 3729,3765 5694,2116 7658,3991 9623,3764 11588,3253 13554,3649"/>
 <path fill="rgb(255,66,14)" stroke="none" d="M 1639,4354 L 1889,4354 1639,4104 1889,4104 1639,4354 Z"/>
 <path fill="none" stroke="rgb(255,66,14)" stroke-linejoin="round" d="M 1639,4354 L 1889,4354 1639,4104 1889,4104 1639,4354 Z"/>
 <path fill="rgb(255,66,14)" stroke="none" d="M 3604,3890 L 3854,3890 3604,3640 3854,3640 3604,3890 Z"/>
 <path fill="none" stroke="rgb(255,66,14)" stroke-linejoin="round" d="M 3604,3890 L 3854,3890 3604,3640 3854,3640 3604,3890 Z"/>
 <path fill="rgb(255,66,14)" stroke="none" d="M 5569,2241 L 5819,2241 5569,1991 5819,1991 5569,2241 Z"/>
 <path fill="none" stroke="rgb(255,66,14)" stroke-linejoin="round" d="M 5569,2241 L 5819,2241 5569,1991 5819,1991 5569,2241 Z"/>
 <path fill="rgb(255,66,14)" stroke="none" d="M 7533,4116 L 7783,4116 7533,3866 7783,3866 7533,4116 Z"/>
 <path fill="none" stroke="rgb(255,66,14)" stroke-linejoin="round" d="M 7533,4116 L 7783,4116 7533,3866 7783,3866 7533,4116 Z"/>
 <path fill="rgb(255,66,14)" stroke="none" d="M 9498,3889 L 9748,3889 9498,3639 9748,3639 9498,3889 Z"/>
 <path fill="none" stroke="rgb(255,66,14)" stroke-linejoin="round" d="M 9498,3889 L 9748,3889 9498,3639 9748,3639 9498,3889 Z"/>
 <path fill="rgb(255,66,14)" stroke="none" d="M 11463,3378 L 11713,3378 11463,3128 11713,3128 11463,3378 Z"/>
 <path fill="none" stroke="rgb(255,66,14)" stroke-linejoin="round" d="M 11463,3378 L 11713,3378 11463,3128 11713,3128 11463,3378 Z"/>
 <path fill="rgb(255,66,14)" stroke="none" d="M 13429,3774 L 13679,3774 13429,3524 13679,3524 13429,3774 Z"/>
 <path fill="none" stroke="rgb(255,66,14)" stroke-linejoin="round" d="M 13429,3774 L 13679,3774 13429,3524 13679,3524 13429,3774 Z"/>
 <path fill="none" stroke="rgb(255,211,32)" stroke-width="80" stroke-linejoin="round" d="M 1764,5314 L 3729,4994 5694,3931 7658,4772 9623,4740 11588,4657 13554,4874"/>
 <path fill="rgb(255,211,32)" stroke="none" d="M 1889,5314 L 1888,5309 1888,5304 1887,5298 1887,5293 1886,5287 1884,5282 1883,5277 1881,5272 1879,5267 1877,5262 1874,5257 1872,5252 1869,5247 1866,5243 1863,5238 1859,5234 1856,5230 1852,5226 1848,5222 1844,5219 1840,5215 1835,5212 1831,5209 1826,5206 1821,5204 1816,5201 1811,5199 1806,5197 1801,5195 1796,5194 1791,5192 1785,5191 1780,5191 1774,5190 1769,5190 1764,5189 1758,5190 1753,5190 1747,5191 1742,5191 1736,5192 1731,5194 1726,5195 1721,5197 1716,5199 1711,5201 1706,5204 1701,5206 1696,5209 1692,5212 1687,5215 1683,5219 1679,5222 1675,5226 1671,5230 1668,5234 1664,5238 1661,5243 1658,5247 1655,5252 1653,5257 1650,5262 1648,5267 1646,5272 1644,5277 1643,5282 1641,5287 1640,5293 1640,5298 1639,5304 1639,5309 1639,5314 1639,5320 1639,5325 1640,5331 1640,5336 1641,5341 1643,5347 1644,5352 1646,5357 1648,5362 1650,5367 1653,5372 1655,5377 1658,5382 1661,5386 1664,5391 1668,5395 1671,5399 1675,5403 1679,5407 1683,5410 1687,5414 1692,5417 1696,5420 1701,5423 1706,5425 1711,5428 1716,5430 1721,5432 1726,5434 1731,5435 1736,5436 1742,5438 1747,5438 1753,5439 1758,5439 1764,5439 1769,5439 1774,5439 1780,5438 1785,5438 1791,5436 1796,5435 1801,5434 1806,5432 1811,5430 1816,5428 1821,5425 1826,5423 1831,5420 1835,5417 1840,5414 1844,5410 1848,5407 1852,5403 1856,5399 1859,5395 1863,5391 1866,5386 1869,5382 1872,5377 1874,5372 1877,5367 1879,5362 1881,5357 1883,5352 1884,5347 1886,5341 1887,5336 1887,5331 1888,5325 1888,5320 1889,5314 Z"/>
 <path fill="none" stroke="rgb(255,211,32)" stroke-linejoin="round" d="M 1889,5314 L 1888,5309 1888,5304 1887,5298 1887,5293 1886,5287 1884,5282 1883,5277 1881,5272 1879,5267 1877,5262 1874,5257 1872,5252 1869,5247 1866,5243 1863,5238 1859,5234 1856,5230 1852,5226 1848,5222 1844,5219 1840,5215 1835,5212 1831,5209 1826,5206 1821,5204 1816,5201 1811,5199 1806,5197 1801,5195 1796,5194 1791,5192 1785,5191 1780,5191 1774,5190 1769,5190 1764,5189 1758,5190 1753,5190 1747,5191 1742,5191 1736,5192 1731,5194 1726,5195 1721,5197 1716,5199 1711,5201 1706,5204 1701,5206 1696,5209 1692,5212 1687,5215 1683,5219 1679,5222 1675,5226 1671,5230 1668,5234 1664,5238 1661,5243 1658,5247 1655,5252 1653,5257 1650,5262 1648,5267 1646,5272 1644,5277 1643,5282 1641,5287 1640,5293 1640,5298 1639,5304 1639,5309 1639,5314 1639,5320 1639,5325 1640,5331 1640,5336 1641,5341 1643,5347 1644,5352 1646,5357 1648,5362 1650,5367 1653,5372 1655,5377 1658,5382 1661,5386 1664,5391 1668,5395 1671,5399 1675,5403 1679,5407 1683,5410 1687,5414 1692,5417 1696,5420 1701,5423 1706,5425 1711,5428 1716,5430 1721,5432 1726,5434 1731,5435 1736,5436 1742,5438 1747,5438 1753,5439 1758,5439 1764,5439 1769,5439 1774,5439 1780,5438 1785,5438 1791,5436 1796,5435 1801,5434 1806,5432 1811,5430 1816,5428 1821,5425 1826,5423 1831,5420 1835,5417 1840,5414 1844,5410 1848,5407 1852,5403 1856,5399 1859,5395 1863,5391 1866,5386 1869,5382 1872,5377 1874,5372 1877,5367 1879,5362 1881,5357 1883,5352 1884,5347 1886,5341 1887,5336 1887,5331 1888,5325 1888,5320 1889,5314 Z"/>
 <path fill="rgb(255,211,32)" stroke="none" d="M 3854,4994 L 3854,4989 3853,4983 3853,4978 3852,4972 3851,4967 3849,4962 3848,4956 3846,4951 3844,4946 3842,4941 3840,4936 3837,4932 3834,4927 3831,4922 3828,4918 3824,4914 3821,4910 3817,4906 3813,4902 3809,4898 3805,4895 3800,4892 3796,4889 3791,4886 3786,4883 3781,4881 3777,4879 3771,4877 3766,4875 3761,4873 3756,4872 3750,4871 3745,4870 3740,4870 3734,4869 3729,4869 3723,4869 3718,4870 3712,4870 3707,4871 3702,4872 3696,4873 3691,4875 3686,4877 3681,4879 3676,4881 3671,4883 3666,4886 3662,4889 3657,4892 3653,4895 3648,4898 3644,4902 3640,4906 3637,4910 3633,4914 3629,4918 3626,4922 3623,4927 3620,4932 3618,4936 3615,4941 3613,4946 3611,4951 3609,4956 3608,4962 3607,4967 3606,4972 3605,4978 3604,4983 3604,4989 3604,4994 3604,4999 3604,5005 3605,5010 3606,5016 3607,5021 3608,5026 3609,5032 3611,5037 3613,5042 3615,5047 3618,5052 3620,5057 3623,5061 3626,5066 3629,5070 3633,5074 3637,5078 3640,5082 3644,5086 3648,5090 3653,5093 3657,5096 3662,5099 3666,5102 3671,5105 3676,5107 3681,5110 3686,5111 3691,5113 3696,5115 3702,5116 3707,5117 3712,5118 3718,5119 3723,5119 3729,5119 3734,5119 3740,5119 3745,5118 3750,5117 3756,5116 3761,5115 3766,5113 3771,5111 3777,5110 3781,5107 3786,5105 3791,5102 3796,5099 3800,5096 3805,5093 3809,5090 3813,5086 3817,5082 3821,5078 3824,5074 3828,5070 3831,5066 3834,5061 3837,5057 3840,5052 3842,5047 3844,5042 3846,5037 3848,5032 3849,5026 3851,5021 3852,5016 3853,5010 3853,5005 3854,4999 3854,4994 Z"/>
 <path fill="none" stroke="rgb(255,211,32)" stroke-linejoin="round" d="M 3854,4994 L 3854,4989 3853,4983 3853,4978 3852,4972 3851,4967 3849,4962 3848,4956 3846,4951 3844,4946 3842,4941 3840,4936 3837,4932 3834,4927 3831,4922 3828,4918 3824,4914 3821,4910 3817,4906 3813,4902 3809,4898 3805,4895 3800,4892 3796,4889 3791,4886 3786,4883 3781,4881 3777,4879 3771,4877 3766,4875 3761,4873 3756,4872 3750,4871 3745,4870 3740,4870 3734,4869 3729,4869 3723,4869 3718,4870 3712,4870 3707,4871 3702,4872 3696,4873 3691,4875 3686,4877 3681,4879 3676,4881 3671,4883 3666,4886 3662,4889 3657,4892 3653,4895 3648,4898 3644,4902 3640,4906 3637,4910 3633,4914 3629,4918 3626,4922 3623,4927 3620,4932 3618,4936 3615,4941 3613,4946 3611,4951 3609,4956 3608,4962 3607,4967 3606,4972 3605,4978 3604,4983 3604,4989 3604,4994 3604,4999 3604,5005 3605,5010 3606,5016 3607,5021 3608,5026 3609,5032 3611,5037 3613,5042 3615,5047 3618,5052 3620,5057 3623,5061 3626,5066 3629,5070 3633,5074 3637,5078 3640,5082 3644,5086 3648,5090 3653,5093 3657,5096 3662,5099 3666,5102 3671,5105 3676,5107 3681,5110 3686,5111 3691,5113 3696,5115 3702,5116 3707,5117 3712,5118 3718,5119 3723,5119 3729,5119 3734,5119 3740,5119 3745,5118 3750,5117 3756,5116 3761,5115 3766,5113 3771,5111 3777,5110 3781,5107 3786,5105 3791,5102 3796,5099 3800,5096 3805,5093 3809,5090 3813,5086 3817,5082 3821,5078 3824,5074 3828,5070 3831,5066 3834,5061 3837,5057 3840,5052 3842,5047 3844,5042 3846,5037 3848,5032 3849,5026 3851,5021 3852,5016 3853,5010 3853,5005 3854,4999 3854,4994 Z"/>
 <path fill="rgb(255,211,32)" stroke="none" d="M 5819,3931 L 5819,3925 5818,3920 5818,3914 5817,3909 5816,3904 5815,3898 5813,3893 5811,3888 5809,3883 5807,3878 5805,3873 5802,3868 5799,3864 5796,3859 5793,3855 5790,3850 5786,3846 5782,3842 5778,3839 5774,3835 5770,3832 5766,3828 5761,3825 5756,3822 5752,3820 5747,3817 5742,3815 5737,3813 5731,3812 5726,3810 5721,3809 5716,3808 5710,3807 5705,3806 5699,3806 5694,3806 5688,3806 5683,3806 5678,3807 5672,3808 5667,3809 5661,3810 5656,3812 5651,3813 5646,3815 5641,3817 5636,3820 5631,3822 5627,3825 5622,3828 5618,3832 5613,3835 5609,3839 5605,3842 5602,3846 5598,3850 5595,3855 5591,3859 5588,3864 5586,3868 5583,3873 5581,3878 5578,3883 5576,3888 5575,3893 5573,3898 5572,3904 5571,3909 5570,3914 5569,3920 5569,3925 5569,3931 5569,3936 5569,3942 5570,3947 5571,3952 5572,3958 5573,3963 5575,3968 5576,3973 5578,3979 5581,3984 5583,3988 5586,3993 5588,3998 5591,4002 5595,4007 5598,4011 5602,4015 5605,4019 5609,4023 5613,4026 5618,4030 5622,4033 5627,4036 5631,4039 5636,4042 5641,4044 5646,4046 5651,4048 5656,4050 5661,4051 5667,4053 5672,4054 5678,4055 5683,4055 5688,4056 5694,4056 5699,4056 5705,4055 5710,4055 5716,4054 5721,4053 5726,4051 5731,4050 5737,4048 5742,4046 5747,4044 5752,4042 5756,4039 5761,4036 5766,4033 5770,4030 5774,4026 5778,4023 5782,4019 5786,4015 5790,4011 5793,4007 5796,4002 5799,3998 5802,3993 5805,3988 5807,3984 5809,3979 5811,3973 5813,3968 5815,3963 5816,3958 5817,3952 5818,3947 5818,3942 5819,3936 5819,3931 Z"/>
 <path fill="none" stroke="rgb(255,211,32)" stroke-linejoin="round" d="M 5819,3931 L 5819,3925 5818,3920 5818,3914 5817,3909 5816,3904 5815,3898 5813,3893 5811,3888 5809,3883 5807,3878 5805,3873 5802,3868 5799,3864 5796,3859 5793,3855 5790,3850 5786,3846 5782,3842 5778,3839 5774,3835 5770,3832 5766,3828 5761,3825 5756,3822 5752,3820 5747,3817 5742,3815 5737,3813 5731,3812 5726,3810 5721,3809 5716,3808 5710,3807 5705,3806 5699,3806 5694,3806 5688,3806 5683,3806 5678,3807 5672,3808 5667,3809 5661,3810 5656,3812 5651,3813 5646,3815 5641,3817 5636,3820 5631,3822 5627,3825 5622,3828 5618,3832 5613,3835 5609,3839 5605,3842 5602,3846 5598,3850 5595,3855 5591,3859 5588,3864 5586,3868 5583,3873 5581,3878 5578,3883 5576,3888 5575,3893 5573,3898 5572,3904 5571,3909 5570,3914 5569,3920 5569,3925 5569,3931 5569,3936 5569,3942 5570,3947 5571,3952 5572,3958 5573,3963 5575,3968 5576,3973 5578,3979 5581,3984 5583,3988 5586,3993 5588,3998 5591,4002 5595,4007 5598,4011 5602,4015 5605,4019 5609,4023 5613,4026 5618,4030 5622,4033 5627,4036 5631,4039 5636,4042 5641,4044 5646,4046 5651,4048 5656,4050 5661,4051 5667,4053 5672,4054 5678,4055 5683,4055 5688,4056 5694,4056 5699,4056 5705,4055 5710,4055 5716,4054 5721,4053 5726,4051 5731,4050 5737,4048 5742,4046 5747,4044 5752,4042 5756,4039 5761,4036 5766,4033 5770,4030 5774,4026 5778,4023 5782,4019 5786,4015 5790,4011 5793,4007 5796,4002 5799,3998 5802,3993 5805,3988 5807,3984 5809,3979 5811,3973 5813,3968 5815,3963 5816,3958 5817,3952 5818,3947 5818,3942 5819,3936 5819,3931 Z"/>
 <path fill="rgb(255,211,32)" stroke="none" d="M 7783,4772 L 7783,4766 7783,4761 7782,4755 7781,4750 7780,4745 7779,4740 7777,4735 7775,4730 7773,4725 7771,4720 7769,4715 7766,4710 7763,4706 7760,4701 7757,4697 7754,4692 7750,4688 7746,4684 7742,4681 7738,4677 7734,4673 7730,4670 7725,4667 7721,4664 7716,4662 7711,4659 7706,4657 7701,4655 7696,4653 7690,4652 7685,4651 7680,4650 7674,4649 7669,4648 7663,4648 7658,4648 7653,4648 7647,4648 7642,4649 7636,4650 7631,4651 7626,4652 7620,4653 7615,4655 7610,4657 7605,4659 7600,4662 7596,4664 7591,4667 7586,4670 7582,4673 7578,4677 7574,4681 7570,4684 7566,4688 7562,4692 7559,4697 7556,4701 7553,4706 7550,4710 7547,4715 7545,4720 7543,4725 7541,4730 7539,4735 7537,4740 7536,4745 7535,4750 7534,4755 7533,4761 7533,4766 7533,4772 7533,4777 7533,4783 7534,4788 7535,4793 7536,4799 7537,4804 7539,4809 7541,4814 7543,4819 7545,4824 7547,4829 7550,4834 7553,4839 7556,4843 7559,4848 7562,4852 7566,4856 7570,4860 7574,4864 7578,4867 7582,4871 7586,4874 7591,4877 7596,4880 7600,4883 7605,4885 7610,4887 7615,4889 7620,4891 7626,4892 7631,4894 7636,4895 7642,4896 7647,4896 7653,4897 7658,4897 7663,4897 7669,4896 7674,4896 7680,4895 7685,4894 7690,4892 7696,4891 7701,4889 7706,4887 7711,4885 7716,4883 7721,4880 7725,4877 7730,4874 7734,4871 7738,4867 7742,4864 7746,4860 7750,4856 7754,4852 7757,4848 7760,4843 7763,4839 7766,4834 7769,4829 7771,4824 7773,4819 7775,4814 7777,4809 7779,4804 7780,4799 7781,4793 7782,4788 7783,4783 7783,4777 7783,4772 Z"/>
 <path fill="none" stroke="rgb(255,211,32)" stroke-linejoin="round" d="M 7783,4772 L 7783,4766 7783,4761 7782,4755 7781,4750 7780,4745 7779,4740 7777,4735 7775,4730 7773,4725 7771,4720 7769,4715 7766,4710 7763,4706 7760,4701 7757,4697 7754,4692 7750,4688 7746,4684 7742,4681 7738,4677 7734,4673 7730,4670 7725,4667 7721,4664 7716,4662 7711,4659 7706,4657 7701,4655 7696,4653 7690,4652 7685,4651 7680,4650 7674,4649 7669,4648 7663,4648 7658,4648 7653,4648 7647,4648 7642,4649 7636,4650 7631,4651 7626,4652 7620,4653 7615,4655 7610,4657 7605,4659 7600,4662 7596,4664 7591,4667 7586,4670 7582,4673 7578,4677 7574,4681 7570,4684 7566,4688 7562,4692 7559,4697 7556,4701 7553,4706 7550,4710 7547,4715 7545,4720 7543,4725 7541,4730 7539,4735 7537,4740 7536,4745 7535,4750 7534,4755 7533,4761 7533,4766 7533,4772 7533,4777 7533,4783 7534,4788 7535,4793 7536,4799 7537,4804 7539,4809 7541,4814 7543,4819 7545,4824 7547,4829 7550,4834 7553,4839 7556,4843 7559,4848 7562,4852 7566,4856 7570,4860 7574,4864 7578,4867 7582,4871 7586,4874 7591,4877 7596,4880 7600,4883 7605,4885 7610,4887 7615,4889 7620,4891 7626,4892 7631,4894 7636,4895 7642,4896 7647,4896 7653,4897 7658,4897 7663,4897 7669,4896 7674,4896 7680,4895 7685,4894 7690,4892 7696,4891 7701,4889 7706,4887 7711,4885 7716,4883 7721,4880 7725,4877 7730,4874 7734,4871 7738,4867 7742,4864 7746,4860 7750,4856 7754,4852 7757,4848 7760,4843 7763,4839 7766,4834 7769,4829 7771,4824 7773,4819 7775,4814 7777,4809 7779,4804 7780,4799 7781,4793 7782,4788 7783,4783 7783,4777 7783,4772 Z"/>
 <path fill="rgb(255,211,32)" stroke="none" d="M 9748,4740 L 9748,4734 9748,4729 9747,4723 9746,4718 9745,4713 9744,4707 9742,4702 9741,4697 9739,4692 9736,4687 9734,4682 9731,4677 9729,4672 9726,4668 9722,4663 9719,4659 9715,4655 9712,4651 9708,4647 9704,4644 9699,4640 9695,4637 9690,4634 9686,4631 9681,4629 9676,4626 9671,4624 9666,4622 9661,4620 9656,4619 9650,4618 9645,4616 9639,4616 9634,4615 9629,4615 9623,4615 9618,4615 9612,4615 9607,4616 9601,4616 9596,4618 9591,4619 9586,4620 9580,4622 9575,4624 9570,4626 9565,4629 9561,4631 9556,4634 9551,4637 9547,4640 9543,4644 9539,4647 9535,4651 9531,4655 9527,4659 9524,4663 9521,4668 9518,4672 9515,4677 9512,4682 9510,4687 9508,4692 9506,4697 9504,4702 9502,4707 9501,4713 9500,4718 9499,4723 9499,4729 9498,4734 9498,4740 9498,4744 9499,4749 9499,4755 9500,4760 9501,4766 9502,4771 9504,4776 9506,4781 9508,4786 9510,4791 9512,4796 9515,4801 9518,4806 9521,4810 9524,4815 9527,4819 9531,4823 9535,4827 9539,4831 9543,4834 9547,4838 9551,4841 9556,4844 9561,4847 9565,4849 9570,4852 9575,4854 9580,4856 9586,4858 9591,4859 9596,4861 9601,4862 9607,4862 9612,4863 9618,4863 9623,4864 9629,4863 9634,4863 9639,4862 9645,4862 9650,4861 9656,4859 9661,4858 9666,4856 9671,4854 9676,4852 9681,4849 9686,4847 9690,4844 9695,4841 9699,4838 9704,4834 9708,4831 9712,4827 9715,4823 9719,4819 9722,4815 9726,4810 9729,4806 9731,4801 9734,4796 9736,4791 9739,4786 9741,4781 9742,4776 9744,4771 9745,4766 9746,4760 9747,4755 9748,4749 9748,4744 9748,4740 Z"/>
 <path fill="none" stroke="rgb(255,211,32)" stroke-linejoin="round" d="M 9748,4740 L 9748,4734 9748,4729 9747,4723 9746,4718 9745,4713 9744,4707 9742,4702 9741,4697 9739,4692 9736,4687 9734,4682 9731,4677 9729,4672 9726,4668 9722,4663 9719,4659 9715,4655 9712,4651 9708,4647 9704,4644 9699,4640 9695,4637 9690,4634 9686,4631 9681,4629 9676,4626 9671,4624 9666,4622 9661,4620 9656,4619 9650,4618 9645,4616 9639,4616 9634,4615 9629,4615 9623,4615 9618,4615 9612,4615 9607,4616 9601,4616 9596,4618 9591,4619 9586,4620 9580,4622 9575,4624 9570,4626 9565,4629 9561,4631 9556,4634 9551,4637 9547,4640 9543,4644 9539,4647 9535,4651 9531,4655 9527,4659 9524,4663 9521,4668 9518,4672 9515,4677 9512,4682 9510,4687 9508,4692 9506,4697 9504,4702 9502,4707 9501,4713 9500,4718 9499,4723 9499,4729 9498,4734 9498,4740 9498,4744 9499,4749 9499,4755 9500,4760 9501,4766 9502,4771 9504,4776 9506,4781 9508,4786 9510,4791 9512,4796 9515,4801 9518,4806 9521,4810 9524,4815 9527,4819 9531,4823 9535,4827 9539,4831 9543,4834 9547,4838 9551,4841 9556,4844 9561,4847 9565,4849 9570,4852 9575,4854 9580,4856 9586,4858 9591,4859 9596,4861 9601,4862 9607,4862 9612,4863 9618,4863 9623,4864 9629,4863 9634,4863 9639,4862 9645,4862 9650,4861 9656,4859 9661,4858 9666,4856 9671,4854 9676,4852 9681,4849 9686,4847 9690,4844 9695,4841 9699,4838 9704,4834 9708,4831 9712,4827 9715,4823 9719,4819 9722,4815 9726,4810 9729,4806 9731,4801 9734,4796 9736,4791 9739,4786 9741,4781 9742,4776 9744,4771 9745,4766 9746,4760 9747,4755 9748,4749 9748,4744 9748,4740 Z"/>
 <path fill="rgb(255,211,32)" stroke="none" d="M 11713,4657 L 11713,4651 11713,4646 11712,4641 11711,4635 11710,4630 11709,4625 11708,4619 11706,4614 11704,4609 11702,4604 11699,4599 11697,4594 11694,4590 11691,4585 11688,4581 11684,4577 11680,4572 11677,4568 11673,4565 11669,4561 11664,4558 11660,4554 11655,4551 11651,4549 11646,4546 11641,4544 11636,4541 11631,4539 11626,4538 11621,4536 11615,4535 11610,4534 11605,4533 11599,4532 11594,4532 11588,4532 11583,4532 11577,4532 11572,4533 11567,4534 11561,4535 11556,4536 11551,4538 11546,4539 11540,4541 11536,4544 11531,4546 11526,4549 11521,4551 11517,4554 11512,4558 11508,4561 11504,4565 11500,4568 11496,4572 11493,4577 11489,4581 11486,4585 11483,4590 11480,4594 11477,4599 11475,4604 11473,4609 11471,4614 11469,4619 11468,4625 11466,4630 11465,4635 11464,4641 11464,4646 11463,4651 11463,4657 11463,4662 11464,4668 11464,4673 11465,4679 11466,4684 11468,4689 11469,4694 11471,4700 11473,4705 11475,4710 11477,4715 11480,4719 11483,4724 11486,4729 11489,4733 11493,4737 11496,4741 11500,4744 11504,4748 11508,4752 11512,4755 11517,4758 11521,4761 11526,4764 11531,4767 11536,4769 11540,4771 11546,4773 11551,4775 11556,4777 11561,4778 11567,4779 11572,4780 11577,4780 11583,4781 11588,4781 11594,4781 11599,4780 11605,4780 11610,4779 11615,4778 11621,4777 11626,4775 11631,4773 11636,4771 11641,4769 11646,4767 11651,4764 11655,4761 11660,4758 11664,4755 11669,4752 11673,4748 11677,4744 11680,4741 11684,4737 11688,4733 11691,4729 11694,4724 11697,4719 11699,4715 11702,4710 11704,4705 11706,4700 11708,4694 11709,4689 11710,4684 11711,4679 11712,4673 11713,4668 11713,4662 11713,4657 Z"/>
 <path fill="none" stroke="rgb(255,211,32)" stroke-linejoin="round" d="M 11713,4657 L 11713,4651 11713,4646 11712,4641 11711,4635 11710,4630 11709,4625 11708,4619 11706,4614 11704,4609 11702,4604 11699,4599 11697,4594 11694,4590 11691,4585 11688,4581 11684,4577 11680,4572 11677,4568 11673,4565 11669,4561 11664,4558 11660,4554 11655,4551 11651,4549 11646,4546 11641,4544 11636,4541 11631,4539 11626,4538 11621,4536 11615,4535 11610,4534 11605,4533 11599,4532 11594,4532 11588,4532 11583,4532 11577,4532 11572,4533 11567,4534 11561,4535 11556,4536 11551,4538 11546,4539 11540,4541 11536,4544 11531,4546 11526,4549 11521,4551 11517,4554 11512,4558 11508,4561 11504,4565 11500,4568 11496,4572 11493,4577 11489,4581 11486,4585 11483,4590 11480,4594 11477,4599 11475,4604 11473,4609 11471,4614 11469,4619 11468,4625 11466,4630 11465,4635 11464,4641 11464,4646 11463,4651 11463,4657 11463,4662 11464,4668 11464,4673 11465,4679 11466,4684 11468,4689 11469,4694 11471,4700 11473,4705 11475,4710 11477,4715 11480,4719 11483,4724 11486,4729 11489,4733 11493,4737 11496,4741 11500,4744 11504,4748 11508,4752 11512,4755 11517,4758 11521,4761 11526,4764 11531,4767 11536,4769 11540,4771 11546,4773 11551,4775 11556,4777 11561,4778 11567,4779 11572,4780 11577,4780 11583,4781 11588,4781 11594,4781 11599,4780 11605,4780 11610,4779 11615,4778 11621,4777 11626,4775 11631,4773 11636,4771 11641,4769 11646,4767 11651,4764 11655,4761 11660,4758 11664,4755 11669,4752 11673,4748 11677,4744 11680,4741 11684,4737 11688,4733 11691,4729 11694,4724 11697,4719 11699,4715 11702,4710 11704,4705 11706,4700 11708,4694 11709,4689 11710,4684 11711,4679 11712,4673 11713,4668 11713,4662 11713,4657 Z"/>
 <path fill="rgb(255,211,32)" stroke="none" d="M 13679,4874 L 13678,4868 13678,4863 13677,4857 13677,4852 13676,4846 13674,4841 13673,4836 13671,4831 13669,4826 13667,4821 13664,4816 13662,4811 13659,4806 13656,4802 13653,4797 13649,4793 13646,4789 13642,4785 13638,4781 13634,4778 13630,4774 13625,4771 13621,4768 13616,4765 13611,4763 13606,4760 13601,4758 13596,4756 13591,4754 13586,4753 13581,4751 13575,4750 13570,4750 13564,4749 13559,4749 13554,4749 13548,4749 13543,4749 13537,4750 13532,4750 13526,4751 13521,4753 13516,4754 13511,4756 13506,4758 13501,4760 13496,4763 13491,4765 13486,4768 13482,4771 13477,4774 13473,4778 13469,4781 13465,4785 13461,4789 13458,4793 13454,4797 13451,4802 13448,4806 13445,4811 13443,4816 13440,4821 13438,4826 13436,4831 13434,4836 13433,4841 13431,4846 13430,4852 13430,4857 13429,4863 13429,4868 13429,4874 13429,4879 13429,4884 13430,4890 13430,4895 13431,4901 13433,4906 13434,4911 13436,4916 13438,4921 13440,4926 13443,4931 13445,4936 13448,4941 13451,4945 13454,4950 13458,4954 13461,4958 13465,4962 13469,4966 13473,4969 13477,4973 13482,4976 13486,4979 13491,4982 13496,4984 13501,4987 13506,4989 13511,4991 13516,4993 13521,4994 13526,4996 13532,4997 13537,4997 13543,4998 13548,4998 13554,4999 13559,4998 13564,4998 13570,4997 13575,4997 13581,4996 13586,4994 13591,4993 13596,4991 13601,4989 13606,4987 13611,4984 13616,4982 13621,4979 13625,4976 13630,4973 13634,4969 13638,4966 13642,4962 13646,4958 13649,4954 13653,4950 13656,4945 13659,4941 13662,4936 13664,4931 13667,4926 13669,4921 13671,4916 13673,4911 13674,4906 13676,4901 13677,4895 13677,4890 13678,4884 13678,4879 13679,4874 Z"/>
 <path fill="none" stroke="rgb(255,211,32)" stroke-linejoin="round" d="M 13679,4874 L 13678,4868 13678,4863 13677,4857 13677,4852 13676,4846 13674,4841 13673,4836 13671,4831 13669,4826 13667,4821 13664,4816 13662,4811 13659,4806 13656,4802 13653,4797 13649,4793 13646,4789 13642,4785 13638,4781 13634,4778 13630,4774 13625,4771 13621,4768 13616,4765 13611,4763 13606,4760 13601,4758 13596,4756 13591,4754 13586,4753 13581,4751 13575,4750 13570,4750 13564,4749 13559,4749 13554,4749 13548,4749 13543,4749 13537,4750 13532,4750 13526,4751 13521,4753 13516,4754 13511,4756 13506,4758 13501,4760 13496,4763 13491,4765 13486,4768 13482,4771 13477,4774 13473,4778 13469,4781 13465,4785 13461,4789 13458,4793 13454,4797 13451,4802 13448,4806 13445,4811 13443,4816 13440,4821 13438,4826 13436,4831 13434,4836 13433,4841 13431,4846 13430,4852 13430,4857 13429,4863 13429,4868 13429,4874 13429,4879 13429,4884 13430,4890 13430,4895 13431,4901 13433,4906 13434,4911 13436,4916 13438,4921 13440,4926 13443,4931 13445,4936 13448,4941 13451,4945 13454,4950 13458,4954 13461,4958 13465,4962 13469,4966 13473,4969 13477,4973 13482,4976 13486,4979 13491,4982 13496,4984 13501,4987 13506,4989 13511,4991 13516,4993 13521,4994 13526,4996 13532,4997 13537,4997 13543,4998 13548,4998 13554,4999 13559,4998 13564,4998 13570,4997 13575,4997 13581,4996 13586,4994 13591,4993 13596,4991 13601,4989 13606,4987 13611,4984 13616,4982 13621,4979 13625,4976 13630,4973 13634,4969 13638,4966 13642,4962 13646,4958 13649,4954 13653,4950 13656,4945 13659,4941 13662,4936 13664,4931 13667,4926 13669,4921 13671,4916 13673,4911 13674,4906 13676,4901 13677,4895 13677,4890 13678,4884 13678,4879 13679,4874 Z"/>
 <path fill="none" stroke="rgb(87,157,28)" stroke-width="80" stroke-linejoin="round" d="M 1764,4593 L 3729,4671 5694,3745 7658,4699 9623,4525 11588,3928 13554,4165"/>
 <path fill="rgb(87,157,28)" stroke="none" d="M 1764,4468 L 1789,4568 1889,4593 1789,4618 1764,4718 1739,4618 1639,4593 1739,4568 1764,4468 Z"/>
 <path fill="none" stroke="rgb(87,157,28)" stroke-linejoin="round" d="M 1764,4468 L 1789,4568 1889,4593 1789,4618 1764,4718 1739,4618 1639,4593 1739,4568 1764,4468 Z"/>
 <path fill="rgb(87,157,28)" stroke="none" d="M 3729,4546 L 3754,4646 3854,4671 3754,4696 3729,4795 3704,4696 3604,4671 3704,4646 3729,4546 Z"/>
 <path fill="none" stroke="rgb(87,157,28)" stroke-linejoin="round" d="M 3729,4546 L 3754,4646 3854,4671 3754,4696 3729,4795 3704,4696 3604,4671 3704,4646 3729,4546 Z"/>
 <path fill="rgb(87,157,28)" stroke="none" d="M 5694,3620 L 5719,3720 5819,3745 5719,3770 5694,3870 5669,3770 5569,3745 5669,3720 5694,3620 Z"/>
 <path fill="none" stroke="rgb(87,157,28)" stroke-linejoin="round" d="M 5694,3620 L 5719,3720 5819,3745 5719,3770 5694,3870 5669,3770 5569,3745 5669,3720 5694,3620 Z"/>
 <path fill="rgb(87,157,28)" stroke="none" d="M 7658,4574 L 7683,4674 7783,4699 7683,4724 7658,4823 7633,4724 7533,4699 7633,4674 7658,4574 Z"/>
 <path fill="none" stroke="rgb(87,157,28)" stroke-linejoin="round" d="M 7658,4574 L 7683,4674 7783,4699 7683,4724 7658,4823 7633,4724 7533,4699 7633,4674 7658,4574 Z"/>
 <path fill="rgb(87,157,28)" stroke="none" d="M 9623,4400 L 9648,4500 9748,4525 9648,4550 9623,4650 9598,4550 9498,4525 9598,4500 9623,4400 Z"/>
 <path fill="none" stroke="rgb(87,157,28)" stroke-linejoin="round" d="M 9623,4400 L 9648,4500 9748,4525 9648,4550 9623,4650 9598,4550 9498,4525 9598,4500 9623,4400 Z"/>
 <path fill="rgb(87,157,28)" stroke="none" d="M 11588,3803 L 11613,3903 11713,3928 11613,3953 11588,4053 11563,3953 11463,3928 11563,3903 11588,3803 Z"/>
 <path fill="none" stroke="rgb(87,157,28)" stroke-linejoin="round" d="M 11588,3803 L 11613,3903 11713,3928 11613,3953 11588,4053 11563,3953 11463,3928 11563,3903 11588,3803 Z"/>
 <path fill="rgb(87,157,28)" stroke="none" d="M 13554,4040 L 13579,4140 13679,4165 13579,4190 13554,4290 13529,4190 13429,4165 13529,4140 13554,4040 Z"/>
 <path fill="none" stroke="rgb(87,157,28)" stroke-linejoin="round" d="M 13554,4040 L 13579,4140 13679,4165 13579,4190 13554,4290 13529,4190 13429,4165 13529,4140 13554,4040 Z"/>
 <path fill="none" stroke="rgb(126,0,33)" stroke-width="80" stroke-linejoin="round" d="M 1764,5597 L 3729,5424 5694,5231 7658,5366 9623,5311 11588,5252 13554,5194"/>
 <path fill="rgb(126,0,33)" stroke="none" d="M 1639,5472 L 1639,5722 1889,5597 1639,5472 Z"/>
 <path fill="none" stroke="rgb(126,0,33)" stroke-linejoin="round" d="M 1639,5472 L 1639,5722 1889,5597 1639,5472 Z"/>
 <path fill="rgb(126,0,33)" stroke="none" d="M 3604,5299 L 3604,5549 3854,5424 3604,5299 Z"/>
 <path fill="none" stroke="rgb(126,0,33)" stroke-linejoin="round" d="M 3604,5299 L 3604,5549 3854,5424 3604,5299 Z"/>
 <path fill="rgb(126,0,33)" stroke="none" d="M 5569,5106 L 5569,5356 5819,5231 5569,5106 Z"/>
 <path fill="none" stroke="rgb(126,0,33)" stroke-linejoin="round" d="M 5569,5106 L 5569,5356 5819,5231 5569,5106 Z"/>
 <path fill="rgb(126,0,33)" stroke="none" d="M 7533,5241 L 7533,5491 7783,5366 7533,5241 Z"/>
 <path fill="none" stroke="rgb(126,0,33)" stroke-linejoin="round" d="M 7533,5241 L 7533,5491 7783,5366 7533,5241 Z"/>
 <path fill="rgb(126,0,33)" stroke="none" d="M 9498,5186 L 9498,5436 9748,5311 9498,5186 Z"/>
 <path fill="none" stroke="rgb(126,0,33)" stroke-linejoin="round" d="M 9498,5186 L 9498,5436 9748,5311 9498,5186 Z"/>
 <path fill="rgb(126,0,33)" stroke="none" d="M 11463,5127 L 11463,5377 11713,5252 11463,5127 Z"/>
 <path fill="none" stroke="rgb(126,0,33)" stroke-linejoin="round" d="M 11463,5127 L 11463,5377 11713,5252 11463,5127 Z"/>
 <path fill="rgb(126,0,33)" stroke="none" d="M 13429,5069 L 13429,5319 13679,5194 13429,5069 Z"/>
 <path fill="none" stroke="rgb(126,0,33)" stroke-linejoin="round" d="M 13429,5069 L 13429,5319 13679,5194 13429,5069 Z"/>
 <text class="TextShape"><tspan class="TextParagraph" font-family="Liberation Sans, sans-serif" font-size="353px" font-weight="400"><tspan class="TextPosition" x="1580" y="6427"><tspan fill="rgb(0,0,0)" stroke="none">10</tspan></tspan></tspan></text>
 <text class="TextShape"><tspan class="TextParagraph" font-family="Liberation Sans, sans-serif" font-size="353px" font-weight="400"><tspan class="TextPosition" x="3452" y="6427"><tspan fill="rgb(0,0,0)" stroke="none">100</tspan></tspan></tspan></text>
 <text class="TextShape"><tspan class="TextParagraph" font-family="Liberation Sans, sans-serif" font-size="353px" font-weight="400"><tspan class="TextPosition" x="5323" y="6427"><tspan fill="rgb(0,0,0)" stroke="none">1000</tspan></tspan></tspan></text>
 <text class="TextShape"><tspan class="TextParagraph" font-family="Liberation Sans, sans-serif" font-size="353px" font-weight="400"><tspan class="TextPosition" x="7196" y="6427"><tspan fill="rgb(0,0,0)" stroke="none">10000</tspan></tspan></tspan></text>
 <text class="TextShape"><tspan class="TextParagraph" font-family="Liberation Sans, sans-serif" font-size="353px" font-weight="400"><tspan class="TextPosition" x="9068" y="6427"><tspan fill="rgb(0,0,0)" stroke="none">100000</tspan></tspan></tspan></text>
 <text class="TextShape"><tspan class="TextParagraph" font-family="Liberation Sans, sans-serif" font-size="353px" font-weight="400"><tspan class="TextPosition" x="10941" y="6427"><tspan fill="rgb(0,0,0)" stroke="none">1000000</tspan></tspan></tspan></text>
 <text class="TextShape"><tspan class="TextParagraph" font-family="Liberation Sans, sans-serif" font-size="353px" font-weight="400"><tspan class="TextPosition" x="12813" y="6427"><tspan fill="rgb(0,0,0)" stroke="none">10000000</tspan></tspan></tspan></text>
 <text class="TextShape"><tspan class="TextParagraph" font-family="Liberation Sans, sans-serif" font-size="353px" font-weight="400"><tspan class="TextPosition" x="1329" y="5980"><tspan fill="rgb(0,0,0)" stroke="none">0</tspan></tspan></tspan></text>
 <text class="TextShape"><tspan class="TextParagraph" font-family="Liberation Sans, sans-serif" font-size="353px" font-weight="400"><tspan class="TextPosition" x="1329" y="5506"><tspan fill="rgb(0,0,0)" stroke="none">2</tspan></tspan></tspan></text>
 <text class="TextShape"><tspan class="TextParagraph" font-family="Liberation Sans, sans-serif" font-size="353px" font-weight="400"><tspan class="TextPosition" x="1329" y="5032"><tspan fill="rgb(0,0,0)" stroke="none">4</tspan></tspan></tspan></text>
 <text class="TextShape"><tspan class="TextParagraph" font-family="Liberation Sans, sans-serif" font-size="353px" font-weight="400"><tspan class="TextPosition" x="1329" y="4558"><tspan fill="rgb(0,0,0)" stroke="none">6</tspan></tspan></tspan></text>
 <text class="TextShape"><tspan class="TextParagraph" font-family="Liberation Sans, sans-serif" font-size="353px" font-weight="400"><tspan class="TextPosition" x="1329" y="4084"><tspan fill="rgb(0,0,0)" stroke="none">8</tspan></tspan></tspan></text>
 <text class="TextShape"><tspan class="TextParagraph" font-family="Liberation Sans, sans-serif" font-size="353px" font-weight="400"><tspan class="TextPosition" x="1144" y="3611"><tspan fill="rgb(0,0,0)" stroke="none">10</tspan></tspan></tspan></text>
 <text class="TextShape"><tspan class="TextParagraph" font-family="Liberation Sans, sans-serif" font-size="353px" font-weight="400"><tspan class="TextPosition" x="1144" y="3137"><tspan fill="rgb(0,0,0)" stroke="none">12</tspan></tspan></tspan></text>
 <text class="TextShape"><tspan class="TextParagraph" font-family="Liberation Sans, sans-serif" font-size="353px" font-weight="400"><tspan class="TextPosition" x="1144" y="2663"><tspan fill="rgb(0,0,0)" stroke="none">14</tspan></tspan></tspan></text>
 <text class="TextShape"><tspan class="TextParagraph" font-family="Liberation Sans, sans-serif" font-size="353px" font-weight="400"><tspan class="TextPosition" x="1144" y="2190"><tspan fill="rgb(0,0,0)" stroke="none">16</tspan></tspan></tspan></text>
 <text class="TextShape"><tspan class="TextParagraph" font-family="Liberation Sans, sans-serif" font-size="353px" font-weight="400"><tspan class="TextPosition" x="1144" y="1717"><tspan fill="rgb(0,0,0)" stroke="none">18</tspan></tspan></tspan></text>
 <text class="TextShape"><tspan class="TextParagraph" font-family="Segoe UI" font-size="459px" font-weight="700"><tspan class="TextPosition" x="3140" y="939"><tspan fill="rgb(0,0,0)" stroke="none">Full refill/teardown in bulks of 10 items</tspan></tspan></tspan></text>
 <path fill="none" stroke="rgb(0,69,134)" stroke-width="80" stroke-linejoin="round" d="M 1089,8002 L 1889,8002"/>
 <path fill="rgb(0,69,134)" stroke="none" d="M 1383,7897 L 1383,8108 1594,8108 1594,7897 1383,7897 Z"/>
 <path fill="none" stroke="rgb(0,69,134)" stroke-linejoin="round" d="M 1383,7897 L 1383,8108 1594,8108 1594,7897 1383,7897 Z"/>
 <path fill="none" stroke="rgb(255,66,14)" stroke-width="80" stroke-linejoin="round" d="M 7540,8002 L 8340,8002"/>
 <path fill="rgb(255,66,14)" stroke="none" d="M 7834,8108 L 8045,8108 7834,7897 8045,7897 7834,8108 Z"/>
 <path fill="none" stroke="rgb(255,66,14)" stroke-linejoin="round" d="M 7834,8108 L 8045,8108 7834,7897 8045,7897 7834,8108 Z"/>
 <path fill="none" stroke="rgb(255,211,32)" stroke-width="80" stroke-linejoin="round" d="M 1089,8500 L 1889,8500"/>
 <path fill="rgb(255,211,32)" stroke="none" d="M 1594,8500 L 1594,8495 1594,8491 1593,8486 1592,8482 1591,8477 1590,8473 1589,8468 1588,8464 1586,8460 1584,8455 1582,8451 1580,8447 1577,8443 1575,8439 1572,8436 1569,8432 1566,8429 1563,8425 1560,8422 1556,8419 1553,8416 1549,8414 1545,8411 1541,8409 1537,8406 1533,8404 1529,8403 1525,8401 1520,8399 1516,8398 1511,8397 1507,8396 1502,8395 1498,8395 1493,8395 1489,8395 1484,8395 1479,8395 1475,8395 1470,8396 1466,8397 1461,8398 1457,8399 1452,8401 1448,8403 1444,8404 1440,8406 1436,8409 1432,8411 1428,8414 1424,8416 1421,8419 1417,8422 1414,8425 1411,8429 1408,8432 1405,8436 1402,8439 1400,8443 1397,8447 1395,8451 1393,8455 1391,8460 1389,8464 1388,8468 1387,8473 1386,8477 1385,8482 1384,8486 1383,8491 1383,8495 1383,8500 1383,8505 1383,8509 1384,8514 1385,8518 1386,8523 1387,8527 1388,8532 1389,8536 1391,8540 1393,8545 1395,8549 1397,8553 1400,8557 1402,8561 1405,8564 1408,8568 1411,8571 1414,8575 1417,8578 1421,8581 1424,8584 1428,8586 1432,8589 1436,8591 1440,8594 1444,8596 1448,8597 1452,8599 1457,8601 1461,8602 1466,8603 1470,8604 1475,8605 1479,8605 1484,8605 1489,8606 1493,8605 1498,8605 1502,8605 1507,8604 1511,8603 1516,8602 1520,8601 1525,8599 1529,8597 1533,8596 1537,8594 1541,8591 1545,8589 1549,8586 1553,8584 1556,8581 1560,8578 1563,8575 1566,8571 1569,8568 1572,8564 1575,8561 1577,8557 1580,8553 1582,8549 1584,8545 1586,8540 1588,8536 1589,8532 1590,8527 1591,8523 1592,8518 1593,8514 1594,8509 1594,8505 1594,8500 Z"/>
 <path fill="none" stroke="rgb(255,211,32)" stroke-linejoin="round" d="M 1594,8500 L 1594,8495 1594,8491 1593,8486 1592,8482 1591,8477 1590,8473 1589,8468 1588,8464 1586,8460 1584,8455 1582,8451 1580,8447 1577,8443 1575,8439 1572,8436 1569,8432 1566,8429 1563,8425 1560,8422 1556,8419 1553,8416 1549,8414 1545,8411 1541,8409 1537,8406 1533,8404 1529,8403 1525,8401 1520,8399 1516,8398 1511,8397 1507,8396 1502,8395 1498,8395 1493,8395 1489,8395 1484,8395 1479,8395 1475,8395 1470,8396 1466,8397 1461,8398 1457,8399 1452,8401 1448,8403 1444,8404 1440,8406 1436,8409 1432,8411 1428,8414 1424,8416 1421,8419 1417,8422 1414,8425 1411,8429 1408,8432 1405,8436 1402,8439 1400,8443 1397,8447 1395,8451 1393,8455 1391,8460 1389,8464 1388,8468 1387,8473 1386,8477 1385,8482 1384,8486 1383,8491 1383,8495 1383,8500 1383,8505 1383,8509 1384,8514 1385,8518 1386,8523 1387,8527 1388,8532 1389,8536 1391,8540 1393,8545 1395,8549 1397,8553 1400,8557 1402,8561 1405,8564 1408,8568 1411,8571 1414,8575 1417,8578 1421,8581 1424,8584 1428,8586 1432,8589 1436,8591 1440,8594 1444,8596 1448,8597 1452,8599 1457,8601 1461,8602 1466,8603 1470,8604 1475,8605 1479,8605 1484,8605 1489,8606 1493,8605 1498,8605 1502,8605 1507,8604 1511,8603 1516,8602 1520,8601 1525,8599 1529,8597 1533,8596 1537,8594 1541,8591 1545,8589 1549,8586 1553,8584 1556,8581 1560,8578 1563,8575 1566,8571 1569,8568 1572,8564 1575,8561 1577,8557 1580,8553 1582,8549 1584,8545 1586,8540 1588,8536 1589,8532 1590,8527 1591,8523 1592,8518 1593,8514 1594,8509 1594,8505 1594,8500 Z"/>
 <path fill="none" stroke="rgb(87,157,28)" stroke-width="80" stroke-linejoin="round" d="M 7540,8500 L 8340,8500"/>
 <path fill="rgb(87,157,28)" stroke="none" d="M 7940,8395 L 7961,8479 8045,8500 7961,8521 7940,8606 7918,8521 7834,8500 7918,8479 7940,8395 Z"/>
 <path fill="none" stroke="rgb(87,157,28)" stroke-linejoin="round" d="M 7940,8395 L 7961,8479 8045,8500 7961,8521 7940,8606 7918,8521 7834,8500 7918,8479 7940,8395 Z"/>
 <path fill="none" stroke="rgb(126,0,33)" stroke-width="80" stroke-linejoin="round" d="M 1089,8998 L 1889,8998"/>
 <path fill="rgb(126,0,33)" stroke="none" d="M 1383,8893 L 1383,9104 1594,8998 1383,8893 Z"/>
 <path fill="none" stroke="rgb(126,0,33)" stroke-linejoin="round" d="M 1383,8893 L 1383,9104 1594,8998 1383,8893 Z"/>
 <text class="TextShape"><tspan class="TextParagraph" font-family="Liberation Sans, sans-serif" font-size="353px" font-weight="400"><tspan class="TextPosition" x="1989" y="8122"><tspan fill="rgb(0,0,0)" stroke="none">TeardownSet::delete_range()         </tspan></tspan></tspan></text>
 <text class="TextShape"><tspan class="TextParagraph" font-family="Liberation Sans, sans-serif" font-size="353px" font-weight="400"><tspan class="TextPosition" x="8440" y="8122"><tspan fill="rgb(0,0,0)" stroke="none">Treap::remove_range()               </tspan></tspan></tspan></text>
 <text class="TextShape"><tspan class="TextParagraph" font-family="Liberation Sans, sans-serif" font-size="353px" font-weight="400"><tspan class="TextPosition" x="1989" y="8620"><tspan fill="rgb(0,0,0)" stroke="none">BTreeSet::remove()                  </tspan></tspan></tspan></text>
 <text class="TextShape"><tspan class="TextParagraph" font-family="Liberation Sans, sans-serif" font-size="353px" font-weight="400"><tspan class="TextPosition" x="8440" y="8620"><tspan fill="rgb(0,0,0)" stroke="none">SplayTree::remove_range()           </tspan></tspan></tspan></text>
 <text class="TextShape"><tspan class="TextParagraph" font-family="Liberation Sans, sans-serif" font-size="353px" font-weight="400"><tspan class="TextPosition" x="1989" y="9118"><tspan fill="rgb(0,0,0)" stroke="none">TeardownSet::delete()               </tspan></tspan></tspan></text>
 <text class="TextShape"><tspan class="TextParagraph" font-family="Segoe UI" font-size="318px" font-weight="700"><tspan class="TextPosition" x="7786" y="7111"><tspan fill="rgb(0,0,0)" stroke="none">N</tspan></tspan></tspan></text>
 <text class="TextShape" transform="translate(860,4918) rotate(-90) translate(-860,-4918)"><tspan class="TextParagraph" font-family="Segoe UI" font-size="318px" font-weight="700"><tspan class="TextPosition" x="860" y="4918"><tspan fill="rgb(0,0,0)" stroke="none">Times slower</tspan></tspan></tspan></text>
</svg>