<?xml version="1.0" encoding="UTF-8"?>
<!DOCTYPE svg PUBLIC "-//W3C//DTD SVG 1.1//EN" "http://www.w3.org/Graphics/SVG/1.1/DTD/svg11.dtd">
<svg width="148mm" height="95mm" viewBox="0 0 14800 9500" version="1.1" xmlns="http://www.w3.org/2000/svg" stroke-width="28.222" stroke-linejoin="round" xml:space="preserve">
 <path fill="rgb(255,255,255)" stroke="none" d="M 7387,9474 L -5,9474 -5,0 14778,0 14778,9474 7387,9474 Z"/>
 <path fill="none" stroke="rgb(0,0,0)" stroke-linejoin="round" d="M 7387,9474 L -5,9474 -5,0 14778,0 14778,9474 7387,9474 Z"/>
 <path fill="none" stroke="rgb(179,179,179)" stroke-linejoin="round" d="M 7844,5851 L 1949,5851 1949,1598 13740,1598 13740,5851 7844,5851 Z"/>
 <path fill="none" stroke="rgb(179,179,179)" stroke-linejoin="round" d="M 13740,5850 L 1949,5850"/>
 <path fill="none" stroke="rgb(179,179,179)" stroke-linejoin="round" d="M 13740,5377 L 1949,5377"/>
 <path fill="none" stroke="rgb(179,179,179)" stroke-linejoin="round" d="M 13740,4904 L 1949,4904"/>
 <path fill="none" stroke="rgb(179,179,179)" stroke-linejoin="round" d="M 13740,4433 L 1949,4433"/>
 <path fill="none" stroke="rgb(179,179,179)" stroke-linejoin="round" d="M 13740,3960 L 1949,3960"/>
 <path fill="none" stroke="rgb(179,179,179)" stroke-linejoin="round" d="M 13740,3487 L 1949,3487"/>
 <path fill="none" stroke="rgb(179,179,179)" stroke-linejoin="round" d="M 13740,3015 L 1949,3015"/>
 <path fill="none" stroke="rgb(179,179,179)" stroke-linejoin="round" d="M 13740,2542 L 1949,2542"/>
 <path fill="none" stroke="rgb(179,179,179)" stroke-linejoin="round" d="M 13740,2069 L 1949,2069"/>
 <path fill="none" stroke="rgb(179,179,179)" stroke-linejoin="round" d="M 13740,1597 L 1949,1597"/>
 <path fill="none" stroke="rgb(179,179,179)" stroke-linejoin="round" d="M 1949,6000 L 1949,5850"/>
 <path fill="none" stroke="rgb(179,179,179)" stroke-linejoin="round" d="M 1949,6000 L 1949,5850"/>
 <path fill="none" stroke="rgb(179,179,179)" stroke-linejoin="round" d="M 4897,6000 L 4897,5850"/>
 <path fill="none" stroke="rgb(179,179,179)" stroke-linejoin="round" d="M 4897,6000 L 4897,5850"/>
 <path fill="none" stroke="rgb(179,179,179)" stroke-linejoin="round" d="M 7844,6000 L 7844,5850"/>
 <path fill="none" stroke="rgb(179,179,179)" stroke-linejoin="round" d="M 7844,6000 L 7844,5850"/>
 <path fill="none" stroke="rgb(179,179,179)" stroke-linejoin="round" d="M 10792,6000 L 10792,5850"/>
 <path fill="none" stroke="rgb(179,179,179)" stroke-linejoin="round" d="M 10792,6000 L 10792,5850"/>
 <path fill="none" stroke="rgb(179,179,179)" stroke-linejoin="round" d="M 13740,6000 L 13740,5850"/>
 <path fill="none" stroke="rgb(179,179,179)" stroke-linejoin="round" d="M 13740,6000 L 13740,5850"/>
 <path fill="none" stroke="rgb(179,179,179)" stroke-linejoin="round" d="M 1949,5850 L 13740,5850"/>
 <path fill="none" stroke="rgb(179,179,179)" stroke-linejoin="round" d="M 1799,5850 L 1949,5850"/>
 <path fill="none" stroke="rgb(179,179,179)" stroke-linejoin="round" d="M 1799,5850 L 1949,5850"/>
 <path fill="none" stroke="rgb(179,179,179)" stroke-linejoin="round" d="M 1799,5377 L 1949,5377"/>
 <path fill="none" stroke="rgb(179,179,179)" stroke-linejoin="round" d="M 1799,5377 L 1949,5377"/>
 <path fill="none" stroke="rgb(179,179,179)" stroke-linejoin="round" d="M 1799,4904 L 1949,4904"/>
 <path fill="none" stroke="rgb(179,179,179)" stroke-linejoin="round" d="M 1799,4904 L 1949,4904"/>
 <path fill="none" stroke="rgb(179,179,179)" stroke-linejoin="round" d="M 1799,4433 L 1949,4433"/>
 <path fill="none" stroke="rgb(179,179,179)" stroke-linejoin="round" d="M 1799,4433 L 1949,4433"/>
 <path fill="none" stroke="rgb(179,179,179)" stroke-linejoin="round" d="M 1799,3960 L 1949,3960"/>
 <path fill="none" stroke="rgb(179,179,179)" stroke-linejoin="round" d="M 1799,3960 L 1949,3960"/>
 <path fill="none" stroke="rgb(179,179,179)" stroke-linejoin="round" d="M 1799,3487 L 1949,3487"/>
 <path fill="none" stroke="rgb(179,179,179)" stroke-linejoin="round" d="M 1799,3487 L 1949,3487"/>
 <path fill="none" stroke="rgb(179,179,179)" stroke-linejoin="round" d="M 1799,3014 L 1949,3014"/>
 <path fill="none" stroke="rgb(179,179,179)" stroke-linejoin="round" d="M 1799,3014 L 1949,3014"/>
 <path fill="none" stroke="rgb(179,179,179)" stroke-linejoin="round" d="M 1799,2542 L 1949,2542"/>
 <path fill="none" stroke="rgb(179,179,179)" stroke-linejoin="round" d="M 1799,2542 L 1949,2542"/>
 <path fill="none" stroke="rgb(179,179,179)" stroke-linejoin="round" d="M 1799,2069 L 1949,2069"/>
 <path fill="none" stroke="rgb(179,179,179)" stroke-linejoin="round" d="M 1799,2069 L 1949,2069"/>
 <path fill="none" stroke="rgb(179,179,179)" stroke-linejoin="round" d="M 1799,1597 L 1949,1597"/>
 <path fill="none" stroke="rgb(179,179,179)" stroke-linejoin="round" d="M 1799,1597 L 1949,1597"/>
 <path fill="none" stroke="rgb(179,179,179)" stroke-linejoin="round" d="M 1949,5850 L 1949,1597"/>
 <path fill="none" stroke="rgb(0,69,134)" stroke-width="80" stroke-linejoin="round" d="M 1949,5755 L 4897,5755 7844,5755 10792,5755 13740,5755"/>
 <path fill="rgb(0,69,134)" stroke="none" d="M 1824,5630 L 1824,5880 2074,5880 2074,5630 1824,5630 Z"/>
 <path fill="none" stroke="rgb(0,69,134)" stroke-linejoin="round" d="M 1824,5630 L 1824,5880 2074,5880 2074,5630 1824,5630 Z"/>
 <path fill="rgb(0,69,134)" stroke="none" d="M 4772,5630 L 4772,5880 5022,5880 5022,5630 4772,5630 Z"/>
 <path fill="none" stroke="rgb(0,69,134)" stroke-linejoin="round" d="M 4772,5630 L 4772,5880 5022,5880 5022,5630 4772,5630 Z"/>
 <path fill="rgb(0,69,134)" stroke="none" d="M 7719,5630 L 7719,5880 7969,5880 7969,5630 7719,5630 Z"/>
 <path fill="none" stroke="rgb(0,69,134)" stroke-linejoin="round" d="M 7719,5630 L 7719,5880 7969,5880 7969,5630 7719,5630 Z"/>
 <path fill="rgb(0,69,134)" stroke="none" d="M 10667,5630 L 10667,5880 10917,5880 10917,5630 10667,5630 Z"/>
 <path fill="none" stroke="rgb(0,69,134)" stroke-linejoin="round" d="M 10667,5630 L 10667,5880 10917,5880 10917,5630 10667,5630 Z"/>
 <path fill="rgb(0,69,134)" stroke="none" d="M 13615,5630 L 13615,5880 13865,5880 13865,5630 13615,5630 Z"/>
 <path fill="none" stroke="rgb(0,69,134)" stroke-linejoin="round" d="M 13615,5630 L 13615,5880 13865,5880 13865,5630 13615,5630 Z"/>
 <path fill="none" stroke="rgb(255,66,14)" stroke-width="80" stroke-linejoin="round" d="M 1949,4141 L 4897,3663 7844,3244 10792,2030 13740,2519"/>
 <path fill="rgb(255,66,14)" stroke="none" d="M 1824,4266 L 2074,4266 1824,4016 2074,4016 1824,4266 Z"/>
 <path fill="none" stroke="rgb(255,66,14)" stroke-linejoin="round" d="M 1824,4266 L 2074,4266 1824,4016 2074,4016 1824,4266 Z"/>
 <path fill="rgb(255,66,14)" stroke="none" d="M 4772,3788 L 5022,3788 4772,3538 5022,3538 4772,3788 Z"/>
 <path fill="none" stroke="rgb(255,66,14)" stroke-linejoin="round" d="M 4772,3788 L 5022,3788 4772,3538 5022,3538 4772,3788 Z"/>
 <path fill="rgb(255,66,14)" stroke="none" d="M 7719,3369 L 7969,3369 7719,3119 7969,3119 7719,3369 Z"/>
 <path fill="none" stroke="rgb(255,66,14)" stroke-linejoin="round" d="M 7719,3369 L 7969,3369 7719,3119 7969,3119 7719,3369 Z"/>
 <path fill="rgb(255,66,14)" stroke="none" d="M 10667,2155 L 10917,2155 10667,1905 10917,1905 10667,2155 Z"/>
 <path fill="none" stroke="rgb(255,66,14)" stroke-linejoin="round" d="M 10667,2155 L 10917,2155 10667,1905 10917,1905 10667,2155 Z"/>
 <path fill="rgb(255,66,14)" stroke="none" d="M 13615,2644 L 13865,2644 13615,2394 13865,2394 13615,2644 Z"/>
 <path fill="none" stroke="rgb(255,66,14)" stroke-linejoin="round" d="M 13615,2644 L 13865,2644 13615,2394 13865,2394 13615,2644 Z"/>
 <path fill="none" stroke="rgb(255,211,32)" stroke-width="80" stroke-linejoin="round" d="M 1949,5041 L 4897,4277 7844,4029 10792,3708 13740,3871"/>
 <path fill="rgb(255,211,32)" stroke="none" d="M 2074,5041 L 2073,5035 2073,5030 2072,5025 2072,5019 2071,5014 2069,5009 2068,5003 2066,4998 2064,4993 2062,4988 2059,4983 2057,4978 2054,4974 2051,4969 2048,4965 2044,4961 2041,4956 2037,4952 2033,4949 2029,4945 2025,4942 2020,4938 2016,4935 2011,4933 2006,4930 2001,4928 1996,4925 1991,4923 1986,4922 1981,4920 1976,4919 1970,4918 1965,4917 1959,4916 1954,4916 1949,4916 1943,4916 1938,4916 1932,4917 1927,4918 1921,4919 1916,4920 1911,4922 1906,4923 1901,4925 1896,4928 1891,4930 1886,4933 1881,4935 1877,4938 1872,4942 1868,4945 1864,4949 1860,4952 1856,4956 1853,4961 1849,4965 1846,4969 1843,4974 1840,4978 1838,4983 1835,4988 1833,4993 1831,4998 1829,5003 1828,5009 1826,5014 1825,5019 1825,5025 1824,5030 1824,5035 1824,5041 1824,5046 1824,5052 1825,5057 1825,5063 1826,5068 1828,5073 1829,5078 1831,5084 1833,5089 1835,5094 1838,5099 1840,5103 1843,5108 1846,5113 1849,5117 1853,5121 1856,5125 1860,5129 1864,5133 1868,5137 1872,5140 1877,5143 1881,5146 1886,5149 1891,5152 1896,5154 1901,5156 1906,5158 1911,5160 1916,5162 1921,5163 1927,5164 1932,5165 1938,5165 1943,5166 1949,5166 1954,5166 1959,5165 1965,5165 1970,5164 1976,5163 1981,5162 1986,5160 1991,5158 1996,5156 2001,5154 2006,5152 2011,5149 2016,5146 2020,5143 2025,5140 2029,5137 2033,5133 2037,5129 2041,5125 2044,5121 2048,5117 2051,5113 2054,5108 2057,5103 2059,5099 2062,5094 2064,5089 2066,5084 2068,5078 2069,5073 2071,5068 2072,5063 2072,5057 2073,5052 2073,5046 2074,5041 Z"/>
 <path fill="none" stroke="rgb(255,211,32)" stroke-linejoin="round" d="M 2074,5041 L 2073,5035 2073,5030 2072,5025 2072,5019 2071,5014 2069,5009 2068,5003 2066,4998 2064,4993 2062,4988 2059,4983 2057,4978 2054,4974 2051,4969 2048,4965 2044,4961 2041,4956 2037,4952 2033,4949 2029,4945 2025,4942 2020,4938 2016,4935 2011,4933 2006,4930 2001,4928 1996,4925 1991,4923 1986,4922 1981,4920 1976,4919 1970,4918 1965,4917 1959,4916 1954,4916 1949,4916 1943,4916 1938,4916 1932,4917 1927,4918 1921,4919 1916,4920 1911,4922 1906,4923 1901,4925 1896,4928 1891,4930 1886,4933 1881,4935 1877,4938 1872,4942 1868,4945 1864,4949 1860,4952 1856,4956 1853,4961 1849,4965 1846,4969 1843,4974 1840,4978 1838,4983 1835,4988 1833,4993 1831,4998 1829,5003 1828,5009 1826,5014 1825,5019 1825,5025 1824,5030 1824,5035 1824,5041 1824,5046 1824,5052 1825,5057 1825,5063 1826,5068 1828,5073 1829,5078 1831,5084 1833,5089 1835,5094 1838,5099 1840,5103 1843,5108 1846,5113 1849,5117 1853,5121 1856,5125 1860,5129 1864,5133 1868,5137 1872,5140 1877,5143 1881,5146 1886,5149 1891,5152 1896,5154 1901,5156 1906,5158 1911,5160 1916,5162 1921,5163 1927,5164 1932,5165 1938,5165 1943,5166 1949,5166 1954,5166 1959,5165 1965,5165 1970,5164 1976,5163 1981,5162 1986,5160 1991,5158 1996,5156 2001,5154 2006,5152 2011,5149 2016,5146 2020,5143 2025,5140 2029,5137 2033,5133 2037,5129 2041,5125 2044,5121 2048,5117 2051,5113 2054,5108 2057,5103 2059,5099 2062,5094 2064,5089 2066,5084 2068,5078 2069,5073 2071,5068 2072,5063 2072,5057 2073,5052 2073,5046 2074,5041 Z"/>
 <path fill="rgb(255,211,32)" stroke="none" d="M 5022,4277 L 5021,4271 5021,4266 5020,4261 5020,4255 5019,4250 5017,4244 5016,4239 5014,4234 5012,4229 5010,4224 5007,4219 5005,4214 5002,4210 4999,4205 4996,4201 4992,4196 4989,4192 4985,4188 4981,4185 4977,4181 4973,4178 4968,4174 4964,4171 4959,4169 4954,4166 4949,4164 4944,4161 4939,4159 4934,4158 4929,4156 4924,4155 4918,4154 4913,4153 4907,4152 4902,4152 4897,4152 4891,4152 4886,4152 4880,4153 4875,4154 4869,4155 4864,4156 4859,4158 4854,4159 4849,4161 4844,4164 4839,4166 4834,4169 4829,4171 4825,4174 4820,4178 4816,4181 4812,4185 4808,4188 4804,4192 4801,4196 4797,4201 4794,4205 4791,4210 4788,4214 4786,4219 4783,4224 4781,4229 4779,4234 4777,4239 4776,4244 4774,4250 4773,4255 4773,4261 4772,4266 4772,4271 4772,4277 4772,4282 4772,4288 4773,4293 4773,4299 4774,4304 4776,4309 4777,4314 4779,4320 4781,4325 4783,4330 4786,4335 4788,4339 4791,4344 4794,4349 4797,4353 4801,4357 4804,4361 4808,4365 4812,4369 4816,4373 4820,4376 4825,4379 4829,4382 4834,4385 4839,4388 4844,4390 4849,4392 4854,4394 4859,4396 4864,4398 4869,4399 4875,4400 4880,4401 4886,4401 4891,4402 4897,4402 4902,4402 4907,4401 4913,4401 4918,4400 4924,4399 4929,4398 4934,4396 4939,4394 4944,4392 4949,4390 4954,4388 4959,4385 4964,4382 4968,4379 4973,4376 4977,4373 4981,4369 4985,4365 4989,4361 4992,4357 4996,4353 4999,4349 5002,4344 5005,4339 5007,4335 5010,4330 5012,4325 5014,4320 5016,4314 5017,4309 5019,4304 5020,4299 5020,4293 5021,4288 5021,4282 5022,4277 Z"/>
 <path fill="none" stroke="rgb(255,211,32)" stroke-linejoin="round" d="M 5022,4277 L 5021,4271 5021,4266 5020,4261 5020,4255 5019,4250 5017,4244 5016,4239 5014,4234 5012,4229 5010,4224 5007,4219 5005,4214 5002,4210 4999,4205 4996,4201 4992,4196 4989,4192 4985,4188 4981,4185 4977,4181 4973,4178 4968,4174 4964,4171 4959,4169 4954,4166 4949,4164 4944,4161 4939,4159 4934,4158 4929,4156 4924,4155 4918,4154 4913,4153 4907,4152 4902,4152 4897,4152 4891,4152 4886,4152 4880,4153 4875,4154 4869,4155 4864,4156 4859,4158 4854,4159 4849,4161 4844,4164 4839,4166 4834,4169 4829,4171 4825,4174 4820,4178 4816,4181 4812,4185 4808,4188 4804,4192 4801,4196 4797,4201 4794,4205 4791,4210 4788,4214 4786,4219 4783,4224 4781,4229 4779,4234 4777,4239 4776,4244 4774,4250 4773,4255 4773,4261 4772,4266 4772,4271 4772,4277 4772,4282 4772,4288 4773,4293 4773,4299 4774,4304 4776,4309 4777,4314 4779,4320 4781,4325 4783,4330 4786,4335 4788,4339 4791,4344 4794,4349 4797,4353 4801,4357 4804,4361 4808,4365 4812,4369 4816,4373 4820,4376 4825,4379 4829,4382 4834,4385 4839,4388 4844,4390 4849,4392 4854,4394 4859,4396 4864,4398 4869,4399 4875,4400 4880,4401 4886,4401 4891,4402 4897,4402 4902,4402 4907,4401 4913,4401 4918,4400 4924,4399 4929,4398 4934,4396 4939,4394 4944,4392 4949,4390 4954,4388 4959,4385 4964,4382 4968,4379 4973,4376 4977,4373 4981,4369 4985,4365 4989,4361 4992,4357 4996,4353 4999,4349 5002,4344 5005,4339 5007,4335 5010,4330 5012,4325 5014,4320 5016,4314 5017,4309 5019,4304 5020,4299 5020,4293 5021,4288 5021,4282 5022,4277 Z"/>
 <path fill="rgb(255,211,32)" stroke="none" d="M 7969,4029 L 7968,4023 7968,4018 7967,4013 7967,4007 7966,4002 7964,3996 7963,3991 7961,3986 7959,3981 7957,3976 7954,3971 7952,3966 7949,3962 7946,3957 7943,3953 7939,3948 7936,3944 7932,3940 7928,3937 7924,3933 7920,3930 7915,3926 7911,3923 7906,3921 7901,3918 7896,3916 7891,3913 7886,3911 7881,3910 7876,3908 7871,3907 7865,3906 7860,3905 7854,3904 7849,3904 7844,3904 7838,3904 7833,3904 7827,3905 7822,3906 7816,3907 7811,3908 7806,3910 7801,3911 7796,3913 7791,3916 7786,3918 7781,3921 7776,3923 7772,3926 7767,3930 7763,3933 7759,3937 7755,3940 7751,3944 7748,3948 7744,3953 7741,3957 7738,3962 7735,3966 7733,3971 7730,3976 7728,3981 7726,3986 7724,3991 7723,3996 7721,4002 7720,4007 7720,4013 7719,4018 7719,4023 7719,4029 7719,4034 7719,4040 7720,4045 7720,4051 7721,4056 7723,4061 7724,4066 7726,4072 7728,4077 7730,4082 7733,4087 7735,4091 7738,4096 7741,4101 7744,4105 7748,4109 7751,4113 7755,4117 7759,4121 7763,4125 7767,4128 7772,4131 7776,4134 7781,4137 7786,4140 7791,4142 7796,4144 7801,4146 7806,4148 7811,4150 7816,4151 7822,4152 7827,4153 7833,4153 7838,4154 7844,4154 7849,4154 7854,4153 7860,4153 7865,4152 7871,4151 7876,4150 7881,4148 7886,4146 7891,4144 7896,4142 7901,4140 7906,4137 7911,4134 7915,4131 7920,4128 7924,4125 7928,4121 7932,4117 7936,4113 7939,4109 7943,4105 7946,4101 7949,4096 7952,4091 7954,4087 7957,4082 7959,4077 7961,4072 7963,4066 7964,4061 7966,4056 7967,4051 7967,4045 7968,4040 7968,4034 7969,4029 Z"/>
 <path fill="none" stroke="rgb(255,211,32)" stroke-linejoin="round" d="M 7969,4029 L 7968,4023 7968,4018 7967,4013 7967,4007 7966,4002 7964,3996 7963,3991 7961,3986 7959,3981 7957,3976 7954,3971 7952,3966 7949,3962 7946,3957 7943,3953 7939,3948 7936,3944 7932,3940 7928,3937 7924,3933 7920,3930 7915,3926 7911,3923 7906,3921 7901,3918 7896,3916 7891,3913 7886,3911 7881,3910 7876,3908 7871,3907 7865,3906 7860,3905 7854,3904 7849,3904 7844,3904 7838,3904 7833,3904 7827,3905 7822,3906 7816,3907 7811,3908 7806,3910 7801,3911 7796,3913 7791,3916 7786,3918 7781,3921 7776,3923 7772,3926 7767,3930 7763,3933 7759,3937 7755,3940 7751,3944 7748,3948 7744,3953 7741,3957 7738,3962 7735,3966 7733,3971 7730,3976 7728,3981 7726,3986 7724,3991 7723,3996 7721,4002 7720,4007 7720,4013 7719,4018 7719,4023 7719,4029 7719,4034 7719,4040 7720,4045 7720,4051 7721,4056 7723,4061 7724,4066 7726,4072 7728,4077 7730,4082 7733,4087 7735,4091 7738,4096 7741,4101 7744,4105 7748,4109 7751,4113 7755,4117 7759,4121 7763,4125 7767,4128 7772,4131 7776,4134 7781,4137 7786,4140 7791,4142 7796,4144 7801,4146 7806,4148 7811,4150 7816,4151 7822,4152 7827,4153 7833,4153 7838,4154 7844,4154 7849,4154 7854,4153 7860,4153 7865,4152 7871,4151 7876,4150 7881,4148 7886,4146 7891,4144 7896,4142 7901,4140 7906,4137 7911,4134 7915,4131 7920,4128 7924,4125 7928,4121 7932,4117 7936,4113 7939,4109 7943,4105 7946,4101 7949,4096 7952,4091 7954,4087 7957,4082 7959,4077 7961,4072 7963,4066 7964,4061 7966,4056 7967,4051 7967,4045 7968,4040 7968,4034 7969,4029 Z"/>
 <path fill="rgb(255,211,32)" stroke="none" d="M 10917,3708 L 10916,3702 10916,3697 10915,3692 10915,3686 10914,3681 10912,3675 10911,3670 10909,3665 10907,3660 10905,3655 10902,3650 10900,3645 10897,3641 10894,3636 10891,3632 10887,3627 10884,3623 10880,3619 10876,3616 10872,3612 10868,3609 10863,3605 10859,3602 10854,3600 10849,3597 10844,3595 10839,3592 10834,3590 10829,3589 10824,3587 10819,3586 10813,3585 10808,3584 10802,3583 10797,3583 10792,3583 10786,3583 10781,3583 10775,3584 10770,3585 10764,3586 10759,3587 10754,3589 10749,3590 10744,3592 10739,3595 10734,3597 10729,3600 10724,3602 10720,3605 10715,3609 10711,3612 10707,3616 10703,3619 10699,3623 10696,3627 10692,3632 10689,3636 10686,3641 10683,3645 10681,3650 10678,3655 10676,3660 10674,3665 10672,3670 10671,3675 10669,3681 10668,3686 10668,3692 10667,3697 10667,3702 10667,3708 10667,3713 10667,3719 10668,3724 10668,3730 10669,3735 10671,3740 10672,3745 10674,3751 10676,3756 10678,3761 10681,3766 10683,3770 10686,3775 10689,3780 10692,3784 10696,3788 10699,3792 10703,3796 10707,3800 10711,3804 10715,3807 10720,3810 10724,3813 10729,3816 10734,3819 10739,3821 10744,3823 10749,3825 10754,3827 10759,3829 10764,3830 10770,3831 10775,3832 10781,3832 10786,3833 10792,3833 10797,3833 10802,3832 10808,3832 10813,3831 10819,3830 10824,3829 10829,3827 10834,3825 10839,3823 10844,3821 10849,3819 10854,3816 10859,3813 10863,3810 10868,3807 10872,3804 10876,3800 10880,3796 10884,3792 10887,3788 10891,3784 10894,3780 10897,3775 10900,3770 10902,3766 10905,3761 10907,3756 10909,3751 10911,3745 10912,3740 10914,3735 10915,3730 10915,3724 10916,3719 10916,3713 10917,3708 Z"/>
 <path fill="none" stroke="rgb(255,211,32)" stroke-linejoin="round" d="M 10917,3708 L 10916,3702 10916,3697 10915,3692 10915,3686 10914,3681 10912,3675 10911,3670 10909,3665 10907,3660 10905,3655 10902,3650 10900,3645 10897,3641 10894,3636 10891,3632 10887,3627 10884,3623 10880,3619 10876,3616 10872,3612 10868,3609 10863,3605 10859,3602 10854,3600 10849,3597 10844,3595 10839,3592 10834,3590 10829,3589 10824,3587 10819,3586 10813,3585 10808,3584 10802,3583 10797,3583 10792,3583 10786,3583 10781,3583 10775,3584 10770,3585 10764,3586 10759,3587 10754,3589 10749,3590 10744,3592 10739,3595 10734,3597 10729,3600 10724,3602 10720,3605 10715,3609 10711,3612 10707,3616 10703,3619 10699,3623 10696,3627 10692,3632 10689,3636 10686,3641 10683,3645 10681,3650 10678,3655 10676,3660 10674,3665 10672,3670 10671,3675 10669,3681 10668,3686 10668,3692 10667,3697 10667,3702 10667,3708 10667,3713 10667,3719 10668,3724 10668,3730 10669,3735 10671,3740 10672,3745 10674,3751 10676,3756 10678,3761 10681,3766 10683,3770 10686,3775 10689,3780 10692,3784 10696,3788 10699,3792 10703,3796 10707,3800 10711,3804 10715,3807 10720,3810 10724,3813 10729,3816 10734,3819 10739,3821 10744,3823 10749,3825 10754,3827 10759,3829 10764,3830 10770,3831 10775,3832 10781,3832 10786,3833 10792,3833 10797,3833 10802,3832 10808,3832 10813,3831 10819,3830 10824,3829 10829,3827 10834,3825 10839,3823 10844,3821 10849,3819 10854,3816 10859,3813 10863,3810 10868,3807 10872,3804 10876,3800 10880,3796 10884,3792 10887,3788 10891,3784 10894,3780 10897,3775 10900,3770 10902,3766 10905,3761 10907,3756 10909,3751 10911,3745 10912,3740 10914,3735 10915,3730 10915,3724 10916,3719 10916,3713 10917,3708 Z"/>
 <path fill="rgb(255,211,32)" stroke="none" d="M 13865,3871 L 13864,3865 13864,3860 13863,3854 13863,3849 13862,3844 13860,3838 13859,3833 13857,3828 13855,3823 13853,3818 13850,3813 13848,3808 13845,3804 13842,3799 13839,3795 13835,3790 13832,3786 13828,3782 13824,3779 13820,3775 13816,3772 13811,3768 13807,3765 13802,3762 13797,3760 13792,3757 13787,3755 13782,3753 13777,3751 13772,3750 13767,3749 13761,3748 13756,3747 13750,3746 13745,3746 13740,3746 13734,3746 13729,3746 13723,3747 13718,3748 13712,3749 13707,3750 13702,3751 13697,3753 13692,3755 13687,3757 13682,3760 13677,3762 13672,3765 13668,3768 13663,3772 13659,3775 13655,3779 13651,3782 13647,3786 13644,3790 13640,3795 13637,3799 13634,3804 13631,3808 13629,3813 13626,3818 13624,3823 13622,3828 13620,3833 13619,3838 13617,3844 13616,3849 13616,3854 13615,3860 13615,3865 13615,3871 13615,3876 13615,3882 13616,3887 13616,3892 13617,3898 13619,3903 13620,3908 13622,3913 13624,3919 13626,3924 13629,3928 13631,3933 13634,3938 13637,3942 13640,3947 13644,3951 13647,3955 13651,3959 13655,3963 13659,3966 13663,3970 13668,3973 13672,3976 13677,3979 13682,3982 13687,3984 13692,3986 13697,3988 13702,3990 13707,3991 13712,3993 13718,3994 13723,3995 13729,3995 13734,3996 13740,3996 13745,3996 13750,3995 13756,3995 13761,3994 13767,3993 13772,3991 13777,3990 13782,3988 13787,3986 13792,3984 13797,3982 13802,3979 13807,3976 13811,3973 13816,3970 13820,3966 13824,3963 13828,3959 13832,3955 13835,3951 13839,3947 13842,3942 13845,3938 13848,3933 13850,3928 13853,3924 13855,3919 13857,3913 13859,3908 13860,3903 13862,3898 13863,3892 13863,3887 13864,3882 13864,3876 13865,3871 Z"/>
 <path fill="none" stroke="rgb(255,211,32)" stroke-linejoin="round" d="M 13865,3871 L 13864,3865 13864,3860 13863,3854 13863,3849 13862,3844 13860,3838 13859,3833 13857,3828 13855,3823 13853,3818 13850,3813 13848,3808 13845,3804 13842,3799 13839,3795 13835,3790 13832,3786 13828,3782 13824,3779 13820,3775 13816,3772 13811,3768 13807,3765 13802,3762 13797,3760 13792,3757 13787,3755 13782,3753 13777,3751 13772,3750 13767,3749 13761,3748 13756,3747 13750,3746 13745,3746 13740,3746 13734,3746 13729,3746 13723,3747 13718,3748 13712,3749 13707,3750 13702,3751 13697,3753 13692,3755 13687,3757 13682,3760 13677,3762 13672,3765 13668,3768 13663,3772 13659,3775 13655,3779 13651,3782 13647,3786 13644,3790 13640,3795 13637,3799 13634,3804 13631,3808 13629,3813 13626,3818 13624,3823 13622,3828 13620,3833 13619,3838 13617,3844 13616,3849 13616,3854 13615,3860 13615,3865 13615,3871 13615,3876 13615,3882 13616,3887 13616,3892 13617,3898 13619,3903 13620,3908 13622,3913 13624,3919 13626,3924 13629,3928 13631,3933 13634,3938 13637,3942 13640,3947 13644,3951 13647,3955 13651,3959 13655,3963 13659,3966 13663,3970 13668,3973 13672,3976 13677,3979 13682,3982 13687,3984 13692,3986 13697,3988 13702,3990 13707,3991 13712,3993 13718,3994 13723,3995 13729,3995 13734,3996 13740,3996 13745,3996 13750,3995 13756,3995 13761,3994 13767,3993 13772,3991 13777,3990 13782,3988 13787,3986 13792,3984 13797,3982 13802,3979 13807,3976 13811,3973 13816,3970 13820,3966 13824,3963 13828,3959 13832,3955 13835,3951 13839,3947 13842,3942 13845,3938 13848,3933 13850,3928 13853,3924 13855,3919 13857,3913 13859,3908 13860,3903 13862,3898 13863,3892 13863,3887 13864,3882 13864,3876 13865,3871 Z"/>
 <path fill="none" stroke="rgb(87,157,28)" stroke-width="80" stroke-linejoin="round" d="M 1949,3969 L 4897,3602 7844,3274 10792,2068 13740,2567"/>
 <path fill="rgb(87,157,28)" stroke="none" d="M 1949,3844 L 1974,3944 2074,3969 1974,3994 1949,4094 1924,3994 1824,3969 1924,3944 1949,3844 Z"/>
 <path fill="none" stroke="rgb(87,157,28)" stroke-linejoin="round" d="M 1949,3844 L 1974,3944 2074,3969 1974,3994 1949,4094 1924,3994 1824,3969 1924,3944 1949,3844 Z"/>
 <path fill="rgb(87,157,28)" stroke="none" d="M 4897,3477 L 4922,3577 5022,3602 4922,3627 4897,3727 4872,3627 4772,3602 4872,3577 4897,3477 Z"/>
 <path fill="none" stroke="rgb(87,157,28)" stroke-linejoin="round" d="M 4897,3477 L 4922,3577 5022,3602 4922,3627 4897,3727 4872,3627 4772,3602 4872,3577 4897,3477 Z"/>
 <path fill="rgb(87,157,28)" stroke="none" d="M 7844,3149 L 7869,3249 7969,3274 7869,3299 7844,3399 7819,3299 7719,3274 7819,3249 7844,3149 Z"/>
 <path fill="none" stroke="rgb(87,157,28)" stroke-linejoin="round" d="M 7844,3149 L 7869,3249 7969,3274 7869,3299 7844,3399 7819,3299 7719,3274 7819,3249 7844,3149 Z"/>
 <path fill="rgb(87,157,28)" stroke="none" d="M 10792,1943 L 10817,2043 10917,2068 10817,2093 10792,2193 10767,2093 10667,2068 10767,2043 10792,1943 Z"/>
 <path fill="none" stroke="rgb(87,157,28)" stroke-linejoin="round" d="M 10792,1943 L 10817,2043 10917,2068 10817,2093 10792,2193 10767,2093 10667,2068 10767,2043 10792,1943 Z"/>
 <path fill="rgb(87,157,28)" stroke="none" d="M 13740,2442 L 13765,2542 13865,2567 13765,2592 13740,2692 13715,2592 13615,2567 13715,2542 13740,2442 Z"/>
 <path fill="none" stroke="rgb(87,157,28)" stroke-linejoin="round" d="M 13740,2442 L 13765,2542 13865,2567 13765,2592 13740,2692 13715,2592 13615,2567 13715,2542 13740,2442 Z"/>
 <path fill="none" stroke="rgb(126,0,33)" stroke-width="80" stroke-linejoin="round" d="M 1949,4513 L 4897,4251 7844,4137 10792,4309 13740,4247"/>
 <path fill="rgb(126,0,33)" stroke="none" d="M 1824,4388 L 1824,4638 2074,4513 1824,4388 Z"/>
 <path fill="none" stroke="rgb(126,0,33)" stroke-linejoin="round" d="M 1824,4388 L 1824,4638 2074,4513 1824,4388 Z"/>
 <path fill="rgb(126,0,33)" stroke="none" d="M 4772,4126 L 4772,4376 5022,4251 4772,4126 Z"/>
 <path fill="none" stroke="rgb(126,0,33)" stroke-linejoin="round" d="M 4772,4126 L 4772,4376 5022,4251 4772,4126 Z"/>
 <path fill="rgb(126,0,33)" stroke="none" d="M 7719,4012 L 7719,4262 7969,4137 7719,4012 Z"/>
 <path fill="none" stroke="rgb(126,0,33)" stroke-linejoin="round" d="M 7719,4012 L 7719,4262 7969,4137 7719,4012 Z"/>
 <path fill="rgb(126,0,33)" stroke="none" d="M 10667,4184 L 10667,4434 10917,4309 10667,4184 Z"/>
 <path fill="none" stroke="rgb(126,0,33)" stroke-linejoin="round" d="M 10667,4184 L 10667,4434 10917,4309 10667,4184 Z"/>
 <path fill="rgb(126,0,33)" stroke="none" d="M 13615,4122 L 13615,4372 13865,4247 13615,4122 Z"/>
 <path fill="none" stroke="rgb(126,0,33)" stroke-linejoin="round" d="M 13615,4122 L 13615,4372 13865,4247 13615,4122 Z"/>
 <text class="TextShape"><tspan class="TextParagraph" font-family="Liberation Sans, sans-serif" font-size="353px" font-weight="400"><tspan class="TextPosition" x="1579" y="6418"><tspan fill="rgb(0,0,0)" stroke="none">1000</tspan></tspan></tspan></text>
 <text class="TextShape"><tspan class="TextParagraph" font-family="Liberation Sans, sans-serif" font-size="353px" font-weight="400"><tspan class="TextPosition" x="4434" y="6418"><tspan fill="rgb(0,0,0)" stroke="none">10000</tspan></tspan></tspan></text>
 <text class="TextShape"><tspan class="TextParagraph" font-family="Liberation Sans, sans-serif" font-size="353px" font-weight="400"><tspan class="TextPosition" x="7289" y="6418"><tspan fill="rgb(0,0,0)" stroke="none">100000</tspan></tspan></tspan></text>
 <text class="TextShape"><tspan class="TextParagraph" font-family="Liberation Sans, sans-serif" font-size="353px" font-weight="400"><tspan class="TextPosition" x="10145" y="6418"><tspan fill="rgb(0,0,0)" stroke="none">1000000</tspan></tspan></tspan></text>
 <text class="TextShape"><tspan class="TextParagraph" font-family="Liberation Sans, sans-serif" font-size="353px" font-weight="400"><tspan class="TextPosition" x="12999" y="6418"><tspan fill="rgb(0,0,0)" stroke="none">10000000</tspan></tspan></tspan></text>
 <text class="TextShape"><tspan class="TextParagraph" font-family="Liberation Sans, sans-serif" font-size="353px" font-weight="400"><tspan class="TextPosition" x="1514" y="5971"><tspan fill="rgb(0,0,0)" stroke="none">0</tspan></tspan></tspan></text>
 <text class="TextShape"><tspan class="TextParagraph" font-family="Liberation Sans, sans-serif" font-size="353px" font-weight="400"><tspan class="TextPosition" x="1514" y="5498"><tspan fill="rgb(0,0,0)" stroke="none">5</tspan></tspan></tspan></text>
 <text class="TextShape"><tspan class="TextParagraph" font-family="Liberation Sans, sans-serif" font-size="353px" font-weight="400"><tspan class="TextPosition" x="1329" y="5025"><tspan fill="rgb(0,0,0)" stroke="none">10</tspan></tspan></tspan></text>
 <text class="TextShape"><tspan class="TextParagraph" font-family="Liberation Sans, sans-serif" font-size="353px" font-weight="400"><tspan class="TextPosition" x="1329" y="4553"><tspan fill="rgb(0,0,0)" stroke="none">15</tspan></tspan></tspan></text>
 <text class="TextShape"><tspan class="TextParagraph" font-family="Liberation Sans, sans-serif" font-size="353px" font-weight="400"><tspan class="TextPosition" x="1329" y="4080"><tspan fill="rgb(0,0,0)" stroke="none">20</tspan></tspan></tspan></text>
 <text class="TextShape"><tspan class="TextParagraph" font-family="Liberation Sans, sans-serif" font-size="353px" font-weight="400"><tspan class="TextPosition" x="1329" y="3607"><tspan fill="rgb(0,0,0)" stroke="none">25</tspan></tspan></tspan></text>
 <text class="TextShape"><tspan class="TextParagraph" font-family="Liberation Sans, sans-serif" font-size="353px" font-weight="400"><tspan class="TextPosition" x="1329" y="3134"><tspan fill="rgb(0,0,0)" stroke="none">30</tspan></tspan></tspan></text>
 <text class="TextShape"><tspan class="TextParagraph" font-family="Liberation Sans, sans-serif" font-size="353px" font-weight="400"><tspan class="TextPosition" x="1329" y="2662"><tspan fill="rgb(0,0,0)" stroke="none">35</tspan></tspan></tspan></text>
 <text class="TextShape"><tspan class="TextParagraph" font-family="Liberation Sans, sans-serif" font-size="353px" font-weight="400"><tspan class="TextPosition" x="1329" y="2190"><tspan fill="rgb(0,0,0)" stroke="none">40</tspan></tspan></tspan></text>
 <text class="TextShape"><tspan class="TextParagraph" font-family="Liberation Sans, sans-serif" font-size="353px" font-weight="400"><tspan class="TextPosition" x="1329" y="1718"><tspan fill="rgb(0,0,0)" stroke="none">45</tspan></tspan></tspan></text>
 <text class="TextShape"><tspan class="TextParagraph" font-family="Segoe UI" font-size="459px" font-weight="700"><tspan class="TextPosition" x="2877" y="940"><tspan fill="rgb(0,0,0)" stroke="none">Full refill/teardown in bulks of 1000 items</tspan></tspan></tspan></text>
 <path fill="none" stroke="rgb(0,69,134)" stroke-width="80" stroke-linejoin="round" d="M 879,7993 L 1679,7993"/>
 <path fill="rgb(0,69,134)" stroke="none" d="M 1173,7888 L 1173,8099 1384,8099 1384,7888 1173,7888 Z"/>
 <path fill="none" stroke="rgb(0,69,134)" stroke-linejoin="round" d="M 1173,7888 L 1173,8099 1384,8099 1384,7888 1173,7888 Z"/>
 <path fill="none" stroke="rgb(255,66,14)" stroke-width="80" stroke-linejoin="round" d="M 7542,7993 L 8342,7993"/>
 <path fill="rgb(255,66,14)" stroke="none" d="M 7836,8099 L 8047,8099 7836,7888 8047,7888 7836,8099 Z"/>
 <path fill="none" stroke="rgb(255,66,14)" stroke-linejoin="round" d="M 7836,8099 L 8047,8099 7836,7888 8047,7888 7836,8099 Z"/>
 <path fill="none" stroke="rgb(255,211,32)" stroke-width="80" stroke-linejoin="round" d="M 879,8491 L 1679,8491"/>
 <path fill="rgb(255,211,32)" stroke="none" d="M 1384,8491 L 1384,8486 1384,8482 1383,8477 1382,8473 1381,8468 1380,8464 1379,8459 1378,8455 1376,8451 1374,8446 1372,8442 1370,8438 1367,8434 1365,8430 1362,8427 1359,8423 1356,8420 1353,8416 1350,8413 1346,8410 1343,8407 1339,8405 1335,8402 1331,8400 1327,8397 1323,8395 1319,8394 1315,8392 1310,8390 1306,8389 1301,8388 1297,8387 1292,8386 1288,8386 1283,8386 1279,8386 1274,8386 1269,8386 1265,8386 1260,8387 1256,8388 1251,8389 1247,8390 1242,8392 1238,8394 1234,8395 1230,8397 1226,8400 1222,8402 1218,8405 1214,8407 1211,8410 1207,8413 1204,8416 1201,8420 1198,8423 1195,8427 1192,8430 1190,8434 1187,8438 1185,8442 1183,8446 1181,8451 1179,8455 1178,8459 1177,8464 1176,8468 1175,8473 1174,8477 1173,8482 1173,8486 1173,8491 1173,8496 1173,8500 1174,8505 1175,8509 1176,8514 1177,8518 1178,8523 1179,8527 1181,8531 1183,8536 1185,8540 1187,8544 1190,8548 1192,8552 1195,8555 1198,8559 1201,8562 1204,8566 1207,8569 1211,8572 1214,8575 1218,8577 1222,8580 1226,8582 1230,8585 1234,8587 1238,8588 1242,8590 1247,8592 1251,8593 1256,8594 1260,8595 1265,8596 1269,8596 1274,8596 1279,8597 1283,8596 1288,8596 1292,8596 1297,8595 1301,8594 1306,8593 1310,8592 1315,8590 1319,8588 1323,8587 1327,8585 1331,8582 1335,8580 1339,8577 1343,8575 1346,8572 1350,8569 1353,8566 1356,8562 1359,8559 1362,8555 1365,8552 1367,8548 1370,8544 1372,8540 1374,8536 1376,8531 1378,8527 1379,8523 1380,8518 1381,8514 1382,8509 1383,8505 1384,8500 1384,8496 1384,8491 Z"/>
 <path fill="none" stroke="rgb(255,211,32)" stroke-linejoin="round" d="M 1384,8491 L 1384,8486 1384,8482 1383,8477 1382,8473 1381,8468 1380,8464 1379,8459 1378,8455 1376,8451 1374,8446 1372,8442 1370,8438 1367,8434 1365,8430 1362,8427 1359,8423 1356,8420 1353,8416 1350,8413 1346,8410 1343,8407 1339,8405 1335,8402 1331,8400 1327,8397 1323,8395 1319,8394 1315,8392 1310,8390 1306,8389 1301,8388 1297,8387 1292,8386 1288,8386 1283,8386 1279,8386 1274,8386 1269,8386 1265,8386 1260,8387 1256,8388 1251,8389 1247,8390 1242,8392 1238,8394 1234,8395 1230,8397 1226,8400 1222,8402 1218,8405 1214,8407 1211,8410 1207,8413 1204,8416 1201,8420 1198,8423 1195,8427 1192,8430 1190,8434 1187,8438 1185,8442 1183,8446 1181,8451 1179,8455 1178,8459 1177,8464 1176,8468 1175,8473 1174,8477 1173,8482 1173,8486 1173,8491 1173,8496 1173,8500 1174,8505 1175,8509 1176,8514 1177,8518 1178,8523 1179,8527 1181,8531 1183,8536 1185,8540 1187,8544 1190,8548 1192,8552 1195,8555 1198,8559 1201,8562 1204,8566 1207,8569 1211,8572 1214,8575 1218,8577 1222,8580 1226,8582 1230,8585 1234,8587 1238,8588 1242,8590 1247,8592 1251,8593 1256,8594 1260,8595 1265,8596 1269,8596 1274,8596 1279,8597 1283,8596 1288,8596 1292,8596 1297,8595 1301,8594 1306,8593 1310,8592 1315,8590 1319,8588 1323,8587 1327,8585 1331,8582 1335,8580 1339,8577 1343,8575 1346,8572 1350,8569 1353,8566 1356,8562 1359,8559 1362,8555 1365,8552 1367,8548 1370,8544 1372,8540 1374,8536 1376,8531 1378,8527 1379,8523 1380,8518 1381,8514 1382,8509 1383,8505 1384,8500 1384,8496 1384,8491 Z"/>
 <path fill="none" stroke="rgb(87,157,28)" stroke-width="80" stroke-linejoin="round" d="M 7542,8491 L 8342,8491"/>
 <path fill="rgb(87,157,28)" stroke="none" d="M 7942,8386 L 7963,8470 8047,8491 7963,8512 7942,8597 7920,8512 7836,8491 7920,8470 7942,8386 Z"/>
 <path fill="none" stroke="rgb(87,157,28)" stroke-linejoin="round" d="M 7942,8386 L 7963,8470 8047,8491 7963,8512 7942,8597 7920,8512 7836,8491 7920,8470 7942,8386 Z"/>
 <path fill="none" stroke="rgb(126,0,33)" stroke-width="80" stroke-linejoin="round" d="M 879,8989 L 1679,8989"/>
 <path fill="rgb(126,0,33)" stroke="none" d="M 1173,8884 L 1173,9095 1384,8989 1173,8884 Z"/>
 <path fill="none" stroke="rgb(126,0,33)" stroke-linejoin="round" d="M 1173,8884 L 1173,9095 1384,8989 1173,8884 Z"/>
 <text class="TextShape"><tspan class="TextParagraph" font-family="Liberation Sans, sans-serif" font-size="353px" font-weight="400"><tspan class="TextPosition" x="1779" y="8113"><tspan fill="rgb(0,0,0)" stroke="none">TeardownSet::delete_range()           </tspan></tspan></tspan></text>
 <text class="TextShape"><tspan class="TextParagraph" font-family="Liberation Sans, sans-serif" font-size="353px" font-weight="400"><tspan class="TextPosition" x="8442" y="8113"><tspan fill="rgb(0,0,0)" stroke="none">Treap::remove_range()                 </tspan></tspan></tspan></text>
 <text class="TextShape"><tspan class="TextParagraph" font-family="Liberation Sans, sans-serif" font-size="353px" font-weight="400"><tspan class="TextPosition" x="1779" y="8611"><tspan fill="rgb(0,0,0)" stroke="none">BTreeSet::remove()                    </tspan></tspan></tspan></text>
 <text class="TextShape"><tspan class="TextParagraph" font-family="Liberation Sans, sans-serif" font-size="353px" font-weight="400"><tspan class="TextPosition" x="8442" y="8611"><tspan fill="rgb(0,0,0)" stroke="none">SplayTree::remove_range()             </tspan></tspan></tspan></text>
 <text class="TextShape"><tspan class="TextParagraph" font-family="Liberation Sans, sans-serif" font-size="353px" font-weight="400"><tspan class="TextPosition" x="1779" y="9109"><tspan fill="rgb(0,0,0)" stroke="none">TeardownSet::delete()               </tspan></tspan></tspan></text>
 <text class="TextShape"><tspan class="TextParagraph" font-family="Segoe UI" font-size="318px" font-weight="700"><tspan class="TextPosition" x="7787" y="7102"><tspan fill="rgb(0,0,0)" stroke="none">N</tspan></tspan></tspan></text>
 <text class="TextShape" transform="translate(860,4914) rotate(-90) translate(-860,-4914)"><tspan class="TextParagraph" font-family="Segoe UI" font-size="318px" font-weight="700"><tspan class="TextPosition" x="860" y="4914"><tspan fill="rgb(0,0,0)" stroke="none">Times slower</tspan></tspan></tspan></text>
</svg>