<?xml version="1.0" encoding="UTF-8"?>
<!DOCTYPE svg PUBLIC "-//W3C//DTD SVG 1.1//EN" "http://www.w3.org/Graphics/SVG/1.1/DTD/svg11.dtd">
<svg width="148mm" height="95mm" viewBox="0 0 14800 9500" version="1.1" xmlns="http://www.w3.org/2000/svg" stroke-width="28.222" stroke-linejoin="round" xml:space="preserve">
 <path fill="rgb(255,255,255)" stroke="none" d="M 7387,9474 L -5,9474 -5,0 14778,0 14778,9474 7387,9474 Z"/>
 <path fill="none" stroke="rgb(0,0,0)" stroke-linejoin="round" d="M 7387,9474 L -5,9474 -5,0 14778,0 14778,9474 7387,9474 Z"/>
 <path fill="none" stroke="rgb(179,179,179)" stroke-linejoin="round" d="M 7844,5851 L 1949,5851 1949,1598 13740,1598 13740,5851 7844,5851 Z"/>
 <path fill="none" stroke="rgb(179,179,179)" stroke-linejoin="round" d="M 13740,5850 L 1949,5850"/>
 <path fill="none" stroke="rgb(179,179,179)" stroke-linejoin="round" d="M 13740,5141 L 1949,5141"/>
 <path fill="none" stroke="rgb(179,179,179)" stroke-linejoin="round" d="M 13740,4433 L 1949,4433"/>
 <path fill="none" stroke="rgb(179,179,179)" stroke-linejoin="round" d="M 13740,3724 L 1949,3724"/>
 <path fill="none" stroke="rgb(179,179,179)" stroke-linejoin="round" d="M 13740,3015 L 1949,3015"/>
 <path fill="none" stroke="rgb(179,179,179)" stroke-linejoin="round" d="M 13740,2306 L 1949,2306"/>
 <path fill="none" stroke="rgb(179,179,179)" stroke-linejoin="round" d="M 13740,1597 L 1949,1597"/>
 <path fill="none" stroke="rgb(179,179,179)" stroke-linejoin="round" d="M 1949,6000 L 1949,5850"/>
 <path fill="none" stroke="rgb(179,179,179)" stroke-linejoin="round" d="M 1949,6000 L 1949,5850"/>
 <path fill="none" stroke="rgb(179,179,179)" stroke-linejoin="round" d="M 4307,6000 L 4307,5850"/>
 <path fill="none" stroke="rgb(179,179,179)" stroke-linejoin="round" d="M 4307,6000 L 4307,5850"/>
 <path fill="none" stroke="rgb(179,179,179)" stroke-linejoin="round" d="M 6665,6000 L 6665,5850"/>
 <path fill="none" stroke="rgb(179,179,179)" stroke-linejoin="round" d="M 6665,6000 L 6665,5850"/>
 <path fill="none" stroke="rgb(179,179,179)" stroke-linejoin="round" d="M 9023,6000 L 9023,5850"/>
 <path fill="none" stroke="rgb(179,179,179)" stroke-linejoin="round" d="M 9023,6000 L 9023,5850"/>
 <path fill="none" stroke="rgb(179,179,179)" stroke-linejoin="round" d="M 11381,6000 L 11381,5850"/>
 <path fill="none" stroke="rgb(179,179,179)" stroke-linejoin="round" d="M 11381,6000 L 11381,5850"/>
 <path fill="none" stroke="rgb(179,179,179)" stroke-linejoin="round" d="M 13740,6000 L 13740,5850"/>
 <path fill="none" stroke="rgb(179,179,179)" stroke-linejoin="round" d="M 13740,6000 L 13740,5850"/>
 <path fill="none" stroke="rgb(179,179,179)" stroke-linejoin="round" d="M 1949,5850 L 13740,5850"/>
 <path fill="none" stroke="rgb(179,179,179)" stroke-linejoin="round" d="M 1799,5850 L 1949,5850"/>
 <path fill="none" stroke="rgb(179,179,179)" stroke-linejoin="round" d="M 1799,5850 L 1949,5850"/>
 <path fill="none" stroke="rgb(179,179,179)" stroke-linejoin="round" d="M 1799,5141 L 1949,5141"/>
 <path fill="none" stroke="rgb(179,179,179)" stroke-linejoin="round" d="M 1799,5141 L 1949,5141"/>
 <path fill="none" stroke="rgb(179,179,179)" stroke-linejoin="round" d="M 1799,4433 L 1949,4433"/>
 <path fill="none" stroke="rgb(179,179,179)" stroke-linejoin="round" d="M 1799,4433 L 1949,4433"/>
 <path fill="none" stroke="rgb(179,179,179)" stroke-linejoin="round" d="M 1799,3724 L 1949,3724"/>
 <path fill="none" stroke="rgb(179,179,179)" stroke-linejoin="round" d="M 1799,3724 L 1949,3724"/>
 <path fill="none" stroke="rgb(179,179,179)" stroke-linejoin="round" d="M 1799,3015 L 1949,3015"/>
 <path fill="none" stroke="rgb(179,179,179)" stroke-linejoin="round" d="M 1799,3015 L 1949,3015"/>
 <path fill="none" stroke="rgb(179,179,179)" stroke-linejoin="round" d="M 1799,2306 L 1949,2306"/>
 <path fill="none" stroke="rgb(179,179,179)" stroke-linejoin="round" d="M 1799,2306 L 1949,2306"/>
 <path fill="none" stroke="rgb(179,179,179)" stroke-linejoin="round" d="M 1799,1597 L 1949,1597"/>
 <path fill="none" stroke="rgb(179,179,179)" stroke-linejoin="round" d="M 1799,1597 L 1949,1597"/>
 <path fill="none" stroke="rgb(179,179,179)" stroke-linejoin="round" d="M 1949,5850 L 1949,1597"/>
 <path fill="none" stroke="rgb(0,69,134)" stroke-width="80" stroke-linejoin="round" d="M 1949,5708 L 4307,5708 6665,5708 9023,5708 11381,5708 13740,5708"/>
 <path fill="rgb(0,69,134)" stroke="none" d="M 1824,5583 L 1824,5833 2074,5833 2074,5583 1824,5583 Z"/>
 <path fill="none" stroke="rgb(0,69,134)" stroke-linejoin="round" d="M 1824,5583 L 1824,5833 2074,5833 2074,5583 1824,5583 Z"/>
 <path fill="rgb(0,69,134)" stroke="none" d="M 4182,5583 L 4182,5833 4432,5833 4432,5583 4182,5583 Z"/>
 <path fill="none" stroke="rgb(0,69,134)" stroke-linejoin="round" d="M 4182,5583 L 4182,5833 4432,5833 4432,5583 4182,5583 Z"/>
 <path fill="rgb(0,69,134)" stroke="none" d="M 6540,5583 L 6540,5833 6790,5833 6790,5583 6540,5583 Z"/>
 <path fill="none" stroke="rgb(0,69,134)" stroke-linejoin="round" d="M 6540,5583 L 6540,5833 6790,5833 6790,5583 6540,5583 Z"/>
 <path fill="rgb(0,69,134)" stroke="none" d="M 8898,5583 L 8898,5833 9148,5833 9148,5583 8898,5583 Z"/>
 <path fill="none" stroke="rgb(0,69,134)" stroke-linejoin="round" d="M 8898,5583 L 8898,5833 9148,5833 9148,5583 8898,5583 Z"/>
 <path fill="rgb(0,69,134)" stroke="none" d="M 11256,5583 L 11256,5833 11506,5833 11506,5583 11256,5583 Z"/>
 <path fill="none" stroke="rgb(0,69,134)" stroke-linejoin="round" d="M 11256,5583 L 11256,5833 11506,5833 11506,5583 11256,5583 Z"/>
 <path fill="rgb(0,69,134)" stroke="none" d="M 13615,5583 L 13615,5833 13865,5833 13865,5583 13615,5583 Z"/>
 <path fill="none" stroke="rgb(0,69,134)" stroke-linejoin="round" d="M 13615,5583 L 13615,5833 13865,5833 13865,5583 13615,5583 Z"/>
 <path fill="none" stroke="rgb(255,66,14)" stroke-width="80" stroke-linejoin="round" d="M 1949,4624 L 4307,3400 6665,2863 9023,3391 11381,2275 13740,2905"/>
 <path fill="rgb(255,66,14)" stroke="none" d="M 1824,4748 L 2074,4748 1824,4499 2074,4499 1824,4748 Z"/>
 <path fill="none" stroke="rgb(255,66,14)" stroke-linejoin="round" d="M 1824,4748 L 2074,4748 1824,4499 2074,4499 1824,4748 Z"/>
 <path fill="rgb(255,66,14)" stroke="none" d="M 4182,3525 L 4432,3525 4182,3275 4432,3275 4182,3525 Z"/>
 <path fill="none" stroke="rgb(255,66,14)" stroke-linejoin="round" d="M 4182,3525 L 4432,3525 4182,3275 4432,3275 4182,3525 Z"/>
 <path fill="rgb(255,66,14)" stroke="none" d="M 6540,2988 L 6790,2988 6540,2738 6790,2738 6540,2988 Z"/>
 <path fill="none" stroke="rgb(255,66,14)" stroke-linejoin="round" d="M 6540,2988 L 6790,2988 6540,2738 6790,2738 6540,2988 Z"/>
 <path fill="rgb(255,66,14)" stroke="none" d="M 8898,3516 L 9148,3516 8898,3266 9148,3266 8898,3516 Z"/>
 <path fill="none" stroke="rgb(255,66,14)" stroke-linejoin="round" d="M 8898,3516 L 9148,3516 8898,3266 9148,3266 8898,3516 Z"/>
 <path fill="rgb(255,66,14)" stroke="none" d="M 11256,2400 L 11506,2400 11256,2150 11506,2150 11256,2400 Z"/>
 <path fill="none" stroke="rgb(255,66,14)" stroke-linejoin="round" d="M 11256,2400 L 11506,2400 11256,2150 11506,2150 11256,2400 Z"/>
 <path fill="rgb(255,66,14)" stroke="none" d="M 13615,3030 L 13865,3030 13615,2780 13865,2780 13615,3030 Z"/>
 <path fill="none" stroke="rgb(255,66,14)" stroke-linejoin="round" d="M 13615,3030 L 13865,3030 13615,2780 13865,2780 13615,3030 Z"/>
 <path fill="none" stroke="rgb(255,211,32)" stroke-width="80" stroke-linejoin="round" d="M 1949,4973 L 4307,4284 6665,3369 9023,3936 11381,3720 13740,4146"/>
 <path fill="rgb(255,211,32)" stroke="none" d="M 2074,4973 L 2073,4967 2073,4962 2072,4956 2072,4951 2071,4946 2069,4940 2068,4935 2066,4930 2064,4925 2062,4920 2059,4915 2057,4910 2054,4906 2051,4901 2048,4897 2044,4892 2041,4888 2037,4884 2033,4881 2029,4877 2025,4874 2020,4870 2016,4867 2011,4864 2006,4862 2001,4859 1996,4857 1991,4855 1986,4853 1981,4852 1976,4851 1970,4850 1965,4849 1959,4848 1954,4848 1949,4848 1943,4848 1938,4848 1932,4849 1927,4850 1921,4851 1916,4852 1911,4853 1906,4855 1901,4857 1896,4859 1891,4862 1886,4864 1881,4867 1877,4870 1872,4874 1868,4877 1864,4881 1860,4884 1856,4888 1853,4892 1849,4897 1846,4901 1843,4906 1840,4910 1838,4915 1835,4920 1833,4925 1831,4930 1829,4935 1828,4940 1826,4946 1825,4951 1825,4956 1824,4962 1824,4967 1824,4973 1824,4978 1824,4984 1825,4989 1825,4994 1826,5000 1828,5005 1829,5010 1831,5015 1833,5021 1835,5026 1838,5030 1840,5035 1843,5040 1846,5044 1849,5049 1853,5053 1856,5057 1860,5061 1864,5065 1868,5068 1872,5072 1877,5075 1881,5078 1886,5081 1891,5084 1896,5086 1901,5088 1906,5090 1911,5092 1916,5093 1921,5095 1927,5096 1932,5097 1938,5097 1943,5098 1949,5098 1954,5098 1959,5097 1965,5097 1970,5096 1976,5095 1981,5093 1986,5092 1991,5090 1996,5088 2001,5086 2006,5084 2011,5081 2016,5078 2020,5075 2025,5072 2029,5068 2033,5065 2037,5061 2041,5057 2044,5053 2048,5049 2051,5044 2054,5040 2057,5035 2059,5030 2062,5026 2064,5021 2066,5015 2068,5010 2069,5005 2071,5000 2072,4994 2072,4989 2073,4984 2073,4978 2074,4973 Z"/>
 <path fill="none" stroke="rgb(255,211,32)" stroke-linejoin="round" d="M 2074,4973 L 2073,4967 2073,4962 2072,4956 2072,4951 2071,4946 2069,4940 2068,4935 2066,4930 2064,4925 2062,4920 2059,4915 2057,4910 2054,4906 2051,4901 2048,4897 2044,4892 2041,4888 2037,4884 2033,4881 2029,4877 2025,4874 2020,4870 2016,4867 2011,4864 2006,4862 2001,4859 1996,4857 1991,4855 1986,4853 1981,4852 1976,4851 1970,4850 1965,4849 1959,4848 1954,4848 1949,4848 1943,4848 1938,4848 1932,4849 1927,4850 1921,4851 1916,4852 1911,4853 1906,4855 1901,4857 1896,4859 1891,4862 1886,4864 1881,4867 1877,4870 1872,4874 1868,4877 1864,4881 1860,4884 1856,4888 1853,4892 1849,4897 1846,4901 1843,4906 1840,4910 1838,4915 1835,4920 1833,4925 1831,4930 1829,4935 1828,4940 1826,4946 1825,4951 1825,4956 1824,4962 1824,4967 1824,4973 1824,4978 1824,4984 1825,4989 1825,4994 1826,5000 1828,5005 1829,5010 1831,5015 1833,5021 1835,5026 1838,5030 1840,5035 1843,5040 1846,5044 1849,5049 1853,5053 1856,5057 1860,5061 1864,5065 1868,5068 1872,5072 1877,5075 1881,5078 1886,5081 1891,5084 1896,5086 1901,5088 1906,5090 1911,5092 1916,5093 1921,5095 1927,5096 1932,5097 1938,5097 1943,5098 1949,5098 1954,5098 1959,5097 1965,5097 1970,5096 1976,5095 1981,5093 1986,5092 1991,5090 1996,5088 2001,5086 2006,5084 2011,5081 2016,5078 2020,5075 2025,5072 2029,5068 2033,5065 2037,5061 2041,5057 2044,5053 2048,5049 2051,5044 2054,5040 2057,5035 2059,5030 2062,5026 2064,5021 2066,5015 2068,5010 2069,5005 2071,5000 2072,4994 2072,4989 2073,4984 2073,4978 2074,4973 Z"/>
 <path fill="rgb(255,211,32)" stroke="none" d="M 4432,4284 L 4432,4279 4431,4273 4431,4268 4430,4262 4429,4257 4428,4252 4426,4246 4424,4241 4422,4236 4420,4231 4418,4226 4415,4222 4412,4217 4409,4212 4406,4208 4403,4204 4399,4200 4395,4196 4391,4192 4387,4188 4383,4185 4379,4182 4374,4179 4369,4176 4365,4173 4360,4171 4355,4169 4350,4167 4344,4165 4339,4163 4334,4162 4329,4161 4323,4160 4318,4159 4312,4159 4307,4159 4301,4159 4296,4159 4291,4160 4285,4161 4280,4162 4275,4163 4269,4165 4264,4167 4259,4169 4254,4171 4249,4173 4244,4176 4240,4179 4235,4182 4231,4185 4227,4188 4222,4192 4219,4196 4215,4200 4211,4204 4208,4208 4205,4212 4201,4217 4199,4222 4196,4226 4194,4231 4191,4236 4189,4241 4188,4246 4186,4252 4185,4257 4184,4262 4183,4268 4182,4273 4182,4279 4182,4284 4182,4289 4182,4295 4183,4300 4184,4306 4185,4311 4186,4316 4188,4322 4189,4327 4191,4332 4194,4337 4196,4342 4199,4347 4201,4351 4205,4356 4208,4360 4211,4364 4215,4368 4219,4372 4222,4376 4227,4380 4231,4383 4235,4386 4240,4389 4244,4392 4249,4395 4254,4397 4259,4399 4264,4401 4269,4403 4275,4405 4280,4406 4285,4407 4291,4408 4296,4409 4301,4409 4307,4409 4312,4409 4318,4409 4323,4408 4329,4407 4334,4406 4339,4405 4344,4403 4350,4401 4355,4399 4360,4397 4365,4395 4369,4392 4374,4389 4379,4386 4383,4383 4387,4380 4391,4376 4395,4372 4399,4368 4403,4364 4406,4360 4409,4356 4412,4351 4415,4347 4418,4342 4420,4337 4422,4332 4424,4327 4426,4322 4428,4316 4429,4311 4430,4306 4431,4300 4431,4295 4432,4289 4432,4284 Z"/>
 <path fill="none" stroke="rgb(255,211,32)" stroke-linejoin="round" d="M 4432,4284 L 4432,4279 4431,4273 4431,4268 4430,4262 4429,4257 4428,4252 4426,4246 4424,4241 4422,4236 4420,4231 4418,4226 4415,4222 4412,4217 4409,4212 4406,4208 4403,4204 4399,4200 4395,4196 4391,4192 4387,4188 4383,4185 4379,4182 4374,4179 4369,4176 4365,4173 4360,4171 4355,4169 4350,4167 4344,4165 4339,4163 4334,4162 4329,4161 4323,4160 4318,4159 4312,4159 4307,4159 4301,4159 4296,4159 4291,4160 4285,4161 4280,4162 4275,4163 4269,4165 4264,4167 4259,4169 4254,4171 4249,4173 4244,4176 4240,4179 4235,4182 4231,4185 4227,4188 4222,4192 4219,4196 4215,4200 4211,4204 4208,4208 4205,4212 4201,4217 4199,4222 4196,4226 4194,4231 4191,4236 4189,4241 4188,4246 4186,4252 4185,4257 4184,4262 4183,4268 4182,4273 4182,4279 4182,4284 4182,4289 4182,4295 4183,4300 4184,4306 4185,4311 4186,4316 4188,4322 4189,4327 4191,4332 4194,4337 4196,4342 4199,4347 4201,4351 4205,4356 4208,4360 4211,4364 4215,4368 4219,4372 4222,4376 4227,4380 4231,4383 4235,4386 4240,4389 4244,4392 4249,4395 4254,4397 4259,4399 4264,4401 4269,4403 4275,4405 4280,4406 4285,4407 4291,4408 4296,4409 4301,4409 4307,4409 4312,4409 4318,4409 4323,4408 4329,4407 4334,4406 4339,4405 4344,4403 4350,4401 4355,4399 4360,4397 4365,4395 4369,4392 4374,4389 4379,4386 4383,4383 4387,4380 4391,4376 4395,4372 4399,4368 4403,4364 4406,4360 4409,4356 4412,4351 4415,4347 4418,4342 4420,4337 4422,4332 4424,4327 4426,4322 4428,4316 4429,4311 4430,4306 4431,4300 4431,4295 4432,4289 4432,4284 Z"/>
 <path fill="rgb(255,211,32)" stroke="none" d="M 6790,3369 L 6790,3364 6790,3358 6789,3353 6788,3348 6787,3342 6786,3337 6785,3332 6783,3327 6781,3321 6779,3316 6776,3312 6774,3307 6771,3302 6768,3298 6764,3293 6761,3289 6757,3285 6754,3281 6750,3277 6746,3274 6741,3270 6737,3267 6732,3264 6728,3261 6723,3258 6718,3256 6713,3254 6708,3252 6703,3250 6698,3249 6692,3247 6687,3246 6682,3245 6676,3245 6671,3244 6665,3244 6660,3244 6654,3245 6649,3245 6644,3246 6638,3247 6633,3249 6628,3250 6623,3252 6617,3254 6612,3256 6608,3258 6603,3261 6598,3264 6594,3267 6589,3270 6585,3274 6581,3277 6577,3281 6573,3285 6570,3289 6566,3293 6563,3298 6560,3302 6557,3307 6554,3312 6552,3316 6550,3321 6548,3327 6546,3332 6545,3337 6543,3342 6542,3348 6541,3353 6541,3358 6540,3364 6540,3369 6540,3375 6541,3380 6541,3386 6542,3391 6543,3396 6545,3402 6546,3407 6548,3412 6550,3417 6552,3422 6554,3427 6557,3432 6560,3436 6563,3441 6566,3445 6570,3450 6573,3454 6577,3458 6581,3461 6585,3465 6589,3468 6594,3472 6598,3475 6603,3478 6608,3480 6612,3483 6617,3485 6623,3487 6628,3489 6633,3490 6638,3491 6644,3492 6649,3493 6654,3494 6660,3494 6665,3494 6671,3494 6676,3494 6682,3493 6687,3492 6692,3491 6698,3490 6703,3489 6708,3487 6713,3485 6718,3483 6723,3480 6728,3478 6732,3475 6737,3472 6741,3468 6746,3465 6750,3461 6754,3458 6757,3454 6761,3450 6764,3445 6768,3441 6771,3436 6774,3432 6776,3427 6779,3422 6781,3417 6783,3412 6785,3407 6786,3402 6787,3396 6788,3391 6789,3386 6790,3380 6790,3375 6790,3369 Z"/>
 <path fill="none" stroke="rgb(255,211,32)" stroke-linejoin="round" d="M 6790,3369 L 6790,3364 6790,3358 6789,3353 6788,3348 6787,3342 6786,3337 6785,3332 6783,3327 6781,3321 6779,3316 6776,3312 6774,3307 6771,3302 6768,3298 6764,3293 6761,3289 6757,3285 6754,3281 6750,3277 6746,3274 6741,3270 6737,3267 6732,3264 6728,3261 6723,3258 6718,3256 6713,3254 6708,3252 6703,3250 6698,3249 6692,3247 6687,3246 6682,3245 6676,3245 6671,3244 6665,3244 6660,3244 6654,3245 6649,3245 6644,3246 6638,3247 6633,3249 6628,3250 6623,3252 6617,3254 6612,3256 6608,3258 6603,3261 6598,3264 6594,3267 6589,3270 6585,3274 6581,3277 6577,3281 6573,3285 6570,3289 6566,3293 6563,3298 6560,3302 6557,3307 6554,3312 6552,3316 6550,3321 6548,3327 6546,3332 6545,3337 6543,3342 6542,3348 6541,3353 6541,3358 6540,3364 6540,3369 6540,3375 6541,3380 6541,3386 6542,3391 6543,3396 6545,3402 6546,3407 6548,3412 6550,3417 6552,3422 6554,3427 6557,3432 6560,3436 6563,3441 6566,3445 6570,3450 6573,3454 6577,3458 6581,3461 6585,3465 6589,3468 6594,3472 6598,3475 6603,3478 6608,3480 6612,3483 6617,3485 6623,3487 6628,3489 6633,3490 6638,3491 6644,3492 6649,3493 6654,3494 6660,3494 6665,3494 6671,3494 6676,3494 6682,3493 6687,3492 6692,3491 6698,3490 6703,3489 6708,3487 6713,3485 6718,3483 6723,3480 6728,3478 6732,3475 6737,3472 6741,3468 6746,3465 6750,3461 6754,3458 6757,3454 6761,3450 6764,3445 6768,3441 6771,3436 6774,3432 6776,3427 6779,3422 6781,3417 6783,3412 6785,3407 6786,3402 6787,3396 6788,3391 6789,3386 6790,3380 6790,3375 6790,3369 Z"/>
 <path fill="rgb(255,211,32)" stroke="none" d="M 9148,3936 L 9148,3931 9147,3925 9147,3920 9146,3915 9145,3909 9143,3904 9142,3899 9140,3894 9138,3888 9136,3883 9134,3879 9131,3874 9128,3869 9125,3865 9122,3860 9118,3856 9115,3852 9111,3848 9107,3844 9103,3841 9099,3837 9094,3834 9090,3831 9085,3828 9080,3825 9076,3823 9071,3821 9065,3819 9060,3817 9055,3816 9050,3814 9044,3813 9039,3812 9034,3812 9028,3811 9023,3811 9017,3811 9012,3812 9006,3812 9001,3813 8996,3814 8990,3816 8985,3817 8980,3819 8975,3821 8970,3823 8965,3825 8960,3828 8956,3831 8951,3834 8947,3837 8942,3841 8938,3844 8934,3848 8931,3852 8927,3856 8924,3860 8920,3865 8917,3869 8914,3874 8912,3879 8909,3883 8907,3888 8905,3894 8903,3899 8902,3904 8901,3909 8900,3915 8899,3920 8898,3925 8898,3931 8898,3936 8898,3942 8898,3947 8899,3953 8900,3958 8901,3963 8902,3969 8903,3974 8905,3979 8907,3984 8909,3989 8912,3994 8914,3999 8917,4003 8920,4008 8924,4012 8927,4017 8931,4021 8934,4025 8938,4028 8942,4032 8947,4035 8951,4039 8956,4042 8960,4045 8965,4047 8970,4050 8975,4052 8980,4054 8985,4055 8990,4057 8996,4058 9001,4059 9006,4060 9012,4061 9017,4061 9023,4061 9028,4061 9034,4061 9039,4060 9044,4059 9050,4058 9055,4057 9060,4055 9065,4054 9071,4052 9076,4050 9080,4047 9085,4045 9090,4042 9094,4039 9099,4035 9103,4032 9107,4028 9111,4025 9115,4021 9118,4017 9122,4012 9125,4008 9128,4003 9131,3999 9134,3994 9136,3989 9138,3984 9140,3979 9142,3974 9143,3969 9145,3963 9146,3958 9147,3953 9147,3947 9148,3942 9148,3936 Z"/>
 <path fill="none" stroke="rgb(255,211,32)" stroke-linejoin="round" d="M 9148,3936 L 9148,3931 9147,3925 9147,3920 9146,3915 9145,3909 9143,3904 9142,3899 9140,3894 9138,3888 9136,3883 9134,3879 9131,3874 9128,3869 9125,3865 9122,3860 9118,3856 9115,3852 9111,3848 9107,3844 9103,3841 9099,3837 9094,3834 9090,3831 9085,3828 9080,3825 9076,3823 9071,3821 9065,3819 9060,3817 9055,3816 9050,3814 9044,3813 9039,3812 9034,3812 9028,3811 9023,3811 9017,3811 9012,3812 9006,3812 9001,3813 8996,3814 8990,3816 8985,3817 8980,3819 8975,3821 8970,3823 8965,3825 8960,3828 8956,3831 8951,3834 8947,3837 8942,3841 8938,3844 8934,3848 8931,3852 8927,3856 8924,3860 8920,3865 8917,3869 8914,3874 8912,3879 8909,3883 8907,3888 8905,3894 8903,3899 8902,3904 8901,3909 8900,3915 8899,3920 8898,3925 8898,3931 8898,3936 8898,3942 8898,3947 8899,3953 8900,3958 8901,3963 8902,3969 8903,3974 8905,3979 8907,3984 8909,3989 8912,3994 8914,3999 8917,4003 8920,4008 8924,4012 8927,4017 8931,4021 8934,4025 8938,4028 8942,4032 8947,4035 8951,4039 8956,4042 8960,4045 8965,4047 8970,4050 8975,4052 8980,4054 8985,4055 8990,4057 8996,4058 9001,4059 9006,4060 9012,4061 9017,4061 9023,4061 9028,4061 9034,4061 9039,4060 9044,4059 9050,4058 9055,4057 9060,4055 9065,4054 9071,4052 9076,4050 9080,4047 9085,4045 9090,4042 9094,4039 9099,4035 9103,4032 9107,4028 9111,4025 9115,4021 9118,4017 9122,4012 9125,4008 9128,4003 9131,3999 9134,3994 9136,3989 9138,3984 9140,3979 9142,3974 9143,3969 9145,3963 9146,3958 9147,3953 9147,3947 9148,3942 9148,3936 Z"/>
 <path fill="rgb(255,211,32)" stroke="none" d="M 11506,3720 L 11506,3715 11506,3709 11505,3704 11504,3699 11503,3693 11502,3688 11500,3683 11499,3678 11497,3672 11494,3667 11492,3663 11489,3658 11487,3653 11483,3649 11480,3644 11477,3640 11473,3636 11469,3632 11466,3628 11461,3625 11457,3621 11453,3618 11448,3615 11444,3612 11439,3609 11434,3607 11429,3605 11424,3603 11419,3601 11413,3600 11408,3598 11403,3597 11397,3596 11392,3596 11387,3595 11381,3595 11376,3595 11370,3596 11365,3596 11359,3597 11354,3598 11349,3600 11344,3601 11338,3603 11333,3605 11328,3607 11323,3609 11319,3612 11314,3615 11309,3618 11305,3621 11301,3625 11297,3628 11293,3632 11289,3636 11285,3640 11282,3644 11279,3649 11276,3653 11273,3658 11270,3663 11268,3667 11266,3672 11264,3678 11262,3683 11260,3688 11259,3693 11258,3699 11257,3704 11257,3709 11256,3715 11256,3720 11256,3726 11257,3731 11257,3737 11258,3742 11259,3747 11260,3753 11262,3758 11264,3763 11266,3768 11268,3773 11270,3778 11273,3783 11276,3787 11279,3792 11282,3796 11285,3801 11289,3805 11293,3809 11297,3812 11301,3816 11305,3819 11309,3823 11314,3826 11319,3829 11323,3831 11328,3834 11333,3836 11338,3838 11344,3840 11349,3841 11354,3842 11359,3843 11365,3844 11370,3845 11376,3845 11381,3845 11387,3845 11392,3845 11397,3844 11403,3843 11408,3842 11413,3841 11419,3840 11424,3838 11429,3836 11434,3834 11439,3831 11444,3829 11448,3826 11453,3823 11457,3819 11461,3816 11466,3812 11469,3809 11473,3805 11477,3801 11480,3796 11483,3792 11487,3787 11489,3783 11492,3778 11494,3773 11497,3768 11499,3763 11500,3758 11502,3753 11503,3747 11504,3742 11505,3737 11506,3731 11506,3726 11506,3720 Z"/>
 <path fill="none" stroke="rgb(255,211,32)" stroke-linejoin="round" d="M 11506,3720 L 11506,3715 11506,3709 11505,3704 11504,3699 11503,3693 11502,3688 11500,3683 11499,3678 11497,3672 11494,3667 11492,3663 11489,3658 11487,3653 11483,3649 11480,3644 11477,3640 11473,3636 11469,3632 11466,3628 11461,3625 11457,3621 11453,3618 11448,3615 11444,3612 11439,3609 11434,3607 11429,3605 11424,3603 11419,3601 11413,3600 11408,3598 11403,3597 11397,3596 11392,3596 11387,3595 11381,3595 11376,3595 11370,3596 11365,3596 11359,3597 11354,3598 11349,3600 11344,3601 11338,3603 11333,3605 11328,3607 11323,3609 11319,3612 11314,3615 11309,3618 11305,3621 11301,3625 11297,3628 11293,3632 11289,3636 11285,3640 11282,3644 11279,3649 11276,3653 11273,3658 11270,3663 11268,3667 11266,3672 11264,3678 11262,3683 11260,3688 11259,3693 11258,3699 11257,3704 11257,3709 11256,3715 11256,3720 11256,3726 11257,3731 11257,3737 11258,3742 11259,3747 11260,3753 11262,3758 11264,3763 11266,3768 11268,3773 11270,3778 11273,3783 11276,3787 11279,3792 11282,3796 11285,3801 11289,3805 11293,3809 11297,3812 11301,3816 11305,3819 11309,3823 11314,3826 11319,3829 11323,3831 11328,3834 11333,3836 11338,3838 11344,3840 11349,3841 11354,3842 11359,3843 11365,3844 11370,3845 11376,3845 11381,3845 11387,3845 11392,3845 11397,3844 11403,3843 11408,3842 11413,3841 11419,3840 11424,3838 11429,3836 11434,3834 11439,3831 11444,3829 11448,3826 11453,3823 11457,3819 11461,3816 11466,3812 11469,3809 11473,3805 11477,3801 11480,3796 11483,3792 11487,3787 11489,3783 11492,3778 11494,3773 11497,3768 11499,3763 11500,3758 11502,3753 11503,3747 11504,3742 11505,3737 11506,3731 11506,3726 11506,3720 Z"/>
 <path fill="rgb(255,211,32)" stroke="none" d="M 13865,4146 L 13864,4140 13864,4135 13863,4129 13863,4124 13862,4119 13860,4113 13859,4108 13857,4103 13855,4098 13853,4093 13850,4088 13848,4083 13845,4079 13842,4074 13839,4070 13835,4065 13832,4061 13828,4057 13824,4054 13820,4050 13816,4047 13811,4043 13807,4040 13802,4038 13797,4035 13792,4032 13787,4030 13782,4028 13777,4027 13772,4025 13767,4024 13761,4023 13756,4022 13750,4021 13745,4021 13740,4021 13734,4021 13729,4021 13723,4022 13718,4023 13712,4024 13707,4025 13702,4027 13697,4028 13692,4030 13687,4032 13682,4035 13677,4038 13672,4040 13668,4043 13663,4047 13659,4050 13655,4054 13651,4057 13647,4061 13644,4065 13640,4070 13637,4074 13634,4079 13631,4083 13629,4088 13626,4093 13624,4098 13622,4103 13620,4108 13619,4113 13617,4119 13616,4124 13616,4129 13615,4135 13615,4140 13615,4146 13615,4151 13615,4157 13616,4162 13616,4167 13617,4173 13619,4178 13620,4183 13622,4189 13624,4194 13626,4199 13629,4203 13631,4208 13634,4213 13637,4217 13640,4222 13644,4226 13647,4230 13651,4234 13655,4238 13659,4242 13663,4245 13668,4248 13672,4251 13677,4254 13682,4257 13687,4259 13692,4261 13697,4263 13702,4265 13707,4267 13712,4268 13718,4269 13723,4270 13729,4270 13734,4271 13740,4271 13745,4271 13750,4270 13756,4270 13761,4269 13767,4268 13772,4267 13777,4265 13782,4263 13787,4261 13792,4259 13797,4257 13802,4254 13807,4251 13811,4248 13816,4245 13820,4242 13824,4238 13828,4234 13832,4230 13835,4226 13839,4222 13842,4217 13845,4213 13848,4208 13850,4203 13853,4199 13855,4194 13857,4189 13859,4183 13860,4178 13862,4173 13863,4167 13863,4162 13864,4157 13864,4151 13865,4146 Z"/>
 <path fill="none" stroke="rgb(255,211,32)" stroke-linejoin="round" d="M 13865,4146 L 13864,4140 13864,4135 13863,4129 13863,4124 13862,4119 13860,4113 13859,4108 13857,4103 13855,4098 13853,4093 13850,4088 13848,4083 13845,4079 13842,4074 13839,4070 13835,4065 13832,4061 13828,4057 13824,4054 13820,4050 13816,4047 13811,4043 13807,4040 13802,4038 13797,4035 13792,4032 13787,4030 13782,4028 13777,4027 13772,4025 13767,4024 13761,4023 13756,4022 13750,4021 13745,4021 13740,4021 13734,4021 13729,4021 13723,4022 13718,4023 13712,4024 13707,4025 13702,4027 13697,4028 13692,4030 13687,4032 13682,4035 13677,4038 13672,4040 13668,4043 13663,4047 13659,4050 13655,4054 13651,4057 13647,4061 13644,4065 13640,4070 13637,4074 13634,4079 13631,4083 13629,4088 13626,4093 13624,4098 13622,4103 13620,4108 13619,4113 13617,4119 13616,4124 13616,4129 13615,4135 13615,4140 13615,4146 13615,4151 13615,4157 13616,4162 13616,4167 13617,4173 13619,4178 13620,4183 13622,4189 13624,4194 13626,4199 13629,4203 13631,4208 13634,4213 13637,4217 13640,4222 13644,4226 13647,4230 13651,4234 13655,4238 13659,4242 13663,4245 13668,4248 13672,4251 13677,4254 13682,4257 13687,4259 13692,4261 13697,4263 13702,4265 13707,4267 13712,4268 13718,4269 13723,4270 13729,4270 13734,4271 13740,4271 13745,4271 13750,4270 13756,4270 13761,4269 13767,4268 13772,4267 13777,4265 13782,4263 13787,4261 13792,4259 13797,4257 13802,4254 13807,4251 13811,4248 13816,4245 13820,4242 13824,4238 13828,4234 13832,4230 13835,4226 13839,4222 13842,4217 13845,4213 13848,4208 13850,4203 13853,4199 13855,4194 13857,4189 13859,4183 13860,4178 13862,4173 13863,4167 13863,4162 13864,4157 13864,4151 13865,4146 Z"/>
 <path fill="none" stroke="rgb(87,157,28)" stroke-width="80" stroke-linejoin="round" d="M 1949,4681 L 4307,3489 6665,3005 9023,3556 11381,2419 13740,3079"/>
 <path fill="rgb(87,157,28)" stroke="none" d="M 1949,4556 L 1974,4656 2074,4681 1974,4706 1949,4805 1924,4706 1824,4681 1924,4656 1949,4556 Z"/>
 <path fill="none" stroke="rgb(87,157,28)" stroke-linejoin="round" d="M 1949,4556 L 1974,4656 2074,4681 1974,4706 1949,4805 1924,4706 1824,4681 1924,4656 1949,4556 Z"/>
 <path fill="rgb(87,157,28)" stroke="none" d="M 4307,3364 L 4332,3464 4432,3489 4332,3514 4307,3614 4282,3514 4182,3489 4282,3464 4307,3364 Z"/>
 <path fill="none" stroke="rgb(87,157,28)" stroke-linejoin="round" d="M 4307,3364 L 4332,3464 4432,3489 4332,3514 4307,3614 4282,3514 4182,3489 4282,3464 4307,3364 Z"/>
 <path fill="rgb(87,157,28)" stroke="none" d="M 6665,2880 L 6690,2980 6790,3005 6690,3030 6665,3130 6640,3030 6540,3005 6640,2980 6665,2880 Z"/>
 <path fill="none" stroke="rgb(87,157,28)" stroke-linejoin="round" d="M 6665,2880 L 6690,2980 6790,3005 6690,3030 6665,3130 6640,3030 6540,3005 6640,2980 6665,2880 Z"/>
 <path fill="rgb(87,157,28)" stroke="none" d="M 9023,3431 L 9048,3531 9148,3556 9048,3581 9023,3681 8998,3581 8898,3556 8998,3531 9023,3431 Z"/>
 <path fill="none" stroke="rgb(87,157,28)" stroke-linejoin="round" d="M 9023,3431 L 9048,3531 9148,3556 9048,3581 9023,3681 8998,3581 8898,3556 8998,3531 9023,3431 Z"/>
 <path fill="rgb(87,157,28)" stroke="none" d="M 11381,2294 L 11406,2394 11506,2419 11406,2444 11381,2544 11356,2444 11256,2419 11356,2394 11381,2294 Z"/>
 <path fill="none" stroke="rgb(87,157,28)" stroke-linejoin="round" d="M 11381,2294 L 11406,2394 11506,2419 11406,2444 11381,2544 11356,2444 11256,2419 11356,2394 11381,2294 Z"/>
 <path fill="rgb(87,157,28)" stroke="none" d="M 13740,2954 L 13765,3054 13865,3079 13765,3104 13740,3204 13715,3104 13615,3079 13715,3054 13740,2954 Z"/>
 <path fill="none" stroke="rgb(87,157,28)" stroke-linejoin="round" d="M 13740,2954 L 13765,3054 13865,3079 13765,3104 13740,3204 13715,3104 13615,3079 13715,3054 13740,2954 Z"/>
 <path fill="none" stroke="rgb(126,0,33)" stroke-width="80" stroke-linejoin="round" d="M 1949,5356 L 4307,5122 6665,4375 9023,4695 11381,4716 13740,4751"/>
 <path fill="rgb(126,0,33)" stroke="none" d="M 1824,5231 L 1824,5481 2074,5356 1824,5231 Z"/>
 <path fill="none" stroke="rgb(126,0,33)" stroke-linejoin="round" d="M 1824,5231 L 1824,5481 2074,5356 1824,5231 Z"/>
 <path fill="rgb(126,0,33)" stroke="none" d="M 4182,4997 L 4182,5247 4432,5122 4182,4997 Z"/>
 <path fill="none" stroke="rgb(126,0,33)" stroke-linejoin="round" d="M 4182,4997 L 4182,5247 4432,5122 4182,4997 Z"/>
 <path fill="rgb(126,0,33)" stroke="none" d="M 6540,4250 L 6540,4500 6790,4375 6540,4250 Z"/>
 <path fill="none" stroke="rgb(126,0,33)" stroke-linejoin="round" d="M 6540,4250 L 6540,4500 6790,4375 6540,4250 Z"/>
 <path fill="rgb(126,0,33)" stroke="none" d="M 8898,4570 L 8898,4819 9148,4695 8898,4570 Z"/>
 <path fill="none" stroke="rgb(126,0,33)" stroke-linejoin="round" d="M 8898,4570 L 8898,4819 9148,4695 8898,4570 Z"/>
 <path fill="rgb(126,0,33)" stroke="none" d="M 11256,4591 L 11256,4840 11506,4716 11256,4591 Z"/>
 <path fill="none" stroke="rgb(126,0,33)" stroke-linejoin="round" d="M 11256,4591 L 11256,4840 11506,4716 11256,4591 Z"/>
 <path fill="rgb(126,0,33)" stroke="none" d="M 13615,4627 L 13615,4876 13865,4751 13615,4627 Z"/>
 <path fill="none" stroke="rgb(126,0,33)" stroke-linejoin="round" d="M 13615,4627 L 13615,4876 13865,4751 13615,4627 Z"/>
 <text class="TextShape"><tspan class="TextParagraph" font-family="Liberation Sans, sans-serif" font-size="353px" font-weight="400"><tspan class="TextPosition" x="1672" y="6418"><tspan fill="rgb(0,0,0)" stroke="none">100</tspan></tspan></tspan></text>
 <text class="TextShape"><tspan class="TextParagraph" font-family="Liberation Sans, sans-serif" font-size="353px" font-weight="400"><tspan class="TextPosition" x="3936" y="6418"><tspan fill="rgb(0,0,0)" stroke="none">1000</tspan></tspan></tspan></text>
 <text class="TextShape"><tspan class="TextParagraph" font-family="Liberation Sans, sans-serif" font-size="353px" font-weight="400"><tspan class="TextPosition" x="6202" y="6418"><tspan fill="rgb(0,0,0)" stroke="none">10000</tspan></tspan></tspan></text>
 <text class="TextShape"><tspan class="TextParagraph" font-family="Liberation Sans, sans-serif" font-size="353px" font-weight="400"><tspan class="TextPosition" x="8468" y="6418"><tspan fill="rgb(0,0,0)" stroke="none">100000</tspan></tspan></tspan></text>
 <text class="TextShape"><tspan class="TextParagraph" font-family="Liberation Sans, sans-serif" font-size="353px" font-weight="400"><tspan class="TextPosition" x="10734" y="6418"><tspan fill="rgb(0,0,0)" stroke="none">1000000</tspan></tspan></tspan></text>
 <text class="TextShape"><tspan class="TextParagraph" font-family="Liberation Sans, sans-serif" font-size="353px" font-weight="400"><tspan class="TextPosition" x="12999" y="6418"><tspan fill="rgb(0,0,0)" stroke="none">10000000</tspan></tspan></tspan></text>
 <text class="TextShape"><tspan class="TextParagraph" font-family="Liberation Sans, sans-serif" font-size="353px" font-weight="400"><tspan class="TextPosition" x="1514" y="5971"><tspan fill="rgb(0,0,0)" stroke="none">0</tspan></tspan></tspan></text>
 <text class="TextShape"><tspan class="TextParagraph" font-family="Liberation Sans, sans-serif" font-size="353px" font-weight="400"><tspan class="TextPosition" x="1514" y="5262"><tspan fill="rgb(0,0,0)" stroke="none">5</tspan></tspan></tspan></text>
 <text class="TextShape"><tspan class="TextParagraph" font-family="Liberation Sans, sans-serif" font-size="353px" font-weight="400"><tspan class="TextPosition" x="1329" y="4553"><tspan fill="rgb(0,0,0)" stroke="none">10</tspan></tspan></tspan></text>
 <text class="TextShape"><tspan class="TextParagraph" font-family="Liberation Sans, sans-serif" font-size="353px" font-weight="400"><tspan class="TextPosition" x="1329" y="3844"><tspan fill="rgb(0,0,0)" stroke="none">15</tspan></tspan></tspan></text>
 <text class="TextShape"><tspan class="TextParagraph" font-family="Liberation Sans, sans-serif" font-size="353px" font-weight="400"><tspan class="TextPosition" x="1329" y="3135"><tspan fill="rgb(0,0,0)" stroke="none">20</tspan></tspan></tspan></text>
 <text class="TextShape"><tspan class="TextParagraph" font-family="Liberation Sans, sans-serif" font-size="353px" font-weight="400"><tspan class="TextPosition" x="1329" y="2426"><tspan fill="rgb(0,0,0)" stroke="none">25</tspan></tspan></tspan></text>
 <text class="TextShape"><tspan class="TextParagraph" font-family="Liberation Sans, sans-serif" font-size="353px" font-weight="400"><tspan class="TextPosition" x="1329" y="1718"><tspan fill="rgb(0,0,0)" stroke="none">30</tspan></tspan></tspan></text>
 <text class="TextShape"><tspan class="TextParagraph" font-family="Segoe UI" font-size="459px" font-weight="700"><tspan class="TextPosition" x="3009" y="940"><tspan fill="rgb(0,0,0)" stroke="none">Full refill/teardown in bulks of 100 items</tspan></tspan></tspan></text>
 <path fill="none" stroke="rgb(0,69,134)" stroke-width="80" stroke-linejoin="round" d="M 1090,7993 L 1890,7993"/>
 <path fill="rgb(0,69,134)" stroke="none" d="M 1384,7888 L 1384,8099 1595,8099 1595,7888 1384,7888 Z"/>
 <path fill="none" stroke="rgb(0,69,134)" stroke-linejoin="round" d="M 1384,7888 L 1384,8099 1595,8099 1595,7888 1384,7888 Z"/>
 <path fill="none" stroke="rgb(255,66,14)" stroke-width="80" stroke-linejoin="round" d="M 7541,7993 L 8341,7993"/>
 <path fill="rgb(255,66,14)" stroke="none" d="M 7835,8099 L 8046,8099 7835,7888 8046,7888 7835,8099 Z"/>
 <path fill="none" stroke="rgb(255,66,14)" stroke-linejoin="round" d="M 7835,8099 L 8046,8099 7835,7888 8046,7888 7835,8099 Z"/>
 <path fill="none" stroke="rgb(255,211,32)" stroke-width="80" stroke-linejoin="round" d="M 1090,8491 L 1890,8491"/>
 <path fill="rgb(255,211,32)" stroke="none" d="M 1595,8491 L 1595,8486 1595,8482 1594,8477 1593,8473 1592,8468 1591,8464 1590,8459 1589,8455 1587,8451 1585,8446 1583,8442 1581,8438 1578,8434 1576,8430 1573,8427 1570,8423 1567,8420 1564,8416 1561,8413 1557,8410 1554,8407 1550,8405 1546,8402 1542,8400 1538,8397 1534,8395 1530,8394 1526,8392 1521,8390 1517,8389 1512,8388 1508,8387 1503,8386 1499,8386 1494,8386 1490,8386 1485,8386 1480,8386 1476,8386 1471,8387 1467,8388 1462,8389 1458,8390 1453,8392 1449,8394 1445,8395 1441,8397 1437,8400 1433,8402 1429,8405 1425,8407 1422,8410 1418,8413 1415,8416 1412,8420 1409,8423 1406,8427 1403,8430 1401,8434 1398,8438 1396,8442 1394,8446 1392,8451 1390,8455 1389,8459 1388,8464 1387,8468 1386,8473 1385,8477 1384,8482 1384,8486 1384,8491 1384,8496 1384,8500 1385,8505 1386,8509 1387,8514 1388,8518 1389,8523 1390,8527 1392,8531 1394,8536 1396,8540 1398,8544 1401,8548 1403,8552 1406,8555 1409,8559 1412,8562 1415,8566 1418,8569 1422,8572 1425,8575 1429,8577 1433,8580 1437,8582 1441,8585 1445,8587 1449,8588 1453,8590 1458,8592 1462,8593 1467,8594 1471,8595 1476,8596 1480,8596 1485,8596 1490,8597 1494,8596 1499,8596 1503,8596 1508,8595 1512,8594 1517,8593 1521,8592 1526,8590 1530,8588 1534,8587 1538,8585 1542,8582 1546,8580 1550,8577 1554,8575 1557,8572 1561,8569 1564,8566 1567,8562 1570,8559 1573,8555 1576,8552 1578,8548 1581,8544 1583,8540 1585,8536 1587,8531 1589,8527 1590,8523 1591,8518 1592,8514 1593,8509 1594,8505 1595,8500 1595,8496 1595,8491 Z"/>
 <path fill="none" stroke="rgb(255,211,32)" stroke-linejoin="round" d="M 1595,8491 L 1595,8486 1595,8482 1594,8477 1593,8473 1592,8468 1591,8464 1590,8459 1589,8455 1587,8451 1585,8446 1583,8442 1581,8438 1578,8434 1576,8430 1573,8427 1570,8423 1567,8420 1564,8416 1561,8413 1557,8410 1554,8407 1550,8405 1546,8402 1542,8400 1538,8397 1534,8395 1530,8394 1526,8392 1521,8390 1517,8389 1512,8388 1508,8387 1503,8386 1499,8386 1494,8386 1490,8386 1485,8386 1480,8386 1476,8386 1471,8387 1467,8388 1462,8389 1458,8390 1453,8392 1449,8394 1445,8395 1441,8397 1437,8400 1433,8402 1429,8405 1425,8407 1422,8410 1418,8413 1415,8416 1412,8420 1409,8423 1406,8427 1403,8430 1401,8434 1398,8438 1396,8442 1394,8446 1392,8451 1390,8455 1389,8459 1388,8464 1387,8468 1386,8473 1385,8477 1384,8482 1384,8486 1384,8491 1384,8496 1384,8500 1385,8505 1386,8509 1387,8514 1388,8518 1389,8523 1390,8527 1392,8531 1394,8536 1396,8540 1398,8544 1401,8548 1403,8552 1406,8555 1409,8559 1412,8562 1415,8566 1418,8569 1422,8572 1425,8575 1429,8577 1433,8580 1437,8582 1441,8585 1445,8587 1449,8588 1453,8590 1458,8592 1462,8593 1467,8594 1471,8595 1476,8596 1480,8596 1485,8596 1490,8597 1494,8596 1499,8596 1503,8596 1508,8595 1512,8594 1517,8593 1521,8592 1526,8590 1530,8588 1534,8587 1538,8585 1542,8582 1546,8580 1550,8577 1554,8575 1557,8572 1561,8569 1564,8566 1567,8562 1570,8559 1573,8555 1576,8552 1578,8548 1581,8544 1583,8540 1585,8536 1587,8531 1589,8527 1590,8523 1591,8518 1592,8514 1593,8509 1594,8505 1595,8500 1595,8496 1595,8491 Z"/>
 <path fill="none" stroke="rgb(87,157,28)" stroke-width="80" stroke-linejoin="round" d="M 7541,8491 L 8341,8491"/>
 <path fill="rgb(87,157,28)" stroke="none" d="M 7941,8386 L 7962,8470 8046,8491 7962,8512 7941,8597 7919,8512 7835,8491 7919,8470 7941,8386 Z"/>
 <path fill="none" stroke="rgb(87,157,28)" stroke-linejoin="round" d="M 7941,8386 L 7962,8470 8046,8491 7962,8512 7941,8597 7919,8512 7835,8491 7919,8470 7941,8386 Z"/>
 <path fill="none" stroke="rgb(126,0,33)" stroke-width="80" stroke-linejoin="round" d="M 1090,8989 L 1890,8989"/>
 <path fill="rgb(126,0,33)" stroke="none" d="M 1384,8884 L 1384,9095 1595,8989 1384,8884 Z"/>
 <path fill="none" stroke="rgb(126,0,33)" stroke-linejoin="round" d="M 1384,8884 L 1384,9095 1595,8989 1384,8884 Z"/>
 <text class="TextShape"><tspan class="TextParagraph" font-family="Liberation Sans, sans-serif" font-size="353px" font-weight="400"><tspan class="TextPosition" x="1990" y="8113"><tspan fill="rgb(0,0,0)" stroke="none">TeardownSet::delete_range()         </tspan></tspan></tspan></text>
 <text class="TextShape"><tspan class="TextParagraph" font-family="Liberation Sans, sans-serif" font-size="353px" font-weight="400"><tspan class="TextPosition" x="8441" y="8113"><tspan fill="rgb(0,0,0)" stroke="none">Treap::remove_range()               </tspan></tspan></tspan></text>
 <text class="TextShape"><tspan class="TextParagraph" font-family="Liberation Sans, sans-serif" font-size="353px" font-weight="400"><tspan class="TextPosition" x="1990" y="8611"><tspan fill="rgb(0,0,0)" stroke="none">BTreeSet::remove()                  </tspan></tspan></tspan></text>
 <text class="TextShape"><tspan class="TextParagraph" font-family="Liberation Sans, sans-serif" font-size="353px" font-weight="400"><tspan class="TextPosition" x="8441" y="8611"><tspan fill="rgb(0,0,0)" stroke="none">SplayTree::remove_range()           </tspan></tspan></tspan></text>
 <text class="TextShape"><tspan class="TextParagraph" font-family="Liberation Sans, sans-serif" font-size="353px" font-weight="400"><tspan class="TextPosition" x="1990" y="9109"><tspan fill="rgb(0,0,0)" stroke="none">TeardownSet::delete()               </tspan></tspan></tspan></text>
 <text class="TextShape"><tspan class="TextParagraph" font-family="Segoe UI" font-size="318px" font-weight="700"><tspan class="TextPosition" x="7787" y="7102"><tspan fill="rgb(0,0,0)" stroke="none">N</tspan></tspan></tspan></text>
 <text class="TextShape" transform="translate(860,4914) rotate(-90) translate(-860,-4914)"><tspan class="TextParagraph" font-family="Segoe UI" font-size="318px" font-weight="700"><tspan class="TextPosition" x="860" y="4914"><tspan fill="rgb(0,0,0)" stroke="none">Times slower</tspan></tspan></tspan></text>
</svg>