<?xml version="1.0" encoding="UTF-8"?>
<!DOCTYPE svg PUBLIC "-//W3C//DTD SVG 1.1//EN" "http://www.w3.org/Graphics/SVG/1.1/DTD/svg11.dtd">
<svg width="148mm" height="95mm" viewBox="0 0 14800 9500" version="1.1" xmlns="http://www.w3.org/2000/svg" stroke-width="28.222" stroke-linejoin="round" xml:space="preserve">
 <path fill="rgb(255,255,255)" stroke="none" d="M 7387,9474 L -5,9474 -5,0 14778,0 14778,9474 7387,9474 Z"/>
 <path fill="none" stroke="rgb(0,0,0)" stroke-linejoin="round" d="M 7387,9474 L -5,9474 -5,0 14778,0 14778,9474 7387,9474 Z"/>
 <path fill="none" stroke="rgb(179,179,179)" stroke-linejoin="round" d="M 7844,5851 L 1949,5851 1949,1599 13740,1599 13740,5851 7844,5851 Z"/>
 <path fill="none" stroke="rgb(179,179,179)" stroke-linejoin="round" d="M 13740,5850 L 1949,5850"/>
 <path fill="none" stroke="rgb(179,179,179)" stroke-linejoin="round" d="M 13740,4999 L 1949,4999"/>
 <path fill="none" stroke="rgb(179,179,179)" stroke-linejoin="round" d="M 13740,4149 L 1949,4149"/>
 <path fill="none" stroke="rgb(179,179,179)" stroke-linejoin="round" d="M 13740,3299 L 1949,3299"/>
 <path fill="none" stroke="rgb(179,179,179)" stroke-linejoin="round" d="M 13740,2448 L 1949,2448"/>
 <path fill="none" stroke="rgb(179,179,179)" stroke-linejoin="round" d="M 13740,1598 L 1949,1598"/>
 <path fill="none" stroke="rgb(179,179,179)" stroke-linejoin="round" d="M 1949,6000 L 1949,5850"/>
 <path fill="none" stroke="rgb(179,179,179)" stroke-linejoin="round" d="M 1949,6000 L 1949,5850"/>
 <path fill="none" stroke="rgb(179,179,179)" stroke-linejoin="round" d="M 4897,6000 L 4897,5850"/>
 <path fill="none" stroke="rgb(179,179,179)" stroke-linejoin="round" d="M 4897,6000 L 4897,5850"/>
 <path fill="none" stroke="rgb(179,179,179)" stroke-linejoin="round" d="M 7844,6000 L 7844,5850"/>
 <path fill="none" stroke="rgb(179,179,179)" stroke-linejoin="round" d="M 7844,6000 L 7844,5850"/>
 <path fill="none" stroke="rgb(179,179,179)" stroke-linejoin="round" d="M 10792,6000 L 10792,5850"/>
 <path fill="none" stroke="rgb(179,179,179)" stroke-linejoin="round" d="M 10792,6000 L 10792,5850"/>
 <path fill="none" stroke="rgb(179,179,179)" stroke-linejoin="round" d="M 13740,6000 L 13740,5850"/>
 <path fill="none" stroke="rgb(179,179,179)" stroke-linejoin="round" d="M 13740,6000 L 13740,5850"/>
 <path fill="none" stroke="rgb(179,179,179)" stroke-linejoin="round" d="M 1949,5850 L 13740,5850"/>
 <path fill="none" stroke="rgb(179,179,179)" stroke-linejoin="round" d="M 1799,5850 L 1949,5850"/>
 <path fill="none" stroke="rgb(179,179,179)" stroke-linejoin="round" d="M 1799,5850 L 1949,5850"/>
 <path fill="none" stroke="rgb(179,179,179)" stroke-linejoin="round" d="M 1799,4999 L 1949,4999"/>
 <path fill="none" stroke="rgb(179,179,179)" stroke-linejoin="round" d="M 1799,4999 L 1949,4999"/>
 <path fill="none" stroke="rgb(179,179,179)" stroke-linejoin="round" d="M 1799,4149 L 1949,4149"/>
 <path fill="none" stroke="rgb(179,179,179)" stroke-linejoin="round" d="M 1799,4149 L 1949,4149"/>
 <path fill="none" stroke="rgb(179,179,179)" stroke-linejoin="round" d="M 1799,3299 L 1949,3299"/>
 <path fill="none" stroke="rgb(179,179,179)" stroke-linejoin="round" d="M 1799,3299 L 1949,3299"/>
 <path fill="none" stroke="rgb(179,179,179)" stroke-linejoin="round" d="M 1799,2448 L 1949,2448"/>
 <path fill="none" stroke="rgb(179,179,179)" stroke-linejoin="round" d="M 1799,2448 L 1949,2448"/>
 <path fill="none" stroke="rgb(179,179,179)" stroke-linejoin="round" d="M 1799,1598 L 1949,1598"/>
 <path fill="none" stroke="rgb(179,179,179)" stroke-linejoin="round" d="M 1799,1598 L 1949,1598"/>
 <path fill="none" stroke="rgb(179,179,179)" stroke-linejoin="round" d="M 1949,5850 L 1949,1598"/>
 <path fill="none" stroke="rgb(0,69,134)" stroke-width="80" stroke-linejoin="round" d="M 1949,5679 L 4897,5679 7844,5679 10792,5679 13740,5679"/>
 <path fill="rgb(0,69,134)" stroke="none" d="M 1824,5554 L 1824,5804 2074,5804 2074,5554 1824,5554 Z"/>
 <path fill="none" stroke="rgb(0,69,134)" stroke-linejoin="round" d="M 1824,5554 L 1824,5804 2074,5804 2074,5554 1824,5554 Z"/>
 <path fill="rgb(0,69,134)" stroke="none" d="M 4772,5554 L 4772,5804 5022,5804 5022,5554 4772,5554 Z"/>
 <path fill="none" stroke="rgb(0,69,134)" stroke-linejoin="round" d="M 4772,5554 L 4772,5804 5022,5804 5022,5554 4772,5554 Z"/>
 <path fill="rgb(0,69,134)" stroke="none" d="M 7719,5554 L 7719,5804 7969,5804 7969,5554 7719,5554 Z"/>
 <path fill="none" stroke="rgb(0,69,134)" stroke-linejoin="round" d="M 7719,5554 L 7719,5804 7969,5804 7969,5554 7719,5554 Z"/>
 <path fill="rgb(0,69,134)" stroke="none" d="M 10667,5554 L 10667,5804 10917,5804 10917,5554 10667,5554 Z"/>
 <path fill="none" stroke="rgb(0,69,134)" stroke-linejoin="round" d="M 10667,5554 L 10667,5804 10917,5804 10917,5554 10667,5554 Z"/>
 <path fill="rgb(0,69,134)" stroke="none" d="M 13615,5554 L 13615,5804 13865,5804 13865,5554 13615,5554 Z"/>
 <path fill="none" stroke="rgb(0,69,134)" stroke-linejoin="round" d="M 13615,5554 L 13615,5804 13865,5804 13865,5554 13615,5554 Z"/>
 <path fill="none" stroke="rgb(255,66,14)" stroke-width="80" stroke-linejoin="round" d="M 1949,4050 L 4897,3584 7844,3317 10792,2986 13740,3324"/>
 <path fill="rgb(255,66,14)" stroke="none" d="M 1824,4175 L 2074,4175 1824,3925 2074,3925 1824,4175 Z"/>
 <path fill="none" stroke="rgb(255,66,14)" stroke-linejoin="round" d="M 1824,4175 L 2074,4175 1824,3925 2074,3925 1824,4175 Z"/>
 <path fill="rgb(255,66,14)" stroke="none" d="M 4772,3709 L 5022,3709 4772,3459 5022,3459 4772,3709 Z"/>
 <path fill="none" stroke="rgb(255,66,14)" stroke-linejoin="round" d="M 4772,3709 L 5022,3709 4772,3459 5022,3459 4772,3709 Z"/>
 <path fill="rgb(255,66,14)" stroke="none" d="M 7719,3442 L 7969,3442 7719,3192 7969,3192 7719,3442 Z"/>
 <path fill="none" stroke="rgb(255,66,14)" stroke-linejoin="round" d="M 7719,3442 L 7969,3442 7719,3192 7969,3192 7719,3442 Z"/>
 <path fill="rgb(255,66,14)" stroke="none" d="M 10667,3111 L 10917,3111 10667,2861 10917,2861 10667,3111 Z"/>
 <path fill="none" stroke="rgb(255,66,14)" stroke-linejoin="round" d="M 10667,3111 L 10917,3111 10667,2861 10917,2861 10667,3111 Z"/>
 <path fill="rgb(255,66,14)" stroke="none" d="M 13615,3449 L 13865,3449 13615,3199 13865,3199 13615,3449 Z"/>
 <path fill="none" stroke="rgb(255,66,14)" stroke-linejoin="round" d="M 13615,3449 L 13865,3449 13615,3199 13865,3199 13615,3449 Z"/>
 <path fill="none" stroke="rgb(255,211,32)" stroke-width="80" stroke-linejoin="round" d="M 1949,4501 L 4897,3047 7844,2478 10792,2264 13740,2369"/>
 <path fill="rgb(255,211,32)" stroke="none" d="M 2074,4501 L 2073,4495 2073,4490 2072,4484 2072,4479 2071,4473 2069,4468 2068,4463 2066,4458 2064,4453 2062,4448 2059,4443 2057,4438 2054,4433 2051,4429 2048,4424 2044,4420 2041,4416 2037,4412 2033,4408 2029,4405 2025,4401 2020,4398 2016,4395 2011,4392 2006,4390 2001,4387 1996,4385 1991,4383 1986,4381 1981,4380 1976,4379 1970,4377 1965,4377 1959,4376 1954,4376 1949,4376 1943,4376 1938,4376 1932,4377 1927,4377 1921,4379 1916,4380 1911,4381 1906,4383 1901,4385 1896,4387 1891,4390 1886,4392 1881,4395 1877,4398 1872,4401 1868,4405 1864,4408 1860,4412 1856,4416 1853,4420 1849,4424 1846,4429 1843,4433 1840,4438 1838,4443 1835,4448 1833,4453 1831,4458 1829,4463 1828,4468 1826,4473 1825,4479 1825,4484 1824,4490 1824,4495 1824,4501 1824,4506 1824,4511 1825,4517 1825,4522 1826,4528 1828,4533 1829,4538 1831,4543 1833,4548 1835,4553 1838,4558 1840,4563 1843,4568 1846,4572 1849,4577 1853,4581 1856,4585 1860,4589 1864,4593 1868,4596 1872,4600 1877,4603 1881,4606 1886,4609 1891,4611 1896,4614 1901,4616 1906,4618 1911,4620 1916,4621 1921,4623 1927,4624 1932,4624 1938,4625 1943,4625 1949,4626 1954,4625 1959,4625 1965,4624 1970,4624 1976,4623 1981,4621 1986,4620 1991,4618 1996,4616 2001,4614 2006,4611 2011,4609 2016,4606 2020,4603 2025,4600 2029,4596 2033,4593 2037,4589 2041,4585 2044,4581 2048,4577 2051,4572 2054,4568 2057,4563 2059,4558 2062,4553 2064,4548 2066,4543 2068,4538 2069,4533 2071,4528 2072,4522 2072,4517 2073,4511 2073,4506 2074,4501 Z"/>
 <path fill="none" stroke="rgb(255,211,32)" stroke-linejoin="round" d="M 2074,4501 L 2073,4495 2073,4490 2072,4484 2072,4479 2071,4473 2069,4468 2068,4463 2066,4458 2064,4453 2062,4448 2059,4443 2057,4438 2054,4433 2051,4429 2048,4424 2044,4420 2041,4416 2037,4412 2033,4408 2029,4405 2025,4401 2020,4398 2016,4395 2011,4392 2006,4390 2001,4387 1996,4385 1991,4383 1986,4381 1981,4380 1976,4379 1970,4377 1965,4377 1959,4376 1954,4376 1949,4376 1943,4376 1938,4376 1932,4377 1927,4377 1921,4379 1916,4380 1911,4381 1906,4383 1901,4385 1896,4387 1891,4390 1886,4392 1881,4395 1877,4398 1872,4401 1868,4405 1864,4408 1860,4412 1856,4416 1853,4420 1849,4424 1846,4429 1843,4433 1840,4438 1838,4443 1835,4448 1833,4453 1831,4458 1829,4463 1828,4468 1826,4473 1825,4479 1825,4484 1824,4490 1824,4495 1824,4501 1824,4506 1824,4511 1825,4517 1825,4522 1826,4528 1828,4533 1829,4538 1831,4543 1833,4548 1835,4553 1838,4558 1840,4563 1843,4568 1846,4572 1849,4577 1853,4581 1856,4585 1860,4589 1864,4593 1868,4596 1872,4600 1877,4603 1881,4606 1886,4609 1891,4611 1896,4614 1901,4616 1906,4618 1911,4620 1916,4621 1921,4623 1927,4624 1932,4624 1938,4625 1943,4625 1949,4626 1954,4625 1959,4625 1965,4624 1970,4624 1976,4623 1981,4621 1986,4620 1991,4618 1996,4616 2001,4614 2006,4611 2011,4609 2016,4606 2020,4603 2025,4600 2029,4596 2033,4593 2037,4589 2041,4585 2044,4581 2048,4577 2051,4572 2054,4568 2057,4563 2059,4558 2062,4553 2064,4548 2066,4543 2068,4538 2069,4533 2071,4528 2072,4522 2072,4517 2073,4511 2073,4506 2074,4501 Z"/>
 <path fill="rgb(255,211,32)" stroke="none" d="M 5022,3047 L 5021,3042 5021,3036 5020,3031 5020,3026 5019,3020 5017,3015 5016,3010 5014,3005 5012,2999 5010,2994 5007,2990 5005,2985 5002,2980 4999,2976 4996,2971 4992,2967 4989,2963 4985,2959 4981,2955 4977,2952 4973,2948 4968,2945 4964,2942 4959,2939 4954,2936 4949,2934 4944,2932 4939,2930 4934,2928 4929,2927 4924,2925 4918,2924 4913,2923 4907,2923 4902,2922 4897,2922 4891,2922 4886,2923 4880,2923 4875,2924 4869,2925 4864,2927 4859,2928 4854,2930 4849,2932 4844,2934 4839,2936 4834,2939 4829,2942 4825,2945 4820,2948 4816,2952 4812,2955 4808,2959 4804,2963 4801,2967 4797,2971 4794,2976 4791,2980 4788,2985 4786,2990 4783,2994 4781,2999 4779,3005 4777,3010 4776,3015 4774,3020 4773,3026 4773,3031 4772,3036 4772,3042 4772,3047 4772,3053 4772,3058 4773,3064 4773,3069 4774,3074 4776,3080 4777,3085 4779,3090 4781,3095 4783,3100 4786,3105 4788,3110 4791,3114 4794,3119 4797,3123 4801,3128 4804,3132 4808,3136 4812,3139 4816,3143 4820,3146 4825,3150 4829,3153 4834,3156 4839,3158 4844,3161 4849,3163 4854,3165 4859,3167 4864,3168 4869,3169 4875,3170 4880,3171 4886,3172 4891,3172 4897,3172 4902,3172 4907,3172 4913,3171 4918,3170 4924,3169 4929,3168 4934,3167 4939,3165 4944,3163 4949,3161 4954,3158 4959,3156 4964,3153 4968,3150 4973,3146 4977,3143 4981,3139 4985,3136 4989,3132 4992,3128 4996,3123 4999,3119 5002,3114 5005,3110 5007,3105 5010,3100 5012,3095 5014,3090 5016,3085 5017,3080 5019,3074 5020,3069 5020,3064 5021,3058 5021,3053 5022,3047 Z"/>
 <path fill="none" stroke="rgb(255,211,32)" stroke-linejoin="round" d="M 5022,3047 L 5021,3042 5021,3036 5020,3031 5020,3026 5019,3020 5017,3015 5016,3010 5014,3005 5012,2999 5010,2994 5007,2990 5005,2985 5002,2980 4999,2976 4996,2971 4992,2967 4989,2963 4985,2959 4981,2955 4977,2952 4973,2948 4968,2945 4964,2942 4959,2939 4954,2936 4949,2934 4944,2932 4939,2930 4934,2928 4929,2927 4924,2925 4918,2924 4913,2923 4907,2923 4902,2922 4897,2922 4891,2922 4886,2923 4880,2923 4875,2924 4869,2925 4864,2927 4859,2928 4854,2930 4849,2932 4844,2934 4839,2936 4834,2939 4829,2942 4825,2945 4820,2948 4816,2952 4812,2955 4808,2959 4804,2963 4801,2967 4797,2971 4794,2976 4791,2980 4788,2985 4786,2990 4783,2994 4781,2999 4779,3005 4777,3010 4776,3015 4774,3020 4773,3026 4773,3031 4772,3036 4772,3042 4772,3047 4772,3053 4772,3058 4773,3064 4773,3069 4774,3074 4776,3080 4777,3085 4779,3090 4781,3095 4783,3100 4786,3105 4788,3110 4791,3114 4794,3119 4797,3123 4801,3128 4804,3132 4808,3136 4812,3139 4816,3143 4820,3146 4825,3150 4829,3153 4834,3156 4839,3158 4844,3161 4849,3163 4854,3165 4859,3167 4864,3168 4869,3169 4875,3170 4880,3171 4886,3172 4891,3172 4897,3172 4902,3172 4907,3172 4913,3171 4918,3170 4924,3169 4929,3168 4934,3167 4939,3165 4944,3163 4949,3161 4954,3158 4959,3156 4964,3153 4968,3150 4973,3146 4977,3143 4981,3139 4985,3136 4989,3132 4992,3128 4996,3123 4999,3119 5002,3114 5005,3110 5007,3105 5010,3100 5012,3095 5014,3090 5016,3085 5017,3080 5019,3074 5020,3069 5020,3064 5021,3058 5021,3053 5022,3047 Z"/>
 <path fill="rgb(255,211,32)" stroke="none" d="M 7969,2478 L 7968,2473 7968,2468 7967,2462 7967,2457 7966,2451 7964,2446 7963,2441 7961,2436 7959,2431 7957,2426 7954,2421 7952,2416 7949,2411 7946,2407 7943,2402 7939,2398 7936,2394 7932,2390 7928,2386 7924,2383 7920,2379 7915,2376 7911,2373 7906,2370 7901,2368 7896,2365 7891,2363 7886,2361 7881,2359 7876,2358 7871,2356 7865,2355 7860,2355 7854,2354 7849,2354 7844,2353 7838,2354 7833,2354 7827,2355 7822,2355 7816,2356 7811,2358 7806,2359 7801,2361 7796,2363 7791,2365 7786,2368 7781,2370 7776,2373 7772,2376 7767,2379 7763,2383 7759,2386 7755,2390 7751,2394 7748,2398 7744,2402 7741,2407 7738,2411 7735,2416 7733,2421 7730,2426 7728,2431 7726,2436 7724,2441 7723,2446 7721,2451 7720,2457 7720,2462 7719,2468 7719,2473 7719,2478 7719,2484 7719,2489 7720,2495 7720,2500 7721,2505 7723,2511 7724,2516 7726,2521 7728,2526 7730,2531 7733,2536 7735,2541 7738,2546 7741,2550 7744,2555 7748,2559 7751,2563 7755,2567 7759,2571 7763,2574 7767,2578 7772,2581 7776,2584 7781,2587 7786,2589 7791,2592 7796,2594 7801,2596 7806,2598 7811,2599 7816,2600 7822,2602 7827,2602 7833,2603 7838,2603 7844,2603 7849,2603 7854,2603 7860,2602 7865,2602 7871,2600 7876,2599 7881,2598 7886,2596 7891,2594 7896,2592 7901,2589 7906,2587 7911,2584 7915,2581 7920,2578 7924,2574 7928,2571 7932,2567 7936,2563 7939,2559 7943,2555 7946,2550 7949,2546 7952,2541 7954,2536 7957,2531 7959,2526 7961,2521 7963,2516 7964,2511 7966,2505 7967,2500 7967,2495 7968,2489 7968,2484 7969,2478 Z"/>
 <path fill="none" stroke="rgb(255,211,32)" stroke-linejoin="round" d="M 7969,2478 L 7968,2473 7968,2468 7967,2462 7967,2457 7966,2451 7964,2446 7963,2441 7961,2436 7959,2431 7957,2426 7954,2421 7952,2416 7949,2411 7946,2407 7943,2402 7939,2398 7936,2394 7932,2390 7928,2386 7924,2383 7920,2379 7915,2376 7911,2373 7906,2370 7901,2368 7896,2365 7891,2363 7886,2361 7881,2359 7876,2358 7871,2356 7865,2355 7860,2355 7854,2354 7849,2354 7844,2353 7838,2354 7833,2354 7827,2355 7822,2355 7816,2356 7811,2358 7806,2359 7801,2361 7796,2363 7791,2365 7786,2368 7781,2370 7776,2373 7772,2376 7767,2379 7763,2383 7759,2386 7755,2390 7751,2394 7748,2398 7744,2402 7741,2407 7738,2411 7735,2416 7733,2421 7730,2426 7728,2431 7726,2436 7724,2441 7723,2446 7721,2451 7720,2457 7720,2462 7719,2468 7719,2473 7719,2478 7719,2484 7719,2489 7720,2495 7720,2500 7721,2505 7723,2511 7724,2516 7726,2521 7728,2526 7730,2531 7733,2536 7735,2541 7738,2546 7741,2550 7744,2555 7748,2559 7751,2563 7755,2567 7759,2571 7763,2574 7767,2578 7772,2581 7776,2584 7781,2587 7786,2589 7791,2592 7796,2594 7801,2596 7806,2598 7811,2599 7816,2600 7822,2602 7827,2602 7833,2603 7838,2603 7844,2603 7849,2603 7854,2603 7860,2602 7865,2602 7871,2600 7876,2599 7881,2598 7886,2596 7891,2594 7896,2592 7901,2589 7906,2587 7911,2584 7915,2581 7920,2578 7924,2574 7928,2571 7932,2567 7936,2563 7939,2559 7943,2555 7946,2550 7949,2546 7952,2541 7954,2536 7957,2531 7959,2526 7961,2521 7963,2516 7964,2511 7966,2505 7967,2500 7967,2495 7968,2489 7968,2484 7969,2478 Z"/>
 <path fill="rgb(255,211,32)" stroke="none" d="M 10917,2264 L 10916,2258 10916,2253 10915,2247 10915,2242 10914,2237 10912,2231 10911,2226 10909,2221 10907,2216 10905,2211 10902,2206 10900,2201 10897,2196 10894,2192 10891,2188 10887,2183 10884,2179 10880,2175 10876,2171 10872,2168 10868,2164 10863,2161 10859,2158 10854,2155 10849,2153 10844,2150 10839,2148 10834,2146 10829,2144 10824,2143 10819,2142 10813,2141 10808,2140 10802,2139 10797,2139 10792,2139 10786,2139 10781,2139 10775,2140 10770,2141 10764,2142 10759,2143 10754,2144 10749,2146 10744,2148 10739,2150 10734,2153 10729,2155 10724,2158 10720,2161 10715,2164 10711,2168 10707,2171 10703,2175 10699,2179 10696,2183 10692,2188 10689,2192 10686,2196 10683,2201 10681,2206 10678,2211 10676,2216 10674,2221 10672,2226 10671,2231 10669,2237 10668,2242 10668,2247 10667,2253 10667,2258 10667,2264 10667,2269 10667,2275 10668,2280 10668,2285 10669,2291 10671,2296 10672,2301 10674,2306 10676,2311 10678,2316 10681,2321 10683,2326 10686,2331 10689,2335 10692,2340 10696,2344 10699,2348 10703,2352 10707,2356 10711,2359 10715,2363 10720,2366 10724,2369 10729,2372 10734,2374 10739,2377 10744,2379 10749,2381 10754,2383 10759,2384 10764,2386 10770,2387 10775,2388 10781,2388 10786,2388 10792,2389 10797,2388 10802,2388 10808,2388 10813,2387 10819,2386 10824,2384 10829,2383 10834,2381 10839,2379 10844,2377 10849,2374 10854,2372 10859,2369 10863,2366 10868,2363 10872,2359 10876,2356 10880,2352 10884,2348 10887,2344 10891,2340 10894,2335 10897,2331 10900,2326 10902,2321 10905,2316 10907,2311 10909,2306 10911,2301 10912,2296 10914,2291 10915,2285 10915,2280 10916,2275 10916,2269 10917,2264 Z"/>
 <path fill="none" stroke="rgb(255,211,32)" stroke-linejoin="round" d="M 10917,2264 L 10916,2258 10916,2253 10915,2247 10915,2242 10914,2237 10912,2231 10911,2226 10909,2221 10907,2216 10905,2211 10902,2206 10900,2201 10897,2196 10894,2192 10891,2188 10887,2183 10884,2179 10880,2175 10876,2171 10872,2168 10868,2164 10863,2161 10859,2158 10854,2155 10849,2153 10844,2150 10839,2148 10834,2146 10829,2144 10824,2143 10819,2142 10813,2141 10808,2140 10802,2139 10797,2139 10792,2139 10786,2139 10781,2139 10775,2140 10770,2141 10764,2142 10759,2143 10754,2144 10749,2146 10744,2148 10739,2150 10734,2153 10729,2155 10724,2158 10720,2161 10715,2164 10711,2168 10707,2171 10703,2175 10699,2179 10696,2183 10692,2188 10689,2192 10686,2196 10683,2201 10681,2206 10678,2211 10676,2216 10674,2221 10672,2226 10671,2231 10669,2237 10668,2242 10668,2247 10667,2253 10667,2258 10667,2264 10667,2269 10667,2275 10668,2280 10668,2285 10669,2291 10671,2296 10672,2301 10674,2306 10676,2311 10678,2316 10681,2321 10683,2326 10686,2331 10689,2335 10692,2340 10696,2344 10699,2348 10703,2352 10707,2356 10711,2359 10715,2363 10720,2366 10724,2369 10729,2372 10734,2374 10739,2377 10744,2379 10749,2381 10754,2383 10759,2384 10764,2386 10770,2387 10775,2388 10781,2388 10786,2388 10792,2389 10797,2388 10802,2388 10808,2388 10813,2387 10819,2386 10824,2384 10829,2383 10834,2381 10839,2379 10844,2377 10849,2374 10854,2372 10859,2369 10863,2366 10868,2363 10872,2359 10876,2356 10880,2352 10884,2348 10887,2344 10891,2340 10894,2335 10897,2331 10900,2326 10902,2321 10905,2316 10907,2311 10909,2306 10911,2301 10912,2296 10914,2291 10915,2285 10915,2280 10916,2275 10916,2269 10917,2264 Z"/>
 <path fill="rgb(255,211,32)" stroke="none" d="M 13865,2369 L 13864,2364 13864,2358 13863,2353 13863,2347 13862,2342 13860,2337 13859,2332 13857,2326 13855,2321 13853,2316 13850,2311 13848,2307 13845,2302 13842,2297 13839,2293 13835,2289 13832,2285 13828,2281 13824,2277 13820,2273 13816,2270 13811,2267 13807,2264 13802,2261 13797,2258 13792,2256 13787,2254 13782,2252 13777,2250 13772,2248 13767,2247 13761,2246 13756,2245 13750,2245 13745,2244 13740,2244 13734,2244 13729,2245 13723,2245 13718,2246 13712,2247 13707,2248 13702,2250 13697,2252 13692,2254 13687,2256 13682,2258 13677,2261 13672,2264 13668,2267 13663,2270 13659,2273 13655,2277 13651,2281 13647,2285 13644,2289 13640,2293 13637,2297 13634,2302 13631,2307 13629,2311 13626,2316 13624,2321 13622,2326 13620,2332 13619,2337 13617,2342 13616,2347 13616,2353 13615,2358 13615,2364 13615,2369 13615,2375 13615,2380 13616,2385 13616,2391 13617,2396 13619,2401 13620,2407 13622,2412 13624,2417 13626,2422 13629,2427 13631,2432 13634,2436 13637,2441 13640,2445 13644,2449 13647,2454 13651,2457 13655,2461 13659,2465 13663,2468 13668,2471 13672,2475 13677,2477 13682,2480 13687,2482 13692,2485 13697,2487 13702,2488 13707,2490 13712,2491 13718,2492 13723,2493 13729,2494 13734,2494 13740,2494 13745,2494 13750,2494 13756,2493 13761,2492 13767,2491 13772,2490 13777,2488 13782,2487 13787,2485 13792,2482 13797,2480 13802,2477 13807,2475 13811,2471 13816,2468 13820,2465 13824,2461 13828,2457 13832,2454 13835,2449 13839,2445 13842,2441 13845,2436 13848,2432 13850,2427 13853,2422 13855,2417 13857,2412 13859,2407 13860,2401 13862,2396 13863,2391 13863,2385 13864,2380 13864,2375 13865,2369 Z"/>
 <path fill="none" stroke="rgb(255,211,32)" stroke-linejoin="round" d="M 13865,2369 L 13864,2364 13864,2358 13863,2353 13863,2347 13862,2342 13860,2337 13859,2332 13857,2326 13855,2321 13853,2316 13850,2311 13848,2307 13845,2302 13842,2297 13839,2293 13835,2289 13832,2285 13828,2281 13824,2277 13820,2273 13816,2270 13811,2267 13807,2264 13802,2261 13797,2258 13792,2256 13787,2254 13782,2252 13777,2250 13772,2248 13767,2247 13761,2246 13756,2245 13750,2245 13745,2244 13740,2244 13734,2244 13729,2245 13723,2245 13718,2246 13712,2247 13707,2248 13702,2250 13697,2252 13692,2254 13687,2256 13682,2258 13677,2261 13672,2264 13668,2267 13663,2270 13659,2273 13655,2277 13651,2281 13647,2285 13644,2289 13640,2293 13637,2297 13634,2302 13631,2307 13629,2311 13626,2316 13624,2321 13622,2326 13620,2332 13619,2337 13617,2342 13616,2347 13616,2353 13615,2358 13615,2364 13615,2369 13615,2375 13615,2380 13616,2385 13616,2391 13617,2396 13619,2401 13620,2407 13622,2412 13624,2417 13626,2422 13629,2427 13631,2432 13634,2436 13637,2441 13640,2445 13644,2449 13647,2454 13651,2457 13655,2461 13659,2465 13663,2468 13668,2471 13672,2475 13677,2477 13682,2480 13687,2482 13692,2485 13697,2487 13702,2488 13707,2490 13712,2491 13718,2492 13723,2493 13729,2494 13734,2494 13740,2494 13745,2494 13750,2494 13756,2493 13761,2492 13767,2491 13772,2490 13777,2488 13782,2487 13787,2485 13792,2482 13797,2480 13802,2477 13807,2475 13811,2471 13816,2468 13820,2465 13824,2461 13828,2457 13832,2454 13835,2449 13839,2445 13842,2441 13845,2436 13848,2432 13850,2427 13853,2422 13855,2417 13857,2412 13859,2407 13860,2401 13862,2396 13863,2391 13863,2385 13864,2380 13864,2375 13865,2369 Z"/>
 <path fill="none" stroke="rgb(87,157,28)" stroke-width="80" stroke-linejoin="round" d="M 1949,3728 L 4897,3656 7844,3810 10792,3823 13740,3827"/>
 <path fill="rgb(87,157,28)" stroke="none" d="M 1949,3603 L 1974,3703 2074,3728 1974,3753 1949,3853 1924,3753 1824,3728 1924,3703 1949,3603 Z"/>
 <path fill="none" stroke="rgb(87,157,28)" stroke-linejoin="round" d="M 1949,3603 L 1974,3703 2074,3728 1974,3753 1949,3853 1924,3753 1824,3728 1924,3703 1949,3603 Z"/>
 <path fill="rgb(87,157,28)" stroke="none" d="M 4897,3531 L 4922,3631 5022,3656 4922,3681 4897,3781 4872,3681 4772,3656 4872,3631 4897,3531 Z"/>
 <path fill="none" stroke="rgb(87,157,28)" stroke-linejoin="round" d="M 4897,3531 L 4922,3631 5022,3656 4922,3681 4897,3781 4872,3681 4772,3656 4872,3631 4897,3531 Z"/>
 <path fill="rgb(87,157,28)" stroke="none" d="M 7844,3685 L 7869,3785 7969,3810 7869,3835 7844,3935 7819,3835 7719,3810 7819,3785 7844,3685 Z"/>
 <path fill="none" stroke="rgb(87,157,28)" stroke-linejoin="round" d="M 7844,3685 L 7869,3785 7969,3810 7869,3835 7844,3935 7819,3835 7719,3810 7819,3785 7844,3685 Z"/>
 <path fill="rgb(87,157,28)" stroke="none" d="M 10792,3698 L 10817,3798 10917,3823 10817,3848 10792,3948 10767,3848 10667,3823 10767,3798 10792,3698 Z"/>
 <path fill="none" stroke="rgb(87,157,28)" stroke-linejoin="round" d="M 10792,3698 L 10817,3798 10917,3823 10817,3848 10792,3948 10767,3848 10667,3823 10767,3798 10792,3698 Z"/>
 <path fill="rgb(87,157,28)" stroke="none" d="M 13740,3702 L 13765,3802 13865,3827 13765,3852 13740,3952 13715,3852 13615,3827 13715,3802 13740,3702 Z"/>
 <path fill="none" stroke="rgb(87,157,28)" stroke-linejoin="round" d="M 13740,3702 L 13765,3802 13865,3827 13765,3852 13740,3952 13715,3852 13615,3827 13715,3802 13740,3702 Z"/>
 <path fill="none" stroke="rgb(126,0,33)" stroke-width="80" stroke-linejoin="round" d="M 1949,3220 L 4897,2662 7844,2322 10792,2341 13740,2131"/>
 <path fill="rgb(126,0,33)" stroke="none" d="M 1824,3095 L 1824,3345 2074,3220 1824,3095 Z"/>
 <path fill="none" stroke="rgb(126,0,33)" stroke-linejoin="round" d="M 1824,3095 L 1824,3345 2074,3220 1824,3095 Z"/>
 <path fill="rgb(126,0,33)" stroke="none" d="M 4772,2537 L 4772,2787 5022,2662 4772,2537 Z"/>
 <path fill="none" stroke="rgb(126,0,33)" stroke-linejoin="round" d="M 4772,2537 L 4772,2787 5022,2662 4772,2537 Z"/>
 <path fill="rgb(126,0,33)" stroke="none" d="M 7719,2197 L 7719,2447 7969,2322 7719,2197 Z"/>
 <path fill="none" stroke="rgb(126,0,33)" stroke-linejoin="round" d="M 7719,2197 L 7719,2447 7969,2322 7719,2197 Z"/>
 <path fill="rgb(126,0,33)" stroke="none" d="M 10667,2216 L 10667,2466 10917,2341 10667,2216 Z"/>
 <path fill="none" stroke="rgb(126,0,33)" stroke-linejoin="round" d="M 10667,2216 L 10667,2466 10917,2341 10667,2216 Z"/>
 <path fill="rgb(126,0,33)" stroke="none" d="M 13615,2006 L 13615,2256 13865,2131 13615,2006 Z"/>
 <path fill="none" stroke="rgb(126,0,33)" stroke-linejoin="round" d="M 13615,2006 L 13615,2256 13865,2131 13615,2006 Z"/>
 <text class="TextShape"><tspan class="TextParagraph" font-family="Liberation Sans, sans-serif" font-size="353px" font-weight="400"><tspan class="TextPosition" x="1579" y="6418"><tspan fill="rgb(0,0,0)" stroke="none">1000</tspan></tspan></tspan></text>
 <text class="TextShape"><tspan class="TextParagraph" font-family="Liberation Sans, sans-serif" font-size="353px" font-weight="400"><tspan class="TextPosition" x="4434" y="6418"><tspan fill="rgb(0,0,0)" stroke="none">10000</tspan></tspan></tspan></text>
 <text class="TextShape"><tspan class="TextParagraph" font-family="Liberation Sans, sans-serif" font-size="353px" font-weight="400"><tspan class="TextPosition" x="7289" y="6418"><tspan fill="rgb(0,0,0)" stroke="none">100000</tspan></tspan></tspan></text>
 <text class="TextShape"><tspan class="TextParagraph" font-family="Liberation Sans, sans-serif" font-size="353px" font-weight="400"><tspan class="TextPosition" x="10145" y="6418"><tspan fill="rgb(0,0,0)" stroke="none">1000000</tspan></tspan></tspan></text>
 <text class="TextShape"><tspan class="TextParagraph" font-family="Liberation Sans, sans-serif" font-size="353px" font-weight="400"><tspan class="TextPosition" x="12999" y="6418"><tspan fill="rgb(0,0,0)" stroke="none">10000000</tspan></tspan></tspan></text>
 <text class="TextShape"><tspan class="TextParagraph" font-family="Liberation Sans, sans-serif" font-size="353px" font-weight="400"><tspan class="TextPosition" x="1514" y="5971"><tspan fill="rgb(0,0,0)" stroke="none">0</tspan></tspan></tspan></text>
 <text class="TextShape"><tspan class="TextParagraph" font-family="Liberation Sans, sans-serif" font-size="353px" font-weight="400"><tspan class="TextPosition" x="1514" y="5120"><tspan fill="rgb(0,0,0)" stroke="none">5</tspan></tspan></tspan></text>
 <text class="TextShape"><tspan class="TextParagraph" font-family="Liberation Sans, sans-serif" font-size="353px" font-weight="400"><tspan class="TextPosition" x="1329" y="4269"><tspan fill="rgb(0,0,0)" stroke="none">10</tspan></tspan></tspan></text>
 <text class="TextShape"><tspan class="TextParagraph" font-family="Liberation Sans, sans-serif" font-size="353px" font-weight="400"><tspan class="TextPosition" x="1329" y="3419"><tspan fill="rgb(0,0,0)" stroke="none">15</tspan></tspan></tspan></text>
 <text class="TextShape"><tspan class="TextParagraph" font-family="Liberation Sans, sans-serif" font-size="353px" font-weight="400"><tspan class="TextPosition" x="1329" y="2568"><tspan fill="rgb(0,0,0)" stroke="none">20</tspan></tspan></tspan></text>
 <text class="TextShape"><tspan class="TextParagraph" font-family="Liberation Sans, sans-serif" font-size="353px" font-weight="400"><tspan class="TextPosition" x="1329" y="1719"><tspan fill="rgb(0,0,0)" stroke="none">25</tspan></tspan></tspan></text>
 <text class="TextShape"><tspan class="TextParagraph" font-family="Segoe UI" font-size="459px" font-weight="700"><tspan class="TextPosition" x="3894" y="940"><tspan fill="rgb(0,0,0)" stroke="none">Teardown in bulks of 1000 items</tspan></tspan></tspan></text>
 <path fill="none" stroke="rgb(0,69,134)" stroke-width="80" stroke-linejoin="round" d="M 1090,7993 L 1890,7993"/>
 <path fill="rgb(0,69,134)" stroke="none" d="M 1384,7888 L 1384,8099 1595,8099 1595,7888 1384,7888 Z"/>
 <path fill="none" stroke="rgb(0,69,134)" stroke-linejoin="round" d="M 1384,7888 L 1384,8099 1595,8099 1595,7888 1384,7888 Z"/>
 <path fill="none" stroke="rgb(255,66,14)" stroke-width="80" stroke-linejoin="round" d="M 7541,7993 L 8341,7993"/>
 <path fill="rgb(255,66,14)" stroke="none" d="M 7835,8099 L 8046,8099 7835,7888 8046,7888 7835,8099 Z"/>
 <path fill="none" stroke="rgb(255,66,14)" stroke-linejoin="round" d="M 7835,8099 L 8046,8099 7835,7888 8046,7888 7835,8099 Z"/>
 <path fill="none" stroke="rgb(255,211,32)" stroke-width="80" stroke-linejoin="round" d="M 1090,8491 L 1890,8491"/>
 <path fill="rgb(255,211,32)" stroke="none" d="M 1595,8491 L 1595,8486 1595,8482 1594,8477 1593,8473 1592,8468 1591,8464 1590,8459 1589,8455 1587,8451 1585,8446 1583,8442 1581,8438 1578,8434 1576,8430 1573,8427 1570,8423 1567,8420 1564,8416 1561,8413 1557,8410 1554,8407 1550,8405 1546,8402 1542,8400 1538,8397 1534,8395 1530,8394 1526,8392 1521,8390 1517,8389 1512,8388 1508,8387 1503,8386 1499,8386 1494,8386 1490,8386 1485,8386 1480,8386 1476,8386 1471,8387 1467,8388 1462,8389 1458,8390 1453,8392 1449,8394 1445,8395 1441,8397 1437,8400 1433,8402 1429,8405 1425,8407 1422,8410 1418,8413 1415,8416 1412,8420 1409,8423 1406,8427 1403,8430 1401,8434 1398,8438 1396,8442 1394,8446 1392,8451 1390,8455 1389,8459 1388,8464 1387,8468 1386,8473 1385,8477 1384,8482 1384,8486 1384,8491 1384,8496 1384,8500 1385,8505 1386,8509 1387,8514 1388,8518 1389,8523 1390,8527 1392,8531 1394,8536 1396,8540 1398,8544 1401,8548 1403,8552 1406,8555 1409,8559 1412,8562 1415,8566 1418,8569 1422,8572 1425,8575 1429,8577 1433,8580 1437,8582 1441,8585 1445,8587 1449,8588 1453,8590 1458,8592 1462,8593 1467,8594 1471,8595 1476,8596 1480,8596 1485,8596 1490,8597 1494,8596 1499,8596 1503,8596 1508,8595 1512,8594 1517,8593 1521,8592 1526,8590 1530,8588 1534,8587 1538,8585 1542,8582 1546,8580 1550,8577 1554,8575 1557,8572 1561,8569 1564,8566 1567,8562 1570,8559 1573,8555 1576,8552 1578,8548 1581,8544 1583,8540 1585,8536 1587,8531 1589,8527 1590,8523 1591,8518 1592,8514 1593,8509 1594,8505 1595,8500 1595,8496 1595,8491 Z"/>
 <path fill="none" stroke="rgb(255,211,32)" stroke-linejoin="round" d="M 1595,8491 L 1595,8486 1595,8482 1594,8477 1593,8473 1592,8468 1591,8464 1590,8459 1589,8455 1587,8451 1585,8446 1583,8442 1581,8438 1578,8434 1576,8430 1573,8427 1570,8423 1567,8420 1564,8416 1561,8413 1557,8410 1554,8407 1550,8405 1546,8402 1542,8400 1538,8397 1534,8395 1530,8394 1526,8392 1521,8390 1517,8389 1512,8388 1508,8387 1503,8386 1499,8386 1494,8386 1490,8386 1485,8386 1480,8386 1476,8386 1471,8387 1467,8388 1462,8389 1458,8390 1453,8392 1449,8394 1445,8395 1441,8397 1437,8400 1433,8402 1429,8405 1425,8407 1422,8410 1418,8413 1415,8416 1412,8420 1409,8423 1406,8427 1403,8430 1401,8434 1398,8438 1396,8442 1394,8446 1392,8451 1390,8455 1389,8459 1388,8464 1387,8468 1386,8473 1385,8477 1384,8482 1384,8486 1384,8491 1384,8496 1384,8500 1385,8505 1386,8509 1387,8514 1388,8518 1389,8523 1390,8527 1392,8531 1394,8536 1396,8540 1398,8544 1401,8548 1403,8552 1406,8555 1409,8559 1412,8562 1415,8566 1418,8569 1422,8572 1425,8575 1429,8577 1433,8580 1437,8582 1441,8585 1445,8587 1449,8588 1453,8590 1458,8592 1462,8593 1467,8594 1471,8595 1476,8596 1480,8596 1485,8596 1490,8597 1494,8596 1499,8596 1503,8596 1508,8595 1512,8594 1517,8593 1521,8592 1526,8590 1530,8588 1534,8587 1538,8585 1542,8582 1546,8580 1550,8577 1554,8575 1557,8572 1561,8569 1564,8566 1567,8562 1570,8559 1573,8555 1576,8552 1578,8548 1581,8544 1583,8540 1585,8536 1587,8531 1589,8527 1590,8523 1591,8518 1592,8514 1593,8509 1594,8505 1595,8500 1595,8496 1595,8491 Z"/>
 <path fill="none" stroke="rgb(87,157,28)" stroke-width="80" stroke-linejoin="round" d="M 7541,8491 L 8341,8491"/>
 <path fill="rgb(87,157,28)" stroke="none" d="M 7941,8386 L 7962,8470 8046,8491 7962,8512 7941,8597 7919,8512 7835,8491 7919,8470 7941,8386 Z"/>
 <path fill="none" stroke="rgb(87,157,28)" stroke-linejoin="round" d="M 7941,8386 L 7962,8470 8046,8491 7962,8512 7941,8597 7919,8512 7835,8491 7919,8470 7941,8386 Z"/>
 <path fill="none" stroke="rgb(126,0,33)" stroke-width="80" stroke-linejoin="round" d="M 1090,8989 L 1890,8989"/>
 <path fill="rgb(126,0,33)" stroke="none" d="M 1384,8884 L 1384,9095 1595,8989 1384,8884 Z"/>
 <path fill="none" stroke="rgb(126,0,33)" stroke-linejoin="round" d="M 1384,8884 L 1384,9095 1595,8989 1384,8884 Z"/>
 <text class="TextShape"><tspan class="TextParagraph" font-family="Liberation Sans, sans-serif" font-size="353px" font-weight="400"><tspan class="TextPosition" x="1990" y="8113"><tspan fill="rgb(0,0,0)" stroke="none">TeardownSet::delete_range()         </tspan></tspan></tspan></text>
 <text class="TextShape"><tspan class="TextParagraph" font-family="Liberation Sans, sans-serif" font-size="353px" font-weight="400"><tspan class="TextPosition" x="8441" y="8113"><tspan fill="rgb(0,0,0)" stroke="none">Treap::remove_range()               </tspan></tspan></tspan></text>
 <text class="TextShape"><tspan class="TextParagraph" font-family="Liberation Sans, sans-serif" font-size="353px" font-weight="400"><tspan class="TextPosition" x="1990" y="8611"><tspan fill="rgb(0,0,0)" stroke="none">BTreeSet::remove()                  </tspan></tspan></tspan></text>
 <text class="TextShape"><tspan class="TextParagraph" font-family="Liberation Sans, sans-serif" font-size="353px" font-weight="400"><tspan class="TextPosition" x="8441" y="8611"><tspan fill="rgb(0,0,0)" stroke="none">SplayTree::remove_range()           </tspan></tspan></tspan></text>
 <text class="TextShape"><tspan class="TextParagraph" font-family="Liberation Sans, sans-serif" font-size="353px" font-weight="400"><tspan class="TextPosition" x="1990" y="9109"><tspan fill="rgb(0,0,0)" stroke="none">TeardownSet::delete()               </tspan></tspan></tspan></text>
 <text class="TextShape"><tspan class="TextParagraph" font-family="Segoe UI" font-size="318px" font-weight="700"><tspan class="TextPosition" x="7787" y="7102"><tspan fill="rgb(0,0,0)" stroke="none">N</tspan></tspan></tspan></text>
 <text class="TextShape" transform="translate(860,4914) rotate(-90) translate(-860,-4914)"><tspan class="TextParagraph" font-family="Segoe UI" font-size="318px" font-weight="700"><tspan class="TextPosition" x="860" y="4914"><tspan fill="rgb(0,0,0)" stroke="none">Times slower</tspan></tspan></tspan></text>
</svg>