<?xml version="1.0" encoding="UTF-8"?>
<!DOCTYPE svg PUBLIC "-//W3C//DTD SVG 1.1//EN" "http://www.w3.org/Graphics/SVG/1.1/DTD/svg11.dtd">
<svg width="148mm" height="95mm" viewBox="0 0 14800 9500" version="1.1" xmlns="http://www.w3.org/2000/svg" stroke-width="28.222" stroke-linejoin="round" xml:space="preserve">
 <path fill="rgb(255,255,255)" stroke="none" d="M 7387,9474 L -5,9474 -5,0 14778,0 14778,9474 7387,9474 Z"/>
 <path fill="none" stroke="rgb(0,0,0)" stroke-linejoin="round" d="M 7387,9474 L -5,9474 -5,0 14778,0 14778,9474 7387,9474 Z"/>
 <path fill="none" stroke="rgb(179,179,179)" stroke-linejoin="round" d="M 7659,5851 L 1764,5851 1764,1598 13555,1598 13555,5851 7659,5851 Z"/>
 <path fill="none" stroke="rgb(179,179,179)" stroke-linejoin="round" d="M 13555,5850 L 1764,5850"/>
 <path fill="none" stroke="rgb(179,179,179)" stroke-linejoin="round" d="M 13555,5424 L 1764,5424"/>
 <path fill="none" stroke="rgb(179,179,179)" stroke-linejoin="round" d="M 13555,4999 L 1764,4999"/>
 <path fill="none" stroke="rgb(179,179,179)" stroke-linejoin="round" d="M 13555,4574 L 1764,4574"/>
 <path fill="none" stroke="rgb(179,179,179)" stroke-linejoin="round" d="M 13555,4149 L 1764,4149"/>
 <path fill="none" stroke="rgb(179,179,179)" stroke-linejoin="round" d="M 13555,3724 L 1764,3724"/>
 <path fill="none" stroke="rgb(179,179,179)" stroke-linejoin="round" d="M 13555,3298 L 1764,3298"/>
 <path fill="none" stroke="rgb(179,179,179)" stroke-linejoin="round" d="M 13555,2873 L 1764,2873"/>
 <path fill="none" stroke="rgb(179,179,179)" stroke-linejoin="round" d="M 13555,2447 L 1764,2447"/>
 <path fill="none" stroke="rgb(179,179,179)" stroke-linejoin="round" d="M 13555,2022 L 1764,2022"/>
 <path fill="none" stroke="rgb(179,179,179)" stroke-linejoin="round" d="M 13555,1597 L 1764,1597"/>
 <path fill="none" stroke="rgb(179,179,179)" stroke-linejoin="round" d="M 1764,6000 L 1764,5850"/>
 <path fill="none" stroke="rgb(179,179,179)" stroke-linejoin="round" d="M 1764,6000 L 1764,5850"/>
 <path fill="none" stroke="rgb(179,179,179)" stroke-linejoin="round" d="M 4122,6000 L 4122,5850"/>
 <path fill="none" stroke="rgb(179,179,179)" stroke-linejoin="round" d="M 4122,6000 L 4122,5850"/>
 <path fill="none" stroke="rgb(179,179,179)" stroke-linejoin="round" d="M 6480,6000 L 6480,5850"/>
 <path fill="none" stroke="rgb(179,179,179)" stroke-linejoin="round" d="M 6480,6000 L 6480,5850"/>
 <path fill="none" stroke="rgb(179,179,179)" stroke-linejoin="round" d="M 8838,6000 L 8838,5850"/>
 <path fill="none" stroke="rgb(179,179,179)" stroke-linejoin="round" d="M 8838,6000 L 8838,5850"/>
 <path fill="none" stroke="rgb(179,179,179)" stroke-linejoin="round" d="M 11196,6000 L 11196,5850"/>
 <path fill="none" stroke="rgb(179,179,179)" stroke-linejoin="round" d="M 11196,6000 L 11196,5850"/>
 <path fill="none" stroke="rgb(179,179,179)" stroke-linejoin="round" d="M 13555,6000 L 13555,5850"/>
 <path fill="none" stroke="rgb(179,179,179)" stroke-linejoin="round" d="M 13555,6000 L 13555,5850"/>
 <path fill="none" stroke="rgb(179,179,179)" stroke-linejoin="round" d="M 1764,5850 L 13555,5850"/>
 <path fill="none" stroke="rgb(179,179,179)" stroke-linejoin="round" d="M 1614,5850 L 1764,5850"/>
 <path fill="none" stroke="rgb(179,179,179)" stroke-linejoin="round" d="M 1614,5850 L 1764,5850"/>
 <path fill="none" stroke="rgb(179,179,179)" stroke-linejoin="round" d="M 1614,5424 L 1764,5424"/>
 <path fill="none" stroke="rgb(179,179,179)" stroke-linejoin="round" d="M 1614,5424 L 1764,5424"/>
 <path fill="none" stroke="rgb(179,179,179)" stroke-linejoin="round" d="M 1614,4999 L 1764,4999"/>
 <path fill="none" stroke="rgb(179,179,179)" stroke-linejoin="round" d="M 1614,4999 L 1764,4999"/>
 <path fill="none" stroke="rgb(179,179,179)" stroke-linejoin="round" d="M 1614,4574 L 1764,4574"/>
 <path fill="none" stroke="rgb(179,179,179)" stroke-linejoin="round" d="M 1614,4574 L 1764,4574"/>
 <path fill="none" stroke="rgb(179,179,179)" stroke-linejoin="round" d="M 1614,4149 L 1764,4149"/>
 <path fill="none" stroke="rgb(179,179,179)" stroke-linejoin="round" d="M 1614,4149 L 1764,4149"/>
 <path fill="none" stroke="rgb(179,179,179)" stroke-linejoin="round" d="M 1614,3724 L 1764,3724"/>
 <path fill="none" stroke="rgb(179,179,179)" stroke-linejoin="round" d="M 1614,3724 L 1764,3724"/>
 <path fill="none" stroke="rgb(179,179,179)" stroke-linejoin="round" d="M 1614,3298 L 1764,3298"/>
 <path fill="none" stroke="rgb(179,179,179)" stroke-linejoin="round" d="M 1614,3298 L 1764,3298"/>
 <path fill="none" stroke="rgb(179,179,179)" stroke-linejoin="round" d="M 1614,2873 L 1764,2873"/>
 <path fill="none" stroke="rgb(179,179,179)" stroke-linejoin="round" d="M 1614,2873 L 1764,2873"/>
 <path fill="none" stroke="rgb(179,179,179)" stroke-linejoin="round" d="M 1614,2447 L 1764,2447"/>
 <path fill="none" stroke="rgb(179,179,179)" stroke-linejoin="round" d="M 1614,2447 L 1764,2447"/>
 <path fill="none" stroke="rgb(179,179,179)" stroke-linejoin="round" d="M 1614,2022 L 1764,2022"/>
 <path fill="none" stroke="rgb(179,179,179)" stroke-linejoin="round" d="M 1614,2022 L 1764,2022"/>
 <path fill="none" stroke="rgb(179,179,179)" stroke-linejoin="round" d="M 1614,1597 L 1764,1597"/>
 <path fill="none" stroke="rgb(179,179,179)" stroke-linejoin="round" d="M 1614,1597 L 1764,1597"/>
 <path fill="none" stroke="rgb(179,179,179)" stroke-linejoin="round" d="M 1764,5850 L 1764,1597"/>
 <path fill="none" stroke="rgb(0,69,134)" stroke-width="80" stroke-linejoin="round" d="M 1764,5637 L 4122,5637 6480,5637 8838,5637 11196,5637 13555,5637"/>
 <path fill="rgb(0,69,134)" stroke="none" d="M 1639,5512 L 1639,5762 1889,5762 1889,5512 1639,5512 Z"/>
 <path fill="none" stroke="rgb(0,69,134)" stroke-linejoin="round" d="M 1639,5512 L 1639,5762 1889,5762 1889,5512 1639,5512 Z"/>
 <path fill="rgb(0,69,134)" stroke="none" d="M 3997,5512 L 3997,5762 4247,5762 4247,5512 3997,5512 Z"/>
 <path fill="none" stroke="rgb(0,69,134)" stroke-linejoin="round" d="M 3997,5512 L 3997,5762 4247,5762 4247,5512 3997,5512 Z"/>
 <path fill="rgb(0,69,134)" stroke="none" d="M 6355,5512 L 6355,5762 6605,5762 6605,5512 6355,5512 Z"/>
 <path fill="none" stroke="rgb(0,69,134)" stroke-linejoin="round" d="M 6355,5512 L 6355,5762 6605,5762 6605,5512 6355,5512 Z"/>
 <path fill="rgb(0,69,134)" stroke="none" d="M 8713,5512 L 8713,5762 8963,5762 8963,5512 8713,5512 Z"/>
 <path fill="none" stroke="rgb(0,69,134)" stroke-linejoin="round" d="M 8713,5512 L 8713,5762 8963,5762 8963,5512 8713,5512 Z"/>
 <path fill="rgb(0,69,134)" stroke="none" d="M 11071,5512 L 11071,5762 11321,5762 11321,5512 11071,5512 Z"/>
 <path fill="none" stroke="rgb(0,69,134)" stroke-linejoin="round" d="M 11071,5512 L 11071,5762 11321,5762 11321,5512 11071,5512 Z"/>
 <path fill="rgb(0,69,134)" stroke="none" d="M 13430,5512 L 13430,5762 13680,5762 13680,5512 13430,5512 Z"/>
 <path fill="none" stroke="rgb(0,69,134)" stroke-linejoin="round" d="M 13430,5512 L 13430,5762 13680,5762 13680,5512 13430,5512 Z"/>
 <path fill="none" stroke="rgb(255,66,14)" stroke-width="80" stroke-linejoin="round" d="M 1764,4621 L 4122,3514 6480,3042 8838,3719 11196,3404 13555,3703"/>
 <path fill="rgb(255,66,14)" stroke="none" d="M 1639,4745 L 1889,4745 1639,4496 1889,4496 1639,4745 Z"/>
 <path fill="none" stroke="rgb(255,66,14)" stroke-linejoin="round" d="M 1639,4745 L 1889,4745 1639,4496 1889,4496 1639,4745 Z"/>
 <path fill="rgb(255,66,14)" stroke="none" d="M 3997,3639 L 4247,3639 3997,3389 4247,3389 3997,3639 Z"/>
 <path fill="none" stroke="rgb(255,66,14)" stroke-linejoin="round" d="M 3997,3639 L 4247,3639 3997,3389 4247,3389 3997,3639 Z"/>
 <path fill="rgb(255,66,14)" stroke="none" d="M 6355,3167 L 6605,3167 6355,2917 6605,2917 6355,3167 Z"/>
 <path fill="none" stroke="rgb(255,66,14)" stroke-linejoin="round" d="M 6355,3167 L 6605,3167 6355,2917 6605,2917 6355,3167 Z"/>
 <path fill="rgb(255,66,14)" stroke="none" d="M 8713,3844 L 8963,3844 8713,3594 8963,3594 8713,3844 Z"/>
 <path fill="none" stroke="rgb(255,66,14)" stroke-linejoin="round" d="M 8713,3844 L 8963,3844 8713,3594 8963,3594 8713,3844 Z"/>
 <path fill="rgb(255,66,14)" stroke="none" d="M 11071,3529 L 11321,3529 11071,3279 11321,3279 11071,3529 Z"/>
 <path fill="none" stroke="rgb(255,66,14)" stroke-linejoin="round" d="M 11071,3529 L 11321,3529 11071,3279 11321,3279 11071,3529 Z"/>
 <path fill="rgb(255,66,14)" stroke="none" d="M 13430,3828 L 13680,3828 13430,3578 13680,3578 13430,3828 Z"/>
 <path fill="none" stroke="rgb(255,66,14)" stroke-linejoin="round" d="M 13430,3828 L 13680,3828 13430,3578 13680,3578 13430,3828 Z"/>
 <path fill="none" stroke="rgb(255,211,32)" stroke-width="80" stroke-linejoin="round" d="M 1764,4623 L 4122,3566 6480,2141 8838,3015 11196,3047 13555,3588"/>
 <path fill="rgb(255,211,32)" stroke="none" d="M 1889,4623 L 1888,4617 1888,4612 1887,4607 1887,4601 1886,4596 1884,4591 1883,4585 1881,4580 1879,4575 1877,4570 1874,4565 1872,4560 1869,4556 1866,4551 1863,4547 1859,4543 1856,4538 1852,4535 1848,4531 1844,4527 1840,4524 1835,4521 1831,4518 1826,4515 1821,4512 1816,4510 1811,4507 1806,4505 1801,4504 1796,4502 1791,4501 1785,4500 1780,4499 1774,4498 1769,4498 1764,4498 1758,4498 1753,4498 1747,4499 1742,4500 1736,4501 1731,4502 1726,4504 1721,4505 1716,4507 1711,4510 1706,4512 1701,4515 1696,4518 1692,4521 1687,4524 1683,4527 1679,4531 1675,4535 1671,4538 1668,4543 1664,4547 1661,4551 1658,4556 1655,4560 1653,4565 1650,4570 1648,4575 1646,4580 1644,4585 1643,4591 1641,4596 1640,4601 1640,4607 1639,4612 1639,4617 1639,4623 1639,4628 1639,4634 1640,4639 1640,4645 1641,4650 1643,4655 1644,4661 1646,4666 1648,4671 1650,4676 1653,4681 1655,4685 1658,4690 1661,4695 1664,4699 1668,4703 1671,4707 1675,4711 1679,4715 1683,4719 1687,4722 1692,4725 1696,4728 1701,4731 1706,4734 1711,4736 1716,4737 1721,4739 1726,4741 1731,4743 1736,4744 1742,4745 1747,4746 1753,4746 1758,4747 1764,4747 1769,4747 1774,4746 1780,4746 1785,4745 1791,4744 1796,4743 1801,4741 1806,4739 1811,4737 1816,4736 1821,4734 1826,4731 1831,4728 1835,4725 1840,4722 1844,4719 1848,4715 1852,4711 1856,4707 1859,4703 1863,4699 1866,4695 1869,4690 1872,4685 1874,4681 1877,4676 1879,4671 1881,4666 1883,4661 1884,4655 1886,4650 1887,4645 1887,4639 1888,4634 1888,4628 1889,4623 Z"/>
 <path fill="none" stroke="rgb(255,211,32)" stroke-linejoin="round" d="M 1889,4623 L 1888,4617 1888,4612 1887,4607 1887,4601 1886,4596 1884,4591 1883,4585 1881,4580 1879,4575 1877,4570 1874,4565 1872,4560 1869,4556 1866,4551 1863,4547 1859,4543 1856,4538 1852,4535 1848,4531 1844,4527 1840,4524 1835,4521 1831,4518 1826,4515 1821,4512 1816,4510 1811,4507 1806,4505 1801,4504 1796,4502 1791,4501 1785,4500 1780,4499 1774,4498 1769,4498 1764,4498 1758,4498 1753,4498 1747,4499 1742,4500 1736,4501 1731,4502 1726,4504 1721,4505 1716,4507 1711,4510 1706,4512 1701,4515 1696,4518 1692,4521 1687,4524 1683,4527 1679,4531 1675,4535 1671,4538 1668,4543 1664,4547 1661,4551 1658,4556 1655,4560 1653,4565 1650,4570 1648,4575 1646,4580 1644,4585 1643,4591 1641,4596 1640,4601 1640,4607 1639,4612 1639,4617 1639,4623 1639,4628 1639,4634 1640,4639 1640,4645 1641,4650 1643,4655 1644,4661 1646,4666 1648,4671 1650,4676 1653,4681 1655,4685 1658,4690 1661,4695 1664,4699 1668,4703 1671,4707 1675,4711 1679,4715 1683,4719 1687,4722 1692,4725 1696,4728 1701,4731 1706,4734 1711,4736 1716,4737 1721,4739 1726,4741 1731,4743 1736,4744 1742,4745 1747,4746 1753,4746 1758,4747 1764,4747 1769,4747 1774,4746 1780,4746 1785,4745 1791,4744 1796,4743 1801,4741 1806,4739 1811,4737 1816,4736 1821,4734 1826,4731 1831,4728 1835,4725 1840,4722 1844,4719 1848,4715 1852,4711 1856,4707 1859,4703 1863,4699 1866,4695 1869,4690 1872,4685 1874,4681 1877,4676 1879,4671 1881,4666 1883,4661 1884,4655 1886,4650 1887,4645 1887,4639 1888,4634 1888,4628 1889,4623 Z"/>
 <path fill="rgb(255,211,32)" stroke="none" d="M 4247,3566 L 4247,3561 4246,3555 4246,3550 4245,3544 4244,3539 4243,3534 4241,3528 4239,3523 4237,3518 4235,3513 4233,3508 4230,3504 4227,3499 4224,3494 4221,3490 4218,3486 4214,3482 4210,3478 4206,3474 4202,3470 4198,3467 4194,3464 4189,3461 4184,3458 4180,3455 4175,3453 4170,3451 4165,3449 4159,3447 4154,3445 4149,3444 4144,3443 4138,3442 4133,3442 4127,3441 4122,3441 4116,3441 4111,3442 4106,3442 4100,3443 4095,3444 4090,3445 4084,3447 4079,3449 4074,3451 4069,3453 4064,3455 4059,3458 4055,3461 4050,3464 4046,3467 4042,3470 4037,3474 4034,3478 4030,3482 4026,3486 4023,3490 4020,3494 4016,3499 4014,3504 4011,3508 4009,3513 4006,3518 4004,3523 4003,3528 4001,3534 4000,3539 3999,3544 3998,3550 3997,3555 3997,3561 3997,3566 3997,3571 3997,3577 3998,3582 3999,3588 4000,3593 4001,3598 4003,3604 4004,3609 4006,3614 4009,3619 4011,3624 4014,3629 4016,3633 4020,3638 4023,3642 4026,3646 4030,3650 4034,3654 4037,3658 4042,3662 4046,3665 4050,3668 4055,3671 4059,3674 4064,3677 4069,3679 4074,3682 4079,3684 4084,3685 4090,3687 4095,3688 4100,3689 4106,3690 4111,3691 4116,3691 4122,3691 4127,3691 4133,3691 4138,3690 4144,3689 4149,3688 4154,3687 4159,3685 4165,3684 4170,3682 4175,3679 4180,3677 4184,3674 4189,3671 4194,3668 4198,3665 4202,3662 4206,3658 4210,3654 4214,3650 4218,3646 4221,3642 4224,3638 4227,3633 4230,3629 4233,3624 4235,3619 4237,3614 4239,3609 4241,3604 4243,3598 4244,3593 4245,3588 4246,3582 4246,3577 4247,3571 4247,3566 Z"/>
 <path fill="none" stroke="rgb(255,211,32)" stroke-linejoin="round" d="M 4247,3566 L 4247,3561 4246,3555 4246,3550 4245,3544 4244,3539 4243,3534 4241,3528 4239,3523 4237,3518 4235,3513 4233,3508 4230,3504 4227,3499 4224,3494 4221,3490 4218,3486 4214,3482 4210,3478 4206,3474 4202,3470 4198,3467 4194,3464 4189,3461 4184,3458 4180,3455 4175,3453 4170,3451 4165,3449 4159,3447 4154,3445 4149,3444 4144,3443 4138,3442 4133,3442 4127,3441 4122,3441 4116,3441 4111,3442 4106,3442 4100,3443 4095,3444 4090,3445 4084,3447 4079,3449 4074,3451 4069,3453 4064,3455 4059,3458 4055,3461 4050,3464 4046,3467 4042,3470 4037,3474 4034,3478 4030,3482 4026,3486 4023,3490 4020,3494 4016,3499 4014,3504 4011,3508 4009,3513 4006,3518 4004,3523 4003,3528 4001,3534 4000,3539 3999,3544 3998,3550 3997,3555 3997,3561 3997,3566 3997,3571 3997,3577 3998,3582 3999,3588 4000,3593 4001,3598 4003,3604 4004,3609 4006,3614 4009,3619 4011,3624 4014,3629 4016,3633 4020,3638 4023,3642 4026,3646 4030,3650 4034,3654 4037,3658 4042,3662 4046,3665 4050,3668 4055,3671 4059,3674 4064,3677 4069,3679 4074,3682 4079,3684 4084,3685 4090,3687 4095,3688 4100,3689 4106,3690 4111,3691 4116,3691 4122,3691 4127,3691 4133,3691 4138,3690 4144,3689 4149,3688 4154,3687 4159,3685 4165,3684 4170,3682 4175,3679 4180,3677 4184,3674 4189,3671 4194,3668 4198,3665 4202,3662 4206,3658 4210,3654 4214,3650 4218,3646 4221,3642 4224,3638 4227,3633 4230,3629 4233,3624 4235,3619 4237,3614 4239,3609 4241,3604 4243,3598 4244,3593 4245,3588 4246,3582 4246,3577 4247,3571 4247,3566 Z"/>
 <path fill="rgb(255,211,32)" stroke="none" d="M 6605,2141 L 6605,2135 6605,2130 6604,2124 6603,2119 6602,2114 6601,2108 6600,2103 6598,2098 6596,2093 6594,2088 6591,2083 6589,2078 6586,2073 6583,2069 6579,2065 6576,2060 6572,2056 6569,2052 6565,2048 6561,2045 6556,2041 6552,2038 6547,2035 6543,2032 6538,2030 6533,2027 6528,2025 6523,2023 6518,2021 6513,2020 6507,2019 6502,2018 6497,2017 6491,2016 6486,2016 6480,2016 6475,2016 6469,2016 6464,2017 6459,2018 6453,2019 6448,2020 6443,2021 6438,2023 6432,2025 6427,2027 6423,2030 6418,2032 6413,2035 6409,2038 6404,2041 6400,2045 6396,2048 6392,2052 6388,2056 6385,2060 6381,2065 6378,2069 6375,2073 6372,2078 6369,2083 6367,2088 6365,2093 6363,2098 6361,2103 6360,2108 6358,2114 6357,2119 6356,2124 6356,2130 6355,2135 6355,2141 6355,2146 6356,2152 6356,2157 6357,2162 6358,2168 6360,2173 6361,2178 6363,2183 6365,2188 6367,2193 6369,2198 6372,2203 6375,2208 6378,2212 6381,2217 6385,2221 6388,2225 6392,2229 6396,2233 6400,2236 6404,2240 6409,2243 6413,2246 6418,2249 6423,2251 6427,2254 6432,2256 6438,2258 6443,2260 6448,2261 6453,2263 6459,2264 6464,2265 6469,2265 6475,2265 6480,2266 6486,2265 6491,2265 6497,2265 6502,2264 6507,2263 6513,2261 6518,2260 6523,2258 6528,2256 6533,2254 6538,2251 6543,2249 6547,2246 6552,2243 6556,2240 6561,2236 6565,2233 6569,2229 6572,2225 6576,2221 6579,2217 6583,2212 6586,2208 6589,2203 6591,2198 6594,2193 6596,2188 6598,2183 6600,2178 6601,2173 6602,2168 6603,2162 6604,2157 6605,2152 6605,2146 6605,2141 Z"/>
 <path fill="none" stroke="rgb(255,211,32)" stroke-linejoin="round" d="M 6605,2141 L 6605,2135 6605,2130 6604,2124 6603,2119 6602,2114 6601,2108 6600,2103 6598,2098 6596,2093 6594,2088 6591,2083 6589,2078 6586,2073 6583,2069 6579,2065 6576,2060 6572,2056 6569,2052 6565,2048 6561,2045 6556,2041 6552,2038 6547,2035 6543,2032 6538,2030 6533,2027 6528,2025 6523,2023 6518,2021 6513,2020 6507,2019 6502,2018 6497,2017 6491,2016 6486,2016 6480,2016 6475,2016 6469,2016 6464,2017 6459,2018 6453,2019 6448,2020 6443,2021 6438,2023 6432,2025 6427,2027 6423,2030 6418,2032 6413,2035 6409,2038 6404,2041 6400,2045 6396,2048 6392,2052 6388,2056 6385,2060 6381,2065 6378,2069 6375,2073 6372,2078 6369,2083 6367,2088 6365,2093 6363,2098 6361,2103 6360,2108 6358,2114 6357,2119 6356,2124 6356,2130 6355,2135 6355,2141 6355,2146 6356,2152 6356,2157 6357,2162 6358,2168 6360,2173 6361,2178 6363,2183 6365,2188 6367,2193 6369,2198 6372,2203 6375,2208 6378,2212 6381,2217 6385,2221 6388,2225 6392,2229 6396,2233 6400,2236 6404,2240 6409,2243 6413,2246 6418,2249 6423,2251 6427,2254 6432,2256 6438,2258 6443,2260 6448,2261 6453,2263 6459,2264 6464,2265 6469,2265 6475,2265 6480,2266 6486,2265 6491,2265 6497,2265 6502,2264 6507,2263 6513,2261 6518,2260 6523,2258 6528,2256 6533,2254 6538,2251 6543,2249 6547,2246 6552,2243 6556,2240 6561,2236 6565,2233 6569,2229 6572,2225 6576,2221 6579,2217 6583,2212 6586,2208 6589,2203 6591,2198 6594,2193 6596,2188 6598,2183 6600,2178 6601,2173 6602,2168 6603,2162 6604,2157 6605,2152 6605,2146 6605,2141 Z"/>
 <path fill="rgb(255,211,32)" stroke="none" d="M 8963,3015 L 8963,3010 8962,3004 8962,2999 8961,2993 8960,2988 8958,2983 8957,2978 8955,2972 8953,2967 8951,2962 8949,2957 8946,2953 8943,2948 8940,2943 8937,2939 8933,2935 8930,2931 8926,2927 8922,2923 8918,2919 8914,2916 8909,2913 8905,2910 8900,2907 8895,2904 8891,2902 8886,2900 8880,2898 8875,2896 8870,2894 8865,2893 8859,2892 8854,2891 8849,2891 8843,2890 8838,2890 8832,2890 8827,2891 8821,2891 8816,2892 8811,2893 8805,2894 8800,2896 8795,2898 8790,2900 8785,2902 8780,2904 8775,2907 8771,2910 8766,2913 8762,2916 8757,2919 8753,2923 8749,2927 8746,2931 8742,2935 8739,2939 8735,2943 8732,2948 8729,2953 8727,2957 8724,2962 8722,2967 8720,2972 8718,2978 8717,2983 8716,2988 8715,2993 8714,2999 8713,3004 8713,3010 8713,3015 8713,3021 8713,3026 8714,3031 8715,3037 8716,3042 8717,3047 8718,3053 8720,3058 8722,3063 8724,3068 8727,3073 8729,3078 8732,3082 8735,3087 8739,3091 8742,3095 8746,3100 8749,3103 8753,3107 8757,3111 8762,3114 8766,3117 8771,3121 8775,3123 8780,3126 8785,3128 8790,3131 8795,3133 8800,3134 8805,3136 8811,3137 8816,3138 8821,3139 8827,3140 8832,3140 8838,3140 8843,3140 8849,3140 8854,3139 8859,3138 8865,3137 8870,3136 8875,3134 8880,3133 8886,3131 8891,3128 8895,3126 8900,3123 8905,3121 8909,3117 8914,3114 8918,3111 8922,3107 8926,3103 8930,3100 8933,3095 8937,3091 8940,3087 8943,3082 8946,3078 8949,3073 8951,3068 8953,3063 8955,3058 8957,3053 8958,3047 8960,3042 8961,3037 8962,3031 8962,3026 8963,3021 8963,3015 Z"/>
 <path fill="none" stroke="rgb(255,211,32)" stroke-linejoin="round" d="M 8963,3015 L 8963,3010 8962,3004 8962,2999 8961,2993 8960,2988 8958,2983 8957,2978 8955,2972 8953,2967 8951,2962 8949,2957 8946,2953 8943,2948 8940,2943 8937,2939 8933,2935 8930,2931 8926,2927 8922,2923 8918,2919 8914,2916 8909,2913 8905,2910 8900,2907 8895,2904 8891,2902 8886,2900 8880,2898 8875,2896 8870,2894 8865,2893 8859,2892 8854,2891 8849,2891 8843,2890 8838,2890 8832,2890 8827,2891 8821,2891 8816,2892 8811,2893 8805,2894 8800,2896 8795,2898 8790,2900 8785,2902 8780,2904 8775,2907 8771,2910 8766,2913 8762,2916 8757,2919 8753,2923 8749,2927 8746,2931 8742,2935 8739,2939 8735,2943 8732,2948 8729,2953 8727,2957 8724,2962 8722,2967 8720,2972 8718,2978 8717,2983 8716,2988 8715,2993 8714,2999 8713,3004 8713,3010 8713,3015 8713,3021 8713,3026 8714,3031 8715,3037 8716,3042 8717,3047 8718,3053 8720,3058 8722,3063 8724,3068 8727,3073 8729,3078 8732,3082 8735,3087 8739,3091 8742,3095 8746,3100 8749,3103 8753,3107 8757,3111 8762,3114 8766,3117 8771,3121 8775,3123 8780,3126 8785,3128 8790,3131 8795,3133 8800,3134 8805,3136 8811,3137 8816,3138 8821,3139 8827,3140 8832,3140 8838,3140 8843,3140 8849,3140 8854,3139 8859,3138 8865,3137 8870,3136 8875,3134 8880,3133 8886,3131 8891,3128 8895,3126 8900,3123 8905,3121 8909,3117 8914,3114 8918,3111 8922,3107 8926,3103 8930,3100 8933,3095 8937,3091 8940,3087 8943,3082 8946,3078 8949,3073 8951,3068 8953,3063 8955,3058 8957,3053 8958,3047 8960,3042 8961,3037 8962,3031 8962,3026 8963,3021 8963,3015 Z"/>
 <path fill="rgb(255,211,32)" stroke="none" d="M 11321,3047 L 11321,3041 11321,3036 11320,3030 11319,3025 11318,3020 11317,3014 11315,3009 11314,3004 11312,2999 11309,2994 11307,2989 11304,2984 11302,2979 11298,2975 11295,2970 11292,2966 11288,2962 11284,2958 11281,2954 11276,2951 11272,2947 11268,2944 11263,2941 11259,2938 11254,2936 11249,2933 11244,2931 11239,2929 11234,2927 11228,2926 11223,2925 11218,2923 11212,2923 11207,2922 11202,2922 11196,2922 11191,2922 11185,2922 11180,2923 11174,2923 11169,2925 11164,2926 11159,2927 11153,2929 11148,2931 11143,2933 11138,2936 11134,2938 11129,2941 11124,2944 11120,2947 11116,2951 11112,2954 11108,2958 11104,2962 11100,2966 11097,2970 11094,2975 11091,2979 11088,2984 11085,2989 11083,2994 11081,2999 11079,3004 11077,3009 11075,3014 11074,3020 11073,3025 11072,3030 11072,3036 11071,3041 11071,3047 11071,3052 11072,3057 11072,3063 11073,3068 11074,3074 11075,3079 11077,3084 11079,3089 11081,3094 11083,3099 11085,3104 11088,3109 11091,3114 11094,3118 11097,3123 11100,3127 11104,3131 11108,3135 11112,3139 11116,3142 11120,3146 11124,3149 11129,3152 11134,3155 11138,3157 11143,3160 11148,3162 11153,3164 11159,3166 11164,3167 11169,3169 11174,3170 11180,3171 11185,3171 11191,3171 11196,3172 11202,3171 11207,3171 11212,3171 11218,3170 11223,3169 11228,3167 11234,3166 11239,3164 11244,3162 11249,3160 11254,3157 11259,3155 11263,3152 11268,3149 11272,3146 11276,3142 11281,3139 11284,3135 11288,3131 11292,3127 11295,3123 11298,3118 11302,3114 11304,3109 11307,3104 11309,3099 11312,3094 11314,3089 11315,3084 11317,3079 11318,3074 11319,3068 11320,3063 11321,3057 11321,3052 11321,3047 Z"/>
 <path fill="none" stroke="rgb(255,211,32)" stroke-linejoin="round" d="M 11321,3047 L 11321,3041 11321,3036 11320,3030 11319,3025 11318,3020 11317,3014 11315,3009 11314,3004 11312,2999 11309,2994 11307,2989 11304,2984 11302,2979 11298,2975 11295,2970 11292,2966 11288,2962 11284,2958 11281,2954 11276,2951 11272,2947 11268,2944 11263,2941 11259,2938 11254,2936 11249,2933 11244,2931 11239,2929 11234,2927 11228,2926 11223,2925 11218,2923 11212,2923 11207,2922 11202,2922 11196,2922 11191,2922 11185,2922 11180,2923 11174,2923 11169,2925 11164,2926 11159,2927 11153,2929 11148,2931 11143,2933 11138,2936 11134,2938 11129,2941 11124,2944 11120,2947 11116,2951 11112,2954 11108,2958 11104,2962 11100,2966 11097,2970 11094,2975 11091,2979 11088,2984 11085,2989 11083,2994 11081,2999 11079,3004 11077,3009 11075,3014 11074,3020 11073,3025 11072,3030 11072,3036 11071,3041 11071,3047 11071,3052 11072,3057 11072,3063 11073,3068 11074,3074 11075,3079 11077,3084 11079,3089 11081,3094 11083,3099 11085,3104 11088,3109 11091,3114 11094,3118 11097,3123 11100,3127 11104,3131 11108,3135 11112,3139 11116,3142 11120,3146 11124,3149 11129,3152 11134,3155 11138,3157 11143,3160 11148,3162 11153,3164 11159,3166 11164,3167 11169,3169 11174,3170 11180,3171 11185,3171 11191,3171 11196,3172 11202,3171 11207,3171 11212,3171 11218,3170 11223,3169 11228,3167 11234,3166 11239,3164 11244,3162 11249,3160 11254,3157 11259,3155 11263,3152 11268,3149 11272,3146 11276,3142 11281,3139 11284,3135 11288,3131 11292,3127 11295,3123 11298,3118 11302,3114 11304,3109 11307,3104 11309,3099 11312,3094 11314,3089 11315,3084 11317,3079 11318,3074 11319,3068 11320,3063 11321,3057 11321,3052 11321,3047 Z"/>
 <path fill="rgb(255,211,32)" stroke="none" d="M 13680,3588 L 13679,3582 13679,3577 13678,3571 13678,3566 13677,3561 13675,3555 13674,3550 13672,3545 13670,3540 13668,3535 13665,3530 13663,3525 13660,3521 13657,3516 13654,3512 13650,3507 13647,3503 13643,3499 13639,3496 13635,3492 13631,3489 13626,3485 13622,3482 13617,3479 13612,3477 13607,3474 13602,3472 13597,3470 13592,3468 13587,3467 13582,3466 13576,3465 13571,3464 13565,3463 13560,3463 13555,3463 13549,3463 13544,3463 13538,3464 13533,3465 13527,3466 13522,3467 13517,3468 13512,3470 13507,3472 13502,3474 13497,3477 13492,3479 13487,3482 13483,3485 13478,3489 13474,3492 13470,3496 13466,3499 13462,3503 13459,3507 13455,3512 13452,3516 13449,3521 13446,3525 13444,3530 13441,3535 13439,3540 13437,3545 13435,3550 13434,3555 13432,3561 13431,3566 13431,3571 13430,3577 13430,3582 13430,3588 13430,3593 13430,3599 13431,3604 13431,3609 13432,3615 13434,3620 13435,3625 13437,3630 13439,3636 13441,3641 13444,3645 13446,3650 13449,3655 13452,3659 13455,3664 13459,3668 13462,3672 13466,3676 13470,3680 13474,3683 13478,3687 13483,3690 13487,3693 13492,3696 13497,3699 13502,3701 13507,3703 13512,3705 13517,3707 13522,3708 13527,3710 13533,3711 13538,3712 13544,3712 13549,3713 13555,3713 13560,3713 13565,3712 13571,3712 13576,3711 13582,3710 13587,3708 13592,3707 13597,3705 13602,3703 13607,3701 13612,3699 13617,3696 13622,3693 13626,3690 13631,3687 13635,3683 13639,3680 13643,3676 13647,3672 13650,3668 13654,3664 13657,3659 13660,3655 13663,3650 13665,3645 13668,3641 13670,3636 13672,3630 13674,3625 13675,3620 13677,3615 13678,3609 13678,3604 13679,3599 13679,3593 13680,3588 Z"/>
 <path fill="none" stroke="rgb(255,211,32)" stroke-linejoin="round" d="M 13680,3588 L 13679,3582 13679,3577 13678,3571 13678,3566 13677,3561 13675,3555 13674,3550 13672,3545 13670,3540 13668,3535 13665,3530 13663,3525 13660,3521 13657,3516 13654,3512 13650,3507 13647,3503 13643,3499 13639,3496 13635,3492 13631,3489 13626,3485 13622,3482 13617,3479 13612,3477 13607,3474 13602,3472 13597,3470 13592,3468 13587,3467 13582,3466 13576,3465 13571,3464 13565,3463 13560,3463 13555,3463 13549,3463 13544,3463 13538,3464 13533,3465 13527,3466 13522,3467 13517,3468 13512,3470 13507,3472 13502,3474 13497,3477 13492,3479 13487,3482 13483,3485 13478,3489 13474,3492 13470,3496 13466,3499 13462,3503 13459,3507 13455,3512 13452,3516 13449,3521 13446,3525 13444,3530 13441,3535 13439,3540 13437,3545 13435,3550 13434,3555 13432,3561 13431,3566 13431,3571 13430,3577 13430,3582 13430,3588 13430,3593 13430,3599 13431,3604 13431,3609 13432,3615 13434,3620 13435,3625 13437,3630 13439,3636 13441,3641 13444,3645 13446,3650 13449,3655 13452,3659 13455,3664 13459,3668 13462,3672 13466,3676 13470,3680 13474,3683 13478,3687 13483,3690 13487,3693 13492,3696 13497,3699 13502,3701 13507,3703 13512,3705 13517,3707 13522,3708 13527,3710 13533,3711 13538,3712 13544,3712 13549,3713 13555,3713 13560,3713 13565,3712 13571,3712 13576,3711 13582,3710 13587,3708 13592,3707 13597,3705 13602,3703 13607,3701 13612,3699 13617,3696 13622,3693 13626,3690 13631,3687 13635,3683 13639,3680 13643,3676 13647,3672 13650,3668 13654,3664 13657,3659 13660,3655 13663,3650 13665,3645 13668,3641 13670,3636 13672,3630 13674,3625 13675,3620 13677,3615 13678,3609 13678,3604 13679,3599 13679,3593 13680,3588 Z"/>
 <path fill="none" stroke="rgb(87,157,28)" stroke-width="80" stroke-linejoin="round" d="M 1764,4775 L 4122,3677 6480,3466 8838,4262 11196,4110 13555,4209"/>
 <path fill="rgb(87,157,28)" stroke="none" d="M 1764,4651 L 1789,4750 1889,4775 1789,4800 1764,4900 1739,4800 1639,4775 1739,4750 1764,4651 Z"/>
 <path fill="none" stroke="rgb(87,157,28)" stroke-linejoin="round" d="M 1764,4651 L 1789,4750 1889,4775 1789,4800 1764,4900 1739,4800 1639,4775 1739,4750 1764,4651 Z"/>
 <path fill="rgb(87,157,28)" stroke="none" d="M 4122,3552 L 4147,3652 4247,3677 4147,3702 4122,3802 4097,3702 3997,3677 4097,3652 4122,3552 Z"/>
 <path fill="none" stroke="rgb(87,157,28)" stroke-linejoin="round" d="M 4122,3552 L 4147,3652 4247,3677 4147,3702 4122,3802 4097,3702 3997,3677 4097,3652 4122,3552 Z"/>
 <path fill="rgb(87,157,28)" stroke="none" d="M 6480,3341 L 6505,3441 6605,3466 6505,3491 6480,3591 6455,3491 6355,3466 6455,3441 6480,3341 Z"/>
 <path fill="none" stroke="rgb(87,157,28)" stroke-linejoin="round" d="M 6480,3341 L 6505,3441 6605,3466 6505,3491 6480,3591 6455,3491 6355,3466 6455,3441 6480,3341 Z"/>
 <path fill="rgb(87,157,28)" stroke="none" d="M 8838,4137 L 8863,4237 8963,4262 8863,4287 8838,4387 8813,4287 8713,4262 8813,4237 8838,4137 Z"/>
 <path fill="none" stroke="rgb(87,157,28)" stroke-linejoin="round" d="M 8838,4137 L 8863,4237 8963,4262 8863,4287 8838,4387 8813,4287 8713,4262 8813,4237 8838,4137 Z"/>
 <path fill="rgb(87,157,28)" stroke="none" d="M 11196,3985 L 11221,4085 11321,4110 11221,4135 11196,4235 11171,4135 11071,4110 11171,4085 11196,3985 Z"/>
 <path fill="none" stroke="rgb(87,157,28)" stroke-linejoin="round" d="M 11196,3985 L 11221,4085 11321,4110 11221,4135 11196,4235 11171,4135 11071,4110 11171,4085 11196,3985 Z"/>
 <path fill="rgb(87,157,28)" stroke="none" d="M 13555,4084 L 13580,4184 13680,4209 13580,4234 13555,4334 13530,4234 13430,4209 13530,4184 13555,4084 Z"/>
 <path fill="none" stroke="rgb(87,157,28)" stroke-linejoin="round" d="M 13555,4084 L 13580,4184 13680,4209 13580,4234 13555,4334 13530,4234 13430,4209 13530,4184 13555,4084 Z"/>
 <path fill="none" stroke="rgb(126,0,33)" stroke-width="80" stroke-linejoin="round" d="M 1764,5027 L 4122,4686 6480,3457 8838,3999 11196,3942 13555,4014"/>
 <path fill="rgb(126,0,33)" stroke="none" d="M 1639,4902 L 1639,5152 1889,5027 1639,4902 Z"/>
 <path fill="none" stroke="rgb(126,0,33)" stroke-linejoin="round" d="M 1639,4902 L 1639,5152 1889,5027 1639,4902 Z"/>
 <path fill="rgb(126,0,33)" stroke="none" d="M 3997,4561 L 3997,4810 4247,4686 3997,4561 Z"/>
 <path fill="none" stroke="rgb(126,0,33)" stroke-linejoin="round" d="M 3997,4561 L 3997,4810 4247,4686 3997,4561 Z"/>
 <path fill="rgb(126,0,33)" stroke="none" d="M 6355,3332 L 6355,3582 6605,3457 6355,3332 Z"/>
 <path fill="none" stroke="rgb(126,0,33)" stroke-linejoin="round" d="M 6355,3332 L 6355,3582 6605,3457 6355,3332 Z"/>
 <path fill="rgb(126,0,33)" stroke="none" d="M 8713,3874 L 8713,4124 8963,3999 8713,3874 Z"/>
 <path fill="none" stroke="rgb(126,0,33)" stroke-linejoin="round" d="M 8713,3874 L 8713,4124 8963,3999 8713,3874 Z"/>
 <path fill="rgb(126,0,33)" stroke="none" d="M 11071,3817 L 11071,4067 11321,3942 11071,3817 Z"/>
 <path fill="none" stroke="rgb(126,0,33)" stroke-linejoin="round" d="M 11071,3817 L 11071,4067 11321,3942 11071,3817 Z"/>
 <path fill="rgb(126,0,33)" stroke="none" d="M 13430,3889 L 13430,4139 13680,4014 13430,3889 Z"/>
 <path fill="none" stroke="rgb(126,0,33)" stroke-linejoin="round" d="M 13430,3889 L 13430,4139 13680,4014 13430,3889 Z"/>
 <text class="TextShape"><tspan class="TextParagraph" font-family="Liberation Sans, sans-serif" font-size="353px" font-weight="400"><tspan class="TextPosition" x="1487" y="6418"><tspan fill="rgb(0,0,0)" stroke="none">100</tspan></tspan></tspan></text>
 <text class="TextShape"><tspan class="TextParagraph" font-family="Liberation Sans, sans-serif" font-size="353px" font-weight="400"><tspan class="TextPosition" x="3751" y="6418"><tspan fill="rgb(0,0,0)" stroke="none">1000</tspan></tspan></tspan></text>
 <text class="TextShape"><tspan class="TextParagraph" font-family="Liberation Sans, sans-serif" font-size="353px" font-weight="400"><tspan class="TextPosition" x="6017" y="6418"><tspan fill="rgb(0,0,0)" stroke="none">10000</tspan></tspan></tspan></text>
 <text class="TextShape"><tspan class="TextParagraph" font-family="Liberation Sans, sans-serif" font-size="353px" font-weight="400"><tspan class="TextPosition" x="8283" y="6418"><tspan fill="rgb(0,0,0)" stroke="none">100000</tspan></tspan></tspan></text>
 <text class="TextShape"><tspan class="TextParagraph" font-family="Liberation Sans, sans-serif" font-size="353px" font-weight="400"><tspan class="TextPosition" x="10549" y="6418"><tspan fill="rgb(0,0,0)" stroke="none">1000000</tspan></tspan></tspan></text>
 <text class="TextShape"><tspan class="TextParagraph" font-family="Liberation Sans, sans-serif" font-size="353px" font-weight="400"><tspan class="TextPosition" x="12814" y="6418"><tspan fill="rgb(0,0,0)" stroke="none">10000000</tspan></tspan></tspan></text>
 <text class="TextShape"><tspan class="TextParagraph" font-family="Liberation Sans, sans-serif" font-size="353px" font-weight="400"><tspan class="TextPosition" x="1329" y="5971"><tspan fill="rgb(0,0,0)" stroke="none">0</tspan></tspan></tspan></text>
 <text class="TextShape"><tspan class="TextParagraph" font-family="Liberation Sans, sans-serif" font-size="353px" font-weight="400"><tspan class="TextPosition" x="1329" y="5545"><tspan fill="rgb(0,0,0)" stroke="none">2</tspan></tspan></tspan></text>
 <text class="TextShape"><tspan class="TextParagraph" font-family="Liberation Sans, sans-serif" font-size="353px" font-weight="400"><tspan class="TextPosition" x="1329" y="5120"><tspan fill="rgb(0,0,0)" stroke="none">4</tspan></tspan></tspan></text>
 <text class="TextShape"><tspan class="TextParagraph" font-family="Liberation Sans, sans-serif" font-size="353px" font-weight="400"><tspan class="TextPosition" x="1329" y="4694"><tspan fill="rgb(0,0,0)" stroke="none">6</tspan></tspan></tspan></text>
 <text class="TextShape"><tspan class="TextParagraph" font-family="Liberation Sans, sans-serif" font-size="353px" font-weight="400"><tspan class="TextPosition" x="1329" y="4269"><tspan fill="rgb(0,0,0)" stroke="none">8</tspan></tspan></tspan></text>
 <text class="TextShape"><tspan class="TextParagraph" font-family="Liberation Sans, sans-serif" font-size="353px" font-weight="400"><tspan class="TextPosition" x="1144" y="3844"><tspan fill="rgb(0,0,0)" stroke="none">10</tspan></tspan></tspan></text>
 <text class="TextShape"><tspan class="TextParagraph" font-family="Liberation Sans, sans-serif" font-size="353px" font-weight="400"><tspan class="TextPosition" x="1144" y="3418"><tspan fill="rgb(0,0,0)" stroke="none">12</tspan></tspan></tspan></text>
 <text class="TextShape"><tspan class="TextParagraph" font-family="Liberation Sans, sans-serif" font-size="353px" font-weight="400"><tspan class="TextPosition" x="1144" y="2993"><tspan fill="rgb(0,0,0)" stroke="none">14</tspan></tspan></tspan></text>
 <text class="TextShape"><tspan class="TextParagraph" font-family="Liberation Sans, sans-serif" font-size="353px" font-weight="400"><tspan class="TextPosition" x="1144" y="2567"><tspan fill="rgb(0,0,0)" stroke="none">16</tspan></tspan></tspan></text>
 <text class="TextShape"><tspan class="TextParagraph" font-family="Liberation Sans, sans-serif" font-size="353px" font-weight="400"><tspan class="TextPosition" x="1144" y="2143"><tspan fill="rgb(0,0,0)" stroke="none">18</tspan></tspan></tspan></text>
 <text class="TextShape"><tspan class="TextParagraph" font-family="Liberation Sans, sans-serif" font-size="353px" font-weight="400"><tspan class="TextPosition" x="1144" y="1718"><tspan fill="rgb(0,0,0)" stroke="none">20</tspan></tspan></tspan></text>
 <text class="TextShape"><tspan class="TextParagraph" font-family="Segoe UI" font-size="459px" font-weight="700"><tspan class="TextPosition" x="4027" y="940"><tspan fill="rgb(0,0,0)" stroke="none">Teardown in bulks of 100 items</tspan></tspan></tspan></text>
 <path fill="none" stroke="rgb(0,69,134)" stroke-width="80" stroke-linejoin="round" d="M 1090,7993 L 1890,7993"/>
 <path fill="rgb(0,69,134)" stroke="none" d="M 1384,7888 L 1384,8099 1595,8099 1595,7888 1384,7888 Z"/>
 <path fill="none" stroke="rgb(0,69,134)" stroke-linejoin="round" d="M 1384,7888 L 1384,8099 1595,8099 1595,7888 1384,7888 Z"/>
 <path fill="none" stroke="rgb(255,66,14)" stroke-width="80" stroke-linejoin="round" d="M 7541,7993 L 8341,7993"/>
 <path fill="rgb(255,66,14)" stroke="none" d="M 7835,8099 L 8046,8099 7835,7888 8046,7888 7835,8099 Z"/>
 <path fill="none" stroke="rgb(255,66,14)" stroke-linejoin="round" d="M 7835,8099 L 8046,8099 7835,7888 8046,7888 7835,8099 Z"/>
 <path fill="none" stroke="rgb(255,211,32)" stroke-width="80" stroke-linejoin="round" d="M 1090,8491 L 1890,8491"/>
 <path fill="rgb(255,211,32)" stroke="none" d="M 1595,8491 L 1595,8486 1595,8482 1594,8477 1593,8473 1592,8468 1591,8464 1590,8459 1589,8455 1587,8451 1585,8446 1583,8442 1581,8438 1578,8434 1576,8430 1573,8427 1570,8423 1567,8420 1564,8416 1561,8413 1557,8410 1554,8407 1550,8405 1546,8402 1542,8400 1538,8397 1534,8395 1530,8394 1526,8392 1521,8390 1517,8389 1512,8388 1508,8387 1503,8386 1499,8386 1494,8386 1490,8386 1485,8386 1480,8386 1476,8386 1471,8387 1467,8388 1462,8389 1458,8390 1453,8392 1449,8394 1445,8395 1441,8397 1437,8400 1433,8402 1429,8405 1425,8407 1422,8410 1418,8413 1415,8416 1412,8420 1409,8423 1406,8427 1403,8430 1401,8434 1398,8438 1396,8442 1394,8446 1392,8451 1390,8455 1389,8459 1388,8464 1387,8468 1386,8473 1385,8477 1384,8482 1384,8486 1384,8491 1384,8496 1384,8500 1385,8505 1386,8509 1387,8514 1388,8518 1389,8523 1390,8527 1392,8531 1394,8536 1396,8540 1398,8544 1401,8548 1403,8552 1406,8555 1409,8559 1412,8562 1415,8566 1418,8569 1422,8572 1425,8575 1429,8577 1433,8580 1437,8582 1441,8585 1445,8587 1449,8588 1453,8590 1458,8592 1462,8593 1467,8594 1471,8595 1476,8596 1480,8596 1485,8596 1490,8597 1494,8596 1499,8596 1503,8596 1508,8595 1512,8594 1517,8593 1521,8592 1526,8590 1530,8588 1534,8587 1538,8585 1542,8582 1546,8580 1550,8577 1554,8575 1557,8572 1561,8569 1564,8566 1567,8562 1570,8559 1573,8555 1576,8552 1578,8548 1581,8544 1583,8540 1585,8536 1587,8531 1589,8527 1590,8523 1591,8518 1592,8514 1593,8509 1594,8505 1595,8500 1595,8496 1595,8491 Z"/>
 <path fill="none" stroke="rgb(255,211,32)" stroke-linejoin="round" d="M 1595,8491 L 1595,8486 1595,8482 1594,8477 1593,8473 1592,8468 1591,8464 1590,8459 1589,8455 1587,8451 1585,8446 1583,8442 1581,8438 1578,8434 1576,8430 1573,8427 1570,8423 1567,8420 1564,8416 1561,8413 1557,8410 1554,8407 1550,8405 1546,8402 1542,8400 1538,8397 1534,8395 1530,8394 1526,8392 1521,8390 1517,8389 1512,8388 1508,8387 1503,8386 1499,8386 1494,8386 1490,8386 1485,8386 1480,8386 1476,8386 1471,8387 1467,8388 1462,8389 1458,8390 1453,8392 1449,8394 1445,8395 1441,8397 1437,8400 1433,8402 1429,8405 1425,8407 1422,8410 1418,8413 1415,8416 1412,8420 1409,8423 1406,8427 1403,8430 1401,8434 1398,8438 1396,8442 1394,8446 1392,8451 1390,8455 1389,8459 1388,8464 1387,8468 1386,8473 1385,8477 1384,8482 1384,8486 1384,8491 1384,8496 1384,8500 1385,8505 1386,8509 1387,8514 1388,8518 1389,8523 1390,8527 1392,8531 1394,8536 1396,8540 1398,8544 1401,8548 1403,8552 1406,8555 1409,8559 1412,8562 1415,8566 1418,8569 1422,8572 1425,8575 1429,8577 1433,8580 1437,8582 1441,8585 1445,8587 1449,8588 1453,8590 1458,8592 1462,8593 1467,8594 1471,8595 1476,8596 1480,8596 1485,8596 1490,8597 1494,8596 1499,8596 1503,8596 1508,8595 1512,8594 1517,8593 1521,8592 1526,8590 1530,8588 1534,8587 1538,8585 1542,8582 1546,8580 1550,8577 1554,8575 1557,8572 1561,8569 1564,8566 1567,8562 1570,8559 1573,8555 1576,8552 1578,8548 1581,8544 1583,8540 1585,8536 1587,8531 1589,8527 1590,8523 1591,8518 1592,8514 1593,8509 1594,8505 1595,8500 1595,8496 1595,8491 Z"/>
 <path fill="none" stroke="rgb(87,157,28)" stroke-width="80" stroke-linejoin="round" d="M 7541,8491 L 8341,8491"/>
 <path fill="rgb(87,157,28)" stroke="none" d="M 7941,8386 L 7962,8470 8046,8491 7962,8512 7941,8597 7919,8512 7835,8491 7919,8470 7941,8386 Z"/>
 <path fill="none" stroke="rgb(87,157,28)" stroke-linejoin="round" d="M 7941,8386 L 7962,8470 8046,8491 7962,8512 7941,8597 7919,8512 7835,8491 7919,8470 7941,8386 Z"/>
 <path fill="none" stroke="rgb(126,0,33)" stroke-width="80" stroke-linejoin="round" d="M 1090,8989 L 1890,8989"/>
 <path fill="rgb(126,0,33)" stroke="none" d="M 1384,8884 L 1384,9095 1595,8989 1384,8884 Z"/>
 <path fill="none" stroke="rgb(126,0,33)" stroke-linejoin="round" d="M 1384,8884 L 1384,9095 1595,8989 1384,8884 Z"/>
 <text class="TextShape"><tspan class="TextParagraph" font-family="Liberation Sans, sans-serif" font-size="353px" font-weight="400"><tspan class="TextPosition" x="1990" y="8113"><tspan fill="rgb(0,0,0)" stroke="none">TeardownSet::delete_range()         </tspan></tspan></tspan></text>
 <text class="TextShape"><tspan class="TextParagraph" font-family="Liberation Sans, sans-serif" font-size="353px" font-weight="400"><tspan class="TextPosition" x="8441" y="8113"><tspan fill="rgb(0,0,0)" stroke="none">Treap::remove_range()               </tspan></tspan></tspan></text>
 <text class="TextShape"><tspan class="TextParagraph" font-family="Liberation Sans, sans-serif" font-size="353px" font-weight="400"><tspan class="TextPosition" x="1990" y="8611"><tspan fill="rgb(0,0,0)" stroke="none">BTreeSet::remove()                  </tspan></tspan></tspan></text>
 <text class="TextShape"><tspan class="TextParagraph" font-family="Liberation Sans, sans-serif" font-size="353px" font-weight="400"><tspan class="TextPosition" x="8441" y="8611"><tspan fill="rgb(0,0,0)" stroke="none">SplayTree::remove_range()           </tspan></tspan></tspan></text>
 <text class="TextShape"><tspan class="TextParagraph" font-family="Liberation Sans, sans-serif" font-size="353px" font-weight="400"><tspan class="TextPosition" x="1990" y="9109"><tspan fill="rgb(0,0,0)" stroke="none">TeardownSet::delete()               </tspan></tspan></tspan></text>
 <text class="TextShape"><tspan class="TextParagraph" font-family="Segoe UI" font-size="318px" font-weight="700"><tspan class="TextPosition" x="7787" y="7102"><tspan fill="rgb(0,0,0)" stroke="none">N</tspan></tspan></tspan></text>
 <text class="TextShape" transform="translate(860,4914) rotate(-90) translate(-860,-4914)"><tspan class="TextParagraph" font-family="Segoe UI" font-size="318px" font-weight="700"><tspan class="TextPosition" x="860" y="4914"><tspan fill="rgb(0,0,0)" stroke="none">Times slower</tspan></tspan></tspan></text>
</svg>