<?xml version="1.0" encoding="UTF-8"?>
<!DOCTYPE svg PUBLIC "-//W3C//DTD SVG 1.1//EN" "http://www.w3.org/Graphics/SVG/1.1/DTD/svg11.dtd">
<svg width="148mm" height="95mm" viewBox="0 0 14800 9500" version="1.1" xmlns="http://www.w3.org/2000/svg" stroke-width="28.222" stroke-linejoin="round" xml:space="preserve">
 <path fill="rgb(255,255,255)" stroke="none" d="M 7387,9474 L -5,9474 -5,0 14778,0 14778,9474 7387,9474 Z"/>
 <path fill="none" stroke="rgb(0,0,0)" stroke-linejoin="round" d="M 7387,9474 L -5,9474 -5,0 14778,0 14778,9474 7387,9474 Z"/>
 <path fill="none" stroke="rgb(179,179,179)" stroke-linejoin="round" d="M 7659,5851 L 1764,5851 1764,1599 13555,1599 13555,5851 7659,5851 Z"/>
 <path fill="none" stroke="rgb(179,179,179)" stroke-linejoin="round" d="M 13555,5850 L 1764,5850"/>
 <path fill="none" stroke="rgb(179,179,179)" stroke-linejoin="round" d="M 13555,5242 L 1764,5242"/>
 <path fill="none" stroke="rgb(179,179,179)" stroke-linejoin="round" d="M 13555,4635 L 1764,4635"/>
 <path fill="none" stroke="rgb(179,179,179)" stroke-linejoin="round" d="M 13555,4028 L 1764,4028"/>
 <path fill="none" stroke="rgb(179,179,179)" stroke-linejoin="round" d="M 13555,3420 L 1764,3420"/>
 <path fill="none" stroke="rgb(179,179,179)" stroke-linejoin="round" d="M 13555,2813 L 1764,2813"/>
 <path fill="none" stroke="rgb(179,179,179)" stroke-linejoin="round" d="M 13555,2205 L 1764,2205"/>
 <path fill="none" stroke="rgb(179,179,179)" stroke-linejoin="round" d="M 13555,1597 L 1764,1597"/>
 <path fill="none" stroke="rgb(179,179,179)" stroke-linejoin="round" d="M 1764,6000 L 1764,5850"/>
 <path fill="none" stroke="rgb(179,179,179)" stroke-linejoin="round" d="M 1764,6000 L 1764,5850"/>
 <path fill="none" stroke="rgb(179,179,179)" stroke-linejoin="round" d="M 3729,6000 L 3729,5850"/>
 <path fill="none" stroke="rgb(179,179,179)" stroke-linejoin="round" d="M 3729,6000 L 3729,5850"/>
 <path fill="none" stroke="rgb(179,179,179)" stroke-linejoin="round" d="M 5694,6000 L 5694,5850"/>
 <path fill="none" stroke="rgb(179,179,179)" stroke-linejoin="round" d="M 5694,6000 L 5694,5850"/>
 <path fill="none" stroke="rgb(179,179,179)" stroke-linejoin="round" d="M 7659,6000 L 7659,5850"/>
 <path fill="none" stroke="rgb(179,179,179)" stroke-linejoin="round" d="M 7659,6000 L 7659,5850"/>
 <path fill="none" stroke="rgb(179,179,179)" stroke-linejoin="round" d="M 9624,6000 L 9624,5850"/>
 <path fill="none" stroke="rgb(179,179,179)" stroke-linejoin="round" d="M 9624,6000 L 9624,5850"/>
 <path fill="none" stroke="rgb(179,179,179)" stroke-linejoin="round" d="M 11589,6000 L 11589,5850"/>
 <path fill="none" stroke="rgb(179,179,179)" stroke-linejoin="round" d="M 11589,6000 L 11589,5850"/>
 <path fill="none" stroke="rgb(179,179,179)" stroke-linejoin="round" d="M 13555,6000 L 13555,5850"/>
 <path fill="none" stroke="rgb(179,179,179)" stroke-linejoin="round" d="M 13555,6000 L 13555,5850"/>
 <path fill="none" stroke="rgb(179,179,179)" stroke-linejoin="round" d="M 1764,5850 L 13555,5850"/>
 <path fill="none" stroke="rgb(179,179,179)" stroke-linejoin="round" d="M 1614,5850 L 1764,5850"/>
 <path fill="none" stroke="rgb(179,179,179)" stroke-linejoin="round" d="M 1614,5850 L 1764,5850"/>
 <path fill="none" stroke="rgb(179,179,179)" stroke-linejoin="round" d="M 1614,5242 L 1764,5242"/>
 <path fill="none" stroke="rgb(179,179,179)" stroke-linejoin="round" d="M 1614,5242 L 1764,5242"/>
 <path fill="none" stroke="rgb(179,179,179)" stroke-linejoin="round" d="M 1614,4635 L 1764,4635"/>
 <path fill="none" stroke="rgb(179,179,179)" stroke-linejoin="round" d="M 1614,4635 L 1764,4635"/>
 <path fill="none" stroke="rgb(179,179,179)" stroke-linejoin="round" d="M 1614,4028 L 1764,4028"/>
 <path fill="none" stroke="rgb(179,179,179)" stroke-linejoin="round" d="M 1614,4028 L 1764,4028"/>
 <path fill="none" stroke="rgb(179,179,179)" stroke-linejoin="round" d="M 1614,3420 L 1764,3420"/>
 <path fill="none" stroke="rgb(179,179,179)" stroke-linejoin="round" d="M 1614,3420 L 1764,3420"/>
 <path fill="none" stroke="rgb(179,179,179)" stroke-linejoin="round" d="M 1614,2813 L 1764,2813"/>
 <path fill="none" stroke="rgb(179,179,179)" stroke-linejoin="round" d="M 1614,2813 L 1764,2813"/>
 <path fill="none" stroke="rgb(179,179,179)" stroke-linejoin="round" d="M 1614,2205 L 1764,2205"/>
 <path fill="none" stroke="rgb(179,179,179)" stroke-linejoin="round" d="M 1614,2205 L 1764,2205"/>
 <path fill="none" stroke="rgb(179,179,179)" stroke-linejoin="round" d="M 1614,1597 L 1764,1597"/>
 <path fill="none" stroke="rgb(179,179,179)" stroke-linejoin="round" d="M 1614,1597 L 1764,1597"/>
 <path fill="none" stroke="rgb(179,179,179)" stroke-linejoin="round" d="M 1764,5850 L 1764,1597"/>
 <path fill="none" stroke="rgb(0,69,134)" stroke-width="80" stroke-linejoin="round" d="M 1764,5546 L 3729,5546 5694,5546 7659,5546 9624,5546 11589,5546 13555,5546"/>
 <path fill="rgb(0,69,134)" stroke="none" d="M 1639,5421 L 1639,5671 1889,5671 1889,5421 1639,5421 Z"/>
 <path fill="none" stroke="rgb(0,69,134)" stroke-linejoin="round" d="M 1639,5421 L 1639,5671 1889,5671 1889,5421 1639,5421 Z"/>
 <path fill="rgb(0,69,134)" stroke="none" d="M 3604,5421 L 3604,5671 3854,5671 3854,5421 3604,5421 Z"/>
 <path fill="none" stroke="rgb(0,69,134)" stroke-linejoin="round" d="M 3604,5421 L 3604,5671 3854,5671 3854,5421 3604,5421 Z"/>
 <path fill="rgb(0,69,134)" stroke="none" d="M 5569,5421 L 5569,5671 5819,5671 5819,5421 5569,5421 Z"/>
 <path fill="none" stroke="rgb(0,69,134)" stroke-linejoin="round" d="M 5569,5421 L 5569,5671 5819,5671 5819,5421 5569,5421 Z"/>
 <path fill="rgb(0,69,134)" stroke="none" d="M 7534,5421 L 7534,5671 7784,5671 7784,5421 7534,5421 Z"/>
 <path fill="none" stroke="rgb(0,69,134)" stroke-linejoin="round" d="M 7534,5421 L 7534,5671 7784,5671 7784,5421 7534,5421 Z"/>
 <path fill="rgb(0,69,134)" stroke="none" d="M 9499,5421 L 9499,5671 9749,5671 9749,5421 9499,5421 Z"/>
 <path fill="none" stroke="rgb(0,69,134)" stroke-linejoin="round" d="M 9499,5421 L 9499,5671 9749,5671 9749,5421 9499,5421 Z"/>
 <path fill="rgb(0,69,134)" stroke="none" d="M 11464,5421 L 11464,5671 11714,5671 11714,5421 11464,5421 Z"/>
 <path fill="none" stroke="rgb(0,69,134)" stroke-linejoin="round" d="M 11464,5421 L 11464,5671 11714,5671 11714,5421 11464,5421 Z"/>
 <path fill="rgb(0,69,134)" stroke="none" d="M 13430,5421 L 13430,5671 13680,5671 13680,5421 13430,5421 Z"/>
 <path fill="none" stroke="rgb(0,69,134)" stroke-linejoin="round" d="M 13430,5421 L 13430,5671 13680,5671 13680,5421 13430,5421 Z"/>
 <path fill="none" stroke="rgb(255,66,14)" stroke-width="80" stroke-linejoin="round" d="M 1764,3962 L 3729,3559 5694,1865 7659,3930 9624,3725 11589,3521 13555,3725"/>
 <path fill="rgb(255,66,14)" stroke="none" d="M 1639,4087 L 1889,4087 1639,3837 1889,3837 1639,4087 Z"/>
 <path fill="none" stroke="rgb(255,66,14)" stroke-linejoin="round" d="M 1639,4087 L 1889,4087 1639,3837 1889,3837 1639,4087 Z"/>
 <path fill="rgb(255,66,14)" stroke="none" d="M 3604,3684 L 3854,3684 3604,3434 3854,3434 3604,3684 Z"/>
 <path fill="none" stroke="rgb(255,66,14)" stroke-linejoin="round" d="M 3604,3684 L 3854,3684 3604,3434 3854,3434 3604,3684 Z"/>
 <path fill="rgb(255,66,14)" stroke="none" d="M 5569,1990 L 5819,1990 5569,1740 5819,1740 5569,1990 Z"/>
 <path fill="none" stroke="rgb(255,66,14)" stroke-linejoin="round" d="M 5569,1990 L 5819,1990 5569,1740 5819,1740 5569,1990 Z"/>
 <path fill="rgb(255,66,14)" stroke="none" d="M 7534,4055 L 7784,4055 7534,3805 7784,3805 7534,4055 Z"/>
 <path fill="none" stroke="rgb(255,66,14)" stroke-linejoin="round" d="M 7534,4055 L 7784,4055 7534,3805 7784,3805 7534,4055 Z"/>
 <path fill="rgb(255,66,14)" stroke="none" d="M 9499,3850 L 9749,3850 9499,3600 9749,3600 9499,3850 Z"/>
 <path fill="none" stroke="rgb(255,66,14)" stroke-linejoin="round" d="M 9499,3850 L 9749,3850 9499,3600 9749,3600 9499,3850 Z"/>
 <path fill="rgb(255,66,14)" stroke="none" d="M 11464,3646 L 11714,3646 11464,3396 11714,3396 11464,3646 Z"/>
 <path fill="none" stroke="rgb(255,66,14)" stroke-linejoin="round" d="M 11464,3646 L 11714,3646 11464,3396 11714,3396 11464,3646 Z"/>
 <path fill="rgb(255,66,14)" stroke="none" d="M 13430,3850 L 13680,3850 13430,3600 13680,3600 13430,3850 Z"/>
 <path fill="none" stroke="rgb(255,66,14)" stroke-linejoin="round" d="M 13430,3850 L 13680,3850 13430,3600 13680,3600 13430,3850 Z"/>
 <path fill="none" stroke="rgb(255,211,32)" stroke-width="80" stroke-linejoin="round" d="M 1764,5287 L 3729,4853 5694,3447 7659,4521 9624,4475 11589,4516 13555,4728"/>
 <path fill="rgb(255,211,32)" stroke="none" d="M 1889,5287 L 1888,5281 1888,5276 1887,5270 1887,5265 1886,5259 1884,5254 1883,5249 1881,5244 1879,5239 1877,5234 1874,5229 1872,5224 1869,5219 1866,5215 1863,5210 1859,5206 1856,5202 1852,5198 1848,5194 1844,5191 1840,5187 1835,5184 1831,5181 1826,5178 1821,5176 1816,5173 1811,5171 1806,5169 1801,5167 1796,5166 1791,5165 1785,5163 1780,5163 1774,5162 1769,5162 1764,5162 1758,5162 1753,5162 1747,5163 1742,5163 1736,5165 1731,5166 1726,5167 1721,5169 1716,5171 1711,5173 1706,5176 1701,5178 1696,5181 1692,5184 1687,5187 1683,5191 1679,5194 1675,5198 1671,5202 1668,5206 1664,5210 1661,5215 1658,5219 1655,5224 1653,5229 1650,5234 1648,5239 1646,5244 1644,5249 1643,5254 1641,5259 1640,5265 1640,5270 1639,5276 1639,5281 1639,5287 1639,5292 1639,5297 1640,5303 1640,5308 1641,5314 1643,5319 1644,5324 1646,5329 1648,5334 1650,5339 1653,5344 1655,5349 1658,5354 1661,5358 1664,5363 1668,5367 1671,5371 1675,5375 1679,5379 1683,5382 1687,5386 1692,5389 1696,5392 1701,5395 1706,5397 1711,5400 1716,5402 1721,5404 1726,5406 1731,5407 1736,5409 1742,5410 1747,5410 1753,5411 1758,5411 1764,5412 1769,5411 1774,5411 1780,5410 1785,5410 1791,5409 1796,5407 1801,5406 1806,5404 1811,5402 1816,5400 1821,5397 1826,5395 1831,5392 1835,5389 1840,5386 1844,5382 1848,5379 1852,5375 1856,5371 1859,5367 1863,5363 1866,5358 1869,5354 1872,5349 1874,5344 1877,5339 1879,5334 1881,5329 1883,5324 1884,5319 1886,5314 1887,5308 1887,5303 1888,5297 1888,5292 1889,5287 Z"/>
 <path fill="none" stroke="rgb(255,211,32)" stroke-linejoin="round" d="M 1889,5287 L 1888,5281 1888,5276 1887,5270 1887,5265 1886,5259 1884,5254 1883,5249 1881,5244 1879,5239 1877,5234 1874,5229 1872,5224 1869,5219 1866,5215 1863,5210 1859,5206 1856,5202 1852,5198 1848,5194 1844,5191 1840,5187 1835,5184 1831,5181 1826,5178 1821,5176 1816,5173 1811,5171 1806,5169 1801,5167 1796,5166 1791,5165 1785,5163 1780,5163 1774,5162 1769,5162 1764,5162 1758,5162 1753,5162 1747,5163 1742,5163 1736,5165 1731,5166 1726,5167 1721,5169 1716,5171 1711,5173 1706,5176 1701,5178 1696,5181 1692,5184 1687,5187 1683,5191 1679,5194 1675,5198 1671,5202 1668,5206 1664,5210 1661,5215 1658,5219 1655,5224 1653,5229 1650,5234 1648,5239 1646,5244 1644,5249 1643,5254 1641,5259 1640,5265 1640,5270 1639,5276 1639,5281 1639,5287 1639,5292 1639,5297 1640,5303 1640,5308 1641,5314 1643,5319 1644,5324 1646,5329 1648,5334 1650,5339 1653,5344 1655,5349 1658,5354 1661,5358 1664,5363 1668,5367 1671,5371 1675,5375 1679,5379 1683,5382 1687,5386 1692,5389 1696,5392 1701,5395 1706,5397 1711,5400 1716,5402 1721,5404 1726,5406 1731,5407 1736,5409 1742,5410 1747,5410 1753,5411 1758,5411 1764,5412 1769,5411 1774,5411 1780,5410 1785,5410 1791,5409 1796,5407 1801,5406 1806,5404 1811,5402 1816,5400 1821,5397 1826,5395 1831,5392 1835,5389 1840,5386 1844,5382 1848,5379 1852,5375 1856,5371 1859,5367 1863,5363 1866,5358 1869,5354 1872,5349 1874,5344 1877,5339 1879,5334 1881,5329 1883,5324 1884,5319 1886,5314 1887,5308 1887,5303 1888,5297 1888,5292 1889,5287 Z"/>
 <path fill="rgb(255,211,32)" stroke="none" d="M 3854,4853 L 3854,4847 3853,4842 3853,4836 3852,4831 3851,4826 3850,4820 3848,4815 3846,4810 3844,4805 3842,4800 3840,4795 3837,4790 3834,4785 3831,4781 3828,4776 3825,4772 3821,4768 3817,4764 3813,4760 3809,4757 3805,4753 3801,4750 3796,4747 3791,4744 3787,4742 3782,4739 3777,4737 3772,4736 3766,4734 3761,4733 3756,4732 3751,4730 3745,4730 3740,4729 3734,4729 3729,4729 3723,4729 3718,4729 3713,4730 3707,4730 3702,4732 3696,4733 3691,4734 3686,4736 3681,4737 3676,4739 3671,4742 3666,4744 3662,4747 3657,4750 3653,4753 3648,4757 3644,4760 3640,4764 3637,4768 3633,4772 3630,4776 3626,4781 3623,4785 3621,4790 3618,4795 3616,4800 3613,4805 3611,4810 3610,4815 3608,4820 3607,4826 3606,4831 3605,4836 3604,4842 3604,4847 3604,4853 3604,4858 3604,4863 3605,4869 3606,4874 3607,4880 3608,4885 3610,4890 3611,4895 3613,4900 3616,4905 3618,4910 3621,4915 3623,4920 3626,4924 3630,4929 3633,4933 3637,4937 3640,4941 3644,4945 3648,4948 3653,4952 3657,4955 3662,4958 3666,4961 3671,4963 3676,4966 3681,4968 3686,4970 3691,4972 3696,4973 3702,4975 3707,4976 3713,4976 3718,4977 3723,4977 3729,4978 3734,4977 3740,4977 3745,4976 3751,4976 3756,4975 3761,4973 3766,4972 3772,4970 3777,4968 3782,4966 3787,4963 3791,4961 3796,4958 3801,4955 3805,4952 3809,4948 3813,4945 3817,4941 3821,4937 3825,4933 3828,4929 3831,4924 3834,4920 3837,4915 3840,4910 3842,4905 3844,4900 3846,4895 3848,4890 3850,4885 3851,4880 3852,4874 3853,4869 3853,4863 3854,4858 3854,4853 Z"/>
 <path fill="none" stroke="rgb(255,211,32)" stroke-linejoin="round" d="M 3854,4853 L 3854,4847 3853,4842 3853,4836 3852,4831 3851,4826 3850,4820 3848,4815 3846,4810 3844,4805 3842,4800 3840,4795 3837,4790 3834,4785 3831,4781 3828,4776 3825,4772 3821,4768 3817,4764 3813,4760 3809,4757 3805,4753 3801,4750 3796,4747 3791,4744 3787,4742 3782,4739 3777,4737 3772,4736 3766,4734 3761,4733 3756,4732 3751,4730 3745,4730 3740,4729 3734,4729 3729,4729 3723,4729 3718,4729 3713,4730 3707,4730 3702,4732 3696,4733 3691,4734 3686,4736 3681,4737 3676,4739 3671,4742 3666,4744 3662,4747 3657,4750 3653,4753 3648,4757 3644,4760 3640,4764 3637,4768 3633,4772 3630,4776 3626,4781 3623,4785 3621,4790 3618,4795 3616,4800 3613,4805 3611,4810 3610,4815 3608,4820 3607,4826 3606,4831 3605,4836 3604,4842 3604,4847 3604,4853 3604,4858 3604,4863 3605,4869 3606,4874 3607,4880 3608,4885 3610,4890 3611,4895 3613,4900 3616,4905 3618,4910 3621,4915 3623,4920 3626,4924 3630,4929 3633,4933 3637,4937 3640,4941 3644,4945 3648,4948 3653,4952 3657,4955 3662,4958 3666,4961 3671,4963 3676,4966 3681,4968 3686,4970 3691,4972 3696,4973 3702,4975 3707,4976 3713,4976 3718,4977 3723,4977 3729,4978 3734,4977 3740,4977 3745,4976 3751,4976 3756,4975 3761,4973 3766,4972 3772,4970 3777,4968 3782,4966 3787,4963 3791,4961 3796,4958 3801,4955 3805,4952 3809,4948 3813,4945 3817,4941 3821,4937 3825,4933 3828,4929 3831,4924 3834,4920 3837,4915 3840,4910 3842,4905 3844,4900 3846,4895 3848,4890 3850,4885 3851,4880 3852,4874 3853,4869 3853,4863 3854,4858 3854,4853 Z"/>
 <path fill="rgb(255,211,32)" stroke="none" d="M 5819,3447 L 5819,3441 5819,3436 5818,3430 5817,3425 5816,3420 5815,3414 5813,3409 5812,3404 5810,3399 5807,3394 5805,3389 5802,3384 5800,3380 5797,3375 5793,3371 5790,3366 5786,3362 5783,3358 5779,3355 5775,3351 5770,3348 5766,3344 5761,3341 5757,3338 5752,3336 5747,3333 5742,3331 5737,3329 5732,3327 5727,3326 5721,3325 5716,3324 5710,3323 5705,3322 5700,3322 5694,3322 5689,3322 5683,3322 5678,3323 5672,3324 5667,3325 5662,3326 5657,3327 5651,3329 5646,3331 5641,3333 5636,3336 5632,3338 5627,3341 5622,3344 5618,3348 5614,3351 5610,3355 5606,3358 5602,3362 5598,3366 5595,3371 5592,3375 5589,3380 5586,3384 5583,3389 5581,3394 5579,3399 5577,3404 5575,3409 5573,3414 5572,3420 5571,3425 5570,3430 5570,3436 5569,3441 5569,3447 5569,3452 5570,3458 5570,3463 5571,3468 5572,3474 5573,3479 5575,3484 5577,3489 5579,3495 5581,3500 5583,3504 5586,3509 5589,3514 5592,3518 5595,3523 5598,3527 5602,3531 5606,3535 5610,3539 5614,3542 5618,3546 5622,3549 5627,3552 5632,3555 5636,3558 5641,3560 5646,3562 5651,3564 5657,3566 5662,3567 5667,3569 5672,3570 5678,3571 5683,3571 5689,3572 5694,3572 5700,3572 5705,3571 5710,3571 5716,3570 5721,3569 5727,3567 5732,3566 5737,3564 5742,3562 5747,3560 5752,3558 5757,3555 5761,3552 5766,3549 5770,3546 5775,3542 5779,3539 5783,3535 5786,3531 5790,3527 5793,3523 5797,3518 5800,3514 5802,3509 5805,3504 5807,3500 5810,3495 5812,3489 5813,3484 5815,3479 5816,3474 5817,3468 5818,3463 5819,3458 5819,3452 5819,3447 Z"/>
 <path fill="none" stroke="rgb(255,211,32)" stroke-linejoin="round" d="M 5819,3447 L 5819,3441 5819,3436 5818,3430 5817,3425 5816,3420 5815,3414 5813,3409 5812,3404 5810,3399 5807,3394 5805,3389 5802,3384 5800,3380 5797,3375 5793,3371 5790,3366 5786,3362 5783,3358 5779,3355 5775,3351 5770,3348 5766,3344 5761,3341 5757,3338 5752,3336 5747,3333 5742,3331 5737,3329 5732,3327 5727,3326 5721,3325 5716,3324 5710,3323 5705,3322 5700,3322 5694,3322 5689,3322 5683,3322 5678,3323 5672,3324 5667,3325 5662,3326 5657,3327 5651,3329 5646,3331 5641,3333 5636,3336 5632,3338 5627,3341 5622,3344 5618,3348 5614,3351 5610,3355 5606,3358 5602,3362 5598,3366 5595,3371 5592,3375 5589,3380 5586,3384 5583,3389 5581,3394 5579,3399 5577,3404 5575,3409 5573,3414 5572,3420 5571,3425 5570,3430 5570,3436 5569,3441 5569,3447 5569,3452 5570,3458 5570,3463 5571,3468 5572,3474 5573,3479 5575,3484 5577,3489 5579,3495 5581,3500 5583,3504 5586,3509 5589,3514 5592,3518 5595,3523 5598,3527 5602,3531 5606,3535 5610,3539 5614,3542 5618,3546 5622,3549 5627,3552 5632,3555 5636,3558 5641,3560 5646,3562 5651,3564 5657,3566 5662,3567 5667,3569 5672,3570 5678,3571 5683,3571 5689,3572 5694,3572 5700,3572 5705,3571 5710,3571 5716,3570 5721,3569 5727,3567 5732,3566 5737,3564 5742,3562 5747,3560 5752,3558 5757,3555 5761,3552 5766,3549 5770,3546 5775,3542 5779,3539 5783,3535 5786,3531 5790,3527 5793,3523 5797,3518 5800,3514 5802,3509 5805,3504 5807,3500 5810,3495 5812,3489 5813,3484 5815,3479 5816,3474 5817,3468 5818,3463 5819,3458 5819,3452 5819,3447 Z"/>
 <path fill="rgb(255,211,32)" stroke="none" d="M 7784,4521 L 7783,4515 7783,4510 7782,4504 7782,4499 7781,4494 7779,4488 7778,4483 7776,4478 7774,4473 7772,4468 7769,4463 7767,4458 7764,4454 7761,4449 7758,4445 7754,4440 7751,4436 7747,4432 7743,4429 7739,4425 7735,4422 7730,4418 7726,4415 7721,4412 7716,4410 7711,4407 7706,4405 7701,4403 7696,4401 7691,4400 7686,4399 7680,4398 7675,4397 7669,4396 7664,4396 7659,4396 7653,4396 7648,4396 7642,4397 7637,4398 7631,4399 7626,4400 7621,4401 7616,4403 7611,4405 7606,4407 7601,4410 7596,4412 7591,4415 7587,4418 7582,4422 7578,4425 7574,4429 7570,4432 7566,4436 7563,4440 7559,4445 7556,4449 7553,4454 7550,4458 7548,4463 7545,4468 7543,4473 7541,4478 7539,4483 7538,4488 7536,4494 7535,4499 7535,4504 7534,4510 7534,4515 7534,4521 7534,4526 7534,4532 7535,4537 7535,4542 7536,4548 7538,4553 7539,4558 7541,4563 7543,4569 7545,4574 7548,4578 7550,4583 7553,4588 7556,4592 7559,4597 7563,4601 7566,4605 7570,4609 7574,4613 7578,4616 7582,4620 7587,4623 7591,4626 7596,4629 7601,4632 7606,4634 7611,4636 7616,4638 7621,4640 7626,4641 7631,4643 7637,4644 7642,4645 7648,4645 7653,4646 7659,4646 7664,4646 7669,4645 7675,4645 7680,4644 7686,4643 7691,4641 7696,4640 7701,4638 7706,4636 7711,4634 7716,4632 7721,4629 7726,4626 7730,4623 7735,4620 7739,4616 7743,4613 7747,4609 7751,4605 7754,4601 7758,4597 7761,4592 7764,4588 7767,4583 7769,4578 7772,4574 7774,4569 7776,4563 7778,4558 7779,4553 7781,4548 7782,4542 7782,4537 7783,4532 7783,4526 7784,4521 Z"/>
 <path fill="none" stroke="rgb(255,211,32)" stroke-linejoin="round" d="M 7784,4521 L 7783,4515 7783,4510 7782,4504 7782,4499 7781,4494 7779,4488 7778,4483 7776,4478 7774,4473 7772,4468 7769,4463 7767,4458 7764,4454 7761,4449 7758,4445 7754,4440 7751,4436 7747,4432 7743,4429 7739,4425 7735,4422 7730,4418 7726,4415 7721,4412 7716,4410 7711,4407 7706,4405 7701,4403 7696,4401 7691,4400 7686,4399 7680,4398 7675,4397 7669,4396 7664,4396 7659,4396 7653,4396 7648,4396 7642,4397 7637,4398 7631,4399 7626,4400 7621,4401 7616,4403 7611,4405 7606,4407 7601,4410 7596,4412 7591,4415 7587,4418 7582,4422 7578,4425 7574,4429 7570,4432 7566,4436 7563,4440 7559,4445 7556,4449 7553,4454 7550,4458 7548,4463 7545,4468 7543,4473 7541,4478 7539,4483 7538,4488 7536,4494 7535,4499 7535,4504 7534,4510 7534,4515 7534,4521 7534,4526 7534,4532 7535,4537 7535,4542 7536,4548 7538,4553 7539,4558 7541,4563 7543,4569 7545,4574 7548,4578 7550,4583 7553,4588 7556,4592 7559,4597 7563,4601 7566,4605 7570,4609 7574,4613 7578,4616 7582,4620 7587,4623 7591,4626 7596,4629 7601,4632 7606,4634 7611,4636 7616,4638 7621,4640 7626,4641 7631,4643 7637,4644 7642,4645 7648,4645 7653,4646 7659,4646 7664,4646 7669,4645 7675,4645 7680,4644 7686,4643 7691,4641 7696,4640 7701,4638 7706,4636 7711,4634 7716,4632 7721,4629 7726,4626 7730,4623 7735,4620 7739,4616 7743,4613 7747,4609 7751,4605 7754,4601 7758,4597 7761,4592 7764,4588 7767,4583 7769,4578 7772,4574 7774,4569 7776,4563 7778,4558 7779,4553 7781,4548 7782,4542 7782,4537 7783,4532 7783,4526 7784,4521 Z"/>
 <path fill="rgb(255,211,32)" stroke="none" d="M 9749,4475 L 9749,4469 9748,4464 9748,4458 9747,4453 9746,4448 9745,4442 9743,4437 9741,4432 9739,4427 9737,4422 9735,4417 9732,4412 9729,4407 9726,4403 9723,4398 9720,4394 9716,4390 9712,4386 9708,4382 9704,4379 9700,4375 9696,4372 9691,4369 9686,4366 9682,4364 9677,4361 9672,4359 9667,4357 9661,4355 9656,4354 9651,4353 9646,4351 9640,4351 9635,4350 9629,4350 9624,4350 9618,4350 9613,4350 9608,4351 9602,4351 9597,4353 9591,4354 9586,4355 9581,4357 9576,4359 9571,4361 9566,4364 9561,4366 9557,4369 9552,4372 9548,4375 9543,4379 9539,4382 9535,4386 9532,4390 9528,4394 9525,4398 9521,4403 9518,4407 9516,4412 9513,4417 9511,4422 9508,4427 9506,4432 9505,4437 9503,4442 9502,4448 9501,4453 9500,4458 9499,4464 9499,4469 9499,4475 9499,4480 9499,4485 9500,4491 9501,4496 9502,4502 9503,4507 9505,4512 9506,4517 9508,4522 9511,4527 9513,4532 9516,4537 9518,4542 9521,4546 9525,4551 9528,4555 9532,4559 9535,4563 9539,4567 9543,4570 9548,4574 9552,4577 9557,4580 9561,4583 9566,4585 9571,4588 9576,4590 9581,4592 9586,4594 9591,4595 9597,4597 9602,4598 9608,4599 9613,4599 9618,4599 9624,4600 9629,4599 9635,4599 9640,4599 9646,4598 9651,4597 9656,4595 9661,4594 9667,4592 9672,4590 9677,4588 9682,4585 9686,4583 9691,4580 9696,4577 9700,4574 9704,4570 9708,4567 9712,4563 9716,4559 9720,4555 9723,4551 9726,4546 9729,4542 9732,4537 9735,4532 9737,4527 9739,4522 9741,4517 9743,4512 9745,4507 9746,4502 9747,4496 9748,4491 9748,4485 9749,4480 9749,4475 Z"/>
 <path fill="none" stroke="rgb(255,211,32)" stroke-linejoin="round" d="M 9749,4475 L 9749,4469 9748,4464 9748,4458 9747,4453 9746,4448 9745,4442 9743,4437 9741,4432 9739,4427 9737,4422 9735,4417 9732,4412 9729,4407 9726,4403 9723,4398 9720,4394 9716,4390 9712,4386 9708,4382 9704,4379 9700,4375 9696,4372 9691,4369 9686,4366 9682,4364 9677,4361 9672,4359 9667,4357 9661,4355 9656,4354 9651,4353 9646,4351 9640,4351 9635,4350 9629,4350 9624,4350 9618,4350 9613,4350 9608,4351 9602,4351 9597,4353 9591,4354 9586,4355 9581,4357 9576,4359 9571,4361 9566,4364 9561,4366 9557,4369 9552,4372 9548,4375 9543,4379 9539,4382 9535,4386 9532,4390 9528,4394 9525,4398 9521,4403 9518,4407 9516,4412 9513,4417 9511,4422 9508,4427 9506,4432 9505,4437 9503,4442 9502,4448 9501,4453 9500,4458 9499,4464 9499,4469 9499,4475 9499,4480 9499,4485 9500,4491 9501,4496 9502,4502 9503,4507 9505,4512 9506,4517 9508,4522 9511,4527 9513,4532 9516,4537 9518,4542 9521,4546 9525,4551 9528,4555 9532,4559 9535,4563 9539,4567 9543,4570 9548,4574 9552,4577 9557,4580 9561,4583 9566,4585 9571,4588 9576,4590 9581,4592 9586,4594 9591,4595 9597,4597 9602,4598 9608,4599 9613,4599 9618,4599 9624,4600 9629,4599 9635,4599 9640,4599 9646,4598 9651,4597 9656,4595 9661,4594 9667,4592 9672,4590 9677,4588 9682,4585 9686,4583 9691,4580 9696,4577 9700,4574 9704,4570 9708,4567 9712,4563 9716,4559 9720,4555 9723,4551 9726,4546 9729,4542 9732,4537 9735,4532 9737,4527 9739,4522 9741,4517 9743,4512 9745,4507 9746,4502 9747,4496 9748,4491 9748,4485 9749,4480 9749,4475 Z"/>
 <path fill="rgb(255,211,32)" stroke="none" d="M 11714,4516 L 11714,4511 11714,4506 11713,4500 11712,4495 11711,4489 11710,4484 11708,4479 11707,4474 11705,4469 11702,4464 11700,4459 11697,4454 11695,4449 11692,4445 11688,4440 11685,4436 11681,4432 11678,4428 11674,4424 11670,4421 11665,4417 11661,4414 11656,4411 11652,4408 11647,4406 11642,4403 11637,4401 11632,4399 11627,4397 11622,4396 11616,4394 11611,4393 11605,4393 11600,4392 11595,4392 11589,4391 11584,4392 11578,4392 11573,4393 11567,4393 11562,4394 11557,4396 11552,4397 11546,4399 11541,4401 11536,4403 11531,4406 11527,4408 11522,4411 11517,4414 11513,4417 11509,4421 11505,4424 11501,4428 11497,4432 11493,4436 11490,4440 11487,4445 11484,4449 11481,4454 11478,4459 11476,4464 11474,4469 11472,4474 11470,4479 11468,4484 11467,4489 11466,4495 11465,4500 11465,4506 11464,4511 11464,4516 11464,4522 11465,4527 11465,4533 11466,4538 11467,4544 11468,4549 11470,4554 11472,4559 11474,4564 11476,4569 11478,4574 11481,4579 11484,4584 11487,4588 11490,4593 11493,4597 11497,4601 11501,4605 11505,4609 11509,4612 11513,4616 11517,4619 11522,4622 11527,4625 11531,4627 11536,4630 11541,4632 11546,4634 11552,4636 11557,4637 11562,4639 11567,4640 11573,4640 11578,4641 11584,4641 11589,4641 11595,4641 11600,4641 11605,4640 11611,4640 11616,4639 11622,4637 11627,4636 11632,4634 11637,4632 11642,4630 11647,4627 11652,4625 11656,4622 11661,4619 11665,4616 11670,4612 11674,4609 11678,4605 11681,4601 11685,4597 11688,4593 11692,4588 11695,4584 11697,4579 11700,4574 11702,4569 11705,4564 11707,4559 11708,4554 11710,4549 11711,4544 11712,4538 11713,4533 11714,4527 11714,4522 11714,4516 Z"/>
 <path fill="none" stroke="rgb(255,211,32)" stroke-linejoin="round" d="M 11714,4516 L 11714,4511 11714,4506 11713,4500 11712,4495 11711,4489 11710,4484 11708,4479 11707,4474 11705,4469 11702,4464 11700,4459 11697,4454 11695,4449 11692,4445 11688,4440 11685,4436 11681,4432 11678,4428 11674,4424 11670,4421 11665,4417 11661,4414 11656,4411 11652,4408 11647,4406 11642,4403 11637,4401 11632,4399 11627,4397 11622,4396 11616,4394 11611,4393 11605,4393 11600,4392 11595,4392 11589,4391 11584,4392 11578,4392 11573,4393 11567,4393 11562,4394 11557,4396 11552,4397 11546,4399 11541,4401 11536,4403 11531,4406 11527,4408 11522,4411 11517,4414 11513,4417 11509,4421 11505,4424 11501,4428 11497,4432 11493,4436 11490,4440 11487,4445 11484,4449 11481,4454 11478,4459 11476,4464 11474,4469 11472,4474 11470,4479 11468,4484 11467,4489 11466,4495 11465,4500 11465,4506 11464,4511 11464,4516 11464,4522 11465,4527 11465,4533 11466,4538 11467,4544 11468,4549 11470,4554 11472,4559 11474,4564 11476,4569 11478,4574 11481,4579 11484,4584 11487,4588 11490,4593 11493,4597 11497,4601 11501,4605 11505,4609 11509,4612 11513,4616 11517,4619 11522,4622 11527,4625 11531,4627 11536,4630 11541,4632 11546,4634 11552,4636 11557,4637 11562,4639 11567,4640 11573,4640 11578,4641 11584,4641 11589,4641 11595,4641 11600,4641 11605,4640 11611,4640 11616,4639 11622,4637 11627,4636 11632,4634 11637,4632 11642,4630 11647,4627 11652,4625 11656,4622 11661,4619 11665,4616 11670,4612 11674,4609 11678,4605 11681,4601 11685,4597 11688,4593 11692,4588 11695,4584 11697,4579 11700,4574 11702,4569 11705,4564 11707,4559 11708,4554 11710,4549 11711,4544 11712,4538 11713,4533 11714,4527 11714,4522 11714,4516 Z"/>
 <path fill="rgb(255,211,32)" stroke="none" d="M 13680,4728 L 13679,4723 13679,4717 13678,4712 13678,4706 13677,4701 13675,4696 13674,4691 13672,4685 13670,4680 13668,4675 13665,4670 13663,4666 13660,4661 13657,4656 13654,4652 13650,4648 13647,4644 13643,4640 13639,4636 13635,4632 13631,4629 13626,4626 13622,4623 13617,4620 13612,4617 13607,4615 13602,4613 13597,4611 13592,4609 13587,4607 13582,4606 13576,4605 13571,4604 13565,4604 13560,4603 13555,4603 13549,4603 13544,4604 13538,4604 13533,4605 13527,4606 13522,4607 13517,4609 13512,4611 13507,4613 13502,4615 13497,4617 13492,4620 13487,4623 13483,4626 13478,4629 13474,4632 13470,4636 13466,4640 13462,4644 13459,4648 13455,4652 13452,4656 13449,4661 13446,4666 13444,4670 13441,4675 13439,4680 13437,4685 13435,4691 13434,4696 13432,4701 13431,4706 13431,4712 13430,4717 13430,4723 13430,4728 13430,4734 13430,4738 13431,4743 13431,4749 13432,4754 13434,4760 13435,4765 13437,4770 13439,4775 13441,4780 13444,4785 13446,4790 13449,4794 13452,4799 13455,4803 13459,4808 13462,4812 13466,4816 13470,4819 13474,4823 13478,4826 13483,4830 13487,4833 13492,4835 13497,4838 13502,4840 13507,4843 13512,4845 13517,4846 13522,4848 13527,4849 13533,4850 13538,4851 13544,4852 13549,4852 13555,4852 13560,4852 13565,4852 13571,4851 13576,4850 13582,4849 13587,4848 13592,4846 13597,4845 13602,4843 13607,4840 13612,4838 13617,4835 13622,4833 13626,4830 13631,4826 13635,4823 13639,4819 13643,4816 13647,4812 13650,4808 13654,4803 13657,4799 13660,4794 13663,4790 13665,4785 13668,4780 13670,4775 13672,4770 13674,4765 13675,4760 13677,4754 13678,4749 13678,4743 13679,4738 13679,4734 13680,4728 Z"/>
 <path fill="none" stroke="rgb(255,211,32)" stroke-linejoin="round" d="M 13680,4728 L 13679,4723 13679,4717 13678,4712 13678,4706 13677,4701 13675,4696 13674,4691 13672,4685 13670,4680 13668,4675 13665,4670 13663,4666 13660,4661 13657,4656 13654,4652 13650,4648 13647,4644 13643,4640 13639,4636 13635,4632 13631,4629 13626,4626 13622,4623 13617,4620 13612,4617 13607,4615 13602,4613 13597,4611 13592,4609 13587,4607 13582,4606 13576,4605 13571,4604 13565,4604 13560,4603 13555,4603 13549,4603 13544,4604 13538,4604 13533,4605 13527,4606 13522,4607 13517,4609 13512,4611 13507,4613 13502,4615 13497,4617 13492,4620 13487,4623 13483,4626 13478,4629 13474,4632 13470,4636 13466,4640 13462,4644 13459,4648 13455,4652 13452,4656 13449,4661 13446,4666 13444,4670 13441,4675 13439,4680 13437,4685 13435,4691 13434,4696 13432,4701 13431,4706 13431,4712 13430,4717 13430,4723 13430,4728 13430,4734 13430,4738 13431,4743 13431,4749 13432,4754 13434,4760 13435,4765 13437,4770 13439,4775 13441,4780 13444,4785 13446,4790 13449,4794 13452,4799 13455,4803 13459,4808 13462,4812 13466,4816 13470,4819 13474,4823 13478,4826 13483,4830 13487,4833 13492,4835 13497,4838 13502,4840 13507,4843 13512,4845 13517,4846 13522,4848 13527,4849 13533,4850 13538,4851 13544,4852 13549,4852 13555,4852 13560,4852 13565,4852 13571,4851 13576,4850 13582,4849 13587,4848 13592,4846 13597,4845 13602,4843 13607,4840 13612,4838 13617,4835 13622,4833 13626,4830 13631,4826 13635,4823 13639,4819 13643,4816 13647,4812 13650,4808 13654,4803 13657,4799 13660,4794 13663,4790 13665,4785 13668,4780 13670,4775 13672,4770 13674,4765 13675,4760 13677,4754 13678,4749 13678,4743 13679,4738 13679,4734 13680,4728 Z"/>
 <path fill="none" stroke="rgb(87,157,28)" stroke-width="80" stroke-linejoin="round" d="M 1764,4644 L 3729,4838 5694,4039 7659,4899 9624,4809 11589,4553 13555,4460"/>
 <path fill="rgb(87,157,28)" stroke="none" d="M 1764,4519 L 1789,4619 1889,4644 1789,4669 1764,4768 1739,4669 1639,4644 1739,4619 1764,4519 Z"/>
 <path fill="none" stroke="rgb(87,157,28)" stroke-linejoin="round" d="M 1764,4519 L 1789,4619 1889,4644 1789,4669 1764,4768 1739,4669 1639,4644 1739,4619 1764,4519 Z"/>
 <path fill="rgb(87,157,28)" stroke="none" d="M 3729,4714 L 3754,4813 3854,4838 3754,4863 3729,4963 3704,4863 3604,4838 3704,4813 3729,4714 Z"/>
 <path fill="none" stroke="rgb(87,157,28)" stroke-linejoin="round" d="M 3729,4714 L 3754,4813 3854,4838 3754,4863 3729,4963 3704,4863 3604,4838 3704,4813 3729,4714 Z"/>
 <path fill="rgb(87,157,28)" stroke="none" d="M 5694,3914 L 5719,4014 5819,4039 5719,4064 5694,4164 5669,4064 5569,4039 5669,4014 5694,3914 Z"/>
 <path fill="none" stroke="rgb(87,157,28)" stroke-linejoin="round" d="M 5694,3914 L 5719,4014 5819,4039 5719,4064 5694,4164 5669,4064 5569,4039 5669,4014 5694,3914 Z"/>
 <path fill="rgb(87,157,28)" stroke="none" d="M 7659,4774 L 7684,4874 7784,4899 7684,4924 7659,5024 7634,4924 7534,4899 7634,4874 7659,4774 Z"/>
 <path fill="none" stroke="rgb(87,157,28)" stroke-linejoin="round" d="M 7659,4774 L 7684,4874 7784,4899 7684,4924 7659,5024 7634,4924 7534,4899 7634,4874 7659,4774 Z"/>
 <path fill="rgb(87,157,28)" stroke="none" d="M 9624,4685 L 9649,4784 9749,4809 9649,4834 9624,4934 9599,4834 9499,4809 9599,4784 9624,4685 Z"/>
 <path fill="none" stroke="rgb(87,157,28)" stroke-linejoin="round" d="M 9624,4685 L 9649,4784 9749,4809 9649,4834 9624,4934 9599,4834 9499,4809 9599,4784 9624,4685 Z"/>
 <path fill="rgb(87,157,28)" stroke="none" d="M 11589,4428 L 11614,4528 11714,4553 11614,4578 11589,4678 11564,4578 11464,4553 11564,4528 11589,4428 Z"/>
 <path fill="none" stroke="rgb(87,157,28)" stroke-linejoin="round" d="M 11589,4428 L 11614,4528 11714,4553 11614,4578 11589,4678 11564,4578 11464,4553 11564,4528 11589,4428 Z"/>
 <path fill="rgb(87,157,28)" stroke="none" d="M 13555,4335 L 13580,4435 13680,4460 13580,4485 13555,4585 13530,4485 13430,4460 13530,4435 13555,4335 Z"/>
 <path fill="none" stroke="rgb(87,157,28)" stroke-linejoin="round" d="M 13555,4335 L 13580,4435 13680,4460 13580,4485 13555,4585 13530,4485 13430,4460 13530,4435 13555,4335 Z"/>
 <path fill="none" stroke="rgb(126,0,33)" stroke-width="80" stroke-linejoin="round" d="M 1764,5505 L 3729,5275 5694,5028 7659,5213 9624,5140 11589,5058 13555,4984"/>
 <path fill="rgb(126,0,33)" stroke="none" d="M 1639,5380 L 1639,5630 1889,5505 1639,5380 Z"/>
 <path fill="none" stroke="rgb(126,0,33)" stroke-linejoin="round" d="M 1639,5380 L 1639,5630 1889,5505 1639,5380 Z"/>
 <path fill="rgb(126,0,33)" stroke="none" d="M 3604,5150 L 3604,5400 3854,5275 3604,5150 Z"/>
 <path fill="none" stroke="rgb(126,0,33)" stroke-linejoin="round" d="M 3604,5150 L 3604,5400 3854,5275 3604,5150 Z"/>
 <path fill="rgb(126,0,33)" stroke="none" d="M 5569,4903 L 5569,5153 5819,5028 5569,4903 Z"/>
 <path fill="none" stroke="rgb(126,0,33)" stroke-linejoin="round" d="M 5569,4903 L 5569,5153 5819,5028 5569,4903 Z"/>
 <path fill="rgb(126,0,33)" stroke="none" d="M 7534,5088 L 7534,5338 7784,5213 7534,5088 Z"/>
 <path fill="none" stroke="rgb(126,0,33)" stroke-linejoin="round" d="M 7534,5088 L 7534,5338 7784,5213 7534,5088 Z"/>
 <path fill="rgb(126,0,33)" stroke="none" d="M 9499,5015 L 9499,5265 9749,5140 9499,5015 Z"/>
 <path fill="none" stroke="rgb(126,0,33)" stroke-linejoin="round" d="M 9499,5015 L 9499,5265 9749,5140 9499,5015 Z"/>
 <path fill="rgb(126,0,33)" stroke="none" d="M 11464,4933 L 11464,5183 11714,5058 11464,4933 Z"/>
 <path fill="none" stroke="rgb(126,0,33)" stroke-linejoin="round" d="M 11464,4933 L 11464,5183 11714,5058 11464,4933 Z"/>
 <path fill="rgb(126,0,33)" stroke="none" d="M 13430,4859 L 13430,5109 13680,4984 13430,4859 Z"/>
 <path fill="none" stroke="rgb(126,0,33)" stroke-linejoin="round" d="M 13430,4859 L 13430,5109 13680,4984 13430,4859 Z"/>
 <text class="TextShape"><tspan class="TextParagraph" font-family="Liberation Sans, sans-serif" font-size="353px" font-weight="400"><tspan class="TextPosition" x="1580" y="6418"><tspan fill="rgb(0,0,0)" stroke="none">10</tspan></tspan></tspan></text>
 <text class="TextShape"><tspan class="TextParagraph" font-family="Liberation Sans, sans-serif" font-size="353px" font-weight="400"><tspan class="TextPosition" x="3452" y="6418"><tspan fill="rgb(0,0,0)" stroke="none">100</tspan></tspan></tspan></text>
 <text class="TextShape"><tspan class="TextParagraph" font-family="Liberation Sans, sans-serif" font-size="353px" font-weight="400"><tspan class="TextPosition" x="5323" y="6418"><tspan fill="rgb(0,0,0)" stroke="none">1000</tspan></tspan></tspan></text>
 <text class="TextShape"><tspan class="TextParagraph" font-family="Liberation Sans, sans-serif" font-size="353px" font-weight="400"><tspan class="TextPosition" x="7197" y="6418"><tspan fill="rgb(0,0,0)" stroke="none">10000</tspan></tspan></tspan></text>
 <text class="TextShape"><tspan class="TextParagraph" font-family="Liberation Sans, sans-serif" font-size="353px" font-weight="400"><tspan class="TextPosition" x="9069" y="6418"><tspan fill="rgb(0,0,0)" stroke="none">100000</tspan></tspan></tspan></text>
 <text class="TextShape"><tspan class="TextParagraph" font-family="Liberation Sans, sans-serif" font-size="353px" font-weight="400"><tspan class="TextPosition" x="10942" y="6418"><tspan fill="rgb(0,0,0)" stroke="none">1000000</tspan></tspan></tspan></text>
 <text class="TextShape"><tspan class="TextParagraph" font-family="Liberation Sans, sans-serif" font-size="353px" font-weight="400"><tspan class="TextPosition" x="12814" y="6418"><tspan fill="rgb(0,0,0)" stroke="none">10000000</tspan></tspan></tspan></text>
 <text class="TextShape"><tspan class="TextParagraph" font-family="Liberation Sans, sans-serif" font-size="353px" font-weight="400"><tspan class="TextPosition" x="1329" y="5971"><tspan fill="rgb(0,0,0)" stroke="none">0</tspan></tspan></tspan></text>
 <text class="TextShape"><tspan class="TextParagraph" font-family="Liberation Sans, sans-serif" font-size="353px" font-weight="400"><tspan class="TextPosition" x="1329" y="5363"><tspan fill="rgb(0,0,0)" stroke="none">2</tspan></tspan></tspan></text>
 <text class="TextShape"><tspan class="TextParagraph" font-family="Liberation Sans, sans-serif" font-size="353px" font-weight="400"><tspan class="TextPosition" x="1329" y="4755"><tspan fill="rgb(0,0,0)" stroke="none">4</tspan></tspan></tspan></text>
 <text class="TextShape"><tspan class="TextParagraph" font-family="Liberation Sans, sans-serif" font-size="353px" font-weight="400"><tspan class="TextPosition" x="1329" y="4148"><tspan fill="rgb(0,0,0)" stroke="none">6</tspan></tspan></tspan></text>
 <text class="TextShape"><tspan class="TextParagraph" font-family="Liberation Sans, sans-serif" font-size="353px" font-weight="400"><tspan class="TextPosition" x="1329" y="3540"><tspan fill="rgb(0,0,0)" stroke="none">8</tspan></tspan></tspan></text>
 <text class="TextShape"><tspan class="TextParagraph" font-family="Liberation Sans, sans-serif" font-size="353px" font-weight="400"><tspan class="TextPosition" x="1144" y="2933"><tspan fill="rgb(0,0,0)" stroke="none">10</tspan></tspan></tspan></text>
 <text class="TextShape"><tspan class="TextParagraph" font-family="Liberation Sans, sans-serif" font-size="353px" font-weight="400"><tspan class="TextPosition" x="1144" y="2326"><tspan fill="rgb(0,0,0)" stroke="none">12</tspan></tspan></tspan></text>
 <text class="TextShape"><tspan class="TextParagraph" font-family="Liberation Sans, sans-serif" font-size="353px" font-weight="400"><tspan class="TextPosition" x="1144" y="1718"><tspan fill="rgb(0,0,0)" stroke="none">14</tspan></tspan></tspan></text>
 <text class="TextShape"><tspan class="TextParagraph" font-family="Segoe UI" font-size="459px" font-weight="700"><tspan class="TextPosition" x="4159" y="940"><tspan fill="rgb(0,0,0)" stroke="none">Teardown in bulks of 10 items</tspan></tspan></tspan></text>
 <path fill="none" stroke="rgb(0,69,134)" stroke-width="80" stroke-linejoin="round" d="M 1090,7993 L 1890,7993"/>
 <path fill="rgb(0,69,134)" stroke="none" d="M 1384,7888 L 1384,8099 1595,8099 1595,7888 1384,7888 Z"/>
 <path fill="none" stroke="rgb(0,69,134)" stroke-linejoin="round" d="M 1384,7888 L 1384,8099 1595,8099 1595,7888 1384,7888 Z"/>
 <path fill="none" stroke="rgb(255,66,14)" stroke-width="80" stroke-linejoin="round" d="M 7541,7993 L 8341,7993"/>
 <path fill="rgb(255,66,14)" stroke="none" d="M 7835,8099 L 8046,8099 7835,7888 8046,7888 7835,8099 Z"/>
 <path fill="none" stroke="rgb(255,66,14)" stroke-linejoin="round" d="M 7835,8099 L 8046,8099 7835,7888 8046,7888 7835,8099 Z"/>
 <path fill="none" stroke="rgb(255,211,32)" stroke-width="80" stroke-linejoin="round" d="M 1090,8491 L 1890,8491"/>
 <path fill="rgb(255,211,32)" stroke="none" d="M 1595,8491 L 1595,8486 1595,8482 1594,8477 1593,8473 1592,8468 1591,8464 1590,8459 1589,8455 1587,8451 1585,8446 1583,8442 1581,8438 1578,8434 1576,8430 1573,8427 1570,8423 1567,8420 1564,8416 1561,8413 1557,8410 1554,8407 1550,8405 1546,8402 1542,8400 1538,8397 1534,8395 1530,8394 1526,8392 1521,8390 1517,8389 1512,8388 1508,8387 1503,8386 1499,8386 1494,8386 1490,8386 1485,8386 1480,8386 1476,8386 1471,8387 1467,8388 1462,8389 1458,8390 1453,8392 1449,8394 1445,8395 1441,8397 1437,8400 1433,8402 1429,8405 1425,8407 1422,8410 1418,8413 1415,8416 1412,8420 1409,8423 1406,8427 1403,8430 1401,8434 1398,8438 1396,8442 1394,8446 1392,8451 1390,8455 1389,8459 1388,8464 1387,8468 1386,8473 1385,8477 1384,8482 1384,8486 1384,8491 1384,8496 1384,8500 1385,8505 1386,8509 1387,8514 1388,8518 1389,8523 1390,8527 1392,8531 1394,8536 1396,8540 1398,8544 1401,8548 1403,8552 1406,8555 1409,8559 1412,8562 1415,8566 1418,8569 1422,8572 1425,8575 1429,8577 1433,8580 1437,8582 1441,8585 1445,8587 1449,8588 1453,8590 1458,8592 1462,8593 1467,8594 1471,8595 1476,8596 1480,8596 1485,8596 1490,8597 1494,8596 1499,8596 1503,8596 1508,8595 1512,8594 1517,8593 1521,8592 1526,8590 1530,8588 1534,8587 1538,8585 1542,8582 1546,8580 1550,8577 1554,8575 1557,8572 1561,8569 1564,8566 1567,8562 1570,8559 1573,8555 1576,8552 1578,8548 1581,8544 1583,8540 1585,8536 1587,8531 1589,8527 1590,8523 1591,8518 1592,8514 1593,8509 1594,8505 1595,8500 1595,8496 1595,8491 Z"/>
 <path fill="none" stroke="rgb(255,211,32)" stroke-linejoin="round" d="M 1595,8491 L 1595,8486 1595,8482 1594,8477 1593,8473 1592,8468 1591,8464 1590,8459 1589,8455 1587,8451 1585,8446 1583,8442 1581,8438 1578,8434 1576,8430 1573,8427 1570,8423 1567,8420 1564,8416 1561,8413 1557,8410 1554,8407 1550,8405 1546,8402 1542,8400 1538,8397 1534,8395 1530,8394 1526,8392 1521,8390 1517,8389 1512,8388 1508,8387 1503,8386 1499,8386 1494,8386 1490,8386 1485,8386 1480,8386 1476,8386 1471,8387 1467,8388 1462,8389 1458,8390 1453,8392 1449,8394 1445,8395 1441,8397 1437,8400 1433,8402 1429,8405 1425,8407 1422,8410 1418,8413 1415,8416 1412,8420 1409,8423 1406,8427 1403,8430 1401,8434 1398,8438 1396,8442 1394,8446 1392,8451 1390,8455 1389,8459 1388,8464 1387,8468 1386,8473 1385,8477 1384,8482 1384,8486 1384,8491 1384,8496 1384,8500 1385,8505 1386,8509 1387,8514 1388,8518 1389,8523 1390,8527 1392,8531 1394,8536 1396,8540 1398,8544 1401,8548 1403,8552 1406,8555 1409,8559 1412,8562 1415,8566 1418,8569 1422,8572 1425,8575 1429,8577 1433,8580 1437,8582 1441,8585 1445,8587 1449,8588 1453,8590 1458,8592 1462,8593 1467,8594 1471,8595 1476,8596 1480,8596 1485,8596 1490,8597 1494,8596 1499,8596 1503,8596 1508,8595 1512,8594 1517,8593 1521,8592 1526,8590 1530,8588 1534,8587 1538,8585 1542,8582 1546,8580 1550,8577 1554,8575 1557,8572 1561,8569 1564,8566 1567,8562 1570,8559 1573,8555 1576,8552 1578,8548 1581,8544 1583,8540 1585,8536 1587,8531 1589,8527 1590,8523 1591,8518 1592,8514 1593,8509 1594,8505 1595,8500 1595,8496 1595,8491 Z"/>
 <path fill="none" stroke="rgb(87,157,28)" stroke-width="80" stroke-linejoin="round" d="M 7541,8491 L 8341,8491"/>
 <path fill="rgb(87,157,28)" stroke="none" d="M 7941,8386 L 7962,8470 8046,8491 7962,8512 7941,8597 7919,8512 7835,8491 7919,8470 7941,8386 Z"/>
 <path fill="none" stroke="rgb(87,157,28)" stroke-linejoin="round" d="M 7941,8386 L 7962,8470 8046,8491 7962,8512 7941,8597 7919,8512 7835,8491 7919,8470 7941,8386 Z"/>
 <path fill="none" stroke="rgb(126,0,33)" stroke-width="80" stroke-linejoin="round" d="M 1090,8989 L 1890,8989"/>
 <path fill="rgb(126,0,33)" stroke="none" d="M 1384,8884 L 1384,9095 1595,8989 1384,8884 Z"/>
 <path fill="none" stroke="rgb(126,0,33)" stroke-linejoin="round" d="M 1384,8884 L 1384,9095 1595,8989 1384,8884 Z"/>
 <text class="TextShape"><tspan class="TextParagraph" font-family="Liberation Sans, sans-serif" font-size="353px" font-weight="400"><tspan class="TextPosition" x="1990" y="8113"><tspan fill="rgb(0,0,0)" stroke="none">TeardownSet::delete_range()         </tspan></tspan></tspan></text>
 <text class="TextShape"><tspan class="TextParagraph" font-family="Liberation Sans, sans-serif" font-size="353px" font-weight="400"><tspan class="TextPosition" x="8441" y="8113"><tspan fill="rgb(0,0,0)" stroke="none">Treap::remove_range()               </tspan></tspan></tspan></text>
 <text class="TextShape"><tspan class="TextParagraph" font-family="Liberation Sans, sans-serif" font-size="353px" font-weight="400"><tspan class="TextPosition" x="1990" y="8611"><tspan fill="rgb(0,0,0)" stroke="none">BTreeSet::remove()                  </tspan></tspan></tspan></text>
 <text class="TextShape"><tspan class="TextParagraph" font-family="Liberation Sans, sans-serif" font-size="353px" font-weight="400"><tspan class="TextPosition" x="8441" y="8611"><tspan fill="rgb(0,0,0)" stroke="none">SplayTree::remove_range()           </tspan></tspan></tspan></text>
 <text class="TextShape"><tspan class="TextParagraph" font-family="Liberation Sans, sans-serif" font-size="353px" font-weight="400"><tspan class="TextPosition" x="1990" y="9109"><tspan fill="rgb(0,0,0)" stroke="none">TeardownSet::delete()               </tspan></tspan></tspan></text>
 <text class="TextShape"><tspan class="TextParagraph" font-family="Segoe UI" font-size="318px" font-weight="700"><tspan class="TextPosition" x="7787" y="7102"><tspan fill="rgb(0,0,0)" stroke="none">N</tspan></tspan></tspan></text>
 <text class="TextShape" transform="translate(860,4914) rotate(-90) translate(-860,-4914)"><tspan class="TextParagraph" font-family="Segoe UI" font-size="318px" font-weight="700"><tspan class="TextPosition" x="860" y="4914"><tspan fill="rgb(0,0,0)" stroke="none">Times slower</tspan></tspan></tspan></text>
</svg>