<?xml version="1.0" encoding="UTF-8"?>
<!DOCTYPE svg PUBLIC "-//W3C//DTD SVG 1.1//EN" "http://www.w3.org/Graphics/SVG/1.1/DTD/svg11.dtd">
<svg width="148mm" height="95mm" viewBox="0 0 14800 9500" version="1.1" xmlns="http://www.w3.org/2000/svg" stroke-width="28.222" stroke-linejoin="round" xml:space="preserve">
 <path fill="rgb(255,255,255)" stroke="none" d="M 7387,9474 L -5,9474 -5,0 14778,0 14778,9474 7387,9474 Z"/>
 <path fill="none" stroke="rgb(0,0,0)" stroke-linejoin="round" d="M 7387,9474 L -5,9474 -5,0 14778,0 14778,9474 7387,9474 Z"/>
 <path fill="none" stroke="rgb(179,179,179)" stroke-linejoin="round" d="M 7990,5851 L 2240,5851 2240,1598 13740,1598 13740,5851 7990,5851 Z"/>
 <path fill="none" stroke="rgb(179,179,179)" stroke-linejoin="round" d="M 13740,5850 L 2240,5850"/>
 <path fill="none" stroke="rgb(179,179,179)" stroke-linejoin="round" d="M 13740,5424 L 2240,5424"/>
 <path fill="none" stroke="rgb(179,179,179)" stroke-linejoin="round" d="M 13740,4999 L 2240,4999"/>
 <path fill="none" stroke="rgb(179,179,179)" stroke-linejoin="round" d="M 13740,4574 L 2240,4574"/>
 <path fill="none" stroke="rgb(179,179,179)" stroke-linejoin="round" d="M 13740,4149 L 2240,4149"/>
 <path fill="none" stroke="rgb(179,179,179)" stroke-linejoin="round" d="M 13740,3724 L 2240,3724"/>
 <path fill="none" stroke="rgb(179,179,179)" stroke-linejoin="round" d="M 13740,3298 L 2240,3298"/>
 <path fill="none" stroke="rgb(179,179,179)" stroke-linejoin="round" d="M 13740,2873 L 2240,2873"/>
 <path fill="none" stroke="rgb(179,179,179)" stroke-linejoin="round" d="M 13740,2447 L 2240,2447"/>
 <path fill="none" stroke="rgb(179,179,179)" stroke-linejoin="round" d="M 13740,2022 L 2240,2022"/>
 <path fill="none" stroke="rgb(179,179,179)" stroke-linejoin="round" d="M 13740,1597 L 2240,1597"/>
 <path fill="none" stroke="rgb(179,179,179)" stroke-linejoin="round" d="M 2240,6000 L 2240,5850"/>
 <path fill="none" stroke="rgb(179,179,179)" stroke-linejoin="round" d="M 2240,6000 L 2240,5850"/>
 <path fill="none" stroke="rgb(179,179,179)" stroke-linejoin="round" d="M 4540,6000 L 4540,5850"/>
 <path fill="none" stroke="rgb(179,179,179)" stroke-linejoin="round" d="M 4540,6000 L 4540,5850"/>
 <path fill="none" stroke="rgb(179,179,179)" stroke-linejoin="round" d="M 6840,6000 L 6840,5850"/>
 <path fill="none" stroke="rgb(179,179,179)" stroke-linejoin="round" d="M 6840,6000 L 6840,5850"/>
 <path fill="none" stroke="rgb(179,179,179)" stroke-linejoin="round" d="M 9139,6000 L 9139,5850"/>
 <path fill="none" stroke="rgb(179,179,179)" stroke-linejoin="round" d="M 9139,6000 L 9139,5850"/>
 <path fill="none" stroke="rgb(179,179,179)" stroke-linejoin="round" d="M 11439,6000 L 11439,5850"/>
 <path fill="none" stroke="rgb(179,179,179)" stroke-linejoin="round" d="M 11439,6000 L 11439,5850"/>
 <path fill="none" stroke="rgb(179,179,179)" stroke-linejoin="round" d="M 13740,6000 L 13740,5850"/>
 <path fill="none" stroke="rgb(179,179,179)" stroke-linejoin="round" d="M 13740,6000 L 13740,5850"/>
 <path fill="none" stroke="rgb(179,179,179)" stroke-linejoin="round" d="M 2240,5850 L 13740,5850"/>
 <path fill="none" stroke="rgb(179,179,179)" stroke-linejoin="round" d="M 2090,5850 L 2240,5850"/>
 <path fill="none" stroke="rgb(179,179,179)" stroke-linejoin="round" d="M 2090,5850 L 2240,5850"/>
 <path fill="none" stroke="rgb(179,179,179)" stroke-linejoin="round" d="M 2090,5424 L 2240,5424"/>
 <path fill="none" stroke="rgb(179,179,179)" stroke-linejoin="round" d="M 2090,5424 L 2240,5424"/>
 <path fill="none" stroke="rgb(179,179,179)" stroke-linejoin="round" d="M 2090,4999 L 2240,4999"/>
 <path fill="none" stroke="rgb(179,179,179)" stroke-linejoin="round" d="M 2090,4999 L 2240,4999"/>
 <path fill="none" stroke="rgb(179,179,179)" stroke-linejoin="round" d="M 2090,4574 L 2240,4574"/>
 <path fill="none" stroke="rgb(179,179,179)" stroke-linejoin="round" d="M 2090,4574 L 2240,4574"/>
 <path fill="none" stroke="rgb(179,179,179)" stroke-linejoin="round" d="M 2090,4149 L 2240,4149"/>
 <path fill="none" stroke="rgb(179,179,179)" stroke-linejoin="round" d="M 2090,4149 L 2240,4149"/>
 <path fill="none" stroke="rgb(179,179,179)" stroke-linejoin="round" d="M 2090,3724 L 2240,3724"/>
 <path fill="none" stroke="rgb(179,179,179)" stroke-linejoin="round" d="M 2090,3724 L 2240,3724"/>
 <path fill="none" stroke="rgb(179,179,179)" stroke-linejoin="round" d="M 2090,3298 L 2240,3298"/>
 <path fill="none" stroke="rgb(179,179,179)" stroke-linejoin="round" d="M 2090,3298 L 2240,3298"/>
 <path fill="none" stroke="rgb(179,179,179)" stroke-linejoin="round" d="M 2090,2873 L 2240,2873"/>
 <path fill="none" stroke="rgb(179,179,179)" stroke-linejoin="round" d="M 2090,2873 L 2240,2873"/>
 <path fill="none" stroke="rgb(179,179,179)" stroke-linejoin="round" d="M 2090,2447 L 2240,2447"/>
 <path fill="none" stroke="rgb(179,179,179)" stroke-linejoin="round" d="M 2090,2447 L 2240,2447"/>
 <path fill="none" stroke="rgb(179,179,179)" stroke-linejoin="round" d="M 2090,2022 L 2240,2022"/>
 <path fill="none" stroke="rgb(179,179,179)" stroke-linejoin="round" d="M 2090,2022 L 2240,2022"/>
 <path fill="none" stroke="rgb(179,179,179)" stroke-linejoin="round" d="M 2090,1597 L 2240,1597"/>
 <path fill="none" stroke="rgb(179,179,179)" stroke-linejoin="round" d="M 2090,1597 L 2240,1597"/>
 <path fill="none" stroke="rgb(179,179,179)" stroke-linejoin="round" d="M 2240,5850 L 2240,1597"/>
 <path fill="none" stroke="rgb(0,69,134)" stroke-width="80" stroke-linejoin="round" d="M 2240,4999 L 4540,4999 6840,4999 9139,4999 11439,4999 13740,4999"/>
 <path fill="rgb(0,69,134)" stroke="none" d="M 2115,4874 L 2115,5124 2365,5124 2365,4874 2115,4874 Z"/>
 <path fill="none" stroke="rgb(0,69,134)" stroke-linejoin="round" d="M 2115,4874 L 2115,5124 2365,5124 2365,4874 2115,4874 Z"/>
 <path fill="rgb(0,69,134)" stroke="none" d="M 4415,4874 L 4415,5124 4665,5124 4665,4874 4415,4874 Z"/>
 <path fill="none" stroke="rgb(0,69,134)" stroke-linejoin="round" d="M 4415,4874 L 4415,5124 4665,5124 4665,4874 4415,4874 Z"/>
 <path fill="rgb(0,69,134)" stroke="none" d="M 6715,4874 L 6715,5124 6965,5124 6965,4874 6715,4874 Z"/>
 <path fill="none" stroke="rgb(0,69,134)" stroke-linejoin="round" d="M 6715,4874 L 6715,5124 6965,5124 6965,4874 6715,4874 Z"/>
 <path fill="rgb(0,69,134)" stroke="none" d="M 9014,4874 L 9014,5124 9264,5124 9264,4874 9014,4874 Z"/>
 <path fill="none" stroke="rgb(0,69,134)" stroke-linejoin="round" d="M 9014,4874 L 9014,5124 9264,5124 9264,4874 9014,4874 Z"/>
 <path fill="rgb(0,69,134)" stroke="none" d="M 11314,4874 L 11314,5124 11564,5124 11564,4874 11314,4874 Z"/>
 <path fill="none" stroke="rgb(0,69,134)" stroke-linejoin="round" d="M 11314,4874 L 11314,5124 11564,5124 11564,4874 11314,4874 Z"/>
 <path fill="rgb(0,69,134)" stroke="none" d="M 13615,4874 L 13615,5124 13865,5124 13865,4874 13615,4874 Z"/>
 <path fill="none" stroke="rgb(0,69,134)" stroke-linejoin="round" d="M 13615,4874 L 13615,5124 13865,5124 13865,4874 13615,4874 Z"/>
 <path fill="none" stroke="rgb(255,66,14)" stroke-width="80" stroke-linejoin="round" d="M 2240,4923 L 4540,4814 6840,4840 9139,4883 11439,4632 13740,4750"/>
 <path fill="rgb(255,66,14)" stroke="none" d="M 2115,4923 L 2240,5048 2365,4923 2240,4798 2115,4923 Z"/>
 <path fill="none" stroke="rgb(255,66,14)" stroke-linejoin="round" d="M 2115,4923 L 2240,5048 2365,4923 2240,4798 2115,4923 Z"/>
 <path fill="rgb(255,66,14)" stroke="none" d="M 4415,4814 L 4540,4939 4665,4814 4540,4690 4415,4814 Z"/>
 <path fill="none" stroke="rgb(255,66,14)" stroke-linejoin="round" d="M 4415,4814 L 4540,4939 4665,4814 4540,4690 4415,4814 Z"/>
 <path fill="rgb(255,66,14)" stroke="none" d="M 6715,4840 L 6840,4965 6965,4840 6840,4716 6715,4840 Z"/>
 <path fill="none" stroke="rgb(255,66,14)" stroke-linejoin="round" d="M 6715,4840 L 6840,4965 6965,4840 6840,4716 6715,4840 Z"/>
 <path fill="rgb(255,66,14)" stroke="none" d="M 9014,4883 L 9139,5008 9264,4883 9139,4758 9014,4883 Z"/>
 <path fill="none" stroke="rgb(255,66,14)" stroke-linejoin="round" d="M 9014,4883 L 9139,5008 9264,4883 9139,4758 9014,4883 Z"/>
 <path fill="rgb(255,66,14)" stroke="none" d="M 11314,4632 L 11439,4756 11564,4632 11439,4507 11314,4632 Z"/>
 <path fill="none" stroke="rgb(255,66,14)" stroke-linejoin="round" d="M 11314,4632 L 11439,4756 11564,4632 11439,4507 11314,4632 Z"/>
 <path fill="rgb(255,66,14)" stroke="none" d="M 13615,4750 L 13740,4875 13865,4750 13740,4626 13615,4750 Z"/>
 <path fill="none" stroke="rgb(255,66,14)" stroke-linejoin="round" d="M 13615,4750 L 13740,4875 13865,4750 13740,4626 13615,4750 Z"/>
 <path fill="none" stroke="rgb(255,211,32)" stroke-width="80" stroke-linejoin="round" d="M 2240,3638 L 4540,3485 6840,3560 9139,4150 11439,4281 13740,4506"/>
 <path fill="rgb(255,211,32)" stroke="none" d="M 2115,3513 L 2115,3763 2365,3763 2365,3513 2115,3513 Z"/>
 <path fill="none" stroke="rgb(255,211,32)" stroke-linejoin="round" d="M 2115,3513 L 2115,3763 2365,3763 2365,3513 2115,3513 Z"/>
 <path fill="rgb(255,211,32)" stroke="none" d="M 4415,3360 L 4415,3610 4665,3610 4665,3360 4415,3360 Z"/>
 <path fill="none" stroke="rgb(255,211,32)" stroke-linejoin="round" d="M 4415,3360 L 4415,3610 4665,3610 4665,3360 4415,3360 Z"/>
 <path fill="rgb(255,211,32)" stroke="none" d="M 6715,3435 L 6715,3685 6965,3685 6965,3435 6715,3435 Z"/>
 <path fill="none" stroke="rgb(255,211,32)" stroke-linejoin="round" d="M 6715,3435 L 6715,3685 6965,3685 6965,3435 6715,3435 Z"/>
 <path fill="rgb(255,211,32)" stroke="none" d="M 9014,4025 L 9014,4275 9264,4275 9264,4025 9014,4025 Z"/>
 <path fill="none" stroke="rgb(255,211,32)" stroke-linejoin="round" d="M 9014,4025 L 9014,4275 9264,4275 9264,4025 9014,4025 Z"/>
 <path fill="rgb(255,211,32)" stroke="none" d="M 11314,4156 L 11314,4406 11564,4406 11564,4156 11314,4156 Z"/>
 <path fill="none" stroke="rgb(255,211,32)" stroke-linejoin="round" d="M 11314,4156 L 11314,4406 11564,4406 11564,4156 11314,4156 Z"/>
 <path fill="rgb(255,211,32)" stroke="none" d="M 13615,4381 L 13615,4631 13865,4631 13865,4381 13615,4381 Z"/>
 <path fill="none" stroke="rgb(255,211,32)" stroke-linejoin="round" d="M 13615,4381 L 13615,4631 13865,4631 13865,4381 13615,4381 Z"/>
 <path fill="none" stroke="rgb(87,157,28)" stroke-width="80" stroke-linejoin="round" d="M 2240,4789 L 4540,4059 6840,3785 9139,4192 11439,3825 13740,4076"/>
 <path fill="rgb(87,157,28)" stroke="none" d="M 2115,4914 L 2365,4914 2240,4665 2115,4914 Z"/>
 <path fill="none" stroke="rgb(87,157,28)" stroke-linejoin="round" d="M 2115,4914 L 2365,4914 2240,4665 2115,4914 Z"/>
 <path fill="rgb(87,157,28)" stroke="none" d="M 4415,4184 L 4665,4184 4540,3934 4415,4184 Z"/>
 <path fill="none" stroke="rgb(87,157,28)" stroke-linejoin="round" d="M 4415,4184 L 4665,4184 4540,3934 4415,4184 Z"/>
 <path fill="rgb(87,157,28)" stroke="none" d="M 6715,3910 L 6965,3910 6840,3660 6715,3910 Z"/>
 <path fill="none" stroke="rgb(87,157,28)" stroke-linejoin="round" d="M 6715,3910 L 6965,3910 6840,3660 6715,3910 Z"/>
 <path fill="rgb(87,157,28)" stroke="none" d="M 9014,4317 L 9264,4317 9139,4067 9014,4317 Z"/>
 <path fill="none" stroke="rgb(87,157,28)" stroke-linejoin="round" d="M 9014,4317 L 9264,4317 9139,4067 9014,4317 Z"/>
 <path fill="rgb(87,157,28)" stroke="none" d="M 11314,3950 L 11564,3950 11439,3700 11314,3950 Z"/>
 <path fill="none" stroke="rgb(87,157,28)" stroke-linejoin="round" d="M 11314,3950 L 11564,3950 11439,3700 11314,3950 Z"/>
 <path fill="rgb(87,157,28)" stroke="none" d="M 13615,4201 L 13865,4201 13740,3951 13615,4201 Z"/>
 <path fill="none" stroke="rgb(87,157,28)" stroke-linejoin="round" d="M 13615,4201 L 13865,4201 13740,3951 13615,4201 Z"/>
 <path fill="none" stroke="rgb(126,0,33)" stroke-width="80" stroke-linejoin="round" d="M 2240,4589 L 4540,3860 6840,3542 9139,3991 11439,3534 13740,3865"/>
 <path fill="rgb(126,0,33)" stroke="none" d="M 2115,4464 L 2115,4714 2365,4589 2115,4464 Z"/>
 <path fill="none" stroke="rgb(126,0,33)" stroke-linejoin="round" d="M 2115,4464 L 2115,4714 2365,4589 2115,4464 Z"/>
 <path fill="rgb(126,0,33)" stroke="none" d="M 4415,3735 L 4415,3985 4665,3860 4415,3735 Z"/>
 <path fill="none" stroke="rgb(126,0,33)" stroke-linejoin="round" d="M 4415,3735 L 4415,3985 4665,3860 4415,3735 Z"/>
 <path fill="rgb(126,0,33)" stroke="none" d="M 6715,3417 L 6715,3667 6965,3542 6715,3417 Z"/>
 <path fill="none" stroke="rgb(126,0,33)" stroke-linejoin="round" d="M 6715,3417 L 6715,3667 6965,3542 6715,3417 Z"/>
 <path fill="rgb(126,0,33)" stroke="none" d="M 9014,3866 L 9014,4116 9264,3991 9014,3866 Z"/>
 <path fill="none" stroke="rgb(126,0,33)" stroke-linejoin="round" d="M 9014,3866 L 9014,4116 9264,3991 9014,3866 Z"/>
 <path fill="rgb(126,0,33)" stroke="none" d="M 11314,3409 L 11314,3659 11564,3534 11314,3409 Z"/>
 <path fill="none" stroke="rgb(126,0,33)" stroke-linejoin="round" d="M 11314,3409 L 11314,3659 11564,3534 11314,3409 Z"/>
 <path fill="rgb(126,0,33)" stroke="none" d="M 13615,3740 L 13615,3990 13865,3865 13615,3740 Z"/>
 <path fill="none" stroke="rgb(126,0,33)" stroke-linejoin="round" d="M 13615,3740 L 13615,3990 13865,3865 13615,3740 Z"/>
 <path fill="none" stroke="rgb(131,202,255)" stroke-width="80" stroke-linejoin="round" d="M 2240,2858 L 4540,2235 6840,2098 9139,3146 11439,2962 13740,3399"/>
 <path fill="rgb(131,202,255)" stroke="none" d="M 2365,2858 L 2364,2852 2364,2847 2363,2841 2363,2836 2362,2831 2360,2825 2359,2820 2357,2815 2355,2810 2353,2805 2350,2800 2348,2795 2345,2790 2342,2786 2339,2782 2335,2777 2332,2773 2328,2769 2324,2765 2320,2762 2316,2758 2311,2755 2307,2752 2302,2749 2297,2747 2292,2744 2287,2742 2282,2740 2277,2738 2272,2737 2267,2736 2261,2735 2256,2734 2250,2733 2245,2733 2240,2733 2234,2733 2229,2733 2223,2734 2218,2735 2212,2736 2207,2737 2202,2738 2197,2740 2192,2742 2187,2744 2182,2747 2177,2749 2172,2752 2168,2755 2163,2758 2159,2762 2155,2765 2151,2769 2147,2773 2144,2777 2140,2782 2137,2786 2134,2790 2131,2795 2129,2800 2126,2805 2124,2810 2122,2815 2120,2820 2119,2825 2117,2831 2116,2836 2116,2841 2115,2847 2115,2852 2115,2858 2115,2863 2115,2869 2116,2874 2116,2879 2117,2885 2119,2890 2120,2895 2122,2900 2124,2905 2126,2910 2129,2915 2131,2920 2134,2925 2137,2929 2140,2934 2144,2938 2147,2942 2151,2946 2155,2950 2159,2953 2163,2957 2168,2960 2172,2963 2177,2966 2182,2969 2187,2971 2192,2973 2197,2975 2202,2977 2207,2978 2212,2980 2218,2981 2223,2982 2229,2982 2234,2983 2240,2983 2245,2983 2250,2982 2256,2982 2261,2981 2267,2980 2272,2978 2277,2977 2282,2975 2287,2973 2292,2971 2297,2969 2302,2966 2307,2963 2311,2960 2316,2957 2320,2953 2324,2950 2328,2946 2332,2942 2335,2938 2339,2934 2342,2929 2345,2925 2348,2920 2350,2915 2353,2910 2355,2905 2357,2900 2359,2895 2360,2890 2362,2885 2363,2879 2363,2874 2364,2869 2364,2863 2365,2858 Z"/>
 <path fill="none" stroke="rgb(131,202,255)" stroke-linejoin="round" d="M 2365,2858 L 2364,2852 2364,2847 2363,2841 2363,2836 2362,2831 2360,2825 2359,2820 2357,2815 2355,2810 2353,2805 2350,2800 2348,2795 2345,2790 2342,2786 2339,2782 2335,2777 2332,2773 2328,2769 2324,2765 2320,2762 2316,2758 2311,2755 2307,2752 2302,2749 2297,2747 2292,2744 2287,2742 2282,2740 2277,2738 2272,2737 2267,2736 2261,2735 2256,2734 2250,2733 2245,2733 2240,2733 2234,2733 2229,2733 2223,2734 2218,2735 2212,2736 2207,2737 2202,2738 2197,2740 2192,2742 2187,2744 2182,2747 2177,2749 2172,2752 2168,2755 2163,2758 2159,2762 2155,2765 2151,2769 2147,2773 2144,2777 2140,2782 2137,2786 2134,2790 2131,2795 2129,2800 2126,2805 2124,2810 2122,2815 2120,2820 2119,2825 2117,2831 2116,2836 2116,2841 2115,2847 2115,2852 2115,2858 2115,2863 2115,2869 2116,2874 2116,2879 2117,2885 2119,2890 2120,2895 2122,2900 2124,2905 2126,2910 2129,2915 2131,2920 2134,2925 2137,2929 2140,2934 2144,2938 2147,2942 2151,2946 2155,2950 2159,2953 2163,2957 2168,2960 2172,2963 2177,2966 2182,2969 2187,2971 2192,2973 2197,2975 2202,2977 2207,2978 2212,2980 2218,2981 2223,2982 2229,2982 2234,2983 2240,2983 2245,2983 2250,2982 2256,2982 2261,2981 2267,2980 2272,2978 2277,2977 2282,2975 2287,2973 2292,2971 2297,2969 2302,2966 2307,2963 2311,2960 2316,2957 2320,2953 2324,2950 2328,2946 2332,2942 2335,2938 2339,2934 2342,2929 2345,2925 2348,2920 2350,2915 2353,2910 2355,2905 2357,2900 2359,2895 2360,2890 2362,2885 2363,2879 2363,2874 2364,2869 2364,2863 2365,2858 Z"/>
 <path fill="rgb(131,202,255)" stroke="none" d="M 4665,2235 L 4665,2230 4664,2224 4664,2219 4663,2213 4662,2208 4660,2203 4659,2197 4657,2192 4655,2187 4653,2182 4651,2177 4648,2173 4645,2168 4642,2163 4639,2159 4635,2155 4632,2151 4628,2147 4624,2143 4620,2139 4616,2136 4611,2133 4607,2130 4602,2127 4597,2124 4593,2122 4588,2120 4582,2118 4577,2116 4572,2114 4567,2113 4561,2112 4556,2111 4551,2110 4545,2110 4540,2110 4534,2110 4529,2110 4523,2111 4518,2112 4513,2113 4507,2114 4502,2116 4497,2118 4492,2120 4487,2122 4482,2124 4477,2127 4473,2130 4468,2133 4464,2136 4459,2139 4455,2143 4451,2147 4448,2151 4444,2155 4441,2159 4437,2163 4434,2168 4431,2173 4429,2177 4426,2182 4424,2187 4422,2192 4420,2197 4419,2203 4418,2208 4417,2213 4416,2219 4415,2224 4415,2230 4415,2235 4415,2240 4415,2246 4416,2251 4417,2257 4418,2262 4419,2267 4420,2273 4422,2278 4424,2283 4426,2288 4429,2293 4431,2298 4434,2302 4437,2307 4441,2311 4444,2315 4448,2319 4451,2323 4455,2327 4459,2331 4464,2334 4468,2337 4473,2340 4477,2343 4482,2346 4487,2348 4492,2351 4497,2352 4502,2354 4507,2356 4513,2357 4518,2358 4523,2359 4529,2360 4534,2360 4540,2360 4545,2360 4551,2360 4556,2359 4561,2358 4567,2357 4572,2356 4577,2354 4582,2352 4588,2351 4593,2348 4597,2346 4602,2343 4607,2340 4611,2337 4616,2334 4620,2331 4624,2327 4628,2323 4632,2319 4635,2315 4639,2311 4642,2307 4645,2302 4648,2298 4651,2293 4653,2288 4655,2283 4657,2278 4659,2273 4660,2267 4662,2262 4663,2257 4664,2251 4664,2246 4665,2240 4665,2235 Z"/>
 <path fill="none" stroke="rgb(131,202,255)" stroke-linejoin="round" d="M 4665,2235 L 4665,2230 4664,2224 4664,2219 4663,2213 4662,2208 4660,2203 4659,2197 4657,2192 4655,2187 4653,2182 4651,2177 4648,2173 4645,2168 4642,2163 4639,2159 4635,2155 4632,2151 4628,2147 4624,2143 4620,2139 4616,2136 4611,2133 4607,2130 4602,2127 4597,2124 4593,2122 4588,2120 4582,2118 4577,2116 4572,2114 4567,2113 4561,2112 4556,2111 4551,2110 4545,2110 4540,2110 4534,2110 4529,2110 4523,2111 4518,2112 4513,2113 4507,2114 4502,2116 4497,2118 4492,2120 4487,2122 4482,2124 4477,2127 4473,2130 4468,2133 4464,2136 4459,2139 4455,2143 4451,2147 4448,2151 4444,2155 4441,2159 4437,2163 4434,2168 4431,2173 4429,2177 4426,2182 4424,2187 4422,2192 4420,2197 4419,2203 4418,2208 4417,2213 4416,2219 4415,2224 4415,2230 4415,2235 4415,2240 4415,2246 4416,2251 4417,2257 4418,2262 4419,2267 4420,2273 4422,2278 4424,2283 4426,2288 4429,2293 4431,2298 4434,2302 4437,2307 4441,2311 4444,2315 4448,2319 4451,2323 4455,2327 4459,2331 4464,2334 4468,2337 4473,2340 4477,2343 4482,2346 4487,2348 4492,2351 4497,2352 4502,2354 4507,2356 4513,2357 4518,2358 4523,2359 4529,2360 4534,2360 4540,2360 4545,2360 4551,2360 4556,2359 4561,2358 4567,2357 4572,2356 4577,2354 4582,2352 4588,2351 4593,2348 4597,2346 4602,2343 4607,2340 4611,2337 4616,2334 4620,2331 4624,2327 4628,2323 4632,2319 4635,2315 4639,2311 4642,2307 4645,2302 4648,2298 4651,2293 4653,2288 4655,2283 4657,2278 4659,2273 4660,2267 4662,2262 4663,2257 4664,2251 4664,2246 4665,2240 4665,2235 Z"/>
 <path fill="rgb(131,202,255)" stroke="none" d="M 6965,2098 L 6965,2092 6964,2087 6964,2082 6963,2076 6962,2071 6961,2066 6959,2060 6957,2055 6955,2050 6953,2045 6951,2040 6948,2035 6945,2031 6942,2026 6939,2022 6936,2018 6932,2013 6928,2009 6924,2006 6920,2002 6916,1999 6912,1995 6907,1992 6902,1990 6898,1987 6893,1985 6888,1982 6883,1980 6877,1979 6872,1977 6867,1976 6862,1975 6856,1974 6851,1973 6845,1973 6840,1973 6834,1973 6829,1973 6824,1974 6818,1975 6813,1976 6808,1977 6802,1979 6797,1980 6792,1982 6787,1985 6782,1987 6777,1990 6773,1992 6768,1995 6764,1999 6760,2002 6755,2006 6752,2009 6748,2013 6744,2018 6741,2022 6738,2026 6734,2031 6732,2035 6729,2040 6727,2045 6724,2050 6722,2055 6721,2060 6719,2066 6718,2071 6717,2076 6716,2082 6715,2087 6715,2092 6715,2098 6715,2103 6715,2109 6716,2114 6717,2120 6718,2125 6719,2130 6721,2135 6722,2141 6724,2146 6727,2151 6729,2156 6732,2160 6734,2165 6738,2170 6741,2174 6744,2178 6748,2182 6752,2186 6755,2190 6760,2194 6764,2197 6768,2200 6773,2203 6777,2206 6782,2209 6787,2211 6792,2213 6797,2215 6802,2217 6808,2219 6813,2220 6818,2221 6824,2222 6829,2222 6834,2223 6840,2223 6845,2223 6851,2222 6856,2222 6862,2221 6867,2220 6872,2219 6877,2217 6883,2215 6888,2213 6893,2211 6898,2209 6902,2206 6907,2203 6912,2200 6916,2197 6920,2194 6924,2190 6928,2186 6932,2182 6936,2178 6939,2174 6942,2170 6945,2165 6948,2160 6951,2156 6953,2151 6955,2146 6957,2141 6959,2135 6961,2130 6962,2125 6963,2120 6964,2114 6964,2109 6965,2103 6965,2098 Z"/>
 <path fill="none" stroke="rgb(131,202,255)" stroke-linejoin="round" d="M 6965,2098 L 6965,2092 6964,2087 6964,2082 6963,2076 6962,2071 6961,2066 6959,2060 6957,2055 6955,2050 6953,2045 6951,2040 6948,2035 6945,2031 6942,2026 6939,2022 6936,2018 6932,2013 6928,2009 6924,2006 6920,2002 6916,1999 6912,1995 6907,1992 6902,1990 6898,1987 6893,1985 6888,1982 6883,1980 6877,1979 6872,1977 6867,1976 6862,1975 6856,1974 6851,1973 6845,1973 6840,1973 6834,1973 6829,1973 6824,1974 6818,1975 6813,1976 6808,1977 6802,1979 6797,1980 6792,1982 6787,1985 6782,1987 6777,1990 6773,1992 6768,1995 6764,1999 6760,2002 6755,2006 6752,2009 6748,2013 6744,2018 6741,2022 6738,2026 6734,2031 6732,2035 6729,2040 6727,2045 6724,2050 6722,2055 6721,2060 6719,2066 6718,2071 6717,2076 6716,2082 6715,2087 6715,2092 6715,2098 6715,2103 6715,2109 6716,2114 6717,2120 6718,2125 6719,2130 6721,2135 6722,2141 6724,2146 6727,2151 6729,2156 6732,2160 6734,2165 6738,2170 6741,2174 6744,2178 6748,2182 6752,2186 6755,2190 6760,2194 6764,2197 6768,2200 6773,2203 6777,2206 6782,2209 6787,2211 6792,2213 6797,2215 6802,2217 6808,2219 6813,2220 6818,2221 6824,2222 6829,2222 6834,2223 6840,2223 6845,2223 6851,2222 6856,2222 6862,2221 6867,2220 6872,2219 6877,2217 6883,2215 6888,2213 6893,2211 6898,2209 6902,2206 6907,2203 6912,2200 6916,2197 6920,2194 6924,2190 6928,2186 6932,2182 6936,2178 6939,2174 6942,2170 6945,2165 6948,2160 6951,2156 6953,2151 6955,2146 6957,2141 6959,2135 6961,2130 6962,2125 6963,2120 6964,2114 6964,2109 6965,2103 6965,2098 Z"/>
 <path fill="rgb(131,202,255)" stroke="none" d="M 9264,3146 L 9264,3140 9264,3135 9263,3129 9262,3124 9261,3119 9260,3113 9258,3108 9257,3103 9255,3098 9252,3093 9250,3088 9247,3083 9245,3079 9241,3074 9238,3070 9235,3065 9231,3061 9227,3057 9224,3054 9219,3050 9215,3047 9211,3043 9206,3040 9202,3038 9197,3035 9192,3033 9187,3030 9182,3028 9177,3027 9171,3025 9166,3024 9161,3023 9155,3022 9150,3021 9145,3021 9139,3021 9134,3021 9128,3021 9123,3022 9117,3023 9112,3024 9107,3025 9102,3027 9096,3028 9091,3030 9086,3033 9081,3035 9077,3038 9072,3040 9067,3043 9063,3047 9059,3050 9055,3054 9051,3057 9047,3061 9043,3065 9040,3070 9037,3074 9034,3079 9031,3083 9028,3088 9026,3093 9024,3098 9022,3103 9020,3108 9018,3113 9017,3119 9016,3124 9015,3129 9015,3135 9014,3140 9014,3146 9014,3151 9015,3157 9015,3162 9016,3167 9017,3173 9018,3178 9020,3183 9022,3189 9024,3194 9026,3199 9028,3204 9031,3208 9034,3213 9037,3217 9040,3222 9043,3226 9047,3230 9051,3234 9055,3238 9059,3242 9063,3245 9067,3248 9072,3251 9077,3254 9081,3257 9086,3259 9091,3261 9096,3263 9102,3265 9107,3267 9112,3268 9117,3269 9123,3270 9128,3270 9134,3271 9139,3271 9145,3271 9150,3270 9155,3270 9161,3269 9166,3268 9171,3267 9177,3265 9182,3263 9187,3261 9192,3259 9197,3257 9202,3254 9206,3251 9211,3248 9215,3245 9219,3242 9224,3238 9227,3234 9231,3230 9235,3226 9238,3222 9241,3217 9245,3213 9247,3208 9250,3204 9252,3199 9255,3194 9257,3189 9258,3183 9260,3178 9261,3173 9262,3167 9263,3162 9264,3157 9264,3151 9264,3146 Z"/>
 <path fill="none" stroke="rgb(131,202,255)" stroke-linejoin="round" d="M 9264,3146 L 9264,3140 9264,3135 9263,3129 9262,3124 9261,3119 9260,3113 9258,3108 9257,3103 9255,3098 9252,3093 9250,3088 9247,3083 9245,3079 9241,3074 9238,3070 9235,3065 9231,3061 9227,3057 9224,3054 9219,3050 9215,3047 9211,3043 9206,3040 9202,3038 9197,3035 9192,3033 9187,3030 9182,3028 9177,3027 9171,3025 9166,3024 9161,3023 9155,3022 9150,3021 9145,3021 9139,3021 9134,3021 9128,3021 9123,3022 9117,3023 9112,3024 9107,3025 9102,3027 9096,3028 9091,3030 9086,3033 9081,3035 9077,3038 9072,3040 9067,3043 9063,3047 9059,3050 9055,3054 9051,3057 9047,3061 9043,3065 9040,3070 9037,3074 9034,3079 9031,3083 9028,3088 9026,3093 9024,3098 9022,3103 9020,3108 9018,3113 9017,3119 9016,3124 9015,3129 9015,3135 9014,3140 9014,3146 9014,3151 9015,3157 9015,3162 9016,3167 9017,3173 9018,3178 9020,3183 9022,3189 9024,3194 9026,3199 9028,3204 9031,3208 9034,3213 9037,3217 9040,3222 9043,3226 9047,3230 9051,3234 9055,3238 9059,3242 9063,3245 9067,3248 9072,3251 9077,3254 9081,3257 9086,3259 9091,3261 9096,3263 9102,3265 9107,3267 9112,3268 9117,3269 9123,3270 9128,3270 9134,3271 9139,3271 9145,3271 9150,3270 9155,3270 9161,3269 9166,3268 9171,3267 9177,3265 9182,3263 9187,3261 9192,3259 9197,3257 9202,3254 9206,3251 9211,3248 9215,3245 9219,3242 9224,3238 9227,3234 9231,3230 9235,3226 9238,3222 9241,3217 9245,3213 9247,3208 9250,3204 9252,3199 9255,3194 9257,3189 9258,3183 9260,3178 9261,3173 9262,3167 9263,3162 9264,3157 9264,3151 9264,3146 Z"/>
 <path fill="rgb(131,202,255)" stroke="none" d="M 11564,2962 L 11564,2956 11564,2951 11563,2945 11562,2940 11561,2935 11560,2929 11559,2924 11557,2919 11555,2914 11553,2909 11550,2904 11548,2899 11545,2895 11542,2890 11538,2886 11535,2881 11531,2877 11528,2873 11524,2870 11520,2866 11515,2863 11511,2859 11506,2856 11502,2853 11497,2851 11492,2848 11487,2846 11482,2844 11477,2842 11472,2841 11466,2840 11461,2839 11456,2838 11450,2837 11445,2837 11439,2837 11434,2837 11428,2837 11423,2838 11418,2839 11412,2840 11407,2841 11402,2842 11397,2844 11391,2846 11386,2848 11382,2851 11377,2853 11372,2856 11368,2859 11363,2863 11359,2866 11355,2870 11351,2873 11347,2877 11344,2881 11340,2886 11337,2890 11334,2895 11331,2899 11328,2904 11326,2909 11324,2914 11322,2919 11320,2924 11319,2929 11317,2935 11316,2940 11315,2945 11315,2951 11314,2956 11314,2962 11314,2967 11315,2973 11315,2978 11316,2983 11317,2989 11319,2994 11320,2999 11322,3004 11324,3010 11326,3015 11328,3019 11331,3024 11334,3029 11337,3033 11340,3038 11344,3042 11347,3046 11351,3050 11355,3054 11359,3057 11363,3061 11368,3064 11372,3067 11377,3070 11382,3073 11386,3075 11391,3077 11397,3079 11402,3081 11407,3082 11412,3084 11418,3085 11423,3086 11428,3086 11434,3087 11439,3087 11445,3087 11450,3086 11456,3086 11461,3085 11466,3084 11472,3082 11477,3081 11482,3079 11487,3077 11492,3075 11497,3073 11502,3070 11506,3067 11511,3064 11515,3061 11520,3057 11524,3054 11528,3050 11531,3046 11535,3042 11538,3038 11542,3033 11545,3029 11548,3024 11550,3019 11553,3015 11555,3010 11557,3004 11559,2999 11560,2994 11561,2989 11562,2983 11563,2978 11564,2973 11564,2967 11564,2962 Z"/>
 <path fill="none" stroke="rgb(131,202,255)" stroke-linejoin="round" d="M 11564,2962 L 11564,2956 11564,2951 11563,2945 11562,2940 11561,2935 11560,2929 11559,2924 11557,2919 11555,2914 11553,2909 11550,2904 11548,2899 11545,2895 11542,2890 11538,2886 11535,2881 11531,2877 11528,2873 11524,2870 11520,2866 11515,2863 11511,2859 11506,2856 11502,2853 11497,2851 11492,2848 11487,2846 11482,2844 11477,2842 11472,2841 11466,2840 11461,2839 11456,2838 11450,2837 11445,2837 11439,2837 11434,2837 11428,2837 11423,2838 11418,2839 11412,2840 11407,2841 11402,2842 11397,2844 11391,2846 11386,2848 11382,2851 11377,2853 11372,2856 11368,2859 11363,2863 11359,2866 11355,2870 11351,2873 11347,2877 11344,2881 11340,2886 11337,2890 11334,2895 11331,2899 11328,2904 11326,2909 11324,2914 11322,2919 11320,2924 11319,2929 11317,2935 11316,2940 11315,2945 11315,2951 11314,2956 11314,2962 11314,2967 11315,2973 11315,2978 11316,2983 11317,2989 11319,2994 11320,2999 11322,3004 11324,3010 11326,3015 11328,3019 11331,3024 11334,3029 11337,3033 11340,3038 11344,3042 11347,3046 11351,3050 11355,3054 11359,3057 11363,3061 11368,3064 11372,3067 11377,3070 11382,3073 11386,3075 11391,3077 11397,3079 11402,3081 11407,3082 11412,3084 11418,3085 11423,3086 11428,3086 11434,3087 11439,3087 11445,3087 11450,3086 11456,3086 11461,3085 11466,3084 11472,3082 11477,3081 11482,3079 11487,3077 11492,3075 11497,3073 11502,3070 11506,3067 11511,3064 11515,3061 11520,3057 11524,3054 11528,3050 11531,3046 11535,3042 11538,3038 11542,3033 11545,3029 11548,3024 11550,3019 11553,3015 11555,3010 11557,3004 11559,2999 11560,2994 11561,2989 11562,2983 11563,2978 11564,2973 11564,2967 11564,2962 Z"/>
 <path fill="rgb(131,202,255)" stroke="none" d="M 13865,3399 L 13864,3393 13864,3388 13863,3382 13863,3377 13862,3372 13860,3366 13859,3361 13857,3356 13855,3351 13853,3346 13850,3341 13848,3336 13845,3332 13842,3327 13839,3323 13835,3318 13832,3314 13828,3310 13824,3307 13820,3303 13816,3300 13811,3296 13807,3293 13802,3291 13797,3288 13792,3285 13787,3283 13782,3281 13777,3280 13772,3278 13767,3277 13761,3276 13756,3275 13750,3274 13745,3274 13740,3274 13734,3274 13729,3274 13723,3275 13718,3276 13712,3277 13707,3278 13702,3280 13697,3281 13692,3283 13687,3285 13682,3288 13677,3291 13672,3293 13668,3296 13663,3300 13659,3303 13655,3307 13651,3310 13647,3314 13644,3318 13640,3323 13637,3327 13634,3332 13631,3336 13629,3341 13626,3346 13624,3351 13622,3356 13620,3361 13619,3366 13617,3372 13616,3377 13616,3382 13615,3388 13615,3393 13615,3399 13615,3404 13615,3410 13616,3415 13616,3420 13617,3426 13619,3431 13620,3436 13622,3442 13624,3447 13626,3452 13629,3456 13631,3461 13634,3466 13637,3470 13640,3475 13644,3479 13647,3483 13651,3487 13655,3491 13659,3495 13663,3498 13668,3501 13672,3504 13677,3507 13682,3510 13687,3512 13692,3514 13697,3516 13702,3518 13707,3520 13712,3521 13718,3522 13723,3523 13729,3523 13734,3524 13740,3524 13745,3524 13750,3523 13756,3523 13761,3522 13767,3521 13772,3520 13777,3518 13782,3516 13787,3514 13792,3512 13797,3510 13802,3507 13807,3504 13811,3501 13816,3498 13820,3495 13824,3491 13828,3487 13832,3483 13835,3479 13839,3475 13842,3470 13845,3466 13848,3461 13850,3456 13853,3452 13855,3447 13857,3442 13859,3436 13860,3431 13862,3426 13863,3420 13863,3415 13864,3410 13864,3404 13865,3399 Z"/>
 <path fill="none" stroke="rgb(131,202,255)" stroke-linejoin="round" d="M 13865,3399 L 13864,3393 13864,3388 13863,3382 13863,3377 13862,3372 13860,3366 13859,3361 13857,3356 13855,3351 13853,3346 13850,3341 13848,3336 13845,3332 13842,3327 13839,3323 13835,3318 13832,3314 13828,3310 13824,3307 13820,3303 13816,3300 13811,3296 13807,3293 13802,3291 13797,3288 13792,3285 13787,3283 13782,3281 13777,3280 13772,3278 13767,3277 13761,3276 13756,3275 13750,3274 13745,3274 13740,3274 13734,3274 13729,3274 13723,3275 13718,3276 13712,3277 13707,3278 13702,3280 13697,3281 13692,3283 13687,3285 13682,3288 13677,3291 13672,3293 13668,3296 13663,3300 13659,3303 13655,3307 13651,3310 13647,3314 13644,3318 13640,3323 13637,3327 13634,3332 13631,3336 13629,3341 13626,3346 13624,3351 13622,3356 13620,3361 13619,3366 13617,3372 13616,3377 13616,3382 13615,3388 13615,3393 13615,3399 13615,3404 13615,3410 13616,3415 13616,3420 13617,3426 13619,3431 13620,3436 13622,3442 13624,3447 13626,3452 13629,3456 13631,3461 13634,3466 13637,3470 13640,3475 13644,3479 13647,3483 13651,3487 13655,3491 13659,3495 13663,3498 13668,3501 13672,3504 13677,3507 13682,3510 13687,3512 13692,3514 13697,3516 13702,3518 13707,3520 13712,3521 13718,3522 13723,3523 13729,3523 13734,3524 13740,3524 13745,3524 13750,3523 13756,3523 13761,3522 13767,3521 13772,3520 13777,3518 13782,3516 13787,3514 13792,3512 13797,3510 13802,3507 13807,3504 13811,3501 13816,3498 13820,3495 13824,3491 13828,3487 13832,3483 13835,3479 13839,3475 13842,3470 13845,3466 13848,3461 13850,3456 13853,3452 13855,3447 13857,3442 13859,3436 13860,3431 13862,3426 13863,3420 13863,3415 13864,3410 13864,3404 13865,3399 Z"/>
 <text class="TextShape"><tspan class="TextParagraph" font-family="Liberation Sans, sans-serif" font-size="353px" font-weight="400"><tspan class="TextPosition" x="1963" y="6418"><tspan fill="rgb(0,0,0)" stroke="none">100</tspan></tspan></tspan></text>
 <text class="TextShape"><tspan class="TextParagraph" font-family="Liberation Sans, sans-serif" font-size="353px" font-weight="400"><tspan class="TextPosition" x="4169" y="6418"><tspan fill="rgb(0,0,0)" stroke="none">1000</tspan></tspan></tspan></text>
 <text class="TextShape"><tspan class="TextParagraph" font-family="Liberation Sans, sans-serif" font-size="353px" font-weight="400"><tspan class="TextPosition" x="6377" y="6418"><tspan fill="rgb(0,0,0)" stroke="none">10000</tspan></tspan></tspan></text>
 <text class="TextShape"><tspan class="TextParagraph" font-family="Liberation Sans, sans-serif" font-size="353px" font-weight="400"><tspan class="TextPosition" x="8584" y="6418"><tspan fill="rgb(0,0,0)" stroke="none">100000</tspan></tspan></tspan></text>
 <text class="TextShape"><tspan class="TextParagraph" font-family="Liberation Sans, sans-serif" font-size="353px" font-weight="400"><tspan class="TextPosition" x="10792" y="6418"><tspan fill="rgb(0,0,0)" stroke="none">1000000</tspan></tspan></tspan></text>
 <text class="TextShape"><tspan class="TextParagraph" font-family="Liberation Sans, sans-serif" font-size="353px" font-weight="400"><tspan class="TextPosition" x="12999" y="6418"><tspan fill="rgb(0,0,0)" stroke="none">10000000</tspan></tspan></tspan></text>
 <text class="TextShape"><tspan class="TextParagraph" font-family="Liberation Sans, sans-serif" font-size="353px" font-weight="400"><tspan class="TextPosition" x="1329" y="5971"><tspan fill="rgb(0,0,0)" stroke="none">0.00</tspan></tspan></tspan></text>
 <text class="TextShape"><tspan class="TextParagraph" font-family="Liberation Sans, sans-serif" font-size="353px" font-weight="400"><tspan class="TextPosition" x="1329" y="5545"><tspan fill="rgb(0,0,0)" stroke="none">0.50</tspan></tspan></tspan></text>
 <text class="TextShape"><tspan class="TextParagraph" font-family="Liberation Sans, sans-serif" font-size="353px" font-weight="400"><tspan class="TextPosition" x="1329" y="5120"><tspan fill="rgb(0,0,0)" stroke="none">1.00</tspan></tspan></tspan></text>
 <text class="TextShape"><tspan class="TextParagraph" font-family="Liberation Sans, sans-serif" font-size="353px" font-weight="400"><tspan class="TextPosition" x="1329" y="4694"><tspan fill="rgb(0,0,0)" stroke="none">1.50</tspan></tspan></tspan></text>
 <text class="TextShape"><tspan class="TextParagraph" font-family="Liberation Sans, sans-serif" font-size="353px" font-weight="400"><tspan class="TextPosition" x="1329" y="4269"><tspan fill="rgb(0,0,0)" stroke="none">2.00</tspan></tspan></tspan></text>
 <text class="TextShape"><tspan class="TextParagraph" font-family="Liberation Sans, sans-serif" font-size="353px" font-weight="400"><tspan class="TextPosition" x="1329" y="3844"><tspan fill="rgb(0,0,0)" stroke="none">2.50</tspan></tspan></tspan></text>
 <text class="TextShape"><tspan class="TextParagraph" font-family="Liberation Sans, sans-serif" font-size="353px" font-weight="400"><tspan class="TextPosition" x="1329" y="3418"><tspan fill="rgb(0,0,0)" stroke="none">3.00</tspan></tspan></tspan></text>
 <text class="TextShape"><tspan class="TextParagraph" font-family="Liberation Sans, sans-serif" font-size="353px" font-weight="400"><tspan class="TextPosition" x="1329" y="2993"><tspan fill="rgb(0,0,0)" stroke="none">3.50</tspan></tspan></tspan></text>
 <text class="TextShape"><tspan class="TextParagraph" font-family="Liberation Sans, sans-serif" font-size="353px" font-weight="400"><tspan class="TextPosition" x="1329" y="2567"><tspan fill="rgb(0,0,0)" stroke="none">4.00</tspan></tspan></tspan></text>
 <text class="TextShape"><tspan class="TextParagraph" font-family="Liberation Sans, sans-serif" font-size="353px" font-weight="400"><tspan class="TextPosition" x="1329" y="2143"><tspan fill="rgb(0,0,0)" stroke="none">4.50</tspan></tspan></tspan></text>
 <text class="TextShape"><tspan class="TextParagraph" font-family="Liberation Sans, sans-serif" font-size="353px" font-weight="400"><tspan class="TextPosition" x="1329" y="1718"><tspan fill="rgb(0,0,0)" stroke="none">5.00</tspan></tspan></tspan></text>
 <text class="TextShape"><tspan class="TextParagraph" font-family="Segoe UI" font-size="459px" font-weight="700"><tspan class="TextPosition" x="3009" y="940"><tspan fill="rgb(0,0,0)" stroke="none">Full refill/teardown in bulks of 100 items</tspan></tspan></tspan></text>
 <path fill="none" stroke="rgb(0,69,134)" stroke-width="80" stroke-linejoin="round" d="M 667,7993 L 1467,7993"/>
 <path fill="rgb(0,69,134)" stroke="none" d="M 961,7888 L 961,8099 1172,8099 1172,7888 961,7888 Z"/>
 <path fill="none" stroke="rgb(0,69,134)" stroke-linejoin="round" d="M 961,7888 L 961,8099 1172,8099 1172,7888 961,7888 Z"/>
 <path fill="none" stroke="rgb(255,66,14)" stroke-width="80" stroke-linejoin="round" d="M 7568,7993 L 8368,7993"/>
 <path fill="rgb(255,66,14)" stroke="none" d="M 7862,7993 L 7968,8099 8073,7993 7968,7888 7862,7993 Z"/>
 <path fill="none" stroke="rgb(255,66,14)" stroke-linejoin="round" d="M 7862,7993 L 7968,8099 8073,7993 7968,7888 7862,7993 Z"/>
 <path fill="none" stroke="rgb(255,211,32)" stroke-width="80" stroke-linejoin="round" d="M 667,8491 L 1467,8491"/>
 <path fill="rgb(255,211,32)" stroke="none" d="M 961,8386 L 961,8597 1172,8597 1172,8386 961,8386 Z"/>
 <path fill="none" stroke="rgb(255,211,32)" stroke-linejoin="round" d="M 961,8386 L 961,8597 1172,8597 1172,8386 961,8386 Z"/>
 <path fill="none" stroke="rgb(87,157,28)" stroke-width="80" stroke-linejoin="round" d="M 7568,8491 L 8368,8491"/>
 <path fill="rgb(87,157,28)" stroke="none" d="M 7862,8597 L 8073,8597 7968,8386 7862,8597 Z"/>
 <path fill="none" stroke="rgb(87,157,28)" stroke-linejoin="round" d="M 7862,8597 L 8073,8597 7968,8386 7862,8597 Z"/>
 <path fill="none" stroke="rgb(126,0,33)" stroke-width="80" stroke-linejoin="round" d="M 667,8989 L 1467,8989"/>
 <path fill="rgb(126,0,33)" stroke="none" d="M 961,8884 L 961,9095 1172,8989 961,8884 Z"/>
 <path fill="none" stroke="rgb(126,0,33)" stroke-linejoin="round" d="M 961,8884 L 961,9095 1172,8989 961,8884 Z"/>
 <path fill="none" stroke="rgb(131,202,255)" stroke-width="80" stroke-linejoin="round" d="M 7568,8989 L 8368,8989"/>
 <path fill="rgb(131,202,255)" stroke="none" d="M 8073,8989 L 8073,8984 8073,8980 8072,8975 8071,8971 8070,8966 8069,8962 8068,8957 8067,8953 8065,8949 8063,8944 8061,8940 8059,8936 8056,8932 8054,8928 8051,8925 8048,8921 8045,8918 8042,8914 8039,8911 8035,8908 8032,8905 8028,8903 8024,8900 8020,8898 8016,8895 8012,8893 8008,8892 8004,8890 7999,8888 7995,8887 7990,8886 7986,8885 7981,8884 7977,8884 7972,8884 7968,8884 7963,8884 7958,8884 7954,8884 7949,8885 7945,8886 7940,8887 7936,8888 7931,8890 7927,8892 7923,8893 7919,8895 7915,8898 7911,8900 7907,8903 7903,8905 7900,8908 7896,8911 7893,8914 7890,8918 7887,8921 7884,8925 7881,8928 7879,8932 7876,8936 7874,8940 7872,8944 7870,8949 7868,8953 7867,8957 7866,8962 7865,8966 7864,8971 7863,8975 7862,8980 7862,8984 7862,8989 7862,8994 7862,8998 7863,9003 7864,9007 7865,9012 7866,9016 7867,9021 7868,9025 7870,9029 7872,9034 7874,9038 7876,9042 7879,9046 7881,9050 7884,9053 7887,9057 7890,9060 7893,9064 7896,9067 7900,9070 7903,9073 7907,9075 7911,9078 7915,9080 7919,9083 7923,9085 7927,9086 7931,9088 7936,9090 7940,9091 7945,9092 7949,9093 7954,9094 7958,9094 7963,9094 7968,9095 7972,9094 7977,9094 7981,9094 7986,9093 7990,9092 7995,9091 7999,9090 8004,9088 8008,9086 8012,9085 8016,9083 8020,9080 8024,9078 8028,9075 8032,9073 8035,9070 8039,9067 8042,9064 8045,9060 8048,9057 8051,9053 8054,9050 8056,9046 8059,9042 8061,9038 8063,9034 8065,9029 8067,9025 8068,9021 8069,9016 8070,9012 8071,9007 8072,9003 8073,8998 8073,8994 8073,8989 Z"/>
 <path fill="none" stroke="rgb(131,202,255)" stroke-linejoin="round" d="M 8073,8989 L 8073,8984 8073,8980 8072,8975 8071,8971 8070,8966 8069,8962 8068,8957 8067,8953 8065,8949 8063,8944 8061,8940 8059,8936 8056,8932 8054,8928 8051,8925 8048,8921 8045,8918 8042,8914 8039,8911 8035,8908 8032,8905 8028,8903 8024,8900 8020,8898 8016,8895 8012,8893 8008,8892 8004,8890 7999,8888 7995,8887 7990,8886 7986,8885 7981,8884 7977,8884 7972,8884 7968,8884 7963,8884 7958,8884 7954,8884 7949,8885 7945,8886 7940,8887 7936,8888 7931,8890 7927,8892 7923,8893 7919,8895 7915,8898 7911,8900 7907,8903 7903,8905 7900,8908 7896,8911 7893,8914 7890,8918 7887,8921 7884,8925 7881,8928 7879,8932 7876,8936 7874,8940 7872,8944 7870,8949 7868,8953 7867,8957 7866,8962 7865,8966 7864,8971 7863,8975 7862,8980 7862,8984 7862,8989 7862,8994 7862,8998 7863,9003 7864,9007 7865,9012 7866,9016 7867,9021 7868,9025 7870,9029 7872,9034 7874,9038 7876,9042 7879,9046 7881,9050 7884,9053 7887,9057 7890,9060 7893,9064 7896,9067 7900,9070 7903,9073 7907,9075 7911,9078 7915,9080 7919,9083 7923,9085 7927,9086 7931,9088 7936,9090 7940,9091 7945,9092 7949,9093 7954,9094 7958,9094 7963,9094 7968,9095 7972,9094 7977,9094 7981,9094 7986,9093 7990,9092 7995,9091 7999,9090 8004,9088 8008,9086 8012,9085 8016,9083 8020,9080 8024,9078 8028,9075 8032,9073 8035,9070 8039,9067 8042,9064 8045,9060 8048,9057 8051,9053 8054,9050 8056,9046 8059,9042 8061,9038 8063,9034 8065,9029 8067,9025 8068,9021 8069,9016 8070,9012 8071,9007 8072,9003 8073,8998 8073,8994 8073,8989 Z"/>
 <text class="TextShape"><tspan class="TextParagraph" font-family="Liberation Sans, sans-serif" font-size="353px" font-weight="400"><tspan class="TextPosition" x="1567" y="8113"><tspan fill="rgb(0,0,0)" stroke="none">TeardownSet::delete_range()         </tspan></tspan></tspan></text>
 <text class="TextShape"><tspan class="TextParagraph" font-family="Liberation Sans, sans-serif" font-size="353px" font-weight="400"><tspan class="TextPosition" x="8468" y="8113"><tspan fill="rgb(0,0,0)" stroke="none">TeardownMap::delete_range()         </tspan></tspan></tspan></text>
 <text class="TextShape"><tspan class="TextParagraph" font-family="Liberation Sans, sans-serif" font-size="353px" font-weight="400"><tspan class="TextPosition" x="1567" y="8611"><tspan fill="rgb(0,0,0)" stroke="none">TeardownSet::filter_range()         </tspan></tspan></tspan></text>
 <text class="TextShape"><tspan class="TextParagraph" font-family="Liberation Sans, sans-serif" font-size="353px" font-weight="400"><tspan class="TextPosition" x="8468" y="8611"><tspan fill="rgb(0,0,0)" stroke="none">IntervalTeardownSet::delete_overlap()</tspan></tspan></tspan></text>
 <text class="TextShape"><tspan class="TextParagraph" font-family="Liberation Sans, sans-serif" font-size="353px" font-weight="400"><tspan class="TextPosition" x="1567" y="9109"><tspan fill="rgb(0,0,0)" stroke="none">IntervalTeardownMap::delete_overlap()</tspan></tspan></tspan></text>
 <text class="TextShape"><tspan class="TextParagraph" font-family="Liberation Sans, sans-serif" font-size="353px" font-weight="400"><tspan class="TextPosition" x="8468" y="9109"><tspan fill="rgb(0,0,0)" stroke="none">IntervalTeardownSet::filter_overlap()</tspan></tspan></tspan></text>
 <text class="TextShape"><tspan class="TextParagraph" font-family="Segoe UI" font-size="318px" font-weight="700"><tspan class="TextPosition" x="7787" y="7102"><tspan fill="rgb(0,0,0)" stroke="none">N</tspan></tspan></tspan></text>
 <text class="TextShape" transform="translate(860,4914) rotate(-90) translate(-860,-4914)"><tspan class="TextParagraph" font-family="Segoe UI" font-size="318px" font-weight="700"><tspan class="TextPosition" x="860" y="4914"><tspan fill="rgb(0,0,0)" stroke="none">Times slower</tspan></tspan></tspan></text>
</svg>