<?xml version="1.0" encoding="UTF-8"?>
<!DOCTYPE svg PUBLIC "-//W3C//DTD SVG 1.1//EN" "http://www.w3.org/Graphics/SVG/1.1/DTD/svg11.dtd">
<svg width="148mm" height="95mm" viewBox="0 0 14800 9500" version="1.1" xmlns="http://www.w3.org/2000/svg" stroke-width="28.222" stroke-linejoin="round" xml:space="preserve">
 <path fill="rgb(255,255,255)" stroke="none" d="M 7387,9474 L -5,9474 -5,0 14778,0 14778,9474 7387,9474 Z"/>
 <path fill="none" stroke="rgb(0,0,0)" stroke-linejoin="round" d="M 7387,9474 L -5,9474 -5,0 14778,0 14778,9474 7387,9474 Z"/>
 <path fill="none" stroke="rgb(179,179,179)" stroke-linejoin="round" d="M 7990,5851 L 2240,5851 2240,1598 13740,1598 13740,5851 7990,5851 Z"/>
 <path fill="none" stroke="rgb(179,179,179)" stroke-linejoin="round" d="M 13739,5850 L 2240,5850"/>
 <path fill="none" stroke="rgb(179,179,179)" stroke-linejoin="round" d="M 13739,5424 L 2240,5424"/>
 <path fill="none" stroke="rgb(179,179,179)" stroke-linejoin="round" d="M 13739,4999 L 2240,4999"/>
 <path fill="none" stroke="rgb(179,179,179)" stroke-linejoin="round" d="M 13739,4574 L 2240,4574"/>
 <path fill="none" stroke="rgb(179,179,179)" stroke-linejoin="round" d="M 13739,4149 L 2240,4149"/>
 <path fill="none" stroke="rgb(179,179,179)" stroke-linejoin="round" d="M 13739,3724 L 2240,3724"/>
 <path fill="none" stroke="rgb(179,179,179)" stroke-linejoin="round" d="M 13739,3298 L 2240,3298"/>
 <path fill="none" stroke="rgb(179,179,179)" stroke-linejoin="round" d="M 13739,2873 L 2240,2873"/>
 <path fill="none" stroke="rgb(179,179,179)" stroke-linejoin="round" d="M 13739,2447 L 2240,2447"/>
 <path fill="none" stroke="rgb(179,179,179)" stroke-linejoin="round" d="M 13739,2022 L 2240,2022"/>
 <path fill="none" stroke="rgb(179,179,179)" stroke-linejoin="round" d="M 13739,1597 L 2240,1597"/>
 <path fill="none" stroke="rgb(179,179,179)" stroke-linejoin="round" d="M 2240,6000 L 2240,5850"/>
 <path fill="none" stroke="rgb(179,179,179)" stroke-linejoin="round" d="M 2240,6000 L 2240,5850"/>
 <path fill="none" stroke="rgb(179,179,179)" stroke-linejoin="round" d="M 5115,6000 L 5115,5850"/>
 <path fill="none" stroke="rgb(179,179,179)" stroke-linejoin="round" d="M 5115,6000 L 5115,5850"/>
 <path fill="none" stroke="rgb(179,179,179)" stroke-linejoin="round" d="M 7989,6000 L 7989,5850"/>
 <path fill="none" stroke="rgb(179,179,179)" stroke-linejoin="round" d="M 7989,6000 L 7989,5850"/>
 <path fill="none" stroke="rgb(179,179,179)" stroke-linejoin="round" d="M 10864,6000 L 10864,5850"/>
 <path fill="none" stroke="rgb(179,179,179)" stroke-linejoin="round" d="M 10864,6000 L 10864,5850"/>
 <path fill="none" stroke="rgb(179,179,179)" stroke-linejoin="round" d="M 13739,6000 L 13739,5850"/>
 <path fill="none" stroke="rgb(179,179,179)" stroke-linejoin="round" d="M 13739,6000 L 13739,5850"/>
 <path fill="none" stroke="rgb(179,179,179)" stroke-linejoin="round" d="M 2240,5850 L 13739,5850"/>
 <path fill="none" stroke="rgb(179,179,179)" stroke-linejoin="round" d="M 2090,5850 L 2240,5850"/>
 <path fill="none" stroke="rgb(179,179,179)" stroke-linejoin="round" d="M 2090,5850 L 2240,5850"/>
 <path fill="none" stroke="rgb(179,179,179)" stroke-linejoin="round" d="M 2090,5424 L 2240,5424"/>
 <path fill="none" stroke="rgb(179,179,179)" stroke-linejoin="round" d="M 2090,5424 L 2240,5424"/>
 <path fill="none" stroke="rgb(179,179,179)" stroke-linejoin="round" d="M 2090,4999 L 2240,4999"/>
 <path fill="none" stroke="rgb(179,179,179)" stroke-linejoin="round" d="M 2090,4999 L 2240,4999"/>
 <path fill="none" stroke="rgb(179,179,179)" stroke-linejoin="round" d="M 2090,4574 L 2240,4574"/>
 <path fill="none" stroke="rgb(179,179,179)" stroke-linejoin="round" d="M 2090,4574 L 2240,4574"/>
 <path fill="none" stroke="rgb(179,179,179)" stroke-linejoin="round" d="M 2090,4149 L 2240,4149"/>
 <path fill="none" stroke="rgb(179,179,179)" stroke-linejoin="round" d="M 2090,4149 L 2240,4149"/>
 <path fill="none" stroke="rgb(179,179,179)" stroke-linejoin="round" d="M 2090,3724 L 2240,3724"/>
 <path fill="none" stroke="rgb(179,179,179)" stroke-linejoin="round" d="M 2090,3724 L 2240,3724"/>
 <path fill="none" stroke="rgb(179,179,179)" stroke-linejoin="round" d="M 2090,3298 L 2240,3298"/>
 <path fill="none" stroke="rgb(179,179,179)" stroke-linejoin="round" d="M 2090,3298 L 2240,3298"/>
 <path fill="none" stroke="rgb(179,179,179)" stroke-linejoin="round" d="M 2090,2873 L 2240,2873"/>
 <path fill="none" stroke="rgb(179,179,179)" stroke-linejoin="round" d="M 2090,2873 L 2240,2873"/>
 <path fill="none" stroke="rgb(179,179,179)" stroke-linejoin="round" d="M 2090,2447 L 2240,2447"/>
 <path fill="none" stroke="rgb(179,179,179)" stroke-linejoin="round" d="M 2090,2447 L 2240,2447"/>
 <path fill="none" stroke="rgb(179,179,179)" stroke-linejoin="round" d="M 2090,2022 L 2240,2022"/>
 <path fill="none" stroke="rgb(179,179,179)" stroke-linejoin="round" d="M 2090,2022 L 2240,2022"/>
 <path fill="none" stroke="rgb(179,179,179)" stroke-linejoin="round" d="M 2090,1597 L 2240,1597"/>
 <path fill="none" stroke="rgb(179,179,179)" stroke-linejoin="round" d="M 2090,1597 L 2240,1597"/>
 <path fill="none" stroke="rgb(179,179,179)" stroke-linejoin="round" d="M 2240,5850 L 2240,1597"/>
 <path fill="none" stroke="rgb(0,69,134)" stroke-width="80" stroke-linejoin="round" d="M 2240,4999 L 5115,4999 7989,4999 10864,4999 13739,4999"/>
 <path fill="rgb(0,69,134)" stroke="none" d="M 2115,4874 L 2115,5124 2365,5124 2365,4874 2115,4874 Z"/>
 <path fill="none" stroke="rgb(0,69,134)" stroke-linejoin="round" d="M 2115,4874 L 2115,5124 2365,5124 2365,4874 2115,4874 Z"/>
 <path fill="rgb(0,69,134)" stroke="none" d="M 4990,4874 L 4990,5124 5240,5124 5240,4874 4990,4874 Z"/>
 <path fill="none" stroke="rgb(0,69,134)" stroke-linejoin="round" d="M 4990,4874 L 4990,5124 5240,5124 5240,4874 4990,4874 Z"/>
 <path fill="rgb(0,69,134)" stroke="none" d="M 7864,4874 L 7864,5124 8114,5124 8114,4874 7864,4874 Z"/>
 <path fill="none" stroke="rgb(0,69,134)" stroke-linejoin="round" d="M 7864,4874 L 7864,5124 8114,5124 8114,4874 7864,4874 Z"/>
 <path fill="rgb(0,69,134)" stroke="none" d="M 10739,4874 L 10739,5124 10989,5124 10989,4874 10739,4874 Z"/>
 <path fill="none" stroke="rgb(0,69,134)" stroke-linejoin="round" d="M 10739,4874 L 10739,5124 10989,5124 10989,4874 10739,4874 Z"/>
 <path fill="rgb(0,69,134)" stroke="none" d="M 13614,4874 L 13614,5124 13864,5124 13864,4874 13614,4874 Z"/>
 <path fill="none" stroke="rgb(0,69,134)" stroke-linejoin="round" d="M 13614,4874 L 13614,5124 13864,5124 13864,4874 13614,4874 Z"/>
 <path fill="none" stroke="rgb(255,66,14)" stroke-width="80" stroke-linejoin="round" d="M 2240,4775 L 5115,4816 7989,4827 10864,4607 13739,4744"/>
 <path fill="rgb(255,66,14)" stroke="none" d="M 2115,4775 L 2240,4900 2365,4775 2240,4651 2115,4775 Z"/>
 <path fill="none" stroke="rgb(255,66,14)" stroke-linejoin="round" d="M 2115,4775 L 2240,4900 2365,4775 2240,4651 2115,4775 Z"/>
 <path fill="rgb(255,66,14)" stroke="none" d="M 4990,4816 L 5115,4941 5240,4816 5115,4692 4990,4816 Z"/>
 <path fill="none" stroke="rgb(255,66,14)" stroke-linejoin="round" d="M 4990,4816 L 5115,4941 5240,4816 5115,4692 4990,4816 Z"/>
 <path fill="rgb(255,66,14)" stroke="none" d="M 7864,4827 L 7989,4952 8114,4827 7989,4703 7864,4827 Z"/>
 <path fill="none" stroke="rgb(255,66,14)" stroke-linejoin="round" d="M 7864,4827 L 7989,4952 8114,4827 7989,4703 7864,4827 Z"/>
 <path fill="rgb(255,66,14)" stroke="none" d="M 10739,4607 L 10864,4732 10989,4607 10864,4482 10739,4607 Z"/>
 <path fill="none" stroke="rgb(255,66,14)" stroke-linejoin="round" d="M 10739,4607 L 10864,4732 10989,4607 10864,4482 10739,4607 Z"/>
 <path fill="rgb(255,66,14)" stroke="none" d="M 13614,4744 L 13739,4869 13864,4744 13739,4620 13614,4744 Z"/>
 <path fill="none" stroke="rgb(255,66,14)" stroke-linejoin="round" d="M 13614,4744 L 13739,4869 13864,4744 13739,4620 13614,4744 Z"/>
 <path fill="none" stroke="rgb(255,211,32)" stroke-width="80" stroke-linejoin="round" d="M 2240,3252 L 5115,3262 7989,3425 10864,3720 13739,4077"/>
 <path fill="rgb(255,211,32)" stroke="none" d="M 2115,3127 L 2115,3377 2365,3377 2365,3127 2115,3127 Z"/>
 <path fill="none" stroke="rgb(255,211,32)" stroke-linejoin="round" d="M 2115,3127 L 2115,3377 2365,3377 2365,3127 2115,3127 Z"/>
 <path fill="rgb(255,211,32)" stroke="none" d="M 4990,3137 L 4990,3387 5240,3387 5240,3137 4990,3137 Z"/>
 <path fill="none" stroke="rgb(255,211,32)" stroke-linejoin="round" d="M 4990,3137 L 4990,3387 5240,3387 5240,3137 4990,3137 Z"/>
 <path fill="rgb(255,211,32)" stroke="none" d="M 7864,3300 L 7864,3550 8114,3550 8114,3300 7864,3300 Z"/>
 <path fill="none" stroke="rgb(255,211,32)" stroke-linejoin="round" d="M 7864,3300 L 7864,3550 8114,3550 8114,3300 7864,3300 Z"/>
 <path fill="rgb(255,211,32)" stroke="none" d="M 10739,3595 L 10739,3845 10989,3845 10989,3595 10739,3595 Z"/>
 <path fill="none" stroke="rgb(255,211,32)" stroke-linejoin="round" d="M 10739,3595 L 10739,3845 10989,3845 10989,3595 10739,3595 Z"/>
 <path fill="rgb(255,211,32)" stroke="none" d="M 13614,3952 L 13614,4202 13864,4202 13864,3952 13614,3952 Z"/>
 <path fill="none" stroke="rgb(255,211,32)" stroke-linejoin="round" d="M 13614,3952 L 13614,4202 13864,4202 13864,3952 13614,3952 Z"/>
 <path fill="none" stroke="rgb(87,157,28)" stroke-width="80" stroke-linejoin="round" d="M 2240,4690 L 5115,4443 7989,4538 10864,4236 13739,4425"/>
 <path fill="rgb(87,157,28)" stroke="none" d="M 2115,4814 L 2365,4814 2240,4565 2115,4814 Z"/>
 <path fill="none" stroke="rgb(87,157,28)" stroke-linejoin="round" d="M 2115,4814 L 2365,4814 2240,4565 2115,4814 Z"/>
 <path fill="rgb(87,157,28)" stroke="none" d="M 4990,4568 L 5240,4568 5115,4318 4990,4568 Z"/>
 <path fill="none" stroke="rgb(87,157,28)" stroke-linejoin="round" d="M 4990,4568 L 5240,4568 5115,4318 4990,4568 Z"/>
 <path fill="rgb(87,157,28)" stroke="none" d="M 7864,4663 L 8114,4663 7989,4413 7864,4663 Z"/>
 <path fill="none" stroke="rgb(87,157,28)" stroke-linejoin="round" d="M 7864,4663 L 8114,4663 7989,4413 7864,4663 Z"/>
 <path fill="rgb(87,157,28)" stroke="none" d="M 10739,4361 L 10989,4361 10864,4111 10739,4361 Z"/>
 <path fill="none" stroke="rgb(87,157,28)" stroke-linejoin="round" d="M 10739,4361 L 10989,4361 10864,4111 10739,4361 Z"/>
 <path fill="rgb(87,157,28)" stroke="none" d="M 13614,4550 L 13864,4550 13739,4300 13614,4550 Z"/>
 <path fill="none" stroke="rgb(87,157,28)" stroke-linejoin="round" d="M 13614,4550 L 13864,4550 13739,4300 13614,4550 Z"/>
 <path fill="none" stroke="rgb(126,0,33)" stroke-width="80" stroke-linejoin="round" d="M 2240,4234 L 5115,4078 7989,4111 10864,3755 13739,4033"/>
 <path fill="rgb(126,0,33)" stroke="none" d="M 2115,4109 L 2115,4359 2365,4234 2115,4109 Z"/>
 <path fill="none" stroke="rgb(126,0,33)" stroke-linejoin="round" d="M 2115,4109 L 2115,4359 2365,4234 2115,4109 Z"/>
 <path fill="rgb(126,0,33)" stroke="none" d="M 4990,3953 L 4990,4203 5240,4078 4990,3953 Z"/>
 <path fill="none" stroke="rgb(126,0,33)" stroke-linejoin="round" d="M 4990,3953 L 4990,4203 5240,4078 4990,3953 Z"/>
 <path fill="rgb(126,0,33)" stroke="none" d="M 7864,3986 L 7864,4236 8114,4111 7864,3986 Z"/>
 <path fill="none" stroke="rgb(126,0,33)" stroke-linejoin="round" d="M 7864,3986 L 7864,4236 8114,4111 7864,3986 Z"/>
 <path fill="rgb(126,0,33)" stroke="none" d="M 10739,3630 L 10739,3880 10989,3755 10739,3630 Z"/>
 <path fill="none" stroke="rgb(126,0,33)" stroke-linejoin="round" d="M 10739,3630 L 10739,3880 10989,3755 10739,3630 Z"/>
 <path fill="rgb(126,0,33)" stroke="none" d="M 13614,3908 L 13614,4158 13864,4033 13614,3908 Z"/>
 <path fill="none" stroke="rgb(126,0,33)" stroke-linejoin="round" d="M 13614,3908 L 13614,4158 13864,4033 13614,3908 Z"/>
 <path fill="none" stroke="rgb(131,202,255)" stroke-width="80" stroke-linejoin="round" d="M 2240,2250 L 5115,2167 7989,2347 10864,2564 13739,3040"/>
 <path fill="rgb(131,202,255)" stroke="none" d="M 2365,2250 L 2364,2245 2364,2240 2363,2234 2363,2229 2362,2223 2360,2218 2359,2213 2357,2208 2355,2203 2353,2198 2350,2193 2348,2188 2345,2183 2342,2179 2339,2174 2335,2170 2332,2166 2328,2162 2324,2158 2320,2155 2316,2151 2311,2148 2307,2145 2302,2142 2297,2140 2292,2137 2287,2135 2282,2133 2277,2131 2272,2130 2267,2128 2261,2127 2256,2126 2250,2126 2245,2126 2240,2125 2234,2126 2229,2126 2223,2126 2218,2127 2212,2128 2207,2130 2202,2131 2197,2133 2192,2135 2187,2137 2182,2140 2177,2142 2172,2145 2168,2148 2163,2151 2159,2155 2155,2158 2151,2162 2147,2166 2144,2170 2140,2174 2137,2179 2134,2183 2131,2188 2129,2193 2126,2198 2124,2203 2122,2208 2120,2213 2119,2218 2117,2223 2116,2229 2116,2234 2115,2240 2115,2245 2115,2250 2115,2256 2115,2261 2116,2267 2116,2272 2117,2277 2119,2283 2120,2288 2122,2293 2124,2298 2126,2303 2129,2308 2131,2313 2134,2318 2137,2322 2140,2327 2144,2331 2147,2335 2151,2339 2155,2343 2159,2346 2163,2350 2168,2353 2172,2356 2177,2359 2182,2361 2187,2364 2192,2366 2197,2368 2202,2370 2207,2371 2212,2372 2218,2374 2223,2374 2229,2375 2234,2375 2240,2375 2245,2375 2250,2375 2256,2374 2261,2374 2267,2372 2272,2371 2277,2370 2282,2368 2287,2366 2292,2364 2297,2361 2302,2359 2307,2356 2311,2353 2316,2350 2320,2346 2324,2343 2328,2339 2332,2335 2335,2331 2339,2327 2342,2322 2345,2318 2348,2313 2350,2308 2353,2303 2355,2298 2357,2293 2359,2288 2360,2283 2362,2277 2363,2272 2363,2267 2364,2261 2364,2256 2365,2250 Z"/>
 <path fill="none" stroke="rgb(131,202,255)" stroke-linejoin="round" d="M 2365,2250 L 2364,2245 2364,2240 2363,2234 2363,2229 2362,2223 2360,2218 2359,2213 2357,2208 2355,2203 2353,2198 2350,2193 2348,2188 2345,2183 2342,2179 2339,2174 2335,2170 2332,2166 2328,2162 2324,2158 2320,2155 2316,2151 2311,2148 2307,2145 2302,2142 2297,2140 2292,2137 2287,2135 2282,2133 2277,2131 2272,2130 2267,2128 2261,2127 2256,2126 2250,2126 2245,2126 2240,2125 2234,2126 2229,2126 2223,2126 2218,2127 2212,2128 2207,2130 2202,2131 2197,2133 2192,2135 2187,2137 2182,2140 2177,2142 2172,2145 2168,2148 2163,2151 2159,2155 2155,2158 2151,2162 2147,2166 2144,2170 2140,2174 2137,2179 2134,2183 2131,2188 2129,2193 2126,2198 2124,2203 2122,2208 2120,2213 2119,2218 2117,2223 2116,2229 2116,2234 2115,2240 2115,2245 2115,2250 2115,2256 2115,2261 2116,2267 2116,2272 2117,2277 2119,2283 2120,2288 2122,2293 2124,2298 2126,2303 2129,2308 2131,2313 2134,2318 2137,2322 2140,2327 2144,2331 2147,2335 2151,2339 2155,2343 2159,2346 2163,2350 2168,2353 2172,2356 2177,2359 2182,2361 2187,2364 2192,2366 2197,2368 2202,2370 2207,2371 2212,2372 2218,2374 2223,2374 2229,2375 2234,2375 2240,2375 2245,2375 2250,2375 2256,2374 2261,2374 2267,2372 2272,2371 2277,2370 2282,2368 2287,2366 2292,2364 2297,2361 2302,2359 2307,2356 2311,2353 2316,2350 2320,2346 2324,2343 2328,2339 2332,2335 2335,2331 2339,2327 2342,2322 2345,2318 2348,2313 2350,2308 2353,2303 2355,2298 2357,2293 2359,2288 2360,2283 2362,2277 2363,2272 2363,2267 2364,2261 2364,2256 2365,2250 Z"/>
 <path fill="rgb(131,202,255)" stroke="none" d="M 5240,2167 L 5240,2162 5239,2156 5239,2151 5238,2145 5237,2140 5235,2135 5234,2130 5232,2124 5230,2119 5228,2114 5226,2109 5223,2105 5220,2100 5217,2095 5214,2091 5211,2087 5207,2083 5203,2079 5199,2075 5195,2071 5191,2068 5186,2065 5182,2062 5177,2059 5172,2056 5168,2054 5163,2052 5158,2050 5152,2048 5147,2046 5142,2045 5136,2044 5131,2043 5126,2043 5120,2042 5115,2042 5109,2042 5104,2043 5098,2043 5093,2044 5088,2045 5082,2046 5077,2048 5072,2050 5067,2052 5062,2054 5057,2056 5052,2059 5048,2062 5043,2065 5039,2068 5034,2071 5030,2075 5026,2079 5023,2083 5019,2087 5016,2091 5012,2095 5009,2100 5006,2105 5004,2109 5001,2114 4999,2119 4997,2124 4996,2130 4994,2135 4993,2140 4992,2145 4991,2151 4990,2156 4990,2162 4990,2167 4990,2173 4990,2178 4991,2183 4992,2189 4993,2194 4994,2199 4996,2205 4997,2210 4999,2215 5001,2220 5004,2225 5006,2230 5009,2234 5012,2239 5016,2243 5019,2247 5023,2252 5026,2255 5030,2259 5034,2263 5039,2266 5043,2269 5048,2273 5052,2275 5057,2278 5062,2280 5067,2283 5072,2285 5077,2286 5082,2288 5088,2289 5093,2290 5098,2291 5104,2292 5109,2292 5115,2292 5120,2292 5126,2292 5131,2291 5136,2290 5142,2289 5147,2288 5152,2286 5158,2285 5163,2283 5168,2280 5172,2278 5177,2275 5182,2273 5186,2269 5191,2266 5195,2263 5199,2259 5203,2255 5207,2252 5211,2247 5214,2243 5217,2239 5220,2234 5223,2230 5226,2225 5228,2220 5230,2215 5232,2210 5234,2205 5235,2199 5237,2194 5238,2189 5239,2183 5239,2178 5240,2173 5240,2167 Z"/>
 <path fill="none" stroke="rgb(131,202,255)" stroke-linejoin="round" d="M 5240,2167 L 5240,2162 5239,2156 5239,2151 5238,2145 5237,2140 5235,2135 5234,2130 5232,2124 5230,2119 5228,2114 5226,2109 5223,2105 5220,2100 5217,2095 5214,2091 5211,2087 5207,2083 5203,2079 5199,2075 5195,2071 5191,2068 5186,2065 5182,2062 5177,2059 5172,2056 5168,2054 5163,2052 5158,2050 5152,2048 5147,2046 5142,2045 5136,2044 5131,2043 5126,2043 5120,2042 5115,2042 5109,2042 5104,2043 5098,2043 5093,2044 5088,2045 5082,2046 5077,2048 5072,2050 5067,2052 5062,2054 5057,2056 5052,2059 5048,2062 5043,2065 5039,2068 5034,2071 5030,2075 5026,2079 5023,2083 5019,2087 5016,2091 5012,2095 5009,2100 5006,2105 5004,2109 5001,2114 4999,2119 4997,2124 4996,2130 4994,2135 4993,2140 4992,2145 4991,2151 4990,2156 4990,2162 4990,2167 4990,2173 4990,2178 4991,2183 4992,2189 4993,2194 4994,2199 4996,2205 4997,2210 4999,2215 5001,2220 5004,2225 5006,2230 5009,2234 5012,2239 5016,2243 5019,2247 5023,2252 5026,2255 5030,2259 5034,2263 5039,2266 5043,2269 5048,2273 5052,2275 5057,2278 5062,2280 5067,2283 5072,2285 5077,2286 5082,2288 5088,2289 5093,2290 5098,2291 5104,2292 5109,2292 5115,2292 5120,2292 5126,2292 5131,2291 5136,2290 5142,2289 5147,2288 5152,2286 5158,2285 5163,2283 5168,2280 5172,2278 5177,2275 5182,2273 5186,2269 5191,2266 5195,2263 5199,2259 5203,2255 5207,2252 5211,2247 5214,2243 5217,2239 5220,2234 5223,2230 5226,2225 5228,2220 5230,2215 5232,2210 5234,2205 5235,2199 5237,2194 5238,2189 5239,2183 5239,2178 5240,2173 5240,2167 Z"/>
 <path fill="rgb(131,202,255)" stroke="none" d="M 8114,2347 L 8114,2342 8114,2336 8113,2331 8112,2326 8111,2320 8110,2315 8108,2310 8106,2305 8104,2300 8102,2295 8100,2290 8097,2285 8094,2280 8091,2276 8088,2271 8085,2267 8081,2263 8077,2259 8073,2255 8069,2252 8065,2248 8061,2245 8056,2242 8051,2239 8047,2236 8042,2234 8037,2232 8032,2230 8027,2228 8021,2227 8016,2225 8011,2224 8005,2223 8000,2223 7994,2222 7989,2222 7984,2222 7978,2223 7973,2223 7967,2224 7962,2225 7957,2227 7951,2228 7946,2230 7941,2232 7936,2234 7931,2236 7926,2239 7922,2242 7917,2245 7913,2248 7909,2252 7905,2255 7901,2259 7897,2263 7893,2267 7890,2271 7887,2276 7884,2280 7881,2285 7878,2290 7876,2295 7874,2300 7872,2305 7870,2310 7868,2315 7867,2320 7866,2326 7865,2331 7864,2336 7864,2342 7864,2347 7864,2353 7864,2358 7865,2364 7866,2369 7867,2374 7868,2380 7870,2385 7872,2390 7874,2395 7876,2400 7878,2405 7881,2410 7884,2415 7887,2419 7890,2423 7893,2428 7897,2432 7901,2436 7905,2440 7909,2443 7913,2447 7917,2450 7922,2453 7926,2456 7931,2458 7936,2461 7941,2463 7946,2465 7951,2467 7957,2468 7962,2469 7967,2470 7973,2471 7978,2472 7984,2472 7989,2472 7994,2472 8000,2472 8005,2471 8011,2470 8016,2469 8021,2468 8027,2467 8032,2465 8037,2463 8042,2461 8047,2458 8051,2456 8056,2453 8061,2450 8065,2447 8069,2443 8073,2440 8077,2436 8081,2432 8085,2428 8088,2423 8091,2419 8094,2415 8097,2410 8100,2405 8102,2400 8104,2395 8106,2390 8108,2385 8110,2380 8111,2374 8112,2369 8113,2364 8114,2358 8114,2353 8114,2347 Z"/>
 <path fill="none" stroke="rgb(131,202,255)" stroke-linejoin="round" d="M 8114,2347 L 8114,2342 8114,2336 8113,2331 8112,2326 8111,2320 8110,2315 8108,2310 8106,2305 8104,2300 8102,2295 8100,2290 8097,2285 8094,2280 8091,2276 8088,2271 8085,2267 8081,2263 8077,2259 8073,2255 8069,2252 8065,2248 8061,2245 8056,2242 8051,2239 8047,2236 8042,2234 8037,2232 8032,2230 8027,2228 8021,2227 8016,2225 8011,2224 8005,2223 8000,2223 7994,2222 7989,2222 7984,2222 7978,2223 7973,2223 7967,2224 7962,2225 7957,2227 7951,2228 7946,2230 7941,2232 7936,2234 7931,2236 7926,2239 7922,2242 7917,2245 7913,2248 7909,2252 7905,2255 7901,2259 7897,2263 7893,2267 7890,2271 7887,2276 7884,2280 7881,2285 7878,2290 7876,2295 7874,2300 7872,2305 7870,2310 7868,2315 7867,2320 7866,2326 7865,2331 7864,2336 7864,2342 7864,2347 7864,2353 7864,2358 7865,2364 7866,2369 7867,2374 7868,2380 7870,2385 7872,2390 7874,2395 7876,2400 7878,2405 7881,2410 7884,2415 7887,2419 7890,2423 7893,2428 7897,2432 7901,2436 7905,2440 7909,2443 7913,2447 7917,2450 7922,2453 7926,2456 7931,2458 7936,2461 7941,2463 7946,2465 7951,2467 7957,2468 7962,2469 7967,2470 7973,2471 7978,2472 7984,2472 7989,2472 7994,2472 8000,2472 8005,2471 8011,2470 8016,2469 8021,2468 8027,2467 8032,2465 8037,2463 8042,2461 8047,2458 8051,2456 8056,2453 8061,2450 8065,2447 8069,2443 8073,2440 8077,2436 8081,2432 8085,2428 8088,2423 8091,2419 8094,2415 8097,2410 8100,2405 8102,2400 8104,2395 8106,2390 8108,2385 8110,2380 8111,2374 8112,2369 8113,2364 8114,2358 8114,2353 8114,2347 Z"/>
 <path fill="rgb(131,202,255)" stroke="none" d="M 10989,2564 L 10989,2558 10989,2553 10988,2547 10987,2542 10986,2537 10985,2531 10983,2526 10982,2521 10980,2516 10978,2511 10975,2506 10973,2501 10970,2497 10967,2492 10963,2488 10960,2483 10956,2479 10953,2475 10949,2472 10945,2468 10940,2464 10936,2461 10931,2458 10927,2455 10922,2453 10917,2450 10912,2448 10907,2446 10902,2444 10897,2443 10891,2442 10886,2441 10881,2440 10875,2439 10870,2439 10864,2439 10859,2439 10853,2439 10848,2440 10843,2441 10837,2442 10832,2443 10827,2444 10821,2446 10816,2448 10811,2450 10807,2453 10802,2455 10797,2458 10793,2461 10788,2464 10784,2468 10780,2472 10776,2475 10772,2479 10768,2483 10765,2488 10762,2492 10759,2497 10756,2501 10753,2506 10751,2511 10749,2516 10747,2521 10745,2526 10744,2531 10742,2537 10741,2542 10740,2547 10740,2553 10739,2558 10739,2564 10739,2569 10740,2575 10740,2580 10741,2585 10742,2591 10744,2596 10745,2601 10747,2606 10749,2612 10751,2616 10753,2621 10756,2626 10759,2631 10762,2635 10765,2640 10768,2644 10772,2648 10776,2652 10780,2656 10784,2659 10788,2663 10793,2666 10797,2669 10802,2672 10807,2675 10811,2677 10816,2679 10821,2681 10827,2683 10832,2684 10837,2686 10843,2687 10848,2688 10853,2688 10859,2689 10864,2689 10870,2689 10875,2688 10881,2688 10886,2687 10891,2686 10897,2684 10902,2683 10907,2681 10912,2679 10917,2677 10922,2675 10927,2672 10931,2669 10936,2666 10940,2663 10945,2659 10949,2656 10953,2652 10956,2648 10960,2644 10963,2640 10967,2635 10970,2631 10973,2626 10975,2621 10978,2616 10980,2612 10982,2606 10983,2601 10985,2596 10986,2591 10987,2585 10988,2580 10989,2575 10989,2569 10989,2564 Z"/>
 <path fill="none" stroke="rgb(131,202,255)" stroke-linejoin="round" d="M 10989,2564 L 10989,2558 10989,2553 10988,2547 10987,2542 10986,2537 10985,2531 10983,2526 10982,2521 10980,2516 10978,2511 10975,2506 10973,2501 10970,2497 10967,2492 10963,2488 10960,2483 10956,2479 10953,2475 10949,2472 10945,2468 10940,2464 10936,2461 10931,2458 10927,2455 10922,2453 10917,2450 10912,2448 10907,2446 10902,2444 10897,2443 10891,2442 10886,2441 10881,2440 10875,2439 10870,2439 10864,2439 10859,2439 10853,2439 10848,2440 10843,2441 10837,2442 10832,2443 10827,2444 10821,2446 10816,2448 10811,2450 10807,2453 10802,2455 10797,2458 10793,2461 10788,2464 10784,2468 10780,2472 10776,2475 10772,2479 10768,2483 10765,2488 10762,2492 10759,2497 10756,2501 10753,2506 10751,2511 10749,2516 10747,2521 10745,2526 10744,2531 10742,2537 10741,2542 10740,2547 10740,2553 10739,2558 10739,2564 10739,2569 10740,2575 10740,2580 10741,2585 10742,2591 10744,2596 10745,2601 10747,2606 10749,2612 10751,2616 10753,2621 10756,2626 10759,2631 10762,2635 10765,2640 10768,2644 10772,2648 10776,2652 10780,2656 10784,2659 10788,2663 10793,2666 10797,2669 10802,2672 10807,2675 10811,2677 10816,2679 10821,2681 10827,2683 10832,2684 10837,2686 10843,2687 10848,2688 10853,2688 10859,2689 10864,2689 10870,2689 10875,2688 10881,2688 10886,2687 10891,2686 10897,2684 10902,2683 10907,2681 10912,2679 10917,2677 10922,2675 10927,2672 10931,2669 10936,2666 10940,2663 10945,2659 10949,2656 10953,2652 10956,2648 10960,2644 10963,2640 10967,2635 10970,2631 10973,2626 10975,2621 10978,2616 10980,2612 10982,2606 10983,2601 10985,2596 10986,2591 10987,2585 10988,2580 10989,2575 10989,2569 10989,2564 Z"/>
 <path fill="rgb(131,202,255)" stroke="none" d="M 13864,3040 L 13864,3035 13864,3029 13863,3024 13863,3018 13862,3013 13860,3008 13859,3003 13857,2997 13855,2992 13853,2987 13850,2982 13848,2978 13845,2973 13842,2968 13839,2964 13835,2960 13832,2956 13828,2952 13824,2948 13820,2944 13816,2941 13811,2938 13807,2935 13802,2932 13797,2929 13792,2927 13787,2925 13782,2923 13777,2921 13772,2919 13767,2918 13761,2917 13756,2916 13750,2916 13745,2915 13739,2915 13734,2915 13729,2916 13723,2916 13718,2917 13712,2918 13707,2919 13702,2921 13697,2923 13692,2925 13687,2927 13682,2929 13677,2932 13672,2935 13668,2938 13663,2941 13659,2944 13655,2948 13651,2952 13647,2956 13644,2960 13640,2964 13637,2968 13634,2973 13631,2978 13629,2982 13626,2987 13624,2992 13622,2997 13620,3003 13619,3008 13617,3013 13616,3018 13616,3024 13615,3029 13615,3035 13614,3040 13615,3046 13615,3051 13616,3056 13616,3062 13617,3067 13619,3073 13620,3078 13622,3083 13624,3088 13626,3093 13629,3098 13631,3103 13634,3107 13637,3112 13640,3116 13644,3121 13647,3125 13651,3129 13655,3132 13659,3136 13663,3139 13668,3143 13672,3146 13677,3148 13682,3151 13687,3153 13692,3156 13697,3158 13702,3159 13707,3161 13712,3162 13718,3163 13723,3164 13729,3165 13734,3165 13739,3165 13745,3165 13750,3165 13756,3164 13761,3163 13767,3162 13772,3161 13777,3159 13782,3158 13787,3156 13792,3153 13797,3151 13802,3148 13807,3146 13811,3143 13816,3139 13820,3136 13824,3132 13828,3129 13832,3125 13835,3121 13839,3116 13842,3112 13845,3107 13848,3103 13850,3098 13853,3093 13855,3088 13857,3083 13859,3078 13860,3073 13862,3067 13863,3062 13863,3056 13864,3051 13864,3046 13864,3040 Z"/>
 <path fill="none" stroke="rgb(131,202,255)" stroke-linejoin="round" d="M 13864,3040 L 13864,3035 13864,3029 13863,3024 13863,3018 13862,3013 13860,3008 13859,3003 13857,2997 13855,2992 13853,2987 13850,2982 13848,2978 13845,2973 13842,2968 13839,2964 13835,2960 13832,2956 13828,2952 13824,2948 13820,2944 13816,2941 13811,2938 13807,2935 13802,2932 13797,2929 13792,2927 13787,2925 13782,2923 13777,2921 13772,2919 13767,2918 13761,2917 13756,2916 13750,2916 13745,2915 13739,2915 13734,2915 13729,2916 13723,2916 13718,2917 13712,2918 13707,2919 13702,2921 13697,2923 13692,2925 13687,2927 13682,2929 13677,2932 13672,2935 13668,2938 13663,2941 13659,2944 13655,2948 13651,2952 13647,2956 13644,2960 13640,2964 13637,2968 13634,2973 13631,2978 13629,2982 13626,2987 13624,2992 13622,2997 13620,3003 13619,3008 13617,3013 13616,3018 13616,3024 13615,3029 13615,3035 13614,3040 13615,3046 13615,3051 13616,3056 13616,3062 13617,3067 13619,3073 13620,3078 13622,3083 13624,3088 13626,3093 13629,3098 13631,3103 13634,3107 13637,3112 13640,3116 13644,3121 13647,3125 13651,3129 13655,3132 13659,3136 13663,3139 13668,3143 13672,3146 13677,3148 13682,3151 13687,3153 13692,3156 13697,3158 13702,3159 13707,3161 13712,3162 13718,3163 13723,3164 13729,3165 13734,3165 13739,3165 13745,3165 13750,3165 13756,3164 13761,3163 13767,3162 13772,3161 13777,3159 13782,3158 13787,3156 13792,3153 13797,3151 13802,3148 13807,3146 13811,3143 13816,3139 13820,3136 13824,3132 13828,3129 13832,3125 13835,3121 13839,3116 13842,3112 13845,3107 13848,3103 13850,3098 13853,3093 13855,3088 13857,3083 13859,3078 13860,3073 13862,3067 13863,3062 13863,3056 13864,3051 13864,3046 13864,3040 Z"/>
 <text class="TextShape"><tspan class="TextParagraph" font-family="Liberation Sans, sans-serif" font-size="353px" font-weight="400"><tspan class="TextPosition" x="1870" y="6418"><tspan fill="rgb(0,0,0)" stroke="none">1000</tspan></tspan></tspan></text>
 <text class="TextShape"><tspan class="TextParagraph" font-family="Liberation Sans, sans-serif" font-size="353px" font-weight="400"><tspan class="TextPosition" x="4652" y="6418"><tspan fill="rgb(0,0,0)" stroke="none">10000</tspan></tspan></tspan></text>
 <text class="TextShape"><tspan class="TextParagraph" font-family="Liberation Sans, sans-serif" font-size="353px" font-weight="400"><tspan class="TextPosition" x="7434" y="6418"><tspan fill="rgb(0,0,0)" stroke="none">100000</tspan></tspan></tspan></text>
 <text class="TextShape"><tspan class="TextParagraph" font-family="Liberation Sans, sans-serif" font-size="353px" font-weight="400"><tspan class="TextPosition" x="10217" y="6418"><tspan fill="rgb(0,0,0)" stroke="none">1000000</tspan></tspan></tspan></text>
 <text class="TextShape"><tspan class="TextParagraph" font-family="Liberation Sans, sans-serif" font-size="353px" font-weight="400"><tspan class="TextPosition" x="12998" y="6418"><tspan fill="rgb(0,0,0)" stroke="none">10000000</tspan></tspan></tspan></text>
 <text class="TextShape"><tspan class="TextParagraph" font-family="Liberation Sans, sans-serif" font-size="353px" font-weight="400"><tspan class="TextPosition" x="1329" y="5971"><tspan fill="rgb(0,0,0)" stroke="none">0.00</tspan></tspan></tspan></text>
 <text class="TextShape"><tspan class="TextParagraph" font-family="Liberation Sans, sans-serif" font-size="353px" font-weight="400"><tspan class="TextPosition" x="1329" y="5545"><tspan fill="rgb(0,0,0)" stroke="none">0.50</tspan></tspan></tspan></text>
 <text class="TextShape"><tspan class="TextParagraph" font-family="Liberation Sans, sans-serif" font-size="353px" font-weight="400"><tspan class="TextPosition" x="1329" y="5120"><tspan fill="rgb(0,0,0)" stroke="none">1.00</tspan></tspan></tspan></text>
 <text class="TextShape"><tspan class="TextParagraph" font-family="Liberation Sans, sans-serif" font-size="353px" font-weight="400"><tspan class="TextPosition" x="1329" y="4694"><tspan fill="rgb(0,0,0)" stroke="none">1.50</tspan></tspan></tspan></text>
 <text class="TextShape"><tspan class="TextParagraph" font-family="Liberation Sans, sans-serif" font-size="353px" font-weight="400"><tspan class="TextPosition" x="1329" y="4269"><tspan fill="rgb(0,0,0)" stroke="none">2.00</tspan></tspan></tspan></text>
 <text class="TextShape"><tspan class="TextParagraph" font-family="Liberation Sans, sans-serif" font-size="353px" font-weight="400"><tspan class="TextPosition" x="1329" y="3844"><tspan fill="rgb(0,0,0)" stroke="none">2.50</tspan></tspan></tspan></text>
 <text class="TextShape"><tspan class="TextParagraph" font-family="Liberation Sans, sans-serif" font-size="353px" font-weight="400"><tspan class="TextPosition" x="1329" y="3418"><tspan fill="rgb(0,0,0)" stroke="none">3.00</tspan></tspan></tspan></text>
 <text class="TextShape"><tspan class="TextParagraph" font-family="Liberation Sans, sans-serif" font-size="353px" font-weight="400"><tspan class="TextPosition" x="1329" y="2993"><tspan fill="rgb(0,0,0)" stroke="none">3.50</tspan></tspan></tspan></text>
 <text class="TextShape"><tspan class="TextParagraph" font-family="Liberation Sans, sans-serif" font-size="353px" font-weight="400"><tspan class="TextPosition" x="1329" y="2567"><tspan fill="rgb(0,0,0)" stroke="none">4.00</tspan></tspan></tspan></text>
 <text class="TextShape"><tspan class="TextParagraph" font-family="Liberation Sans, sans-serif" font-size="353px" font-weight="400"><tspan class="TextPosition" x="1329" y="2143"><tspan fill="rgb(0,0,0)" stroke="none">4.50</tspan></tspan></tspan></text>
 <text class="TextShape"><tspan class="TextParagraph" font-family="Liberation Sans, sans-serif" font-size="353px" font-weight="400"><tspan class="TextPosition" x="1329" y="1718"><tspan fill="rgb(0,0,0)" stroke="none">5.00</tspan></tspan></tspan></text>
 <text class="TextShape"><tspan class="TextParagraph" font-family="Segoe UI" font-size="459px" font-weight="700"><tspan class="TextPosition" x="2877" y="940"><tspan fill="rgb(0,0,0)" stroke="none">Full refill/teardown in bulks of 1000 items</tspan></tspan></tspan></text>
 <path fill="none" stroke="rgb(0,69,134)" stroke-width="80" stroke-linejoin="round" d="M 667,7993 L 1467,7993"/>
 <path fill="rgb(0,69,134)" stroke="none" d="M 961,7888 L 961,8099 1172,8099 1172,7888 961,7888 Z"/>
 <path fill="none" stroke="rgb(0,69,134)" stroke-linejoin="round" d="M 961,7888 L 961,8099 1172,8099 1172,7888 961,7888 Z"/>
 <path fill="none" stroke="rgb(255,66,14)" stroke-width="80" stroke-linejoin="round" d="M 7568,7993 L 8368,7993"/>
 <path fill="rgb(255,66,14)" stroke="none" d="M 7862,7993 L 7968,8099 8073,7993 7968,7888 7862,7993 Z"/>
 <path fill="none" stroke="rgb(255,66,14)" stroke-linejoin="round" d="M 7862,7993 L 7968,8099 8073,7993 7968,7888 7862,7993 Z"/>
 <path fill="none" stroke="rgb(255,211,32)" stroke-width="80" stroke-linejoin="round" d="M 667,8491 L 1467,8491"/>
 <path fill="rgb(255,211,32)" stroke="none" d="M 961,8386 L 961,8597 1172,8597 1172,8386 961,8386 Z"/>
 <path fill="none" stroke="rgb(255,211,32)" stroke-linejoin="round" d="M 961,8386 L 961,8597 1172,8597 1172,8386 961,8386 Z"/>
 <path fill="none" stroke="rgb(87,157,28)" stroke-width="80" stroke-linejoin="round" d="M 7568,8491 L 8368,8491"/>
 <path fill="rgb(87,157,28)" stroke="none" d="M 7862,8597 L 8073,8597 7968,8386 7862,8597 Z"/>
 <path fill="none" stroke="rgb(87,157,28)" stroke-linejoin="round" d="M 7862,8597 L 8073,8597 7968,8386 7862,8597 Z"/>
 <path fill="none" stroke="rgb(126,0,33)" stroke-width="80" stroke-linejoin="round" d="M 667,8989 L 1467,8989"/>
 <path fill="rgb(126,0,33)" stroke="none" d="M 961,8884 L 961,9095 1172,8989 961,8884 Z"/>
 <path fill="none" stroke="rgb(126,0,33)" stroke-linejoin="round" d="M 961,8884 L 961,9095 1172,8989 961,8884 Z"/>
 <path fill="none" stroke="rgb(131,202,255)" stroke-width="80" stroke-linejoin="round" d="M 7568,8989 L 8368,8989"/>
 <path fill="rgb(131,202,255)" stroke="none" d="M 8073,8989 L 8073,8984 8073,8980 8072,8975 8071,8971 8070,8966 8069,8962 8068,8957 8067,8953 8065,8949 8063,8944 8061,8940 8059,8936 8056,8932 8054,8928 8051,8925 8048,8921 8045,8918 8042,8914 8039,8911 8035,8908 8032,8905 8028,8903 8024,8900 8020,8898 8016,8895 8012,8893 8008,8892 8004,8890 7999,8888 7995,8887 7990,8886 7986,8885 7981,8884 7977,8884 7972,8884 7968,8884 7963,8884 7958,8884 7954,8884 7949,8885 7945,8886 7940,8887 7936,8888 7931,8890 7927,8892 7923,8893 7919,8895 7915,8898 7911,8900 7907,8903 7903,8905 7900,8908 7896,8911 7893,8914 7890,8918 7887,8921 7884,8925 7881,8928 7879,8932 7876,8936 7874,8940 7872,8944 7870,8949 7868,8953 7867,8957 7866,8962 7865,8966 7864,8971 7863,8975 7862,8980 7862,8984 7862,8989 7862,8994 7862,8998 7863,9003 7864,9007 7865,9012 7866,9016 7867,9021 7868,9025 7870,9029 7872,9034 7874,9038 7876,9042 7879,9046 7881,9050 7884,9053 7887,9057 7890,9060 7893,9064 7896,9067 7900,9070 7903,9073 7907,9075 7911,9078 7915,9080 7919,9083 7923,9085 7927,9086 7931,9088 7936,9090 7940,9091 7945,9092 7949,9093 7954,9094 7958,9094 7963,9094 7968,9095 7972,9094 7977,9094 7981,9094 7986,9093 7990,9092 7995,9091 7999,9090 8004,9088 8008,9086 8012,9085 8016,9083 8020,9080 8024,9078 8028,9075 8032,9073 8035,9070 8039,9067 8042,9064 8045,9060 8048,9057 8051,9053 8054,9050 8056,9046 8059,9042 8061,9038 8063,9034 8065,9029 8067,9025 8068,9021 8069,9016 8070,9012 8071,9007 8072,9003 8073,8998 8073,8994 8073,8989 Z"/>
 <path fill="none" stroke="rgb(131,202,255)" stroke-linejoin="round" d="M 8073,8989 L 8073,8984 8073,8980 8072,8975 8071,8971 8070,8966 8069,8962 8068,8957 8067,8953 8065,8949 8063,8944 8061,8940 8059,8936 8056,8932 8054,8928 8051,8925 8048,8921 8045,8918 8042,8914 8039,8911 8035,8908 8032,8905 8028,8903 8024,8900 8020,8898 8016,8895 8012,8893 8008,8892 8004,8890 7999,8888 7995,8887 7990,8886 7986,8885 7981,8884 7977,8884 7972,8884 7968,8884 7963,8884 7958,8884 7954,8884 7949,8885 7945,8886 7940,8887 7936,8888 7931,8890 7927,8892 7923,8893 7919,8895 7915,8898 7911,8900 7907,8903 7903,8905 7900,8908 7896,8911 7893,8914 7890,8918 7887,8921 7884,8925 7881,8928 7879,8932 7876,8936 7874,8940 7872,8944 7870,8949 7868,8953 7867,8957 7866,8962 7865,8966 7864,8971 7863,8975 7862,8980 7862,8984 7862,8989 7862,8994 7862,8998 7863,9003 7864,9007 7865,9012 7866,9016 7867,9021 7868,9025 7870,9029 7872,9034 7874,9038 7876,9042 7879,9046 7881,9050 7884,9053 7887,9057 7890,9060 7893,9064 7896,9067 7900,9070 7903,9073 7907,9075 7911,9078 7915,9080 7919,9083 7923,9085 7927,9086 7931,9088 7936,9090 7940,9091 7945,9092 7949,9093 7954,9094 7958,9094 7963,9094 7968,9095 7972,9094 7977,9094 7981,9094 7986,9093 7990,9092 7995,9091 7999,9090 8004,9088 8008,9086 8012,9085 8016,9083 8020,9080 8024,9078 8028,9075 8032,9073 8035,9070 8039,9067 8042,9064 8045,9060 8048,9057 8051,9053 8054,9050 8056,9046 8059,9042 8061,9038 8063,9034 8065,9029 8067,9025 8068,9021 8069,9016 8070,9012 8071,9007 8072,9003 8073,8998 8073,8994 8073,8989 Z"/>
 <text class="TextShape"><tspan class="TextParagraph" font-family="Liberation Sans, sans-serif" font-size="353px" font-weight="400"><tspan class="TextPosition" x="1567" y="8113"><tspan fill="rgb(0,0,0)" stroke="none">TeardownSet::delete_range()           </tspan></tspan></tspan></text>
 <text class="TextShape"><tspan class="TextParagraph" font-family="Liberation Sans, sans-serif" font-size="353px" font-weight="400"><tspan class="TextPosition" x="8468" y="8113"><tspan fill="rgb(0,0,0)" stroke="none">TeardownMap::delete_range()         </tspan></tspan></tspan></text>
 <text class="TextShape"><tspan class="TextParagraph" font-family="Liberation Sans, sans-serif" font-size="353px" font-weight="400"><tspan class="TextPosition" x="1567" y="8611"><tspan fill="rgb(0,0,0)" stroke="none">TeardownSet::filter_range()         </tspan></tspan></tspan></text>
 <text class="TextShape"><tspan class="TextParagraph" font-family="Liberation Sans, sans-serif" font-size="353px" font-weight="400"><tspan class="TextPosition" x="8468" y="8611"><tspan fill="rgb(0,0,0)" stroke="none">IntervalTeardownSet::delete_overlap()</tspan></tspan></tspan></text>
 <text class="TextShape"><tspan class="TextParagraph" font-family="Liberation Sans, sans-serif" font-size="353px" font-weight="400"><tspan class="TextPosition" x="1567" y="9109"><tspan fill="rgb(0,0,0)" stroke="none">IntervalTeardownMap::delete_overlap()</tspan></tspan></tspan></text>
 <text class="TextShape"><tspan class="TextParagraph" font-family="Liberation Sans, sans-serif" font-size="353px" font-weight="400"><tspan class="TextPosition" x="8468" y="9109"><tspan fill="rgb(0,0,0)" stroke="none">IntervalTeardownSet::filter_overlap()</tspan></tspan></tspan></text>
 <text class="TextShape"><tspan class="TextParagraph" font-family="Segoe UI" font-size="318px" font-weight="700"><tspan class="TextPosition" x="7787" y="7102"><tspan fill="rgb(0,0,0)" stroke="none">N</tspan></tspan></tspan></text>
 <text class="TextShape" transform="translate(860,4914) rotate(-90) translate(-860,-4914)"><tspan class="TextParagraph" font-family="Segoe UI" font-size="318px" font-weight="700"><tspan class="TextPosition" x="860" y="4914"><tspan fill="rgb(0,0,0)" stroke="none">Times slower</tspan></tspan></tspan></text>
</svg>