<?xml version="1.0" encoding="UTF-8"?>
<!DOCTYPE svg PUBLIC "-//W3C//DTD SVG 1.1//EN" "http://www.w3.org/Graphics/SVG/1.1/DTD/svg11.dtd">
<svg width="148mm" height="95mm" viewBox="0 0 14800 9500" version="1.1" xmlns="http://www.w3.org/2000/svg" stroke-width="28.222" stroke-linejoin="round" xml:space="preserve">
 <path fill="rgb(255,255,255)" stroke="none" d="M 7387,9474 L -5,9474 -5,0 14778,0 14778,9474 7387,9474 Z"/>
 <path fill="none" stroke="rgb(0,0,0)" stroke-linejoin="round" d="M 7387,9474 L -5,9474 -5,0 14778,0 14778,9474 7387,9474 Z"/>
 <path fill="none" stroke="rgb(179,179,179)" stroke-linejoin="round" d="M 7990,5851 L 2240,5851 2240,1598 13740,1598 13740,5851 7990,5851 Z"/>
 <path fill="none" stroke="rgb(179,179,179)" stroke-linejoin="round" d="M 13739,5850 L 2240,5850"/>
 <path fill="none" stroke="rgb(179,179,179)" stroke-linejoin="round" d="M 13739,5424 L 2240,5424"/>
 <path fill="none" stroke="rgb(179,179,179)" stroke-linejoin="round" d="M 13739,4999 L 2240,4999"/>
 <path fill="none" stroke="rgb(179,179,179)" stroke-linejoin="round" d="M 13739,4574 L 2240,4574"/>
 <path fill="none" stroke="rgb(179,179,179)" stroke-linejoin="round" d="M 13739,4149 L 2240,4149"/>
 <path fill="none" stroke="rgb(179,179,179)" stroke-linejoin="round" d="M 13739,3724 L 2240,3724"/>
 <path fill="none" stroke="rgb(179,179,179)" stroke-linejoin="round" d="M 13739,3298 L 2240,3298"/>
 <path fill="none" stroke="rgb(179,179,179)" stroke-linejoin="round" d="M 13739,2873 L 2240,2873"/>
 <path fill="none" stroke="rgb(179,179,179)" stroke-linejoin="round" d="M 13739,2447 L 2240,2447"/>
 <path fill="none" stroke="rgb(179,179,179)" stroke-linejoin="round" d="M 13739,2022 L 2240,2022"/>
 <path fill="none" stroke="rgb(179,179,179)" stroke-linejoin="round" d="M 13739,1597 L 2240,1597"/>
 <path fill="none" stroke="rgb(179,179,179)" stroke-linejoin="round" d="M 2240,6000 L 2240,5850"/>
 <path fill="none" stroke="rgb(179,179,179)" stroke-linejoin="round" d="M 2240,6000 L 2240,5850"/>
 <path fill="none" stroke="rgb(179,179,179)" stroke-linejoin="round" d="M 4156,6000 L 4156,5850"/>
 <path fill="none" stroke="rgb(179,179,179)" stroke-linejoin="round" d="M 4156,6000 L 4156,5850"/>
 <path fill="none" stroke="rgb(179,179,179)" stroke-linejoin="round" d="M 6073,6000 L 6073,5850"/>
 <path fill="none" stroke="rgb(179,179,179)" stroke-linejoin="round" d="M 6073,6000 L 6073,5850"/>
 <path fill="none" stroke="rgb(179,179,179)" stroke-linejoin="round" d="M 7989,6000 L 7989,5850"/>
 <path fill="none" stroke="rgb(179,179,179)" stroke-linejoin="round" d="M 7989,6000 L 7989,5850"/>
 <path fill="none" stroke="rgb(179,179,179)" stroke-linejoin="round" d="M 9906,6000 L 9906,5850"/>
 <path fill="none" stroke="rgb(179,179,179)" stroke-linejoin="round" d="M 9906,6000 L 9906,5850"/>
 <path fill="none" stroke="rgb(179,179,179)" stroke-linejoin="round" d="M 11823,6000 L 11823,5850"/>
 <path fill="none" stroke="rgb(179,179,179)" stroke-linejoin="round" d="M 11823,6000 L 11823,5850"/>
 <path fill="none" stroke="rgb(179,179,179)" stroke-linejoin="round" d="M 13739,6000 L 13739,5850"/>
 <path fill="none" stroke="rgb(179,179,179)" stroke-linejoin="round" d="M 13739,6000 L 13739,5850"/>
 <path fill="none" stroke="rgb(179,179,179)" stroke-linejoin="round" d="M 2240,5850 L 13739,5850"/>
 <path fill="none" stroke="rgb(179,179,179)" stroke-linejoin="round" d="M 2090,5850 L 2240,5850"/>
 <path fill="none" stroke="rgb(179,179,179)" stroke-linejoin="round" d="M 2090,5850 L 2240,5850"/>
 <path fill="none" stroke="rgb(179,179,179)" stroke-linejoin="round" d="M 2090,5424 L 2240,5424"/>
 <path fill="none" stroke="rgb(179,179,179)" stroke-linejoin="round" d="M 2090,5424 L 2240,5424"/>
 <path fill="none" stroke="rgb(179,179,179)" stroke-linejoin="round" d="M 2090,4999 L 2240,4999"/>
 <path fill="none" stroke="rgb(179,179,179)" stroke-linejoin="round" d="M 2090,4999 L 2240,4999"/>
 <path fill="none" stroke="rgb(179,179,179)" stroke-linejoin="round" d="M 2090,4574 L 2240,4574"/>
 <path fill="none" stroke="rgb(179,179,179)" stroke-linejoin="round" d="M 2090,4574 L 2240,4574"/>
 <path fill="none" stroke="rgb(179,179,179)" stroke-linejoin="round" d="M 2090,4149 L 2240,4149"/>
 <path fill="none" stroke="rgb(179,179,179)" stroke-linejoin="round" d="M 2090,4149 L 2240,4149"/>
 <path fill="none" stroke="rgb(179,179,179)" stroke-linejoin="round" d="M 2090,3724 L 2240,3724"/>
 <path fill="none" stroke="rgb(179,179,179)" stroke-linejoin="round" d="M 2090,3724 L 2240,3724"/>
 <path fill="none" stroke="rgb(179,179,179)" stroke-linejoin="round" d="M 2090,3298 L 2240,3298"/>
 <path fill="none" stroke="rgb(179,179,179)" stroke-linejoin="round" d="M 2090,3298 L 2240,3298"/>
 <path fill="none" stroke="rgb(179,179,179)" stroke-linejoin="round" d="M 2090,2873 L 2240,2873"/>
 <path fill="none" stroke="rgb(179,179,179)" stroke-linejoin="round" d="M 2090,2873 L 2240,2873"/>
 <path fill="none" stroke="rgb(179,179,179)" stroke-linejoin="round" d="M 2090,2447 L 2240,2447"/>
 <path fill="none" stroke="rgb(179,179,179)" stroke-linejoin="round" d="M 2090,2447 L 2240,2447"/>
 <path fill="none" stroke="rgb(179,179,179)" stroke-linejoin="round" d="M 2090,2022 L 2240,2022"/>
 <path fill="none" stroke="rgb(179,179,179)" stroke-linejoin="round" d="M 2090,2022 L 2240,2022"/>
 <path fill="none" stroke="rgb(179,179,179)" stroke-linejoin="round" d="M 2090,1597 L 2240,1597"/>
 <path fill="none" stroke="rgb(179,179,179)" stroke-linejoin="round" d="M 2090,1597 L 2240,1597"/>
 <path fill="none" stroke="rgb(179,179,179)" stroke-linejoin="round" d="M 2240,5850 L 2240,1597"/>
 <path fill="none" stroke="rgb(0,69,134)" stroke-width="80" stroke-linejoin="round" d="M 2240,4999 L 4156,4999 6073,4999 7989,4999 9906,4999 11823,4999 13739,4999"/>
 <path fill="rgb(0,69,134)" stroke="none" d="M 2115,4874 L 2115,5124 2365,5124 2365,4874 2115,4874 Z"/>
 <path fill="none" stroke="rgb(0,69,134)" stroke-linejoin="round" d="M 2115,4874 L 2115,5124 2365,5124 2365,4874 2115,4874 Z"/>
 <path fill="rgb(0,69,134)" stroke="none" d="M 4031,4874 L 4031,5124 4281,5124 4281,4874 4031,4874 Z"/>
 <path fill="none" stroke="rgb(0,69,134)" stroke-linejoin="round" d="M 4031,4874 L 4031,5124 4281,5124 4281,4874 4031,4874 Z"/>
 <path fill="rgb(0,69,134)" stroke="none" d="M 5948,4874 L 5948,5124 6198,5124 6198,4874 5948,4874 Z"/>
 <path fill="none" stroke="rgb(0,69,134)" stroke-linejoin="round" d="M 5948,4874 L 5948,5124 6198,5124 6198,4874 5948,4874 Z"/>
 <path fill="rgb(0,69,134)" stroke="none" d="M 7864,4874 L 7864,5124 8114,5124 8114,4874 7864,4874 Z"/>
 <path fill="none" stroke="rgb(0,69,134)" stroke-linejoin="round" d="M 7864,4874 L 7864,5124 8114,5124 8114,4874 7864,4874 Z"/>
 <path fill="rgb(0,69,134)" stroke="none" d="M 9781,4874 L 9781,5124 10031,5124 10031,4874 9781,4874 Z"/>
 <path fill="none" stroke="rgb(0,69,134)" stroke-linejoin="round" d="M 9781,4874 L 9781,5124 10031,5124 10031,4874 9781,4874 Z"/>
 <path fill="rgb(0,69,134)" stroke="none" d="M 11698,4874 L 11698,5124 11948,5124 11948,4874 11698,4874 Z"/>
 <path fill="none" stroke="rgb(0,69,134)" stroke-linejoin="round" d="M 11698,4874 L 11698,5124 11948,5124 11948,4874 11698,4874 Z"/>
 <path fill="rgb(0,69,134)" stroke="none" d="M 13614,4874 L 13614,5124 13864,5124 13864,4874 13614,4874 Z"/>
 <path fill="none" stroke="rgb(0,69,134)" stroke-linejoin="round" d="M 13614,4874 L 13614,5124 13864,5124 13864,4874 13614,4874 Z"/>
 <path fill="none" stroke="rgb(255,66,14)" stroke-width="80" stroke-linejoin="round" d="M 2240,4999 L 4156,4930 6073,4898 7989,4944 9906,4929 11823,4752 13739,4844"/>
 <path fill="rgb(255,66,14)" stroke="none" d="M 2115,4999 L 2240,5124 2365,4999 2240,4874 2115,4999 Z"/>
 <path fill="none" stroke="rgb(255,66,14)" stroke-linejoin="round" d="M 2115,4999 L 2240,5124 2365,4999 2240,4874 2115,4999 Z"/>
 <path fill="rgb(255,66,14)" stroke="none" d="M 4031,4930 L 4156,5055 4281,4930 4156,4805 4031,4930 Z"/>
 <path fill="none" stroke="rgb(255,66,14)" stroke-linejoin="round" d="M 4031,4930 L 4156,5055 4281,4930 4156,4805 4031,4930 Z"/>
 <path fill="rgb(255,66,14)" stroke="none" d="M 5948,4898 L 6073,5023 6198,4898 6073,4773 5948,4898 Z"/>
 <path fill="none" stroke="rgb(255,66,14)" stroke-linejoin="round" d="M 5948,4898 L 6073,5023 6198,4898 6073,4773 5948,4898 Z"/>
 <path fill="rgb(255,66,14)" stroke="none" d="M 7864,4944 L 7989,5069 8114,4944 7989,4819 7864,4944 Z"/>
 <path fill="none" stroke="rgb(255,66,14)" stroke-linejoin="round" d="M 7864,4944 L 7989,5069 8114,4944 7989,4819 7864,4944 Z"/>
 <path fill="rgb(255,66,14)" stroke="none" d="M 9781,4929 L 9906,5054 10031,4929 9906,4804 9781,4929 Z"/>
 <path fill="none" stroke="rgb(255,66,14)" stroke-linejoin="round" d="M 9781,4929 L 9906,5054 10031,4929 9906,4804 9781,4929 Z"/>
 <path fill="rgb(255,66,14)" stroke="none" d="M 11698,4752 L 11823,4877 11948,4752 11823,4628 11698,4752 Z"/>
 <path fill="none" stroke="rgb(255,66,14)" stroke-linejoin="round" d="M 11698,4752 L 11823,4877 11948,4752 11823,4628 11698,4752 Z"/>
 <path fill="rgb(255,66,14)" stroke="none" d="M 13614,4844 L 13739,4969 13864,4844 13739,4720 13614,4844 Z"/>
 <path fill="none" stroke="rgb(255,66,14)" stroke-linejoin="round" d="M 13614,4844 L 13739,4969 13864,4844 13739,4720 13614,4844 Z"/>
 <path fill="none" stroke="rgb(255,211,32)" stroke-width="80" stroke-linejoin="round" d="M 2240,4440 L 4156,4410 6073,4341 7989,4787 9906,4834 11823,4848 13739,4893"/>
 <path fill="rgb(255,211,32)" stroke="none" d="M 2115,4315 L 2115,4565 2365,4565 2365,4315 2115,4315 Z"/>
 <path fill="none" stroke="rgb(255,211,32)" stroke-linejoin="round" d="M 2115,4315 L 2115,4565 2365,4565 2365,4315 2115,4315 Z"/>
 <path fill="rgb(255,211,32)" stroke="none" d="M 4031,4285 L 4031,4535 4281,4535 4281,4285 4031,4285 Z"/>
 <path fill="none" stroke="rgb(255,211,32)" stroke-linejoin="round" d="M 4031,4285 L 4031,4535 4281,4535 4281,4285 4031,4285 Z"/>
 <path fill="rgb(255,211,32)" stroke="none" d="M 5948,4216 L 5948,4466 6198,4466 6198,4216 5948,4216 Z"/>
 <path fill="none" stroke="rgb(255,211,32)" stroke-linejoin="round" d="M 5948,4216 L 5948,4466 6198,4466 6198,4216 5948,4216 Z"/>
 <path fill="rgb(255,211,32)" stroke="none" d="M 7864,4663 L 7864,4912 8114,4912 8114,4663 7864,4663 Z"/>
 <path fill="none" stroke="rgb(255,211,32)" stroke-linejoin="round" d="M 7864,4663 L 7864,4912 8114,4912 8114,4663 7864,4663 Z"/>
 <path fill="rgb(255,211,32)" stroke="none" d="M 9781,4710 L 9781,4959 10031,4959 10031,4710 9781,4710 Z"/>
 <path fill="none" stroke="rgb(255,211,32)" stroke-linejoin="round" d="M 9781,4710 L 9781,4959 10031,4959 10031,4710 9781,4710 Z"/>
 <path fill="rgb(255,211,32)" stroke="none" d="M 11698,4724 L 11698,4973 11948,4973 11948,4724 11698,4724 Z"/>
 <path fill="none" stroke="rgb(255,211,32)" stroke-linejoin="round" d="M 11698,4724 L 11698,4973 11948,4973 11948,4724 11698,4724 Z"/>
 <path fill="rgb(255,211,32)" stroke="none" d="M 13614,4768 L 13614,5018 13864,5018 13864,4768 13614,4768 Z"/>
 <path fill="none" stroke="rgb(255,211,32)" stroke-linejoin="round" d="M 13614,4768 L 13614,5018 13864,5018 13864,4768 13614,4768 Z"/>
 <path fill="none" stroke="rgb(87,157,28)" stroke-width="80" stroke-linejoin="round" d="M 2240,4518 L 4156,3343 6073,2669 7989,3825 9906,3739 11823,3409 13739,3733"/>
 <path fill="rgb(87,157,28)" stroke="none" d="M 2115,4643 L 2365,4643 2240,4393 2115,4643 Z"/>
 <path fill="none" stroke="rgb(87,157,28)" stroke-linejoin="round" d="M 2115,4643 L 2365,4643 2240,4393 2115,4643 Z"/>
 <path fill="rgb(87,157,28)" stroke="none" d="M 4031,3468 L 4281,3468 4156,3218 4031,3468 Z"/>
 <path fill="none" stroke="rgb(87,157,28)" stroke-linejoin="round" d="M 4031,3468 L 4281,3468 4156,3218 4031,3468 Z"/>
 <path fill="rgb(87,157,28)" stroke="none" d="M 5948,2794 L 6198,2794 6073,2544 5948,2794 Z"/>
 <path fill="none" stroke="rgb(87,157,28)" stroke-linejoin="round" d="M 5948,2794 L 6198,2794 6073,2544 5948,2794 Z"/>
 <path fill="rgb(87,157,28)" stroke="none" d="M 7864,3950 L 8114,3950 7989,3700 7864,3950 Z"/>
 <path fill="none" stroke="rgb(87,157,28)" stroke-linejoin="round" d="M 7864,3950 L 8114,3950 7989,3700 7864,3950 Z"/>
 <path fill="rgb(87,157,28)" stroke="none" d="M 9781,3864 L 10031,3864 9906,3614 9781,3864 Z"/>
 <path fill="none" stroke="rgb(87,157,28)" stroke-linejoin="round" d="M 9781,3864 L 10031,3864 9906,3614 9781,3864 Z"/>
 <path fill="rgb(87,157,28)" stroke="none" d="M 11698,3534 L 11948,3534 11823,3284 11698,3534 Z"/>
 <path fill="none" stroke="rgb(87,157,28)" stroke-linejoin="round" d="M 11698,3534 L 11948,3534 11823,3284 11698,3534 Z"/>
 <path fill="rgb(87,157,28)" stroke="none" d="M 13614,3858 L 13864,3858 13739,3608 13614,3858 Z"/>
 <path fill="none" stroke="rgb(87,157,28)" stroke-linejoin="round" d="M 13614,3858 L 13864,3858 13739,3608 13614,3858 Z"/>
 <path fill="none" stroke="rgb(126,0,33)" stroke-width="80" stroke-linejoin="round" d="M 2240,4411 L 4156,3165 6073,2535 7989,3758 9906,3639 11823,3286 13739,3604"/>
 <path fill="rgb(126,0,33)" stroke="none" d="M 2115,4286 L 2115,4536 2365,4411 2115,4286 Z"/>
 <path fill="none" stroke="rgb(126,0,33)" stroke-linejoin="round" d="M 2115,4286 L 2115,4536 2365,4411 2115,4286 Z"/>
 <path fill="rgb(126,0,33)" stroke="none" d="M 4031,3040 L 4031,3290 4281,3165 4031,3040 Z"/>
 <path fill="none" stroke="rgb(126,0,33)" stroke-linejoin="round" d="M 4031,3040 L 4031,3290 4281,3165 4031,3040 Z"/>
 <path fill="rgb(126,0,33)" stroke="none" d="M 5948,2410 L 5948,2660 6198,2535 5948,2410 Z"/>
 <path fill="none" stroke="rgb(126,0,33)" stroke-linejoin="round" d="M 5948,2410 L 5948,2660 6198,2535 5948,2410 Z"/>
 <path fill="rgb(126,0,33)" stroke="none" d="M 7864,3633 L 7864,3883 8114,3758 7864,3633 Z"/>
 <path fill="none" stroke="rgb(126,0,33)" stroke-linejoin="round" d="M 7864,3633 L 7864,3883 8114,3758 7864,3633 Z"/>
 <path fill="rgb(126,0,33)" stroke="none" d="M 9781,3514 L 9781,3764 10031,3639 9781,3514 Z"/>
 <path fill="none" stroke="rgb(126,0,33)" stroke-linejoin="round" d="M 9781,3514 L 9781,3764 10031,3639 9781,3514 Z"/>
 <path fill="rgb(126,0,33)" stroke="none" d="M 11698,3161 L 11698,3411 11948,3286 11698,3161 Z"/>
 <path fill="none" stroke="rgb(126,0,33)" stroke-linejoin="round" d="M 11698,3161 L 11698,3411 11948,3286 11698,3161 Z"/>
 <path fill="rgb(126,0,33)" stroke="none" d="M 13614,3479 L 13614,3729 13864,3604 13614,3479 Z"/>
 <path fill="none" stroke="rgb(126,0,33)" stroke-linejoin="round" d="M 13614,3479 L 13614,3729 13864,3604 13614,3479 Z"/>
 <path fill="none" stroke="rgb(131,202,255)" stroke-width="80" stroke-linejoin="round" d="M 2240,3744 L 4156,2976 6073,2174 7989,3680 9906,3604 11823,3260 13739,3605"/>
 <path fill="rgb(131,202,255)" stroke="none" d="M 2365,3744 L 2364,3739 2364,3733 2363,3728 2363,3723 2362,3717 2360,3712 2359,3707 2357,3702 2355,3696 2353,3691 2350,3687 2348,3682 2345,3677 2342,3673 2339,3668 2335,3664 2332,3660 2328,3656 2324,3652 2320,3649 2316,3645 2311,3642 2307,3639 2302,3636 2297,3633 2292,3631 2287,3629 2282,3627 2277,3625 2272,3624 2267,3622 2261,3621 2256,3620 2250,3620 2245,3619 2240,3619 2234,3619 2229,3620 2223,3620 2218,3621 2212,3622 2207,3624 2202,3625 2197,3627 2192,3629 2187,3631 2182,3633 2177,3636 2172,3639 2168,3642 2163,3645 2159,3649 2155,3652 2151,3656 2147,3660 2144,3664 2140,3668 2137,3673 2134,3677 2131,3682 2129,3687 2126,3691 2124,3696 2122,3702 2120,3707 2119,3712 2117,3717 2116,3723 2116,3728 2115,3733 2115,3739 2115,3744 2115,3750 2115,3755 2116,3761 2116,3766 2117,3771 2119,3777 2120,3782 2122,3787 2124,3792 2126,3797 2129,3802 2131,3807 2134,3811 2137,3816 2140,3820 2144,3825 2147,3829 2151,3833 2155,3836 2159,3840 2163,3843 2168,3847 2172,3850 2177,3853 2182,3855 2187,3858 2192,3860 2197,3862 2202,3864 2207,3865 2212,3866 2218,3867 2223,3868 2229,3869 2234,3869 2240,3869 2245,3869 2250,3869 2256,3868 2261,3867 2267,3866 2272,3865 2277,3864 2282,3862 2287,3860 2292,3858 2297,3855 2302,3853 2307,3850 2311,3847 2316,3843 2320,3840 2324,3836 2328,3833 2332,3829 2335,3825 2339,3820 2342,3816 2345,3811 2348,3807 2350,3802 2353,3797 2355,3792 2357,3787 2359,3782 2360,3777 2362,3771 2363,3766 2363,3761 2364,3755 2364,3750 2365,3744 Z"/>
 <path fill="none" stroke="rgb(131,202,255)" stroke-linejoin="round" d="M 2365,3744 L 2364,3739 2364,3733 2363,3728 2363,3723 2362,3717 2360,3712 2359,3707 2357,3702 2355,3696 2353,3691 2350,3687 2348,3682 2345,3677 2342,3673 2339,3668 2335,3664 2332,3660 2328,3656 2324,3652 2320,3649 2316,3645 2311,3642 2307,3639 2302,3636 2297,3633 2292,3631 2287,3629 2282,3627 2277,3625 2272,3624 2267,3622 2261,3621 2256,3620 2250,3620 2245,3619 2240,3619 2234,3619 2229,3620 2223,3620 2218,3621 2212,3622 2207,3624 2202,3625 2197,3627 2192,3629 2187,3631 2182,3633 2177,3636 2172,3639 2168,3642 2163,3645 2159,3649 2155,3652 2151,3656 2147,3660 2144,3664 2140,3668 2137,3673 2134,3677 2131,3682 2129,3687 2126,3691 2124,3696 2122,3702 2120,3707 2119,3712 2117,3717 2116,3723 2116,3728 2115,3733 2115,3739 2115,3744 2115,3750 2115,3755 2116,3761 2116,3766 2117,3771 2119,3777 2120,3782 2122,3787 2124,3792 2126,3797 2129,3802 2131,3807 2134,3811 2137,3816 2140,3820 2144,3825 2147,3829 2151,3833 2155,3836 2159,3840 2163,3843 2168,3847 2172,3850 2177,3853 2182,3855 2187,3858 2192,3860 2197,3862 2202,3864 2207,3865 2212,3866 2218,3867 2223,3868 2229,3869 2234,3869 2240,3869 2245,3869 2250,3869 2256,3868 2261,3867 2267,3866 2272,3865 2277,3864 2282,3862 2287,3860 2292,3858 2297,3855 2302,3853 2307,3850 2311,3847 2316,3843 2320,3840 2324,3836 2328,3833 2332,3829 2335,3825 2339,3820 2342,3816 2345,3811 2348,3807 2350,3802 2353,3797 2355,3792 2357,3787 2359,3782 2360,3777 2362,3771 2363,3766 2363,3761 2364,3755 2364,3750 2365,3744 Z"/>
 <path fill="rgb(131,202,255)" stroke="none" d="M 4281,2976 L 4281,2970 4281,2965 4280,2959 4279,2954 4278,2949 4277,2943 4276,2938 4274,2933 4272,2928 4270,2923 4267,2918 4265,2913 4262,2909 4259,2904 4256,2900 4252,2895 4248,2891 4245,2887 4241,2884 4237,2880 4232,2877 4228,2873 4223,2870 4219,2867 4214,2865 4209,2862 4204,2860 4199,2858 4194,2857 4189,2855 4183,2854 4178,2853 4173,2852 4167,2851 4162,2851 4156,2851 4151,2851 4145,2851 4140,2852 4135,2853 4129,2854 4124,2855 4119,2857 4114,2858 4108,2860 4104,2862 4099,2865 4094,2867 4089,2870 4085,2873 4080,2877 4076,2880 4072,2884 4068,2887 4064,2891 4061,2895 4057,2900 4054,2904 4051,2909 4048,2913 4045,2918 4043,2923 4041,2928 4039,2933 4037,2938 4036,2943 4034,2949 4033,2954 4032,2959 4032,2965 4031,2970 4031,2976 4031,2981 4032,2987 4032,2992 4033,2997 4034,3003 4036,3008 4037,3013 4039,3018 4041,3024 4043,3029 4045,3033 4048,3038 4051,3043 4054,3047 4057,3052 4061,3056 4064,3060 4068,3064 4072,3068 4076,3071 4080,3075 4085,3078 4089,3081 4094,3084 4099,3087 4104,3089 4108,3091 4114,3093 4119,3095 4124,3096 4129,3098 4135,3099 4140,3100 4145,3100 4151,3101 4156,3101 4162,3101 4167,3100 4173,3100 4178,3099 4183,3098 4189,3096 4194,3095 4199,3093 4204,3091 4209,3089 4214,3087 4219,3084 4223,3081 4228,3078 4232,3075 4237,3071 4241,3068 4245,3064 4248,3060 4252,3056 4256,3052 4259,3047 4262,3043 4265,3038 4267,3033 4270,3029 4272,3024 4274,3018 4276,3013 4277,3008 4278,3003 4279,2997 4280,2992 4281,2987 4281,2981 4281,2976 Z"/>
 <path fill="none" stroke="rgb(131,202,255)" stroke-linejoin="round" d="M 4281,2976 L 4281,2970 4281,2965 4280,2959 4279,2954 4278,2949 4277,2943 4276,2938 4274,2933 4272,2928 4270,2923 4267,2918 4265,2913 4262,2909 4259,2904 4256,2900 4252,2895 4248,2891 4245,2887 4241,2884 4237,2880 4232,2877 4228,2873 4223,2870 4219,2867 4214,2865 4209,2862 4204,2860 4199,2858 4194,2857 4189,2855 4183,2854 4178,2853 4173,2852 4167,2851 4162,2851 4156,2851 4151,2851 4145,2851 4140,2852 4135,2853 4129,2854 4124,2855 4119,2857 4114,2858 4108,2860 4104,2862 4099,2865 4094,2867 4089,2870 4085,2873 4080,2877 4076,2880 4072,2884 4068,2887 4064,2891 4061,2895 4057,2900 4054,2904 4051,2909 4048,2913 4045,2918 4043,2923 4041,2928 4039,2933 4037,2938 4036,2943 4034,2949 4033,2954 4032,2959 4032,2965 4031,2970 4031,2976 4031,2981 4032,2987 4032,2992 4033,2997 4034,3003 4036,3008 4037,3013 4039,3018 4041,3024 4043,3029 4045,3033 4048,3038 4051,3043 4054,3047 4057,3052 4061,3056 4064,3060 4068,3064 4072,3068 4076,3071 4080,3075 4085,3078 4089,3081 4094,3084 4099,3087 4104,3089 4108,3091 4114,3093 4119,3095 4124,3096 4129,3098 4135,3099 4140,3100 4145,3100 4151,3101 4156,3101 4162,3101 4167,3100 4173,3100 4178,3099 4183,3098 4189,3096 4194,3095 4199,3093 4204,3091 4209,3089 4214,3087 4219,3084 4223,3081 4228,3078 4232,3075 4237,3071 4241,3068 4245,3064 4248,3060 4252,3056 4256,3052 4259,3047 4262,3043 4265,3038 4267,3033 4270,3029 4272,3024 4274,3018 4276,3013 4277,3008 4278,3003 4279,2997 4280,2992 4281,2987 4281,2981 4281,2976 Z"/>
 <path fill="rgb(131,202,255)" stroke="none" d="M 6198,2174 L 6198,2169 6198,2163 6197,2158 6196,2152 6195,2147 6194,2142 6192,2137 6191,2131 6189,2126 6186,2121 6184,2116 6181,2112 6179,2107 6176,2102 6172,2098 6169,2094 6165,2090 6162,2086 6158,2082 6154,2078 6149,2075 6145,2072 6140,2069 6136,2066 6131,2063 6126,2061 6121,2059 6116,2057 6111,2055 6106,2053 6100,2052 6095,2051 6089,2050 6084,2050 6079,2049 6073,2049 6068,2049 6062,2050 6057,2050 6051,2051 6046,2052 6041,2053 6036,2055 6030,2057 6025,2059 6020,2061 6015,2063 6011,2066 6006,2069 6001,2072 5997,2075 5993,2078 5989,2082 5985,2086 5981,2090 5977,2094 5974,2098 5971,2102 5968,2107 5965,2112 5962,2116 5960,2121 5958,2126 5956,2131 5954,2137 5952,2142 5951,2147 5950,2152 5949,2158 5949,2163 5948,2169 5948,2174 5948,2180 5949,2185 5949,2190 5950,2196 5951,2201 5952,2207 5954,2212 5956,2217 5958,2222 5960,2227 5962,2232 5965,2237 5968,2241 5971,2246 5974,2250 5977,2255 5981,2259 5985,2263 5989,2266 5993,2270 5997,2273 6001,2277 6006,2280 6011,2282 6015,2285 6020,2287 6025,2290 6030,2292 6036,2293 6041,2295 6046,2296 6051,2297 6057,2298 6062,2299 6068,2299 6073,2299 6079,2299 6084,2299 6089,2298 6095,2297 6100,2296 6106,2295 6111,2293 6116,2292 6121,2290 6126,2287 6131,2285 6136,2282 6140,2280 6145,2277 6149,2273 6154,2270 6158,2266 6162,2263 6165,2259 6169,2255 6172,2250 6176,2246 6179,2241 6181,2237 6184,2232 6186,2227 6189,2222 6191,2217 6192,2212 6194,2207 6195,2201 6196,2196 6197,2190 6198,2185 6198,2180 6198,2174 Z"/>
 <path fill="none" stroke="rgb(131,202,255)" stroke-linejoin="round" d="M 6198,2174 L 6198,2169 6198,2163 6197,2158 6196,2152 6195,2147 6194,2142 6192,2137 6191,2131 6189,2126 6186,2121 6184,2116 6181,2112 6179,2107 6176,2102 6172,2098 6169,2094 6165,2090 6162,2086 6158,2082 6154,2078 6149,2075 6145,2072 6140,2069 6136,2066 6131,2063 6126,2061 6121,2059 6116,2057 6111,2055 6106,2053 6100,2052 6095,2051 6089,2050 6084,2050 6079,2049 6073,2049 6068,2049 6062,2050 6057,2050 6051,2051 6046,2052 6041,2053 6036,2055 6030,2057 6025,2059 6020,2061 6015,2063 6011,2066 6006,2069 6001,2072 5997,2075 5993,2078 5989,2082 5985,2086 5981,2090 5977,2094 5974,2098 5971,2102 5968,2107 5965,2112 5962,2116 5960,2121 5958,2126 5956,2131 5954,2137 5952,2142 5951,2147 5950,2152 5949,2158 5949,2163 5948,2169 5948,2174 5948,2180 5949,2185 5949,2190 5950,2196 5951,2201 5952,2207 5954,2212 5956,2217 5958,2222 5960,2227 5962,2232 5965,2237 5968,2241 5971,2246 5974,2250 5977,2255 5981,2259 5985,2263 5989,2266 5993,2270 5997,2273 6001,2277 6006,2280 6011,2282 6015,2285 6020,2287 6025,2290 6030,2292 6036,2293 6041,2295 6046,2296 6051,2297 6057,2298 6062,2299 6068,2299 6073,2299 6079,2299 6084,2299 6089,2298 6095,2297 6100,2296 6106,2295 6111,2293 6116,2292 6121,2290 6126,2287 6131,2285 6136,2282 6140,2280 6145,2277 6149,2273 6154,2270 6158,2266 6162,2263 6165,2259 6169,2255 6172,2250 6176,2246 6179,2241 6181,2237 6184,2232 6186,2227 6189,2222 6191,2217 6192,2212 6194,2207 6195,2201 6196,2196 6197,2190 6198,2185 6198,2180 6198,2174 Z"/>
 <path fill="rgb(131,202,255)" stroke="none" d="M 8114,3680 L 8114,3675 8114,3669 8113,3664 8112,3658 8111,3653 8110,3648 8108,3643 8106,3637 8104,3632 8102,3627 8100,3622 8097,3618 8094,3613 8091,3608 8088,3604 8085,3600 8081,3596 8077,3592 8073,3588 8069,3584 8065,3581 8061,3578 8056,3575 8052,3572 8047,3569 8042,3567 8037,3565 8032,3563 8027,3561 8021,3559 8016,3558 8011,3557 8005,3556 8000,3556 7994,3555 7989,3555 7984,3555 7978,3556 7973,3556 7967,3557 7962,3558 7957,3559 7951,3561 7946,3563 7941,3565 7936,3567 7931,3569 7927,3572 7922,3575 7917,3578 7913,3581 7909,3584 7905,3588 7901,3592 7897,3596 7893,3600 7890,3604 7887,3608 7884,3613 7881,3618 7878,3622 7876,3627 7874,3632 7872,3637 7870,3643 7868,3648 7867,3653 7866,3658 7865,3664 7864,3669 7864,3675 7864,3680 7864,3686 7864,3691 7865,3696 7866,3702 7867,3707 7868,3713 7870,3718 7872,3723 7874,3728 7876,3733 7878,3738 7881,3743 7884,3747 7887,3752 7890,3756 7893,3761 7897,3765 7901,3769 7905,3772 7909,3776 7913,3779 7917,3783 7922,3786 7927,3788 7931,3791 7936,3793 7941,3796 7946,3798 7951,3799 7957,3801 7962,3802 7967,3803 7973,3804 7978,3805 7984,3805 7989,3805 7994,3805 8000,3805 8005,3804 8011,3803 8016,3802 8021,3801 8027,3799 8032,3798 8037,3796 8042,3793 8047,3791 8052,3788 8056,3786 8061,3783 8065,3779 8069,3776 8073,3772 8077,3769 8081,3765 8085,3761 8088,3756 8091,3752 8094,3747 8097,3743 8100,3738 8102,3733 8104,3728 8106,3723 8108,3718 8110,3713 8111,3707 8112,3702 8113,3696 8114,3691 8114,3686 8114,3680 Z"/>
 <path fill="none" stroke="rgb(131,202,255)" stroke-linejoin="round" d="M 8114,3680 L 8114,3675 8114,3669 8113,3664 8112,3658 8111,3653 8110,3648 8108,3643 8106,3637 8104,3632 8102,3627 8100,3622 8097,3618 8094,3613 8091,3608 8088,3604 8085,3600 8081,3596 8077,3592 8073,3588 8069,3584 8065,3581 8061,3578 8056,3575 8052,3572 8047,3569 8042,3567 8037,3565 8032,3563 8027,3561 8021,3559 8016,3558 8011,3557 8005,3556 8000,3556 7994,3555 7989,3555 7984,3555 7978,3556 7973,3556 7967,3557 7962,3558 7957,3559 7951,3561 7946,3563 7941,3565 7936,3567 7931,3569 7927,3572 7922,3575 7917,3578 7913,3581 7909,3584 7905,3588 7901,3592 7897,3596 7893,3600 7890,3604 7887,3608 7884,3613 7881,3618 7878,3622 7876,3627 7874,3632 7872,3637 7870,3643 7868,3648 7867,3653 7866,3658 7865,3664 7864,3669 7864,3675 7864,3680 7864,3686 7864,3691 7865,3696 7866,3702 7867,3707 7868,3713 7870,3718 7872,3723 7874,3728 7876,3733 7878,3738 7881,3743 7884,3747 7887,3752 7890,3756 7893,3761 7897,3765 7901,3769 7905,3772 7909,3776 7913,3779 7917,3783 7922,3786 7927,3788 7931,3791 7936,3793 7941,3796 7946,3798 7951,3799 7957,3801 7962,3802 7967,3803 7973,3804 7978,3805 7984,3805 7989,3805 7994,3805 8000,3805 8005,3804 8011,3803 8016,3802 8021,3801 8027,3799 8032,3798 8037,3796 8042,3793 8047,3791 8052,3788 8056,3786 8061,3783 8065,3779 8069,3776 8073,3772 8077,3769 8081,3765 8085,3761 8088,3756 8091,3752 8094,3747 8097,3743 8100,3738 8102,3733 8104,3728 8106,3723 8108,3718 8110,3713 8111,3707 8112,3702 8113,3696 8114,3691 8114,3686 8114,3680 Z"/>
 <path fill="rgb(131,202,255)" stroke="none" d="M 10031,3604 L 10031,3598 10030,3593 10030,3587 10029,3582 10028,3577 10027,3571 10025,3566 10023,3561 10021,3556 10019,3551 10017,3546 10014,3541 10011,3537 10008,3532 10005,3528 10002,3523 9998,3519 9994,3515 9990,3512 9986,3508 9982,3505 9978,3501 9973,3498 9968,3495 9964,3493 9959,3490 9954,3488 9949,3486 9943,3485 9938,3483 9933,3482 9928,3481 9922,3480 9917,3479 9911,3479 9906,3479 9900,3479 9895,3479 9890,3480 9884,3481 9879,3482 9873,3483 9868,3485 9863,3486 9858,3488 9853,3490 9848,3493 9843,3495 9839,3498 9834,3501 9830,3505 9825,3508 9821,3512 9817,3515 9814,3519 9810,3523 9807,3528 9803,3532 9800,3537 9798,3541 9795,3546 9793,3551 9790,3556 9788,3561 9787,3566 9785,3571 9784,3577 9783,3582 9782,3587 9781,3593 9781,3598 9781,3604 9781,3609 9781,3615 9782,3620 9783,3625 9784,3631 9785,3636 9787,3641 9788,3646 9790,3652 9793,3657 9795,3661 9798,3666 9800,3671 9803,3675 9807,3680 9810,3684 9814,3688 9817,3692 9821,3696 9825,3699 9830,3703 9834,3706 9839,3709 9843,3712 9848,3715 9853,3717 9858,3719 9863,3721 9868,3723 9873,3724 9879,3726 9884,3727 9890,3728 9895,3728 9900,3729 9906,3729 9911,3729 9917,3728 9922,3728 9928,3727 9933,3726 9938,3724 9943,3723 9949,3721 9954,3719 9959,3717 9964,3715 9968,3712 9973,3709 9978,3706 9982,3703 9986,3699 9990,3696 9994,3692 9998,3688 10002,3684 10005,3680 10008,3675 10011,3671 10014,3666 10017,3661 10019,3657 10021,3652 10023,3646 10025,3641 10027,3636 10028,3631 10029,3625 10030,3620 10030,3615 10031,3609 10031,3604 Z"/>
 <path fill="none" stroke="rgb(131,202,255)" stroke-linejoin="round" d="M 10031,3604 L 10031,3598 10030,3593 10030,3587 10029,3582 10028,3577 10027,3571 10025,3566 10023,3561 10021,3556 10019,3551 10017,3546 10014,3541 10011,3537 10008,3532 10005,3528 10002,3523 9998,3519 9994,3515 9990,3512 9986,3508 9982,3505 9978,3501 9973,3498 9968,3495 9964,3493 9959,3490 9954,3488 9949,3486 9943,3485 9938,3483 9933,3482 9928,3481 9922,3480 9917,3479 9911,3479 9906,3479 9900,3479 9895,3479 9890,3480 9884,3481 9879,3482 9873,3483 9868,3485 9863,3486 9858,3488 9853,3490 9848,3493 9843,3495 9839,3498 9834,3501 9830,3505 9825,3508 9821,3512 9817,3515 9814,3519 9810,3523 9807,3528 9803,3532 9800,3537 9798,3541 9795,3546 9793,3551 9790,3556 9788,3561 9787,3566 9785,3571 9784,3577 9783,3582 9782,3587 9781,3593 9781,3598 9781,3604 9781,3609 9781,3615 9782,3620 9783,3625 9784,3631 9785,3636 9787,3641 9788,3646 9790,3652 9793,3657 9795,3661 9798,3666 9800,3671 9803,3675 9807,3680 9810,3684 9814,3688 9817,3692 9821,3696 9825,3699 9830,3703 9834,3706 9839,3709 9843,3712 9848,3715 9853,3717 9858,3719 9863,3721 9868,3723 9873,3724 9879,3726 9884,3727 9890,3728 9895,3728 9900,3729 9906,3729 9911,3729 9917,3728 9922,3728 9928,3727 9933,3726 9938,3724 9943,3723 9949,3721 9954,3719 9959,3717 9964,3715 9968,3712 9973,3709 9978,3706 9982,3703 9986,3699 9990,3696 9994,3692 9998,3688 10002,3684 10005,3680 10008,3675 10011,3671 10014,3666 10017,3661 10019,3657 10021,3652 10023,3646 10025,3641 10027,3636 10028,3631 10029,3625 10030,3620 10030,3615 10031,3609 10031,3604 Z"/>
 <path fill="rgb(131,202,255)" stroke="none" d="M 11948,3260 L 11948,3255 11947,3249 11947,3244 11946,3238 11945,3233 11943,3228 11942,3223 11940,3217 11938,3212 11936,3207 11934,3202 11931,3198 11928,3193 11925,3188 11922,3184 11918,3180 11915,3176 11911,3172 11907,3168 11903,3164 11899,3161 11894,3158 11890,3155 11885,3152 11880,3149 11875,3147 11871,3145 11865,3143 11860,3141 11855,3139 11850,3138 11844,3137 11839,3136 11834,3136 11828,3135 11823,3135 11817,3135 11812,3136 11806,3136 11801,3137 11796,3138 11790,3139 11785,3141 11780,3143 11775,3145 11770,3147 11765,3149 11760,3152 11756,3155 11751,3158 11747,3161 11742,3164 11738,3168 11734,3172 11731,3176 11727,3180 11723,3184 11720,3188 11717,3193 11714,3198 11712,3202 11709,3207 11707,3212 11705,3217 11703,3223 11702,3228 11701,3233 11700,3238 11699,3244 11698,3249 11698,3255 11698,3260 11698,3266 11698,3271 11699,3276 11700,3282 11701,3287 11702,3293 11703,3298 11705,3303 11707,3308 11709,3313 11712,3318 11714,3323 11717,3327 11720,3332 11723,3336 11727,3341 11731,3345 11734,3349 11738,3352 11742,3356 11747,3359 11751,3363 11756,3366 11760,3368 11765,3371 11770,3373 11775,3376 11780,3378 11785,3379 11790,3381 11796,3382 11801,3383 11806,3384 11812,3385 11817,3385 11823,3385 11828,3385 11834,3385 11839,3384 11844,3383 11850,3382 11855,3381 11860,3379 11865,3378 11871,3376 11875,3373 11880,3371 11885,3368 11890,3366 11894,3363 11899,3359 11903,3356 11907,3352 11911,3349 11915,3345 11918,3341 11922,3336 11925,3332 11928,3327 11931,3323 11934,3318 11936,3313 11938,3308 11940,3303 11942,3298 11943,3293 11945,3287 11946,3282 11947,3276 11947,3271 11948,3266 11948,3260 Z"/>
 <path fill="none" stroke="rgb(131,202,255)" stroke-linejoin="round" d="M 11948,3260 L 11948,3255 11947,3249 11947,3244 11946,3238 11945,3233 11943,3228 11942,3223 11940,3217 11938,3212 11936,3207 11934,3202 11931,3198 11928,3193 11925,3188 11922,3184 11918,3180 11915,3176 11911,3172 11907,3168 11903,3164 11899,3161 11894,3158 11890,3155 11885,3152 11880,3149 11875,3147 11871,3145 11865,3143 11860,3141 11855,3139 11850,3138 11844,3137 11839,3136 11834,3136 11828,3135 11823,3135 11817,3135 11812,3136 11806,3136 11801,3137 11796,3138 11790,3139 11785,3141 11780,3143 11775,3145 11770,3147 11765,3149 11760,3152 11756,3155 11751,3158 11747,3161 11742,3164 11738,3168 11734,3172 11731,3176 11727,3180 11723,3184 11720,3188 11717,3193 11714,3198 11712,3202 11709,3207 11707,3212 11705,3217 11703,3223 11702,3228 11701,3233 11700,3238 11699,3244 11698,3249 11698,3255 11698,3260 11698,3266 11698,3271 11699,3276 11700,3282 11701,3287 11702,3293 11703,3298 11705,3303 11707,3308 11709,3313 11712,3318 11714,3323 11717,3327 11720,3332 11723,3336 11727,3341 11731,3345 11734,3349 11738,3352 11742,3356 11747,3359 11751,3363 11756,3366 11760,3368 11765,3371 11770,3373 11775,3376 11780,3378 11785,3379 11790,3381 11796,3382 11801,3383 11806,3384 11812,3385 11817,3385 11823,3385 11828,3385 11834,3385 11839,3384 11844,3383 11850,3382 11855,3381 11860,3379 11865,3378 11871,3376 11875,3373 11880,3371 11885,3368 11890,3366 11894,3363 11899,3359 11903,3356 11907,3352 11911,3349 11915,3345 11918,3341 11922,3336 11925,3332 11928,3327 11931,3323 11934,3318 11936,3313 11938,3308 11940,3303 11942,3298 11943,3293 11945,3287 11946,3282 11947,3276 11947,3271 11948,3266 11948,3260 Z"/>
 <path fill="rgb(131,202,255)" stroke="none" d="M 13864,3605 L 13864,3600 13864,3594 13863,3589 13863,3583 13862,3578 13860,3573 13859,3567 13857,3562 13855,3557 13853,3552 13850,3547 13848,3543 13845,3538 13842,3533 13839,3529 13835,3525 13832,3521 13828,3517 13824,3513 13820,3509 13816,3506 13811,3503 13807,3500 13802,3497 13797,3494 13792,3492 13787,3490 13782,3488 13777,3486 13772,3484 13767,3483 13761,3482 13756,3481 13750,3480 13745,3480 13739,3480 13734,3480 13729,3480 13723,3481 13718,3482 13712,3483 13707,3484 13702,3486 13697,3488 13692,3490 13687,3492 13682,3494 13677,3497 13672,3500 13668,3503 13663,3506 13659,3509 13655,3513 13651,3517 13647,3521 13644,3525 13640,3529 13637,3533 13634,3538 13631,3543 13629,3547 13626,3552 13624,3557 13622,3562 13620,3567 13619,3573 13617,3578 13616,3583 13616,3589 13615,3594 13615,3600 13614,3605 13615,3610 13615,3616 13616,3621 13616,3627 13617,3632 13619,3637 13620,3643 13622,3648 13624,3653 13626,3658 13629,3663 13631,3668 13634,3672 13637,3677 13640,3681 13644,3685 13647,3689 13651,3693 13655,3697 13659,3701 13663,3704 13668,3707 13672,3710 13677,3713 13682,3716 13687,3718 13692,3721 13697,3722 13702,3724 13707,3726 13712,3727 13718,3728 13723,3729 13729,3730 13734,3730 13739,3730 13745,3730 13750,3730 13756,3729 13761,3728 13767,3727 13772,3726 13777,3724 13782,3722 13787,3721 13792,3718 13797,3716 13802,3713 13807,3710 13811,3707 13816,3704 13820,3701 13824,3697 13828,3693 13832,3689 13835,3685 13839,3681 13842,3677 13845,3672 13848,3668 13850,3663 13853,3658 13855,3653 13857,3648 13859,3643 13860,3637 13862,3632 13863,3627 13863,3621 13864,3616 13864,3610 13864,3605 Z"/>
 <path fill="none" stroke="rgb(131,202,255)" stroke-linejoin="round" d="M 13864,3605 L 13864,3600 13864,3594 13863,3589 13863,3583 13862,3578 13860,3573 13859,3567 13857,3562 13855,3557 13853,3552 13850,3547 13848,3543 13845,3538 13842,3533 13839,3529 13835,3525 13832,3521 13828,3517 13824,3513 13820,3509 13816,3506 13811,3503 13807,3500 13802,3497 13797,3494 13792,3492 13787,3490 13782,3488 13777,3486 13772,3484 13767,3483 13761,3482 13756,3481 13750,3480 13745,3480 13739,3480 13734,3480 13729,3480 13723,3481 13718,3482 13712,3483 13707,3484 13702,3486 13697,3488 13692,3490 13687,3492 13682,3494 13677,3497 13672,3500 13668,3503 13663,3506 13659,3509 13655,3513 13651,3517 13647,3521 13644,3525 13640,3529 13637,3533 13634,3538 13631,3543 13629,3547 13626,3552 13624,3557 13622,3562 13620,3567 13619,3573 13617,3578 13616,3583 13616,3589 13615,3594 13615,3600 13614,3605 13615,3610 13615,3616 13616,3621 13616,3627 13617,3632 13619,3637 13620,3643 13622,3648 13624,3653 13626,3658 13629,3663 13631,3668 13634,3672 13637,3677 13640,3681 13644,3685 13647,3689 13651,3693 13655,3697 13659,3701 13663,3704 13668,3707 13672,3710 13677,3713 13682,3716 13687,3718 13692,3721 13697,3722 13702,3724 13707,3726 13712,3727 13718,3728 13723,3729 13729,3730 13734,3730 13739,3730 13745,3730 13750,3730 13756,3729 13761,3728 13767,3727 13772,3726 13777,3724 13782,3722 13787,3721 13792,3718 13797,3716 13802,3713 13807,3710 13811,3707 13816,3704 13820,3701 13824,3697 13828,3693 13832,3689 13835,3685 13839,3681 13842,3677 13845,3672 13848,3668 13850,3663 13853,3658 13855,3653 13857,3648 13859,3643 13860,3637 13862,3632 13863,3627 13863,3621 13864,3616 13864,3610 13864,3605 Z"/>
 <text class="TextShape"><tspan class="TextParagraph" font-family="Liberation Sans, sans-serif" font-size="353px" font-weight="400"><tspan class="TextPosition" x="2056" y="6418"><tspan fill="rgb(0,0,0)" stroke="none">10</tspan></tspan></tspan></text>
 <text class="TextShape"><tspan class="TextParagraph" font-family="Liberation Sans, sans-serif" font-size="353px" font-weight="400"><tspan class="TextPosition" x="3878" y="6418"><tspan fill="rgb(0,0,0)" stroke="none">100</tspan></tspan></tspan></text>
 <text class="TextShape"><tspan class="TextParagraph" font-family="Liberation Sans, sans-serif" font-size="353px" font-weight="400"><tspan class="TextPosition" x="5702" y="6418"><tspan fill="rgb(0,0,0)" stroke="none">1000</tspan></tspan></tspan></text>
 <text class="TextShape"><tspan class="TextParagraph" font-family="Liberation Sans, sans-serif" font-size="353px" font-weight="400"><tspan class="TextPosition" x="7527" y="6418"><tspan fill="rgb(0,0,0)" stroke="none">10000</tspan></tspan></tspan></text>
 <text class="TextShape"><tspan class="TextParagraph" font-family="Liberation Sans, sans-serif" font-size="353px" font-weight="400"><tspan class="TextPosition" x="9351" y="6418"><tspan fill="rgb(0,0,0)" stroke="none">100000</tspan></tspan></tspan></text>
 <text class="TextShape"><tspan class="TextParagraph" font-family="Liberation Sans, sans-serif" font-size="353px" font-weight="400"><tspan class="TextPosition" x="11175" y="6418"><tspan fill="rgb(0,0,0)" stroke="none">1000000</tspan></tspan></tspan></text>
 <text class="TextShape"><tspan class="TextParagraph" font-family="Liberation Sans, sans-serif" font-size="353px" font-weight="400"><tspan class="TextPosition" x="12998" y="6418"><tspan fill="rgb(0,0,0)" stroke="none">10000000</tspan></tspan></tspan></text>
 <text class="TextShape"><tspan class="TextParagraph" font-family="Liberation Sans, sans-serif" font-size="353px" font-weight="400"><tspan class="TextPosition" x="1329" y="5971"><tspan fill="rgb(0,0,0)" stroke="none">0.00</tspan></tspan></tspan></text>
 <text class="TextShape"><tspan class="TextParagraph" font-family="Liberation Sans, sans-serif" font-size="353px" font-weight="400"><tspan class="TextPosition" x="1329" y="5545"><tspan fill="rgb(0,0,0)" stroke="none">0.50</tspan></tspan></tspan></text>
 <text class="TextShape"><tspan class="TextParagraph" font-family="Liberation Sans, sans-serif" font-size="353px" font-weight="400"><tspan class="TextPosition" x="1329" y="5120"><tspan fill="rgb(0,0,0)" stroke="none">1.00</tspan></tspan></tspan></text>
 <text class="TextShape"><tspan class="TextParagraph" font-family="Liberation Sans, sans-serif" font-size="353px" font-weight="400"><tspan class="TextPosition" x="1329" y="4694"><tspan fill="rgb(0,0,0)" stroke="none">1.50</tspan></tspan></tspan></text>
 <text class="TextShape"><tspan class="TextParagraph" font-family="Liberation Sans, sans-serif" font-size="353px" font-weight="400"><tspan class="TextPosition" x="1329" y="4269"><tspan fill="rgb(0,0,0)" stroke="none">2.00</tspan></tspan></tspan></text>
 <text class="TextShape"><tspan class="TextParagraph" font-family="Liberation Sans, sans-serif" font-size="353px" font-weight="400"><tspan class="TextPosition" x="1329" y="3844"><tspan fill="rgb(0,0,0)" stroke="none">2.50</tspan></tspan></tspan></text>
 <text class="TextShape"><tspan class="TextParagraph" font-family="Liberation Sans, sans-serif" font-size="353px" font-weight="400"><tspan class="TextPosition" x="1329" y="3418"><tspan fill="rgb(0,0,0)" stroke="none">3.00</tspan></tspan></tspan></text>
 <text class="TextShape"><tspan class="TextParagraph" font-family="Liberation Sans, sans-serif" font-size="353px" font-weight="400"><tspan class="TextPosition" x="1329" y="2993"><tspan fill="rgb(0,0,0)" stroke="none">3.50</tspan></tspan></tspan></text>
 <text class="TextShape"><tspan class="TextParagraph" font-family="Liberation Sans, sans-serif" font-size="353px" font-weight="400"><tspan class="TextPosition" x="1329" y="2567"><tspan fill="rgb(0,0,0)" stroke="none">4.00</tspan></tspan></tspan></text>
 <text class="TextShape"><tspan class="TextParagraph" font-family="Liberation Sans, sans-serif" font-size="353px" font-weight="400"><tspan class="TextPosition" x="1329" y="2143"><tspan fill="rgb(0,0,0)" stroke="none">4.50</tspan></tspan></tspan></text>
 <text class="TextShape"><tspan class="TextParagraph" font-family="Liberation Sans, sans-serif" font-size="353px" font-weight="400"><tspan class="TextPosition" x="1329" y="1718"><tspan fill="rgb(0,0,0)" stroke="none">5.00</tspan></tspan></tspan></text>
 <text class="TextShape"><tspan class="TextParagraph" font-family="Segoe UI" font-size="459px" font-weight="700"><tspan class="TextPosition" x="4159" y="940"><tspan fill="rgb(0,0,0)" stroke="none">Teardown in bulks of 10 items</tspan></tspan></tspan></text>
 <path fill="none" stroke="rgb(0,69,134)" stroke-width="80" stroke-linejoin="round" d="M 667,7993 L 1467,7993"/>
 <path fill="rgb(0,69,134)" stroke="none" d="M 961,7888 L 961,8099 1172,8099 1172,7888 961,7888 Z"/>
 <path fill="none" stroke="rgb(0,69,134)" stroke-linejoin="round" d="M 961,7888 L 961,8099 1172,8099 1172,7888 961,7888 Z"/>
 <path fill="none" stroke="rgb(255,66,14)" stroke-width="80" stroke-linejoin="round" d="M 7568,7993 L 8368,7993"/>
 <path fill="rgb(255,66,14)" stroke="none" d="M 7862,7993 L 7968,8099 8073,7993 7968,7888 7862,7993 Z"/>
 <path fill="none" stroke="rgb(255,66,14)" stroke-linejoin="round" d="M 7862,7993 L 7968,8099 8073,7993 7968,7888 7862,7993 Z"/>
 <path fill="none" stroke="rgb(255,211,32)" stroke-width="80" stroke-linejoin="round" d="M 667,8491 L 1467,8491"/>
 <path fill="rgb(255,211,32)" stroke="none" d="M 961,8386 L 961,8597 1172,8597 1172,8386 961,8386 Z"/>
 <path fill="none" stroke="rgb(255,211,32)" stroke-linejoin="round" d="M 961,8386 L 961,8597 1172,8597 1172,8386 961,8386 Z"/>
 <path fill="none" stroke="rgb(87,157,28)" stroke-width="80" stroke-linejoin="round" d="M 7568,8491 L 8368,8491"/>
 <path fill="rgb(87,157,28)" stroke="none" d="M 7862,8597 L 8073,8597 7968,8386 7862,8597 Z"/>
 <path fill="none" stroke="rgb(87,157,28)" stroke-linejoin="round" d="M 7862,8597 L 8073,8597 7968,8386 7862,8597 Z"/>
 <path fill="none" stroke="rgb(126,0,33)" stroke-width="80" stroke-linejoin="round" d="M 667,8989 L 1467,8989"/>
 <path fill="rgb(126,0,33)" stroke="none" d="M 961,8884 L 961,9095 1172,8989 961,8884 Z"/>
 <path fill="none" stroke="rgb(126,0,33)" stroke-linejoin="round" d="M 961,8884 L 961,9095 1172,8989 961,8884 Z"/>
 <path fill="none" stroke="rgb(131,202,255)" stroke-width="80" stroke-linejoin="round" d="M 7568,8989 L 8368,8989"/>
 <path fill="rgb(131,202,255)" stroke="none" d="M 8073,8989 L 8073,8984 8073,8980 8072,8975 8071,8971 8070,8966 8069,8962 8068,8957 8067,8953 8065,8949 8063,8944 8061,8940 8059,8936 8056,8932 8054,8928 8051,8925 8048,8921 8045,8918 8042,8914 8039,8911 8035,8908 8032,8905 8028,8903 8024,8900 8020,8898 8016,8895 8012,8893 8008,8892 8004,8890 7999,8888 7995,8887 7990,8886 7986,8885 7981,8884 7977,8884 7972,8884 7968,8884 7963,8884 7958,8884 7954,8884 7949,8885 7945,8886 7940,8887 7936,8888 7931,8890 7927,8892 7923,8893 7919,8895 7915,8898 7911,8900 7907,8903 7903,8905 7900,8908 7896,8911 7893,8914 7890,8918 7887,8921 7884,8925 7881,8928 7879,8932 7876,8936 7874,8940 7872,8944 7870,8949 7868,8953 7867,8957 7866,8962 7865,8966 7864,8971 7863,8975 7862,8980 7862,8984 7862,8989 7862,8994 7862,8998 7863,9003 7864,9007 7865,9012 7866,9016 7867,9021 7868,9025 7870,9029 7872,9034 7874,9038 7876,9042 7879,9046 7881,9050 7884,9053 7887,9057 7890,9060 7893,9064 7896,9067 7900,9070 7903,9073 7907,9075 7911,9078 7915,9080 7919,9083 7923,9085 7927,9086 7931,9088 7936,9090 7940,9091 7945,9092 7949,9093 7954,9094 7958,9094 7963,9094 7968,9095 7972,9094 7977,9094 7981,9094 7986,9093 7990,9092 7995,9091 7999,9090 8004,9088 8008,9086 8012,9085 8016,9083 8020,9080 8024,9078 8028,9075 8032,9073 8035,9070 8039,9067 8042,9064 8045,9060 8048,9057 8051,9053 8054,9050 8056,9046 8059,9042 8061,9038 8063,9034 8065,9029 8067,9025 8068,9021 8069,9016 8070,9012 8071,9007 8072,9003 8073,8998 8073,8994 8073,8989 Z"/>
 <path fill="none" stroke="rgb(131,202,255)" stroke-linejoin="round" d="M 8073,8989 L 8073,8984 8073,8980 8072,8975 8071,8971 8070,8966 8069,8962 8068,8957 8067,8953 8065,8949 8063,8944 8061,8940 8059,8936 8056,8932 8054,8928 8051,8925 8048,8921 8045,8918 8042,8914 8039,8911 8035,8908 8032,8905 8028,8903 8024,8900 8020,8898 8016,8895 8012,8893 8008,8892 8004,8890 7999,8888 7995,8887 7990,8886 7986,8885 7981,8884 7977,8884 7972,8884 7968,8884 7963,8884 7958,8884 7954,8884 7949,8885 7945,8886 7940,8887 7936,8888 7931,8890 7927,8892 7923,8893 7919,8895 7915,8898 7911,8900 7907,8903 7903,8905 7900,8908 7896,8911 7893,8914 7890,8918 7887,8921 7884,8925 7881,8928 7879,8932 7876,8936 7874,8940 7872,8944 7870,8949 7868,8953 7867,8957 7866,8962 7865,8966 7864,8971 7863,8975 7862,8980 7862,8984 7862,8989 7862,8994 7862,8998 7863,9003 7864,9007 7865,9012 7866,9016 7867,9021 7868,9025 7870,9029 7872,9034 7874,9038 7876,9042 7879,9046 7881,9050 7884,9053 7887,9057 7890,9060 7893,9064 7896,9067 7900,9070 7903,9073 7907,9075 7911,9078 7915,9080 7919,9083 7923,9085 7927,9086 7931,9088 7936,9090 7940,9091 7945,9092 7949,9093 7954,9094 7958,9094 7963,9094 7968,9095 7972,9094 7977,9094 7981,9094 7986,9093 7990,9092 7995,9091 7999,9090 8004,9088 8008,9086 8012,9085 8016,9083 8020,9080 8024,9078 8028,9075 8032,9073 8035,9070 8039,9067 8042,9064 8045,9060 8048,9057 8051,9053 8054,9050 8056,9046 8059,9042 8061,9038 8063,9034 8065,9029 8067,9025 8068,9021 8069,9016 8070,9012 8071,9007 8072,9003 8073,8998 8073,8994 8073,8989 Z"/>
 <text class="TextShape"><tspan class="TextParagraph" font-family="Liberation Sans, sans-serif" font-size="353px" font-weight="400"><tspan class="TextPosition" x="1567" y="8113"><tspan fill="rgb(0,0,0)" stroke="none">TeardownSet::delete_range()           </tspan></tspan></tspan></text>
 <text class="TextShape"><tspan class="TextParagraph" font-family="Liberation Sans, sans-serif" font-size="353px" font-weight="400"><tspan class="TextPosition" x="8468" y="8113"><tspan fill="rgb(0,0,0)" stroke="none">TeardownMap::delete_range()         </tspan></tspan></tspan></text>
 <text class="TextShape"><tspan class="TextParagraph" font-family="Liberation Sans, sans-serif" font-size="353px" font-weight="400"><tspan class="TextPosition" x="1567" y="8611"><tspan fill="rgb(0,0,0)" stroke="none">TeardownSet::filter_range()         </tspan></tspan></tspan></text>
 <text class="TextShape"><tspan class="TextParagraph" font-family="Liberation Sans, sans-serif" font-size="353px" font-weight="400"><tspan class="TextPosition" x="8468" y="8611"><tspan fill="rgb(0,0,0)" stroke="none">IntervalTeardownSet::delete_overlap()</tspan></tspan></tspan></text>
 <text class="TextShape"><tspan class="TextParagraph" font-family="Liberation Sans, sans-serif" font-size="353px" font-weight="400"><tspan class="TextPosition" x="1567" y="9109"><tspan fill="rgb(0,0,0)" stroke="none">IntervalTeardownMap::delete_overlap()</tspan></tspan></tspan></text>
 <text class="TextShape"><tspan class="TextParagraph" font-family="Liberation Sans, sans-serif" font-size="353px" font-weight="400"><tspan class="TextPosition" x="8468" y="9109"><tspan fill="rgb(0,0,0)" stroke="none">IntervalTeardownSet::filter_overlap()</tspan></tspan></tspan></text>
 <text class="TextShape"><tspan class="TextParagraph" font-family="Segoe UI" font-size="318px" font-weight="700"><tspan class="TextPosition" x="7787" y="7102"><tspan fill="rgb(0,0,0)" stroke="none">N</tspan></tspan></tspan></text>
 <text class="TextShape" transform="translate(860,4914) rotate(-90) translate(-860,-4914)"><tspan class="TextParagraph" font-family="Segoe UI" font-size="318px" font-weight="700"><tspan class="TextPosition" x="860" y="4914"><tspan fill="rgb(0,0,0)" stroke="none">Times slower</tspan></tspan></tspan></text>
</svg>