<?xml version="1.0" encoding="UTF-8"?>
<!DOCTYPE svg PUBLIC "-//W3C//DTD SVG 1.1//EN" "http://www.w3.org/Graphics/SVG/1.1/DTD/svg11.dtd">
<svg width="148mm" height="95mm" viewBox="0 0 14800 9500" version="1.1" xmlns="http://www.w3.org/2000/svg" stroke-width="28.222" stroke-linejoin="round" xml:space="preserve">
 <path fill="rgb(255,255,255)" stroke="none" d="M 7387,9474 L -5,9474 -5,0 14778,0 14778,9474 7387,9474 Z"/>
 <path fill="none" stroke="rgb(0,0,0)" stroke-linejoin="round" d="M 7387,9474 L -5,9474 -5,0 14778,0 14778,9474 7387,9474 Z"/>
 <path fill="none" stroke="rgb(179,179,179)" stroke-linejoin="round" d="M 7990,5851 L 2240,5851 2240,1598 13740,1598 13740,5851 7990,5851 Z"/>
 <path fill="none" stroke="rgb(179,179,179)" stroke-linejoin="round" d="M 13740,5850 L 2240,5850"/>
 <path fill="none" stroke="rgb(179,179,179)" stroke-linejoin="round" d="M 13740,5424 L 2240,5424"/>
 <path fill="none" stroke="rgb(179,179,179)" stroke-linejoin="round" d="M 13740,4999 L 2240,4999"/>
 <path fill="none" stroke="rgb(179,179,179)" stroke-linejoin="round" d="M 13740,4574 L 2240,4574"/>
 <path fill="none" stroke="rgb(179,179,179)" stroke-linejoin="round" d="M 13740,4149 L 2240,4149"/>
 <path fill="none" stroke="rgb(179,179,179)" stroke-linejoin="round" d="M 13740,3724 L 2240,3724"/>
 <path fill="none" stroke="rgb(179,179,179)" stroke-linejoin="round" d="M 13740,3298 L 2240,3298"/>
 <path fill="none" stroke="rgb(179,179,179)" stroke-linejoin="round" d="M 13740,2873 L 2240,2873"/>
 <path fill="none" stroke="rgb(179,179,179)" stroke-linejoin="round" d="M 13740,2447 L 2240,2447"/>
 <path fill="none" stroke="rgb(179,179,179)" stroke-linejoin="round" d="M 13740,2022 L 2240,2022"/>
 <path fill="none" stroke="rgb(179,179,179)" stroke-linejoin="round" d="M 13740,1597 L 2240,1597"/>
 <path fill="none" stroke="rgb(179,179,179)" stroke-linejoin="round" d="M 2240,6000 L 2240,5850"/>
 <path fill="none" stroke="rgb(179,179,179)" stroke-linejoin="round" d="M 2240,6000 L 2240,5850"/>
 <path fill="none" stroke="rgb(179,179,179)" stroke-linejoin="round" d="M 4540,6000 L 4540,5850"/>
 <path fill="none" stroke="rgb(179,179,179)" stroke-linejoin="round" d="M 4540,6000 L 4540,5850"/>
 <path fill="none" stroke="rgb(179,179,179)" stroke-linejoin="round" d="M 6840,6000 L 6840,5850"/>
 <path fill="none" stroke="rgb(179,179,179)" stroke-linejoin="round" d="M 6840,6000 L 6840,5850"/>
 <path fill="none" stroke="rgb(179,179,179)" stroke-linejoin="round" d="M 9139,6000 L 9139,5850"/>
 <path fill="none" stroke="rgb(179,179,179)" stroke-linejoin="round" d="M 9139,6000 L 9139,5850"/>
 <path fill="none" stroke="rgb(179,179,179)" stroke-linejoin="round" d="M 11439,6000 L 11439,5850"/>
 <path fill="none" stroke="rgb(179,179,179)" stroke-linejoin="round" d="M 11439,6000 L 11439,5850"/>
 <path fill="none" stroke="rgb(179,179,179)" stroke-linejoin="round" d="M 13740,6000 L 13740,5850"/>
 <path fill="none" stroke="rgb(179,179,179)" stroke-linejoin="round" d="M 13740,6000 L 13740,5850"/>
 <path fill="none" stroke="rgb(179,179,179)" stroke-linejoin="round" d="M 2240,5850 L 13740,5850"/>
 <path fill="none" stroke="rgb(179,179,179)" stroke-linejoin="round" d="M 2090,5850 L 2240,5850"/>
 <path fill="none" stroke="rgb(179,179,179)" stroke-linejoin="round" d="M 2090,5850 L 2240,5850"/>
 <path fill="none" stroke="rgb(179,179,179)" stroke-linejoin="round" d="M 2090,5424 L 2240,5424"/>
 <path fill="none" stroke="rgb(179,179,179)" stroke-linejoin="round" d="M 2090,5424 L 2240,5424"/>
 <path fill="none" stroke="rgb(179,179,179)" stroke-linejoin="round" d="M 2090,4999 L 2240,4999"/>
 <path fill="none" stroke="rgb(179,179,179)" stroke-linejoin="round" d="M 2090,4999 L 2240,4999"/>
 <path fill="none" stroke="rgb(179,179,179)" stroke-linejoin="round" d="M 2090,4574 L 2240,4574"/>
 <path fill="none" stroke="rgb(179,179,179)" stroke-linejoin="round" d="M 2090,4574 L 2240,4574"/>
 <path fill="none" stroke="rgb(179,179,179)" stroke-linejoin="round" d="M 2090,4149 L 2240,4149"/>
 <path fill="none" stroke="rgb(179,179,179)" stroke-linejoin="round" d="M 2090,4149 L 2240,4149"/>
 <path fill="none" stroke="rgb(179,179,179)" stroke-linejoin="round" d="M 2090,3724 L 2240,3724"/>
 <path fill="none" stroke="rgb(179,179,179)" stroke-linejoin="round" d="M 2090,3724 L 2240,3724"/>
 <path fill="none" stroke="rgb(179,179,179)" stroke-linejoin="round" d="M 2090,3298 L 2240,3298"/>
 <path fill="none" stroke="rgb(179,179,179)" stroke-linejoin="round" d="M 2090,3298 L 2240,3298"/>
 <path fill="none" stroke="rgb(179,179,179)" stroke-linejoin="round" d="M 2090,2873 L 2240,2873"/>
 <path fill="none" stroke="rgb(179,179,179)" stroke-linejoin="round" d="M 2090,2873 L 2240,2873"/>
 <path fill="none" stroke="rgb(179,179,179)" stroke-linejoin="round" d="M 2090,2447 L 2240,2447"/>
 <path fill="none" stroke="rgb(179,179,179)" stroke-linejoin="round" d="M 2090,2447 L 2240,2447"/>
 <path fill="none" stroke="rgb(179,179,179)" stroke-linejoin="round" d="M 2090,2022 L 2240,2022"/>
 <path fill="none" stroke="rgb(179,179,179)" stroke-linejoin="round" d="M 2090,2022 L 2240,2022"/>
 <path fill="none" stroke="rgb(179,179,179)" stroke-linejoin="round" d="M 2090,1597 L 2240,1597"/>
 <path fill="none" stroke="rgb(179,179,179)" stroke-linejoin="round" d="M 2090,1597 L 2240,1597"/>
 <path fill="none" stroke="rgb(179,179,179)" stroke-linejoin="round" d="M 2240,5850 L 2240,1597"/>
 <path fill="none" stroke="rgb(0,69,134)" stroke-width="80" stroke-linejoin="round" d="M 2240,4999 L 4540,4999 6840,4999 9139,4999 11439,4999 13740,4999"/>
 <path fill="rgb(0,69,134)" stroke="none" d="M 2115,4874 L 2115,5124 2365,5124 2365,4874 2115,4874 Z"/>
 <path fill="none" stroke="rgb(0,69,134)" stroke-linejoin="round" d="M 2115,4874 L 2115,5124 2365,5124 2365,4874 2115,4874 Z"/>
 <path fill="rgb(0,69,134)" stroke="none" d="M 4415,4874 L 4415,5124 4665,5124 4665,4874 4415,4874 Z"/>
 <path fill="none" stroke="rgb(0,69,134)" stroke-linejoin="round" d="M 4415,4874 L 4415,5124 4665,5124 4665,4874 4415,4874 Z"/>
 <path fill="rgb(0,69,134)" stroke="none" d="M 6715,4874 L 6715,5124 6965,5124 6965,4874 6715,4874 Z"/>
 <path fill="none" stroke="rgb(0,69,134)" stroke-linejoin="round" d="M 6715,4874 L 6715,5124 6965,5124 6965,4874 6715,4874 Z"/>
 <path fill="rgb(0,69,134)" stroke="none" d="M 9014,4874 L 9014,5124 9264,5124 9264,4874 9014,4874 Z"/>
 <path fill="none" stroke="rgb(0,69,134)" stroke-linejoin="round" d="M 9014,4874 L 9014,5124 9264,5124 9264,4874 9014,4874 Z"/>
 <path fill="rgb(0,69,134)" stroke="none" d="M 11314,4874 L 11314,5124 11564,5124 11564,4874 11314,4874 Z"/>
 <path fill="none" stroke="rgb(0,69,134)" stroke-linejoin="round" d="M 11314,4874 L 11314,5124 11564,5124 11564,4874 11314,4874 Z"/>
 <path fill="rgb(0,69,134)" stroke="none" d="M 13615,4874 L 13615,5124 13865,5124 13865,4874 13615,4874 Z"/>
 <path fill="none" stroke="rgb(0,69,134)" stroke-linejoin="round" d="M 13615,4874 L 13615,5124 13865,5124 13865,4874 13615,4874 Z"/>
 <path fill="none" stroke="rgb(255,66,14)" stroke-width="80" stroke-linejoin="round" d="M 2240,4997 L 4540,4869 6840,4929 9139,4942 11439,4731 13740,4821"/>
 <path fill="rgb(255,66,14)" stroke="none" d="M 2115,4997 L 2240,5122 2365,4997 2240,4872 2115,4997 Z"/>
 <path fill="none" stroke="rgb(255,66,14)" stroke-linejoin="round" d="M 2115,4997 L 2240,5122 2365,4997 2240,4872 2115,4997 Z"/>
 <path fill="rgb(255,66,14)" stroke="none" d="M 4415,4869 L 4540,4994 4665,4869 4540,4744 4415,4869 Z"/>
 <path fill="none" stroke="rgb(255,66,14)" stroke-linejoin="round" d="M 4415,4869 L 4540,4994 4665,4869 4540,4744 4415,4869 Z"/>
 <path fill="rgb(255,66,14)" stroke="none" d="M 6715,4929 L 6840,5054 6965,4929 6840,4804 6715,4929 Z"/>
 <path fill="none" stroke="rgb(255,66,14)" stroke-linejoin="round" d="M 6715,4929 L 6840,5054 6965,4929 6840,4804 6715,4929 Z"/>
 <path fill="rgb(255,66,14)" stroke="none" d="M 9014,4942 L 9139,5067 9264,4942 9139,4817 9014,4942 Z"/>
 <path fill="none" stroke="rgb(255,66,14)" stroke-linejoin="round" d="M 9014,4942 L 9139,5067 9264,4942 9139,4817 9014,4942 Z"/>
 <path fill="rgb(255,66,14)" stroke="none" d="M 11314,4731 L 11439,4855 11564,4731 11439,4606 11314,4731 Z"/>
 <path fill="none" stroke="rgb(255,66,14)" stroke-linejoin="round" d="M 11314,4731 L 11439,4855 11564,4731 11439,4606 11314,4731 Z"/>
 <path fill="rgb(255,66,14)" stroke="none" d="M 13615,4821 L 13740,4946 13865,4821 13740,4697 13615,4821 Z"/>
 <path fill="none" stroke="rgb(255,66,14)" stroke-linejoin="round" d="M 13615,4821 L 13740,4946 13865,4821 13740,4697 13615,4821 Z"/>
 <path fill="none" stroke="rgb(255,211,32)" stroke-width="80" stroke-linejoin="round" d="M 2240,3427 L 4540,3359 6840,3431 9139,4083 11439,4181 13740,4440"/>
 <path fill="rgb(255,211,32)" stroke="none" d="M 2115,3302 L 2115,3552 2365,3552 2365,3302 2115,3302 Z"/>
 <path fill="none" stroke="rgb(255,211,32)" stroke-linejoin="round" d="M 2115,3302 L 2115,3552 2365,3552 2365,3302 2115,3302 Z"/>
 <path fill="rgb(255,211,32)" stroke="none" d="M 4415,3234 L 4415,3484 4665,3484 4665,3234 4415,3234 Z"/>
 <path fill="none" stroke="rgb(255,211,32)" stroke-linejoin="round" d="M 4415,3234 L 4415,3484 4665,3484 4665,3234 4415,3234 Z"/>
 <path fill="rgb(255,211,32)" stroke="none" d="M 6715,3306 L 6715,3556 6965,3556 6965,3306 6715,3306 Z"/>
 <path fill="none" stroke="rgb(255,211,32)" stroke-linejoin="round" d="M 6715,3306 L 6715,3556 6965,3556 6965,3306 6715,3306 Z"/>
 <path fill="rgb(255,211,32)" stroke="none" d="M 9014,3958 L 9014,4208 9264,4208 9264,3958 9014,3958 Z"/>
 <path fill="none" stroke="rgb(255,211,32)" stroke-linejoin="round" d="M 9014,3958 L 9014,4208 9264,4208 9264,3958 9014,3958 Z"/>
 <path fill="rgb(255,211,32)" stroke="none" d="M 11314,4056 L 11314,4306 11564,4306 11564,4056 11314,4056 Z"/>
 <path fill="none" stroke="rgb(255,211,32)" stroke-linejoin="round" d="M 11314,4056 L 11314,4306 11564,4306 11564,4056 11314,4056 Z"/>
 <path fill="rgb(255,211,32)" stroke="none" d="M 13615,4315 L 13615,4565 13865,4565 13865,4315 13615,4315 Z"/>
 <path fill="none" stroke="rgb(255,211,32)" stroke-linejoin="round" d="M 13615,4315 L 13615,4565 13865,4565 13865,4315 13615,4315 Z"/>
 <path fill="none" stroke="rgb(87,157,28)" stroke-width="80" stroke-linejoin="round" d="M 2240,4813 L 4540,4146 6840,3913 9139,4253 11439,3964 13740,4159"/>
 <path fill="rgb(87,157,28)" stroke="none" d="M 2115,4938 L 2365,4938 2240,4689 2115,4938 Z"/>
 <path fill="none" stroke="rgb(87,157,28)" stroke-linejoin="round" d="M 2115,4938 L 2365,4938 2240,4689 2115,4938 Z"/>
 <path fill="rgb(87,157,28)" stroke="none" d="M 4415,4271 L 4665,4271 4540,4021 4415,4271 Z"/>
 <path fill="none" stroke="rgb(87,157,28)" stroke-linejoin="round" d="M 4415,4271 L 4665,4271 4540,4021 4415,4271 Z"/>
 <path fill="rgb(87,157,28)" stroke="none" d="M 6715,4038 L 6965,4038 6840,3788 6715,4038 Z"/>
 <path fill="none" stroke="rgb(87,157,28)" stroke-linejoin="round" d="M 6715,4038 L 6965,4038 6840,3788 6715,4038 Z"/>
 <path fill="rgb(87,157,28)" stroke="none" d="M 9014,4378 L 9264,4378 9139,4128 9014,4378 Z"/>
 <path fill="none" stroke="rgb(87,157,28)" stroke-linejoin="round" d="M 9014,4378 L 9264,4378 9139,4128 9014,4378 Z"/>
 <path fill="rgb(87,157,28)" stroke="none" d="M 11314,4089 L 11564,4089 11439,3839 11314,4089 Z"/>
 <path fill="none" stroke="rgb(87,157,28)" stroke-linejoin="round" d="M 11314,4089 L 11564,4089 11439,3839 11314,4089 Z"/>
 <path fill="rgb(87,157,28)" stroke="none" d="M 13615,4284 L 13865,4284 13740,4034 13615,4284 Z"/>
 <path fill="none" stroke="rgb(87,157,28)" stroke-linejoin="round" d="M 13615,4284 L 13865,4284 13740,4034 13615,4284 Z"/>
 <path fill="none" stroke="rgb(126,0,33)" stroke-width="80" stroke-linejoin="round" d="M 2240,4658 L 4540,4002 6840,3731 9139,4125 11439,3785 13740,4022"/>
 <path fill="rgb(126,0,33)" stroke="none" d="M 2115,4533 L 2115,4782 2365,4658 2115,4533 Z"/>
 <path fill="none" stroke="rgb(126,0,33)" stroke-linejoin="round" d="M 2115,4533 L 2115,4782 2365,4658 2115,4533 Z"/>
 <path fill="rgb(126,0,33)" stroke="none" d="M 4415,3877 L 4415,4127 4665,4002 4415,3877 Z"/>
 <path fill="none" stroke="rgb(126,0,33)" stroke-linejoin="round" d="M 4415,3877 L 4415,4127 4665,4002 4415,3877 Z"/>
 <path fill="rgb(126,0,33)" stroke="none" d="M 6715,3606 L 6715,3856 6965,3731 6715,3606 Z"/>
 <path fill="none" stroke="rgb(126,0,33)" stroke-linejoin="round" d="M 6715,3606 L 6715,3856 6965,3731 6715,3606 Z"/>
 <path fill="rgb(126,0,33)" stroke="none" d="M 9014,4000 L 9014,4250 9264,4125 9014,4000 Z"/>
 <path fill="none" stroke="rgb(126,0,33)" stroke-linejoin="round" d="M 9014,4000 L 9014,4250 9264,4125 9014,4000 Z"/>
 <path fill="rgb(126,0,33)" stroke="none" d="M 11314,3660 L 11314,3910 11564,3785 11314,3660 Z"/>
 <path fill="none" stroke="rgb(126,0,33)" stroke-linejoin="round" d="M 11314,3660 L 11314,3910 11564,3785 11314,3660 Z"/>
 <path fill="rgb(126,0,33)" stroke="none" d="M 13615,3897 L 13615,4147 13865,4022 13615,3897 Z"/>
 <path fill="none" stroke="rgb(126,0,33)" stroke-linejoin="round" d="M 13615,3897 L 13615,4147 13865,4022 13615,3897 Z"/>
 <path fill="none" stroke="rgb(131,202,255)" stroke-width="80" stroke-linejoin="round" d="M 2240,2582 L 4540,2171 6840,2074 9139,3125 11439,2981 13740,3392"/>
 <path fill="rgb(131,202,255)" stroke="none" d="M 2365,2582 L 2364,2577 2364,2572 2363,2566 2363,2561 2362,2555 2360,2550 2359,2545 2357,2540 2355,2535 2353,2530 2350,2525 2348,2520 2345,2515 2342,2511 2339,2506 2335,2502 2332,2498 2328,2494 2324,2490 2320,2487 2316,2483 2311,2480 2307,2477 2302,2474 2297,2472 2292,2469 2287,2467 2282,2465 2277,2463 2272,2462 2267,2460 2261,2459 2256,2459 2250,2458 2245,2458 2240,2457 2234,2458 2229,2458 2223,2459 2218,2459 2212,2460 2207,2462 2202,2463 2197,2465 2192,2467 2187,2469 2182,2472 2177,2474 2172,2477 2168,2480 2163,2483 2159,2487 2155,2490 2151,2494 2147,2498 2144,2502 2140,2506 2137,2511 2134,2515 2131,2520 2129,2525 2126,2530 2124,2535 2122,2540 2120,2545 2119,2550 2117,2555 2116,2561 2116,2566 2115,2572 2115,2577 2115,2582 2115,2588 2115,2593 2116,2599 2116,2604 2117,2610 2119,2615 2120,2620 2122,2625 2124,2630 2126,2635 2129,2640 2131,2645 2134,2650 2137,2654 2140,2659 2144,2663 2147,2667 2151,2671 2155,2675 2159,2678 2163,2682 2168,2685 2172,2688 2177,2691 2182,2693 2187,2696 2192,2698 2197,2700 2202,2702 2207,2703 2212,2704 2218,2706 2223,2706 2229,2707 2234,2707 2240,2707 2245,2707 2250,2707 2256,2706 2261,2706 2267,2704 2272,2703 2277,2702 2282,2700 2287,2698 2292,2696 2297,2693 2302,2691 2307,2688 2311,2685 2316,2682 2320,2678 2324,2675 2328,2671 2332,2667 2335,2663 2339,2659 2342,2654 2345,2650 2348,2645 2350,2640 2353,2635 2355,2630 2357,2625 2359,2620 2360,2615 2362,2610 2363,2604 2363,2599 2364,2593 2364,2588 2365,2582 Z"/>
 <path fill="none" stroke="rgb(131,202,255)" stroke-linejoin="round" d="M 2365,2582 L 2364,2577 2364,2572 2363,2566 2363,2561 2362,2555 2360,2550 2359,2545 2357,2540 2355,2535 2353,2530 2350,2525 2348,2520 2345,2515 2342,2511 2339,2506 2335,2502 2332,2498 2328,2494 2324,2490 2320,2487 2316,2483 2311,2480 2307,2477 2302,2474 2297,2472 2292,2469 2287,2467 2282,2465 2277,2463 2272,2462 2267,2460 2261,2459 2256,2459 2250,2458 2245,2458 2240,2457 2234,2458 2229,2458 2223,2459 2218,2459 2212,2460 2207,2462 2202,2463 2197,2465 2192,2467 2187,2469 2182,2472 2177,2474 2172,2477 2168,2480 2163,2483 2159,2487 2155,2490 2151,2494 2147,2498 2144,2502 2140,2506 2137,2511 2134,2515 2131,2520 2129,2525 2126,2530 2124,2535 2122,2540 2120,2545 2119,2550 2117,2555 2116,2561 2116,2566 2115,2572 2115,2577 2115,2582 2115,2588 2115,2593 2116,2599 2116,2604 2117,2610 2119,2615 2120,2620 2122,2625 2124,2630 2126,2635 2129,2640 2131,2645 2134,2650 2137,2654 2140,2659 2144,2663 2147,2667 2151,2671 2155,2675 2159,2678 2163,2682 2168,2685 2172,2688 2177,2691 2182,2693 2187,2696 2192,2698 2197,2700 2202,2702 2207,2703 2212,2704 2218,2706 2223,2706 2229,2707 2234,2707 2240,2707 2245,2707 2250,2707 2256,2706 2261,2706 2267,2704 2272,2703 2277,2702 2282,2700 2287,2698 2292,2696 2297,2693 2302,2691 2307,2688 2311,2685 2316,2682 2320,2678 2324,2675 2328,2671 2332,2667 2335,2663 2339,2659 2342,2654 2345,2650 2348,2645 2350,2640 2353,2635 2355,2630 2357,2625 2359,2620 2360,2615 2362,2610 2363,2604 2363,2599 2364,2593 2364,2588 2365,2582 Z"/>
 <path fill="rgb(131,202,255)" stroke="none" d="M 4665,2171 L 4665,2166 4664,2160 4664,2155 4663,2149 4662,2144 4660,2139 4659,2133 4657,2128 4655,2123 4653,2118 4651,2113 4648,2109 4645,2104 4642,2099 4639,2095 4635,2091 4632,2087 4628,2083 4624,2079 4620,2075 4616,2072 4611,2069 4607,2066 4602,2063 4597,2060 4593,2058 4588,2056 4582,2054 4577,2052 4572,2050 4567,2049 4561,2048 4556,2047 4551,2047 4545,2046 4540,2046 4534,2046 4529,2047 4523,2047 4518,2048 4513,2049 4507,2050 4502,2052 4497,2054 4492,2056 4487,2058 4482,2060 4477,2063 4473,2066 4468,2069 4464,2072 4459,2075 4455,2079 4451,2083 4448,2087 4444,2091 4441,2095 4437,2099 4434,2104 4431,2109 4429,2113 4426,2118 4424,2123 4422,2128 4420,2133 4419,2139 4418,2144 4417,2149 4416,2155 4415,2160 4415,2166 4415,2171 4415,2176 4415,2182 4416,2187 4417,2193 4418,2198 4419,2203 4420,2209 4422,2214 4424,2219 4426,2224 4429,2229 4431,2234 4434,2238 4437,2243 4441,2247 4444,2251 4448,2255 4451,2259 4455,2263 4459,2267 4464,2270 4468,2273 4473,2276 4477,2279 4482,2282 4487,2284 4492,2287 4497,2288 4502,2290 4507,2292 4513,2293 4518,2294 4523,2295 4529,2296 4534,2296 4540,2296 4545,2296 4551,2296 4556,2295 4561,2294 4567,2293 4572,2292 4577,2290 4582,2288 4588,2287 4593,2284 4597,2282 4602,2279 4607,2276 4611,2273 4616,2270 4620,2267 4624,2263 4628,2259 4632,2255 4635,2251 4639,2247 4642,2243 4645,2238 4648,2234 4651,2229 4653,2224 4655,2219 4657,2214 4659,2209 4660,2203 4662,2198 4663,2193 4664,2187 4664,2182 4665,2176 4665,2171 Z"/>
 <path fill="none" stroke="rgb(131,202,255)" stroke-linejoin="round" d="M 4665,2171 L 4665,2166 4664,2160 4664,2155 4663,2149 4662,2144 4660,2139 4659,2133 4657,2128 4655,2123 4653,2118 4651,2113 4648,2109 4645,2104 4642,2099 4639,2095 4635,2091 4632,2087 4628,2083 4624,2079 4620,2075 4616,2072 4611,2069 4607,2066 4602,2063 4597,2060 4593,2058 4588,2056 4582,2054 4577,2052 4572,2050 4567,2049 4561,2048 4556,2047 4551,2047 4545,2046 4540,2046 4534,2046 4529,2047 4523,2047 4518,2048 4513,2049 4507,2050 4502,2052 4497,2054 4492,2056 4487,2058 4482,2060 4477,2063 4473,2066 4468,2069 4464,2072 4459,2075 4455,2079 4451,2083 4448,2087 4444,2091 4441,2095 4437,2099 4434,2104 4431,2109 4429,2113 4426,2118 4424,2123 4422,2128 4420,2133 4419,2139 4418,2144 4417,2149 4416,2155 4415,2160 4415,2166 4415,2171 4415,2176 4415,2182 4416,2187 4417,2193 4418,2198 4419,2203 4420,2209 4422,2214 4424,2219 4426,2224 4429,2229 4431,2234 4434,2238 4437,2243 4441,2247 4444,2251 4448,2255 4451,2259 4455,2263 4459,2267 4464,2270 4468,2273 4473,2276 4477,2279 4482,2282 4487,2284 4492,2287 4497,2288 4502,2290 4507,2292 4513,2293 4518,2294 4523,2295 4529,2296 4534,2296 4540,2296 4545,2296 4551,2296 4556,2295 4561,2294 4567,2293 4572,2292 4577,2290 4582,2288 4588,2287 4593,2284 4597,2282 4602,2279 4607,2276 4611,2273 4616,2270 4620,2267 4624,2263 4628,2259 4632,2255 4635,2251 4639,2247 4642,2243 4645,2238 4648,2234 4651,2229 4653,2224 4655,2219 4657,2214 4659,2209 4660,2203 4662,2198 4663,2193 4664,2187 4664,2182 4665,2176 4665,2171 Z"/>
 <path fill="rgb(131,202,255)" stroke="none" d="M 6965,2074 L 6965,2069 6964,2063 6964,2058 6963,2053 6962,2047 6961,2042 6959,2037 6957,2032 6955,2026 6953,2021 6951,2017 6948,2012 6945,2007 6942,2003 6939,1998 6936,1994 6932,1990 6928,1986 6924,1982 6920,1979 6916,1975 6912,1972 6907,1969 6902,1966 6898,1963 6893,1961 6888,1959 6883,1957 6877,1955 6872,1954 6867,1952 6862,1951 6856,1950 6851,1950 6845,1949 6840,1949 6834,1949 6829,1950 6824,1950 6818,1951 6813,1952 6808,1954 6802,1955 6797,1957 6792,1959 6787,1961 6782,1963 6777,1966 6773,1969 6768,1972 6764,1975 6760,1979 6755,1982 6752,1986 6748,1990 6744,1994 6741,1998 6738,2003 6734,2007 6732,2012 6729,2017 6727,2021 6724,2026 6722,2032 6721,2037 6719,2042 6718,2047 6717,2053 6716,2058 6715,2063 6715,2069 6715,2074 6715,2080 6715,2085 6716,2091 6717,2096 6718,2101 6719,2107 6721,2112 6722,2117 6724,2122 6727,2127 6729,2132 6732,2137 6734,2141 6738,2146 6741,2150 6744,2155 6748,2159 6752,2163 6755,2166 6760,2170 6764,2173 6768,2177 6773,2180 6777,2183 6782,2185 6787,2188 6792,2190 6797,2192 6802,2194 6808,2195 6813,2196 6818,2197 6824,2198 6829,2199 6834,2199 6840,2199 6845,2199 6851,2199 6856,2198 6862,2197 6867,2196 6872,2195 6877,2194 6883,2192 6888,2190 6893,2188 6898,2185 6902,2183 6907,2180 6912,2177 6916,2173 6920,2170 6924,2166 6928,2163 6932,2159 6936,2155 6939,2150 6942,2146 6945,2141 6948,2137 6951,2132 6953,2127 6955,2122 6957,2117 6959,2112 6961,2107 6962,2101 6963,2096 6964,2091 6964,2085 6965,2080 6965,2074 Z"/>
 <path fill="none" stroke="rgb(131,202,255)" stroke-linejoin="round" d="M 6965,2074 L 6965,2069 6964,2063 6964,2058 6963,2053 6962,2047 6961,2042 6959,2037 6957,2032 6955,2026 6953,2021 6951,2017 6948,2012 6945,2007 6942,2003 6939,1998 6936,1994 6932,1990 6928,1986 6924,1982 6920,1979 6916,1975 6912,1972 6907,1969 6902,1966 6898,1963 6893,1961 6888,1959 6883,1957 6877,1955 6872,1954 6867,1952 6862,1951 6856,1950 6851,1950 6845,1949 6840,1949 6834,1949 6829,1950 6824,1950 6818,1951 6813,1952 6808,1954 6802,1955 6797,1957 6792,1959 6787,1961 6782,1963 6777,1966 6773,1969 6768,1972 6764,1975 6760,1979 6755,1982 6752,1986 6748,1990 6744,1994 6741,1998 6738,2003 6734,2007 6732,2012 6729,2017 6727,2021 6724,2026 6722,2032 6721,2037 6719,2042 6718,2047 6717,2053 6716,2058 6715,2063 6715,2069 6715,2074 6715,2080 6715,2085 6716,2091 6717,2096 6718,2101 6719,2107 6721,2112 6722,2117 6724,2122 6727,2127 6729,2132 6732,2137 6734,2141 6738,2146 6741,2150 6744,2155 6748,2159 6752,2163 6755,2166 6760,2170 6764,2173 6768,2177 6773,2180 6777,2183 6782,2185 6787,2188 6792,2190 6797,2192 6802,2194 6808,2195 6813,2196 6818,2197 6824,2198 6829,2199 6834,2199 6840,2199 6845,2199 6851,2199 6856,2198 6862,2197 6867,2196 6872,2195 6877,2194 6883,2192 6888,2190 6893,2188 6898,2185 6902,2183 6907,2180 6912,2177 6916,2173 6920,2170 6924,2166 6928,2163 6932,2159 6936,2155 6939,2150 6942,2146 6945,2141 6948,2137 6951,2132 6953,2127 6955,2122 6957,2117 6959,2112 6961,2107 6962,2101 6963,2096 6964,2091 6964,2085 6965,2080 6965,2074 Z"/>
 <path fill="rgb(131,202,255)" stroke="none" d="M 9264,3125 L 9264,3119 9264,3114 9263,3109 9262,3103 9261,3098 9260,3093 9258,3087 9257,3082 9255,3077 9252,3072 9250,3067 9247,3062 9245,3058 9241,3053 9238,3049 9235,3045 9231,3040 9227,3037 9224,3033 9219,3029 9215,3026 9211,3023 9206,3020 9202,3017 9197,3014 9192,3012 9187,3009 9182,3007 9177,3006 9171,3004 9166,3003 9161,3002 9155,3001 9150,3000 9145,3000 9139,3000 9134,3000 9128,3000 9123,3001 9117,3002 9112,3003 9107,3004 9102,3006 9096,3007 9091,3009 9086,3012 9081,3014 9077,3017 9072,3020 9067,3023 9063,3026 9059,3029 9055,3033 9051,3037 9047,3040 9043,3045 9040,3049 9037,3053 9034,3058 9031,3062 9028,3067 9026,3072 9024,3077 9022,3082 9020,3087 9018,3093 9017,3098 9016,3103 9015,3109 9015,3114 9014,3119 9014,3125 9014,3130 9015,3136 9015,3141 9016,3147 9017,3152 9018,3157 9020,3163 9022,3168 9024,3173 9026,3178 9028,3183 9031,3187 9034,3192 9037,3197 9040,3201 9043,3205 9047,3209 9051,3213 9055,3217 9059,3221 9063,3224 9067,3227 9072,3230 9077,3233 9081,3236 9086,3238 9091,3240 9096,3242 9102,3244 9107,3246 9112,3247 9117,3248 9123,3249 9128,3249 9134,3250 9139,3250 9145,3250 9150,3249 9155,3249 9161,3248 9166,3247 9171,3246 9177,3244 9182,3242 9187,3240 9192,3238 9197,3236 9202,3233 9206,3230 9211,3227 9215,3224 9219,3221 9224,3217 9227,3213 9231,3209 9235,3205 9238,3201 9241,3197 9245,3192 9247,3187 9250,3183 9252,3178 9255,3173 9257,3168 9258,3163 9260,3157 9261,3152 9262,3147 9263,3141 9264,3136 9264,3130 9264,3125 Z"/>
 <path fill="none" stroke="rgb(131,202,255)" stroke-linejoin="round" d="M 9264,3125 L 9264,3119 9264,3114 9263,3109 9262,3103 9261,3098 9260,3093 9258,3087 9257,3082 9255,3077 9252,3072 9250,3067 9247,3062 9245,3058 9241,3053 9238,3049 9235,3045 9231,3040 9227,3037 9224,3033 9219,3029 9215,3026 9211,3023 9206,3020 9202,3017 9197,3014 9192,3012 9187,3009 9182,3007 9177,3006 9171,3004 9166,3003 9161,3002 9155,3001 9150,3000 9145,3000 9139,3000 9134,3000 9128,3000 9123,3001 9117,3002 9112,3003 9107,3004 9102,3006 9096,3007 9091,3009 9086,3012 9081,3014 9077,3017 9072,3020 9067,3023 9063,3026 9059,3029 9055,3033 9051,3037 9047,3040 9043,3045 9040,3049 9037,3053 9034,3058 9031,3062 9028,3067 9026,3072 9024,3077 9022,3082 9020,3087 9018,3093 9017,3098 9016,3103 9015,3109 9015,3114 9014,3119 9014,3125 9014,3130 9015,3136 9015,3141 9016,3147 9017,3152 9018,3157 9020,3163 9022,3168 9024,3173 9026,3178 9028,3183 9031,3187 9034,3192 9037,3197 9040,3201 9043,3205 9047,3209 9051,3213 9055,3217 9059,3221 9063,3224 9067,3227 9072,3230 9077,3233 9081,3236 9086,3238 9091,3240 9096,3242 9102,3244 9107,3246 9112,3247 9117,3248 9123,3249 9128,3249 9134,3250 9139,3250 9145,3250 9150,3249 9155,3249 9161,3248 9166,3247 9171,3246 9177,3244 9182,3242 9187,3240 9192,3238 9197,3236 9202,3233 9206,3230 9211,3227 9215,3224 9219,3221 9224,3217 9227,3213 9231,3209 9235,3205 9238,3201 9241,3197 9245,3192 9247,3187 9250,3183 9252,3178 9255,3173 9257,3168 9258,3163 9260,3157 9261,3152 9262,3147 9263,3141 9264,3136 9264,3130 9264,3125 Z"/>
 <path fill="rgb(131,202,255)" stroke="none" d="M 11564,2981 L 11564,2976 11564,2970 11563,2965 11562,2960 11561,2954 11560,2949 11559,2944 11557,2939 11555,2934 11553,2929 11550,2924 11548,2919 11545,2914 11542,2910 11538,2905 11535,2901 11531,2897 11528,2893 11524,2889 11520,2886 11515,2882 11511,2879 11506,2876 11502,2873 11497,2870 11492,2868 11487,2866 11482,2864 11477,2862 11472,2861 11466,2859 11461,2858 11456,2857 11450,2857 11445,2856 11439,2856 11434,2856 11428,2857 11423,2857 11418,2858 11412,2859 11407,2861 11402,2862 11397,2864 11391,2866 11386,2868 11382,2870 11377,2873 11372,2876 11368,2879 11363,2882 11359,2886 11355,2889 11351,2893 11347,2897 11344,2901 11340,2905 11337,2910 11334,2914 11331,2919 11328,2924 11326,2929 11324,2934 11322,2939 11320,2944 11319,2949 11317,2954 11316,2960 11315,2965 11315,2970 11314,2976 11314,2981 11314,2987 11315,2992 11315,2998 11316,3003 11317,3008 11319,3014 11320,3019 11322,3024 11324,3029 11326,3034 11328,3039 11331,3044 11334,3049 11337,3053 11340,3057 11344,3062 11347,3066 11351,3070 11355,3074 11359,3077 11363,3081 11368,3084 11372,3087 11377,3090 11382,3092 11386,3095 11391,3097 11397,3099 11402,3101 11407,3102 11412,3103 11418,3104 11423,3105 11428,3106 11434,3106 11439,3106 11445,3106 11450,3106 11456,3105 11461,3104 11466,3103 11472,3102 11477,3101 11482,3099 11487,3097 11492,3095 11497,3092 11502,3090 11506,3087 11511,3084 11515,3081 11520,3077 11524,3074 11528,3070 11531,3066 11535,3062 11538,3057 11542,3053 11545,3049 11548,3044 11550,3039 11553,3034 11555,3029 11557,3024 11559,3019 11560,3014 11561,3008 11562,3003 11563,2998 11564,2992 11564,2987 11564,2981 Z"/>
 <path fill="none" stroke="rgb(131,202,255)" stroke-linejoin="round" d="M 11564,2981 L 11564,2976 11564,2970 11563,2965 11562,2960 11561,2954 11560,2949 11559,2944 11557,2939 11555,2934 11553,2929 11550,2924 11548,2919 11545,2914 11542,2910 11538,2905 11535,2901 11531,2897 11528,2893 11524,2889 11520,2886 11515,2882 11511,2879 11506,2876 11502,2873 11497,2870 11492,2868 11487,2866 11482,2864 11477,2862 11472,2861 11466,2859 11461,2858 11456,2857 11450,2857 11445,2856 11439,2856 11434,2856 11428,2857 11423,2857 11418,2858 11412,2859 11407,2861 11402,2862 11397,2864 11391,2866 11386,2868 11382,2870 11377,2873 11372,2876 11368,2879 11363,2882 11359,2886 11355,2889 11351,2893 11347,2897 11344,2901 11340,2905 11337,2910 11334,2914 11331,2919 11328,2924 11326,2929 11324,2934 11322,2939 11320,2944 11319,2949 11317,2954 11316,2960 11315,2965 11315,2970 11314,2976 11314,2981 11314,2987 11315,2992 11315,2998 11316,3003 11317,3008 11319,3014 11320,3019 11322,3024 11324,3029 11326,3034 11328,3039 11331,3044 11334,3049 11337,3053 11340,3057 11344,3062 11347,3066 11351,3070 11355,3074 11359,3077 11363,3081 11368,3084 11372,3087 11377,3090 11382,3092 11386,3095 11391,3097 11397,3099 11402,3101 11407,3102 11412,3103 11418,3104 11423,3105 11428,3106 11434,3106 11439,3106 11445,3106 11450,3106 11456,3105 11461,3104 11466,3103 11472,3102 11477,3101 11482,3099 11487,3097 11492,3095 11497,3092 11502,3090 11506,3087 11511,3084 11515,3081 11520,3077 11524,3074 11528,3070 11531,3066 11535,3062 11538,3057 11542,3053 11545,3049 11548,3044 11550,3039 11553,3034 11555,3029 11557,3024 11559,3019 11560,3014 11561,3008 11562,3003 11563,2998 11564,2992 11564,2987 11564,2981 Z"/>
 <path fill="rgb(131,202,255)" stroke="none" d="M 13865,3392 L 13864,3386 13864,3381 13863,3375 13863,3370 13862,3365 13860,3359 13859,3354 13857,3349 13855,3344 13853,3339 13850,3334 13848,3329 13845,3324 13842,3320 13839,3316 13835,3311 13832,3307 13828,3303 13824,3299 13820,3296 13816,3292 13811,3289 13807,3286 13802,3283 13797,3281 13792,3278 13787,3276 13782,3274 13777,3272 13772,3271 13767,3270 13761,3269 13756,3268 13750,3267 13745,3267 13740,3267 13734,3267 13729,3267 13723,3268 13718,3269 13712,3270 13707,3271 13702,3272 13697,3274 13692,3276 13687,3278 13682,3281 13677,3283 13672,3286 13668,3289 13663,3292 13659,3296 13655,3299 13651,3303 13647,3307 13644,3311 13640,3316 13637,3320 13634,3324 13631,3329 13629,3334 13626,3339 13624,3344 13622,3349 13620,3354 13619,3359 13617,3365 13616,3370 13616,3375 13615,3381 13615,3386 13615,3392 13615,3397 13615,3403 13616,3408 13616,3413 13617,3419 13619,3424 13620,3429 13622,3434 13624,3439 13626,3444 13629,3449 13631,3454 13634,3459 13637,3463 13640,3468 13644,3472 13647,3476 13651,3480 13655,3484 13659,3487 13663,3491 13668,3494 13672,3497 13677,3500 13682,3502 13687,3505 13692,3507 13697,3509 13702,3511 13707,3512 13712,3514 13718,3515 13723,3516 13729,3516 13734,3516 13740,3517 13745,3516 13750,3516 13756,3516 13761,3515 13767,3514 13772,3512 13777,3511 13782,3509 13787,3507 13792,3505 13797,3502 13802,3500 13807,3497 13811,3494 13816,3491 13820,3487 13824,3484 13828,3480 13832,3476 13835,3472 13839,3468 13842,3463 13845,3459 13848,3454 13850,3449 13853,3444 13855,3439 13857,3434 13859,3429 13860,3424 13862,3419 13863,3413 13863,3408 13864,3403 13864,3397 13865,3392 Z"/>
 <path fill="none" stroke="rgb(131,202,255)" stroke-linejoin="round" d="M 13865,3392 L 13864,3386 13864,3381 13863,3375 13863,3370 13862,3365 13860,3359 13859,3354 13857,3349 13855,3344 13853,3339 13850,3334 13848,3329 13845,3324 13842,3320 13839,3316 13835,3311 13832,3307 13828,3303 13824,3299 13820,3296 13816,3292 13811,3289 13807,3286 13802,3283 13797,3281 13792,3278 13787,3276 13782,3274 13777,3272 13772,3271 13767,3270 13761,3269 13756,3268 13750,3267 13745,3267 13740,3267 13734,3267 13729,3267 13723,3268 13718,3269 13712,3270 13707,3271 13702,3272 13697,3274 13692,3276 13687,3278 13682,3281 13677,3283 13672,3286 13668,3289 13663,3292 13659,3296 13655,3299 13651,3303 13647,3307 13644,3311 13640,3316 13637,3320 13634,3324 13631,3329 13629,3334 13626,3339 13624,3344 13622,3349 13620,3354 13619,3359 13617,3365 13616,3370 13616,3375 13615,3381 13615,3386 13615,3392 13615,3397 13615,3403 13616,3408 13616,3413 13617,3419 13619,3424 13620,3429 13622,3434 13624,3439 13626,3444 13629,3449 13631,3454 13634,3459 13637,3463 13640,3468 13644,3472 13647,3476 13651,3480 13655,3484 13659,3487 13663,3491 13668,3494 13672,3497 13677,3500 13682,3502 13687,3505 13692,3507 13697,3509 13702,3511 13707,3512 13712,3514 13718,3515 13723,3516 13729,3516 13734,3516 13740,3517 13745,3516 13750,3516 13756,3516 13761,3515 13767,3514 13772,3512 13777,3511 13782,3509 13787,3507 13792,3505 13797,3502 13802,3500 13807,3497 13811,3494 13816,3491 13820,3487 13824,3484 13828,3480 13832,3476 13835,3472 13839,3468 13842,3463 13845,3459 13848,3454 13850,3449 13853,3444 13855,3439 13857,3434 13859,3429 13860,3424 13862,3419 13863,3413 13863,3408 13864,3403 13864,3397 13865,3392 Z"/>
 <text class="TextShape"><tspan class="TextParagraph" font-family="Liberation Sans, sans-serif" font-size="353px" font-weight="400"><tspan class="TextPosition" x="1963" y="6418"><tspan fill="rgb(0,0,0)" stroke="none">100</tspan></tspan></tspan></text>
 <text class="TextShape"><tspan class="TextParagraph" font-family="Liberation Sans, sans-serif" font-size="353px" font-weight="400"><tspan class="TextPosition" x="4169" y="6418"><tspan fill="rgb(0,0,0)" stroke="none">1000</tspan></tspan></tspan></text>
 <text class="TextShape"><tspan class="TextParagraph" font-family="Liberation Sans, sans-serif" font-size="353px" font-weight="400"><tspan class="TextPosition" x="6377" y="6418"><tspan fill="rgb(0,0,0)" stroke="none">10000</tspan></tspan></tspan></text>
 <text class="TextShape"><tspan class="TextParagraph" font-family="Liberation Sans, sans-serif" font-size="353px" font-weight="400"><tspan class="TextPosition" x="8584" y="6418"><tspan fill="rgb(0,0,0)" stroke="none">100000</tspan></tspan></tspan></text>
 <text class="TextShape"><tspan class="TextParagraph" font-family="Liberation Sans, sans-serif" font-size="353px" font-weight="400"><tspan class="TextPosition" x="10792" y="6418"><tspan fill="rgb(0,0,0)" stroke="none">1000000</tspan></tspan></tspan></text>
 <text class="TextShape"><tspan class="TextParagraph" font-family="Liberation Sans, sans-serif" font-size="353px" font-weight="400"><tspan class="TextPosition" x="12999" y="6418"><tspan fill="rgb(0,0,0)" stroke="none">10000000</tspan></tspan></tspan></text>
 <text class="TextShape"><tspan class="TextParagraph" font-family="Liberation Sans, sans-serif" font-size="353px" font-weight="400"><tspan class="TextPosition" x="1329" y="5971"><tspan fill="rgb(0,0,0)" stroke="none">0.00</tspan></tspan></tspan></text>
 <text class="TextShape"><tspan class="TextParagraph" font-family="Liberation Sans, sans-serif" font-size="353px" font-weight="400"><tspan class="TextPosition" x="1329" y="5545"><tspan fill="rgb(0,0,0)" stroke="none">0.50</tspan></tspan></tspan></text>
 <text class="TextShape"><tspan class="TextParagraph" font-family="Liberation Sans, sans-serif" font-size="353px" font-weight="400"><tspan class="TextPosition" x="1329" y="5120"><tspan fill="rgb(0,0,0)" stroke="none">1.00</tspan></tspan></tspan></text>
 <text class="TextShape"><tspan class="TextParagraph" font-family="Liberation Sans, sans-serif" font-size="353px" font-weight="400"><tspan class="TextPosition" x="1329" y="4694"><tspan fill="rgb(0,0,0)" stroke="none">1.50</tspan></tspan></tspan></text>
 <text class="TextShape"><tspan class="TextParagraph" font-family="Liberation Sans, sans-serif" font-size="353px" font-weight="400"><tspan class="TextPosition" x="1329" y="4269"><tspan fill="rgb(0,0,0)" stroke="none">2.00</tspan></tspan></tspan></text>
 <text class="TextShape"><tspan class="TextParagraph" font-family="Liberation Sans, sans-serif" font-size="353px" font-weight="400"><tspan class="TextPosition" x="1329" y="3844"><tspan fill="rgb(0,0,0)" stroke="none">2.50</tspan></tspan></tspan></text>
 <text class="TextShape"><tspan class="TextParagraph" font-family="Liberation Sans, sans-serif" font-size="353px" font-weight="400"><tspan class="TextPosition" x="1329" y="3418"><tspan fill="rgb(0,0,0)" stroke="none">3.00</tspan></tspan></tspan></text>
 <text class="TextShape"><tspan class="TextParagraph" font-family="Liberation Sans, sans-serif" font-size="353px" font-weight="400"><tspan class="TextPosition" x="1329" y="2993"><tspan fill="rgb(0,0,0)" stroke="none">3.50</tspan></tspan></tspan></text>
 <text class="TextShape"><tspan class="TextParagraph" font-family="Liberation Sans, sans-serif" font-size="353px" font-weight="400"><tspan class="TextPosition" x="1329" y="2567"><tspan fill="rgb(0,0,0)" stroke="none">4.00</tspan></tspan></tspan></text>
 <text class="TextShape"><tspan class="TextParagraph" font-family="Liberation Sans, sans-serif" font-size="353px" font-weight="400"><tspan class="TextPosition" x="1329" y="2143"><tspan fill="rgb(0,0,0)" stroke="none">4.50</tspan></tspan></tspan></text>
 <text class="TextShape"><tspan class="TextParagraph" font-family="Liberation Sans, sans-serif" font-size="353px" font-weight="400"><tspan class="TextPosition" x="1329" y="1718"><tspan fill="rgb(0,0,0)" stroke="none">5.00</tspan></tspan></tspan></text>
 <text class="TextShape"><tspan class="TextParagraph" font-family="Segoe UI" font-size="459px" font-weight="700"><tspan class="TextPosition" x="4027" y="940"><tspan fill="rgb(0,0,0)" stroke="none">Teardown in bulks of 100 items</tspan></tspan></tspan></text>
 <path fill="none" stroke="rgb(0,69,134)" stroke-width="80" stroke-linejoin="round" d="M 667,7993 L 1467,7993"/>
 <path fill="rgb(0,69,134)" stroke="none" d="M 961,7888 L 961,8099 1172,8099 1172,7888 961,7888 Z"/>
 <path fill="none" stroke="rgb(0,69,134)" stroke-linejoin="round" d="M 961,7888 L 961,8099 1172,8099 1172,7888 961,7888 Z"/>
 <path fill="none" stroke="rgb(255,66,14)" stroke-width="80" stroke-linejoin="round" d="M 7568,7993 L 8368,7993"/>
 <path fill="rgb(255,66,14)" stroke="none" d="M 7862,7993 L 7968,8099 8073,7993 7968,7888 7862,7993 Z"/>
 <path fill="none" stroke="rgb(255,66,14)" stroke-linejoin="round" d="M 7862,7993 L 7968,8099 8073,7993 7968,7888 7862,7993 Z"/>
 <path fill="none" stroke="rgb(255,211,32)" stroke-width="80" stroke-linejoin="round" d="M 667,8491 L 1467,8491"/>
 <path fill="rgb(255,211,32)" stroke="none" d="M 961,8386 L 961,8597 1172,8597 1172,8386 961,8386 Z"/>
 <path fill="none" stroke="rgb(255,211,32)" stroke-linejoin="round" d="M 961,8386 L 961,8597 1172,8597 1172,8386 961,8386 Z"/>
 <path fill="none" stroke="rgb(87,157,28)" stroke-width="80" stroke-linejoin="round" d="M 7568,8491 L 8368,8491"/>
 <path fill="rgb(87,157,28)" stroke="none" d="M 7862,8597 L 8073,8597 7968,8386 7862,8597 Z"/>
 <path fill="none" stroke="rgb(87,157,28)" stroke-linejoin="round" d="M 7862,8597 L 8073,8597 7968,8386 7862,8597 Z"/>
 <path fill="none" stroke="rgb(126,0,33)" stroke-width="80" stroke-linejoin="round" d="M 667,8989 L 1467,8989"/>
 <path fill="rgb(126,0,33)" stroke="none" d="M 961,8884 L 961,9095 1172,8989 961,8884 Z"/>
 <path fill="none" stroke="rgb(126,0,33)" stroke-linejoin="round" d="M 961,8884 L 961,9095 1172,8989 961,8884 Z"/>
 <path fill="none" stroke="rgb(131,202,255)" stroke-width="80" stroke-linejoin="round" d="M 7568,8989 L 8368,8989"/>
 <path fill="rgb(131,202,255)" stroke="none" d="M 8073,8989 L 8073,8984 8073,8980 8072,8975 8071,8971 8070,8966 8069,8962 8068,8957 8067,8953 8065,8949 8063,8944 8061,8940 8059,8936 8056,8932 8054,8928 8051,8925 8048,8921 8045,8918 8042,8914 8039,8911 8035,8908 8032,8905 8028,8903 8024,8900 8020,8898 8016,8895 8012,8893 8008,8892 8004,8890 7999,8888 7995,8887 7990,8886 7986,8885 7981,8884 7977,8884 7972,8884 7968,8884 7963,8884 7958,8884 7954,8884 7949,8885 7945,8886 7940,8887 7936,8888 7931,8890 7927,8892 7923,8893 7919,8895 7915,8898 7911,8900 7907,8903 7903,8905 7900,8908 7896,8911 7893,8914 7890,8918 7887,8921 7884,8925 7881,8928 7879,8932 7876,8936 7874,8940 7872,8944 7870,8949 7868,8953 7867,8957 7866,8962 7865,8966 7864,8971 7863,8975 7862,8980 7862,8984 7862,8989 7862,8994 7862,8998 7863,9003 7864,9007 7865,9012 7866,9016 7867,9021 7868,9025 7870,9029 7872,9034 7874,9038 7876,9042 7879,9046 7881,9050 7884,9053 7887,9057 7890,9060 7893,9064 7896,9067 7900,9070 7903,9073 7907,9075 7911,9078 7915,9080 7919,9083 7923,9085 7927,9086 7931,9088 7936,9090 7940,9091 7945,9092 7949,9093 7954,9094 7958,9094 7963,9094 7968,9095 7972,9094 7977,9094 7981,9094 7986,9093 7990,9092 7995,9091 7999,9090 8004,9088 8008,9086 8012,9085 8016,9083 8020,9080 8024,9078 8028,9075 8032,9073 8035,9070 8039,9067 8042,9064 8045,9060 8048,9057 8051,9053 8054,9050 8056,9046 8059,9042 8061,9038 8063,9034 8065,9029 8067,9025 8068,9021 8069,9016 8070,9012 8071,9007 8072,9003 8073,8998 8073,8994 8073,8989 Z"/>
 <path fill="none" stroke="rgb(131,202,255)" stroke-linejoin="round" d="M 8073,8989 L 8073,8984 8073,8980 8072,8975 8071,8971 8070,8966 8069,8962 8068,8957 8067,8953 8065,8949 8063,8944 8061,8940 8059,8936 8056,8932 8054,8928 8051,8925 8048,8921 8045,8918 8042,8914 8039,8911 8035,8908 8032,8905 8028,8903 8024,8900 8020,8898 8016,8895 8012,8893 8008,8892 8004,8890 7999,8888 7995,8887 7990,8886 7986,8885 7981,8884 7977,8884 7972,8884 7968,8884 7963,8884 7958,8884 7954,8884 7949,8885 7945,8886 7940,8887 7936,8888 7931,8890 7927,8892 7923,8893 7919,8895 7915,8898 7911,8900 7907,8903 7903,8905 7900,8908 7896,8911 7893,8914 7890,8918 7887,8921 7884,8925 7881,8928 7879,8932 7876,8936 7874,8940 7872,8944 7870,8949 7868,8953 7867,8957 7866,8962 7865,8966 7864,8971 7863,8975 7862,8980 7862,8984 7862,8989 7862,8994 7862,8998 7863,9003 7864,9007 7865,9012 7866,9016 7867,9021 7868,9025 7870,9029 7872,9034 7874,9038 7876,9042 7879,9046 7881,9050 7884,9053 7887,9057 7890,9060 7893,9064 7896,9067 7900,9070 7903,9073 7907,9075 7911,9078 7915,9080 7919,9083 7923,9085 7927,9086 7931,9088 7936,9090 7940,9091 7945,9092 7949,9093 7954,9094 7958,9094 7963,9094 7968,9095 7972,9094 7977,9094 7981,9094 7986,9093 7990,9092 7995,9091 7999,9090 8004,9088 8008,9086 8012,9085 8016,9083 8020,9080 8024,9078 8028,9075 8032,9073 8035,9070 8039,9067 8042,9064 8045,9060 8048,9057 8051,9053 8054,9050 8056,9046 8059,9042 8061,9038 8063,9034 8065,9029 8067,9025 8068,9021 8069,9016 8070,9012 8071,9007 8072,9003 8073,8998 8073,8994 8073,8989 Z"/>
 <text class="TextShape"><tspan class="TextParagraph" font-family="Liberation Sans, sans-serif" font-size="353px" font-weight="400"><tspan class="TextPosition" x="1567" y="8113"><tspan fill="rgb(0,0,0)" stroke="none">TeardownSet::delete_range()         </tspan></tspan></tspan></text>
 <text class="TextShape"><tspan class="TextParagraph" font-family="Liberation Sans, sans-serif" font-size="353px" font-weight="400"><tspan class="TextPosition" x="8468" y="8113"><tspan fill="rgb(0,0,0)" stroke="none">TeardownMap::delete_range()         </tspan></tspan></tspan></text>
 <text class="TextShape"><tspan class="TextParagraph" font-family="Liberation Sans, sans-serif" font-size="353px" font-weight="400"><tspan class="TextPosition" x="1567" y="8611"><tspan fill="rgb(0,0,0)" stroke="none">TeardownSet::filter_range()         </tspan></tspan></tspan></text>
 <text class="TextShape"><tspan class="TextParagraph" font-family="Liberation Sans, sans-serif" font-size="353px" font-weight="400"><tspan class="TextPosition" x="8468" y="8611"><tspan fill="rgb(0,0,0)" stroke="none">IntervalTeardownSet::delete_overlap()</tspan></tspan></tspan></text>
 <text class="TextShape"><tspan class="TextParagraph" font-family="Liberation Sans, sans-serif" font-size="353px" font-weight="400"><tspan class="TextPosition" x="1567" y="9109"><tspan fill="rgb(0,0,0)" stroke="none">IntervalTeardownMap::delete_overlap()</tspan></tspan></tspan></text>
 <text class="TextShape"><tspan class="TextParagraph" font-family="Liberation Sans, sans-serif" font-size="353px" font-weight="400"><tspan class="TextPosition" x="8468" y="9109"><tspan fill="rgb(0,0,0)" stroke="none">IntervalTeardownSet::filter_overlap()</tspan></tspan></tspan></text>
 <text class="TextShape"><tspan class="TextParagraph" font-family="Segoe UI" font-size="318px" font-weight="700"><tspan class="TextPosition" x="7787" y="7102"><tspan fill="rgb(0,0,0)" stroke="none">N</tspan></tspan></tspan></text>
 <text class="TextShape" transform="translate(860,4914) rotate(-90) translate(-860,-4914)"><tspan class="TextParagraph" font-family="Segoe UI" font-size="318px" font-weight="700"><tspan class="TextPosition" x="860" y="4914"><tspan fill="rgb(0,0,0)" stroke="none">Times slower</tspan></tspan></tspan></text>
</svg>