<?xml version="1.0" encoding="UTF-8"?>
<!DOCTYPE svg PUBLIC "-//W3C//DTD SVG 1.1//EN" "http://www.w3.org/Graphics/SVG/1.1/DTD/svg11.dtd">
<svg width="148mm" height="95mm" viewBox="0 0 14800 9500" version="1.1" xmlns="http://www.w3.org/2000/svg" stroke-width="28.222" stroke-linejoin="round" xml:space="preserve">
 <path fill="rgb(255,255,255)" stroke="none" d="M 7387,9474 L -5,9474 -5,0 14778,0 14778,9474 7387,9474 Z"/>
 <path fill="none" stroke="rgb(0,0,0)" stroke-linejoin="round" d="M 7387,9474 L -5,9474 -5,0 14778,0 14778,9474 7387,9474 Z"/>
 <path fill="none" stroke="rgb(179,179,179)" stroke-linejoin="round" d="M 7990,5851 L 2240,5851 2240,1598 13740,1598 13740,5851 7990,5851 Z"/>
 <path fill="none" stroke="rgb(179,179,179)" stroke-linejoin="round" d="M 13739,5850 L 2240,5850"/>
 <path fill="none" stroke="rgb(179,179,179)" stroke-linejoin="round" d="M 13739,5424 L 2240,5424"/>
 <path fill="none" stroke="rgb(179,179,179)" stroke-linejoin="round" d="M 13739,4999 L 2240,4999"/>
 <path fill="none" stroke="rgb(179,179,179)" stroke-linejoin="round" d="M 13739,4574 L 2240,4574"/>
 <path fill="none" stroke="rgb(179,179,179)" stroke-linejoin="round" d="M 13739,4149 L 2240,4149"/>
 <path fill="none" stroke="rgb(179,179,179)" stroke-linejoin="round" d="M 13739,3724 L 2240,3724"/>
 <path fill="none" stroke="rgb(179,179,179)" stroke-linejoin="round" d="M 13739,3298 L 2240,3298"/>
 <path fill="none" stroke="rgb(179,179,179)" stroke-linejoin="round" d="M 13739,2873 L 2240,2873"/>
 <path fill="none" stroke="rgb(179,179,179)" stroke-linejoin="round" d="M 13739,2447 L 2240,2447"/>
 <path fill="none" stroke="rgb(179,179,179)" stroke-linejoin="round" d="M 13739,2022 L 2240,2022"/>
 <path fill="none" stroke="rgb(179,179,179)" stroke-linejoin="round" d="M 13739,1597 L 2240,1597"/>
 <path fill="none" stroke="rgb(179,179,179)" stroke-linejoin="round" d="M 2240,6000 L 2240,5850"/>
 <path fill="none" stroke="rgb(179,179,179)" stroke-linejoin="round" d="M 2240,6000 L 2240,5850"/>
 <path fill="none" stroke="rgb(179,179,179)" stroke-linejoin="round" d="M 5115,6000 L 5115,5850"/>
 <path fill="none" stroke="rgb(179,179,179)" stroke-linejoin="round" d="M 5115,6000 L 5115,5850"/>
 <path fill="none" stroke="rgb(179,179,179)" stroke-linejoin="round" d="M 7989,6000 L 7989,5850"/>
 <path fill="none" stroke="rgb(179,179,179)" stroke-linejoin="round" d="M 7989,6000 L 7989,5850"/>
 <path fill="none" stroke="rgb(179,179,179)" stroke-linejoin="round" d="M 10864,6000 L 10864,5850"/>
 <path fill="none" stroke="rgb(179,179,179)" stroke-linejoin="round" d="M 10864,6000 L 10864,5850"/>
 <path fill="none" stroke="rgb(179,179,179)" stroke-linejoin="round" d="M 13739,6000 L 13739,5850"/>
 <path fill="none" stroke="rgb(179,179,179)" stroke-linejoin="round" d="M 13739,6000 L 13739,5850"/>
 <path fill="none" stroke="rgb(179,179,179)" stroke-linejoin="round" d="M 2240,5850 L 13739,5850"/>
 <path fill="none" stroke="rgb(179,179,179)" stroke-linejoin="round" d="M 2090,5850 L 2240,5850"/>
 <path fill="none" stroke="rgb(179,179,179)" stroke-linejoin="round" d="M 2090,5850 L 2240,5850"/>
 <path fill="none" stroke="rgb(179,179,179)" stroke-linejoin="round" d="M 2090,5424 L 2240,5424"/>
 <path fill="none" stroke="rgb(179,179,179)" stroke-linejoin="round" d="M 2090,5424 L 2240,5424"/>
 <path fill="none" stroke="rgb(179,179,179)" stroke-linejoin="round" d="M 2090,4999 L 2240,4999"/>
 <path fill="none" stroke="rgb(179,179,179)" stroke-linejoin="round" d="M 2090,4999 L 2240,4999"/>
 <path fill="none" stroke="rgb(179,179,179)" stroke-linejoin="round" d="M 2090,4574 L 2240,4574"/>
 <path fill="none" stroke="rgb(179,179,179)" stroke-linejoin="round" d="M 2090,4574 L 2240,4574"/>
 <path fill="none" stroke="rgb(179,179,179)" stroke-linejoin="round" d="M 2090,4149 L 2240,4149"/>
 <path fill="none" stroke="rgb(179,179,179)" stroke-linejoin="round" d="M 2090,4149 L 2240,4149"/>
 <path fill="none" stroke="rgb(179,179,179)" stroke-linejoin="round" d="M 2090,3724 L 2240,3724"/>
 <path fill="none" stroke="rgb(179,179,179)" stroke-linejoin="round" d="M 2090,3724 L 2240,3724"/>
 <path fill="none" stroke="rgb(179,179,179)" stroke-linejoin="round" d="M 2090,3298 L 2240,3298"/>
 <path fill="none" stroke="rgb(179,179,179)" stroke-linejoin="round" d="M 2090,3298 L 2240,3298"/>
 <path fill="none" stroke="rgb(179,179,179)" stroke-linejoin="round" d="M 2090,2873 L 2240,2873"/>
 <path fill="none" stroke="rgb(179,179,179)" stroke-linejoin="round" d="M 2090,2873 L 2240,2873"/>
 <path fill="none" stroke="rgb(179,179,179)" stroke-linejoin="round" d="M 2090,2447 L 2240,2447"/>
 <path fill="none" stroke="rgb(179,179,179)" stroke-linejoin="round" d="M 2090,2447 L 2240,2447"/>
 <path fill="none" stroke="rgb(179,179,179)" stroke-linejoin="round" d="M 2090,2022 L 2240,2022"/>
 <path fill="none" stroke="rgb(179,179,179)" stroke-linejoin="round" d="M 2090,2022 L 2240,2022"/>
 <path fill="none" stroke="rgb(179,179,179)" stroke-linejoin="round" d="M 2090,1597 L 2240,1597"/>
 <path fill="none" stroke="rgb(179,179,179)" stroke-linejoin="round" d="M 2090,1597 L 2240,1597"/>
 <path fill="none" stroke="rgb(179,179,179)" stroke-linejoin="round" d="M 2240,5850 L 2240,1597"/>
 <path fill="none" stroke="rgb(0,69,134)" stroke-width="80" stroke-linejoin="round" d="M 2240,4999 L 5115,4999 7989,4999 10864,4999 13739,4999"/>
 <path fill="rgb(0,69,134)" stroke="none" d="M 2115,4874 L 2115,5124 2365,5124 2365,4874 2115,4874 Z"/>
 <path fill="none" stroke="rgb(0,69,134)" stroke-linejoin="round" d="M 2115,4874 L 2115,5124 2365,5124 2365,4874 2115,4874 Z"/>
 <path fill="rgb(0,69,134)" stroke="none" d="M 4990,4874 L 4990,5124 5240,5124 5240,4874 4990,4874 Z"/>
 <path fill="none" stroke="rgb(0,69,134)" stroke-linejoin="round" d="M 4990,4874 L 4990,5124 5240,5124 5240,4874 4990,4874 Z"/>
 <path fill="rgb(0,69,134)" stroke="none" d="M 7864,4874 L 7864,5124 8114,5124 8114,4874 7864,4874 Z"/>
 <path fill="none" stroke="rgb(0,69,134)" stroke-linejoin="round" d="M 7864,4874 L 7864,5124 8114,5124 8114,4874 7864,4874 Z"/>
 <path fill="rgb(0,69,134)" stroke="none" d="M 10739,4874 L 10739,5124 10989,5124 10989,4874 10739,4874 Z"/>
 <path fill="none" stroke="rgb(0,69,134)" stroke-linejoin="round" d="M 10739,4874 L 10739,5124 10989,5124 10989,4874 10739,4874 Z"/>
 <path fill="rgb(0,69,134)" stroke="none" d="M 13614,4874 L 13614,5124 13864,5124 13864,4874 13614,4874 Z"/>
 <path fill="none" stroke="rgb(0,69,134)" stroke-linejoin="round" d="M 13614,4874 L 13614,5124 13864,5124 13864,4874 13614,4874 Z"/>
 <path fill="none" stroke="rgb(255,66,14)" stroke-width="80" stroke-linejoin="round" d="M 2240,4837 L 5115,4926 7989,4934 10864,4799 13739,4909"/>
 <path fill="rgb(255,66,14)" stroke="none" d="M 2115,4837 L 2240,4962 2365,4837 2240,4713 2115,4837 Z"/>
 <path fill="none" stroke="rgb(255,66,14)" stroke-linejoin="round" d="M 2115,4837 L 2240,4962 2365,4837 2240,4713 2115,4837 Z"/>
 <path fill="rgb(255,66,14)" stroke="none" d="M 4990,4926 L 5115,5051 5240,4926 5115,4801 4990,4926 Z"/>
 <path fill="none" stroke="rgb(255,66,14)" stroke-linejoin="round" d="M 4990,4926 L 5115,5051 5240,4926 5115,4801 4990,4926 Z"/>
 <path fill="rgb(255,66,14)" stroke="none" d="M 7864,4934 L 7989,5059 8114,4934 7989,4809 7864,4934 Z"/>
 <path fill="none" stroke="rgb(255,66,14)" stroke-linejoin="round" d="M 7864,4934 L 7989,5059 8114,4934 7989,4809 7864,4934 Z"/>
 <path fill="rgb(255,66,14)" stroke="none" d="M 10739,4799 L 10864,4924 10989,4799 10864,4675 10739,4799 Z"/>
 <path fill="none" stroke="rgb(255,66,14)" stroke-linejoin="round" d="M 10739,4799 L 10864,4924 10989,4799 10864,4675 10739,4799 Z"/>
 <path fill="rgb(255,66,14)" stroke="none" d="M 13614,4909 L 13739,5034 13864,4909 13739,4784 13614,4909 Z"/>
 <path fill="none" stroke="rgb(255,66,14)" stroke-linejoin="round" d="M 13614,4909 L 13739,5034 13864,4909 13739,4784 13614,4909 Z"/>
 <path fill="none" stroke="rgb(255,211,32)" stroke-width="80" stroke-linejoin="round" d="M 2240,3077 L 5115,3063 7989,3185 10864,3359 13739,3794"/>
 <path fill="rgb(255,211,32)" stroke="none" d="M 2115,2952 L 2115,3202 2365,3202 2365,2952 2115,2952 Z"/>
 <path fill="none" stroke="rgb(255,211,32)" stroke-linejoin="round" d="M 2115,2952 L 2115,3202 2365,3202 2365,2952 2115,2952 Z"/>
 <path fill="rgb(255,211,32)" stroke="none" d="M 4990,2938 L 4990,3188 5240,3188 5240,2938 4990,2938 Z"/>
 <path fill="none" stroke="rgb(255,211,32)" stroke-linejoin="round" d="M 4990,2938 L 4990,3188 5240,3188 5240,2938 4990,2938 Z"/>
 <path fill="rgb(255,211,32)" stroke="none" d="M 7864,3060 L 7864,3310 8114,3310 8114,3060 7864,3060 Z"/>
 <path fill="none" stroke="rgb(255,211,32)" stroke-linejoin="round" d="M 7864,3060 L 7864,3310 8114,3310 8114,3060 7864,3060 Z"/>
 <path fill="rgb(255,211,32)" stroke="none" d="M 10739,3234 L 10739,3484 10989,3484 10989,3234 10739,3234 Z"/>
 <path fill="none" stroke="rgb(255,211,32)" stroke-linejoin="round" d="M 10739,3234 L 10739,3484 10989,3484 10989,3234 10739,3234 Z"/>
 <path fill="rgb(255,211,32)" stroke="none" d="M 13614,3669 L 13614,3919 13864,3919 13864,3669 13614,3669 Z"/>
 <path fill="none" stroke="rgb(255,211,32)" stroke-linejoin="round" d="M 13614,3669 L 13614,3919 13864,3919 13864,3669 13614,3669 Z"/>
 <path fill="none" stroke="rgb(87,157,28)" stroke-width="80" stroke-linejoin="round" d="M 2240,4858 L 5115,4682 7989,4709 10864,4636 13739,4723"/>
 <path fill="rgb(87,157,28)" stroke="none" d="M 2115,4983 L 2365,4983 2240,4734 2115,4983 Z"/>
 <path fill="none" stroke="rgb(87,157,28)" stroke-linejoin="round" d="M 2115,4983 L 2365,4983 2240,4734 2115,4983 Z"/>
 <path fill="rgb(87,157,28)" stroke="none" d="M 4990,4806 L 5240,4806 5115,4557 4990,4806 Z"/>
 <path fill="none" stroke="rgb(87,157,28)" stroke-linejoin="round" d="M 4990,4806 L 5240,4806 5115,4557 4990,4806 Z"/>
 <path fill="rgb(87,157,28)" stroke="none" d="M 7864,4833 L 8114,4833 7989,4584 7864,4833 Z"/>
 <path fill="none" stroke="rgb(87,157,28)" stroke-linejoin="round" d="M 7864,4833 L 8114,4833 7989,4584 7864,4833 Z"/>
 <path fill="rgb(87,157,28)" stroke="none" d="M 10739,4760 L 10989,4760 10864,4511 10739,4760 Z"/>
 <path fill="none" stroke="rgb(87,157,28)" stroke-linejoin="round" d="M 10739,4760 L 10989,4760 10864,4511 10739,4760 Z"/>
 <path fill="rgb(87,157,28)" stroke="none" d="M 13614,4847 L 13864,4847 13739,4598 13614,4847 Z"/>
 <path fill="none" stroke="rgb(87,157,28)" stroke-linejoin="round" d="M 13614,4847 L 13864,4847 13739,4598 13614,4847 Z"/>
 <path fill="none" stroke="rgb(126,0,33)" stroke-width="80" stroke-linejoin="round" d="M 2240,4442 L 5115,4380 7989,4389 10864,4328 13739,4450"/>
 <path fill="rgb(126,0,33)" stroke="none" d="M 2115,4317 L 2115,4567 2365,4442 2115,4317 Z"/>
 <path fill="none" stroke="rgb(126,0,33)" stroke-linejoin="round" d="M 2115,4317 L 2115,4567 2365,4442 2115,4317 Z"/>
 <path fill="rgb(126,0,33)" stroke="none" d="M 4990,4255 L 4990,4505 5240,4380 4990,4255 Z"/>
 <path fill="none" stroke="rgb(126,0,33)" stroke-linejoin="round" d="M 4990,4255 L 4990,4505 5240,4380 4990,4255 Z"/>
 <path fill="rgb(126,0,33)" stroke="none" d="M 7864,4264 L 7864,4514 8114,4389 7864,4264 Z"/>
 <path fill="none" stroke="rgb(126,0,33)" stroke-linejoin="round" d="M 7864,4264 L 7864,4514 8114,4389 7864,4264 Z"/>
 <path fill="rgb(126,0,33)" stroke="none" d="M 10739,4203 L 10739,4453 10989,4328 10739,4203 Z"/>
 <path fill="none" stroke="rgb(126,0,33)" stroke-linejoin="round" d="M 10739,4203 L 10739,4453 10989,4328 10739,4203 Z"/>
 <path fill="rgb(126,0,33)" stroke="none" d="M 13614,4325 L 13614,4575 13864,4450 13614,4325 Z"/>
 <path fill="none" stroke="rgb(126,0,33)" stroke-linejoin="round" d="M 13614,4325 L 13614,4575 13864,4450 13614,4325 Z"/>
 <path fill="none" stroke="rgb(131,202,255)" stroke-width="80" stroke-linejoin="round" d="M 2240,2175 L 5115,2145 7989,2185 10864,2491 13739,2913"/>
 <path fill="rgb(131,202,255)" stroke="none" d="M 2365,2175 L 2364,2169 2364,2164 2363,2159 2363,2153 2362,2148 2360,2143 2359,2137 2357,2132 2355,2127 2353,2122 2350,2117 2348,2112 2345,2108 2342,2103 2339,2099 2335,2095 2332,2090 2328,2087 2324,2083 2320,2079 2316,2076 2311,2073 2307,2069 2302,2067 2297,2064 2292,2062 2287,2059 2282,2057 2277,2056 2272,2054 2267,2053 2261,2052 2256,2051 2250,2050 2245,2050 2240,2050 2234,2050 2229,2050 2223,2051 2218,2052 2212,2053 2207,2054 2202,2056 2197,2057 2192,2059 2187,2062 2182,2064 2177,2067 2172,2069 2168,2073 2163,2076 2159,2079 2155,2083 2151,2087 2147,2090 2144,2095 2140,2099 2137,2103 2134,2108 2131,2112 2129,2117 2126,2122 2124,2127 2122,2132 2120,2137 2119,2143 2117,2148 2116,2153 2116,2159 2115,2164 2115,2169 2115,2175 2115,2180 2115,2186 2116,2191 2116,2197 2117,2202 2119,2207 2120,2213 2122,2218 2124,2223 2126,2228 2129,2233 2131,2237 2134,2242 2137,2247 2140,2251 2144,2255 2147,2259 2151,2263 2155,2267 2159,2271 2163,2274 2168,2277 2172,2280 2177,2283 2182,2286 2187,2288 2192,2290 2197,2292 2202,2294 2207,2296 2212,2297 2218,2298 2223,2299 2229,2299 2234,2300 2240,2300 2245,2300 2250,2299 2256,2299 2261,2298 2267,2297 2272,2296 2277,2294 2282,2292 2287,2290 2292,2288 2297,2286 2302,2283 2307,2280 2311,2277 2316,2274 2320,2271 2324,2267 2328,2263 2332,2259 2335,2255 2339,2251 2342,2247 2345,2242 2348,2237 2350,2233 2353,2228 2355,2223 2357,2218 2359,2213 2360,2207 2362,2202 2363,2197 2363,2191 2364,2186 2364,2180 2365,2175 Z"/>
 <path fill="none" stroke="rgb(131,202,255)" stroke-linejoin="round" d="M 2365,2175 L 2364,2169 2364,2164 2363,2159 2363,2153 2362,2148 2360,2143 2359,2137 2357,2132 2355,2127 2353,2122 2350,2117 2348,2112 2345,2108 2342,2103 2339,2099 2335,2095 2332,2090 2328,2087 2324,2083 2320,2079 2316,2076 2311,2073 2307,2069 2302,2067 2297,2064 2292,2062 2287,2059 2282,2057 2277,2056 2272,2054 2267,2053 2261,2052 2256,2051 2250,2050 2245,2050 2240,2050 2234,2050 2229,2050 2223,2051 2218,2052 2212,2053 2207,2054 2202,2056 2197,2057 2192,2059 2187,2062 2182,2064 2177,2067 2172,2069 2168,2073 2163,2076 2159,2079 2155,2083 2151,2087 2147,2090 2144,2095 2140,2099 2137,2103 2134,2108 2131,2112 2129,2117 2126,2122 2124,2127 2122,2132 2120,2137 2119,2143 2117,2148 2116,2153 2116,2159 2115,2164 2115,2169 2115,2175 2115,2180 2115,2186 2116,2191 2116,2197 2117,2202 2119,2207 2120,2213 2122,2218 2124,2223 2126,2228 2129,2233 2131,2237 2134,2242 2137,2247 2140,2251 2144,2255 2147,2259 2151,2263 2155,2267 2159,2271 2163,2274 2168,2277 2172,2280 2177,2283 2182,2286 2187,2288 2192,2290 2197,2292 2202,2294 2207,2296 2212,2297 2218,2298 2223,2299 2229,2299 2234,2300 2240,2300 2245,2300 2250,2299 2256,2299 2261,2298 2267,2297 2272,2296 2277,2294 2282,2292 2287,2290 2292,2288 2297,2286 2302,2283 2307,2280 2311,2277 2316,2274 2320,2271 2324,2267 2328,2263 2332,2259 2335,2255 2339,2251 2342,2247 2345,2242 2348,2237 2350,2233 2353,2228 2355,2223 2357,2218 2359,2213 2360,2207 2362,2202 2363,2197 2363,2191 2364,2186 2364,2180 2365,2175 Z"/>
 <path fill="rgb(131,202,255)" stroke="none" d="M 5240,2145 L 5240,2139 5239,2134 5239,2129 5238,2123 5237,2118 5235,2113 5234,2107 5232,2102 5230,2097 5228,2092 5226,2087 5223,2082 5220,2078 5217,2073 5214,2069 5211,2065 5207,2061 5203,2057 5199,2053 5195,2049 5191,2046 5186,2043 5182,2040 5177,2037 5172,2034 5168,2032 5163,2029 5158,2027 5152,2026 5147,2024 5142,2023 5136,2022 5131,2021 5126,2020 5120,2020 5115,2020 5109,2020 5104,2020 5098,2021 5093,2022 5088,2023 5082,2024 5077,2026 5072,2027 5067,2029 5062,2032 5057,2034 5052,2037 5048,2040 5043,2043 5039,2046 5034,2049 5030,2053 5026,2057 5023,2061 5019,2065 5016,2069 5012,2073 5009,2078 5006,2082 5004,2087 5001,2092 4999,2097 4997,2102 4996,2107 4994,2113 4993,2118 4992,2123 4991,2129 4990,2134 4990,2139 4990,2145 4990,2150 4990,2156 4991,2161 4992,2167 4993,2172 4994,2177 4996,2183 4997,2188 4999,2193 5001,2198 5004,2203 5006,2207 5009,2212 5012,2217 5016,2221 5019,2225 5023,2229 5026,2233 5030,2237 5034,2241 5039,2244 5043,2247 5048,2250 5052,2253 5057,2256 5062,2258 5067,2260 5072,2262 5077,2264 5082,2266 5088,2267 5093,2268 5098,2269 5104,2269 5109,2270 5115,2270 5120,2270 5126,2269 5131,2269 5136,2268 5142,2267 5147,2266 5152,2264 5158,2262 5163,2260 5168,2258 5172,2256 5177,2253 5182,2250 5186,2247 5191,2244 5195,2241 5199,2237 5203,2233 5207,2229 5211,2225 5214,2221 5217,2217 5220,2212 5223,2207 5226,2203 5228,2198 5230,2193 5232,2188 5234,2183 5235,2177 5237,2172 5238,2167 5239,2161 5239,2156 5240,2150 5240,2145 Z"/>
 <path fill="none" stroke="rgb(131,202,255)" stroke-linejoin="round" d="M 5240,2145 L 5240,2139 5239,2134 5239,2129 5238,2123 5237,2118 5235,2113 5234,2107 5232,2102 5230,2097 5228,2092 5226,2087 5223,2082 5220,2078 5217,2073 5214,2069 5211,2065 5207,2061 5203,2057 5199,2053 5195,2049 5191,2046 5186,2043 5182,2040 5177,2037 5172,2034 5168,2032 5163,2029 5158,2027 5152,2026 5147,2024 5142,2023 5136,2022 5131,2021 5126,2020 5120,2020 5115,2020 5109,2020 5104,2020 5098,2021 5093,2022 5088,2023 5082,2024 5077,2026 5072,2027 5067,2029 5062,2032 5057,2034 5052,2037 5048,2040 5043,2043 5039,2046 5034,2049 5030,2053 5026,2057 5023,2061 5019,2065 5016,2069 5012,2073 5009,2078 5006,2082 5004,2087 5001,2092 4999,2097 4997,2102 4996,2107 4994,2113 4993,2118 4992,2123 4991,2129 4990,2134 4990,2139 4990,2145 4990,2150 4990,2156 4991,2161 4992,2167 4993,2172 4994,2177 4996,2183 4997,2188 4999,2193 5001,2198 5004,2203 5006,2207 5009,2212 5012,2217 5016,2221 5019,2225 5023,2229 5026,2233 5030,2237 5034,2241 5039,2244 5043,2247 5048,2250 5052,2253 5057,2256 5062,2258 5067,2260 5072,2262 5077,2264 5082,2266 5088,2267 5093,2268 5098,2269 5104,2269 5109,2270 5115,2270 5120,2270 5126,2269 5131,2269 5136,2268 5142,2267 5147,2266 5152,2264 5158,2262 5163,2260 5168,2258 5172,2256 5177,2253 5182,2250 5186,2247 5191,2244 5195,2241 5199,2237 5203,2233 5207,2229 5211,2225 5214,2221 5217,2217 5220,2212 5223,2207 5226,2203 5228,2198 5230,2193 5232,2188 5234,2183 5235,2177 5237,2172 5238,2167 5239,2161 5239,2156 5240,2150 5240,2145 Z"/>
 <path fill="rgb(131,202,255)" stroke="none" d="M 8114,2185 L 8114,2180 8114,2174 8113,2169 8112,2163 8111,2158 8110,2153 8108,2147 8106,2142 8104,2137 8102,2132 8100,2127 8097,2123 8094,2118 8091,2113 8088,2109 8085,2105 8081,2101 8077,2097 8073,2093 8069,2089 8065,2086 8061,2083 8056,2080 8051,2077 8047,2074 8042,2072 8037,2070 8032,2068 8027,2066 8021,2064 8016,2063 8011,2062 8005,2061 8000,2061 7994,2060 7989,2060 7984,2060 7978,2061 7973,2061 7967,2062 7962,2063 7957,2064 7951,2066 7946,2068 7941,2070 7936,2072 7931,2074 7926,2077 7922,2080 7917,2083 7913,2086 7909,2089 7905,2093 7901,2097 7897,2101 7893,2105 7890,2109 7887,2113 7884,2118 7881,2123 7878,2127 7876,2132 7874,2137 7872,2142 7870,2147 7868,2153 7867,2158 7866,2163 7865,2169 7864,2174 7864,2180 7864,2185 7864,2191 7864,2196 7865,2201 7866,2207 7867,2212 7868,2217 7870,2223 7872,2228 7874,2233 7876,2238 7878,2243 7881,2248 7884,2252 7887,2257 7890,2261 7893,2265 7897,2270 7901,2273 7905,2277 7909,2281 7913,2284 7917,2287 7922,2290 7926,2293 7931,2296 7936,2298 7941,2301 7946,2303 7951,2304 7957,2306 7962,2307 7967,2308 7973,2309 7978,2310 7984,2310 7989,2310 7994,2310 8000,2310 8005,2309 8011,2308 8016,2307 8021,2306 8027,2304 8032,2303 8037,2301 8042,2298 8047,2296 8051,2293 8056,2290 8061,2287 8065,2284 8069,2281 8073,2277 8077,2273 8081,2270 8085,2265 8088,2261 8091,2257 8094,2252 8097,2248 8100,2243 8102,2238 8104,2233 8106,2228 8108,2223 8110,2217 8111,2212 8112,2207 8113,2201 8114,2196 8114,2191 8114,2185 Z"/>
 <path fill="none" stroke="rgb(131,202,255)" stroke-linejoin="round" d="M 8114,2185 L 8114,2180 8114,2174 8113,2169 8112,2163 8111,2158 8110,2153 8108,2147 8106,2142 8104,2137 8102,2132 8100,2127 8097,2123 8094,2118 8091,2113 8088,2109 8085,2105 8081,2101 8077,2097 8073,2093 8069,2089 8065,2086 8061,2083 8056,2080 8051,2077 8047,2074 8042,2072 8037,2070 8032,2068 8027,2066 8021,2064 8016,2063 8011,2062 8005,2061 8000,2061 7994,2060 7989,2060 7984,2060 7978,2061 7973,2061 7967,2062 7962,2063 7957,2064 7951,2066 7946,2068 7941,2070 7936,2072 7931,2074 7926,2077 7922,2080 7917,2083 7913,2086 7909,2089 7905,2093 7901,2097 7897,2101 7893,2105 7890,2109 7887,2113 7884,2118 7881,2123 7878,2127 7876,2132 7874,2137 7872,2142 7870,2147 7868,2153 7867,2158 7866,2163 7865,2169 7864,2174 7864,2180 7864,2185 7864,2191 7864,2196 7865,2201 7866,2207 7867,2212 7868,2217 7870,2223 7872,2228 7874,2233 7876,2238 7878,2243 7881,2248 7884,2252 7887,2257 7890,2261 7893,2265 7897,2270 7901,2273 7905,2277 7909,2281 7913,2284 7917,2287 7922,2290 7926,2293 7931,2296 7936,2298 7941,2301 7946,2303 7951,2304 7957,2306 7962,2307 7967,2308 7973,2309 7978,2310 7984,2310 7989,2310 7994,2310 8000,2310 8005,2309 8011,2308 8016,2307 8021,2306 8027,2304 8032,2303 8037,2301 8042,2298 8047,2296 8051,2293 8056,2290 8061,2287 8065,2284 8069,2281 8073,2277 8077,2273 8081,2270 8085,2265 8088,2261 8091,2257 8094,2252 8097,2248 8100,2243 8102,2238 8104,2233 8106,2228 8108,2223 8110,2217 8111,2212 8112,2207 8113,2201 8114,2196 8114,2191 8114,2185 Z"/>
 <path fill="rgb(131,202,255)" stroke="none" d="M 10989,2491 L 10989,2486 10989,2480 10988,2475 10987,2470 10986,2464 10985,2459 10983,2454 10982,2449 10980,2443 10978,2438 10975,2434 10973,2429 10970,2424 10967,2420 10963,2415 10960,2411 10956,2407 10953,2403 10949,2399 10945,2395 10940,2392 10936,2389 10931,2386 10927,2383 10922,2380 10917,2378 10912,2376 10907,2374 10902,2372 10897,2371 10891,2369 10886,2368 10881,2367 10875,2367 10870,2366 10864,2366 10859,2366 10853,2367 10848,2367 10843,2368 10837,2369 10832,2371 10827,2372 10821,2374 10816,2376 10811,2378 10807,2380 10802,2383 10797,2386 10793,2389 10788,2392 10784,2395 10780,2399 10776,2403 10772,2407 10768,2411 10765,2415 10762,2420 10759,2424 10756,2429 10753,2434 10751,2438 10749,2443 10747,2449 10745,2454 10744,2459 10742,2464 10741,2470 10740,2475 10740,2480 10739,2486 10739,2491 10739,2497 10740,2502 10740,2508 10741,2513 10742,2518 10744,2524 10745,2529 10747,2534 10749,2539 10751,2544 10753,2549 10756,2554 10759,2558 10762,2563 10765,2567 10768,2572 10772,2576 10776,2580 10780,2583 10784,2587 10788,2590 10793,2594 10797,2597 10802,2600 10807,2602 10811,2605 10816,2607 10821,2609 10827,2610 10832,2612 10837,2613 10843,2614 10848,2615 10853,2616 10859,2616 10864,2616 10870,2616 10875,2616 10881,2615 10886,2614 10891,2613 10897,2612 10902,2610 10907,2609 10912,2607 10917,2605 10922,2602 10927,2600 10931,2597 10936,2594 10940,2590 10945,2587 10949,2583 10953,2580 10956,2576 10960,2572 10963,2567 10967,2563 10970,2558 10973,2554 10975,2549 10978,2544 10980,2539 10982,2534 10983,2529 10985,2524 10986,2518 10987,2513 10988,2508 10989,2502 10989,2497 10989,2491 Z"/>
 <path fill="none" stroke="rgb(131,202,255)" stroke-linejoin="round" d="M 10989,2491 L 10989,2486 10989,2480 10988,2475 10987,2470 10986,2464 10985,2459 10983,2454 10982,2449 10980,2443 10978,2438 10975,2434 10973,2429 10970,2424 10967,2420 10963,2415 10960,2411 10956,2407 10953,2403 10949,2399 10945,2395 10940,2392 10936,2389 10931,2386 10927,2383 10922,2380 10917,2378 10912,2376 10907,2374 10902,2372 10897,2371 10891,2369 10886,2368 10881,2367 10875,2367 10870,2366 10864,2366 10859,2366 10853,2367 10848,2367 10843,2368 10837,2369 10832,2371 10827,2372 10821,2374 10816,2376 10811,2378 10807,2380 10802,2383 10797,2386 10793,2389 10788,2392 10784,2395 10780,2399 10776,2403 10772,2407 10768,2411 10765,2415 10762,2420 10759,2424 10756,2429 10753,2434 10751,2438 10749,2443 10747,2449 10745,2454 10744,2459 10742,2464 10741,2470 10740,2475 10740,2480 10739,2486 10739,2491 10739,2497 10740,2502 10740,2508 10741,2513 10742,2518 10744,2524 10745,2529 10747,2534 10749,2539 10751,2544 10753,2549 10756,2554 10759,2558 10762,2563 10765,2567 10768,2572 10772,2576 10776,2580 10780,2583 10784,2587 10788,2590 10793,2594 10797,2597 10802,2600 10807,2602 10811,2605 10816,2607 10821,2609 10827,2610 10832,2612 10837,2613 10843,2614 10848,2615 10853,2616 10859,2616 10864,2616 10870,2616 10875,2616 10881,2615 10886,2614 10891,2613 10897,2612 10902,2610 10907,2609 10912,2607 10917,2605 10922,2602 10927,2600 10931,2597 10936,2594 10940,2590 10945,2587 10949,2583 10953,2580 10956,2576 10960,2572 10963,2567 10967,2563 10970,2558 10973,2554 10975,2549 10978,2544 10980,2539 10982,2534 10983,2529 10985,2524 10986,2518 10987,2513 10988,2508 10989,2502 10989,2497 10989,2491 Z"/>
 <path fill="rgb(131,202,255)" stroke="none" d="M 13864,2913 L 13864,2908 13864,2902 13863,2897 13863,2892 13862,2886 13860,2881 13859,2876 13857,2871 13855,2866 13853,2861 13850,2856 13848,2851 13845,2846 13842,2842 13839,2837 13835,2833 13832,2829 13828,2825 13824,2821 13820,2818 13816,2814 13811,2811 13807,2808 13802,2805 13797,2802 13792,2800 13787,2798 13782,2796 13777,2794 13772,2793 13767,2791 13761,2790 13756,2789 13750,2789 13745,2788 13739,2788 13734,2788 13729,2789 13723,2789 13718,2790 13712,2791 13707,2793 13702,2794 13697,2796 13692,2798 13687,2800 13682,2802 13677,2805 13672,2808 13668,2811 13663,2814 13659,2818 13655,2821 13651,2825 13647,2829 13644,2833 13640,2837 13637,2842 13634,2846 13631,2851 13629,2856 13626,2861 13624,2866 13622,2871 13620,2876 13619,2881 13617,2886 13616,2892 13616,2897 13615,2902 13615,2908 13614,2913 13615,2919 13615,2924 13616,2930 13616,2935 13617,2940 13619,2946 13620,2951 13622,2956 13624,2961 13626,2966 13629,2971 13631,2976 13634,2981 13637,2985 13640,2989 13644,2994 13647,2998 13651,3002 13655,3006 13659,3009 13663,3013 13668,3016 13672,3019 13677,3022 13682,3024 13687,3027 13692,3029 13697,3031 13702,3033 13707,3034 13712,3035 13718,3036 13723,3037 13729,3038 13734,3038 13739,3038 13745,3038 13750,3038 13756,3037 13761,3036 13767,3035 13772,3034 13777,3033 13782,3031 13787,3029 13792,3027 13797,3024 13802,3022 13807,3019 13811,3016 13816,3013 13820,3009 13824,3006 13828,3002 13832,2998 13835,2994 13839,2989 13842,2985 13845,2981 13848,2976 13850,2971 13853,2966 13855,2961 13857,2956 13859,2951 13860,2946 13862,2940 13863,2935 13863,2930 13864,2924 13864,2919 13864,2913 Z"/>
 <path fill="none" stroke="rgb(131,202,255)" stroke-linejoin="round" d="M 13864,2913 L 13864,2908 13864,2902 13863,2897 13863,2892 13862,2886 13860,2881 13859,2876 13857,2871 13855,2866 13853,2861 13850,2856 13848,2851 13845,2846 13842,2842 13839,2837 13835,2833 13832,2829 13828,2825 13824,2821 13820,2818 13816,2814 13811,2811 13807,2808 13802,2805 13797,2802 13792,2800 13787,2798 13782,2796 13777,2794 13772,2793 13767,2791 13761,2790 13756,2789 13750,2789 13745,2788 13739,2788 13734,2788 13729,2789 13723,2789 13718,2790 13712,2791 13707,2793 13702,2794 13697,2796 13692,2798 13687,2800 13682,2802 13677,2805 13672,2808 13668,2811 13663,2814 13659,2818 13655,2821 13651,2825 13647,2829 13644,2833 13640,2837 13637,2842 13634,2846 13631,2851 13629,2856 13626,2861 13624,2866 13622,2871 13620,2876 13619,2881 13617,2886 13616,2892 13616,2897 13615,2902 13615,2908 13614,2913 13615,2919 13615,2924 13616,2930 13616,2935 13617,2940 13619,2946 13620,2951 13622,2956 13624,2961 13626,2966 13629,2971 13631,2976 13634,2981 13637,2985 13640,2989 13644,2994 13647,2998 13651,3002 13655,3006 13659,3009 13663,3013 13668,3016 13672,3019 13677,3022 13682,3024 13687,3027 13692,3029 13697,3031 13702,3033 13707,3034 13712,3035 13718,3036 13723,3037 13729,3038 13734,3038 13739,3038 13745,3038 13750,3038 13756,3037 13761,3036 13767,3035 13772,3034 13777,3033 13782,3031 13787,3029 13792,3027 13797,3024 13802,3022 13807,3019 13811,3016 13816,3013 13820,3009 13824,3006 13828,3002 13832,2998 13835,2994 13839,2989 13842,2985 13845,2981 13848,2976 13850,2971 13853,2966 13855,2961 13857,2956 13859,2951 13860,2946 13862,2940 13863,2935 13863,2930 13864,2924 13864,2919 13864,2913 Z"/>
 <text class="TextShape"><tspan class="TextParagraph" font-family="Liberation Sans, sans-serif" font-size="353px" font-weight="400"><tspan class="TextPosition" x="1870" y="6418"><tspan fill="rgb(0,0,0)" stroke="none">1000</tspan></tspan></tspan></text>
 <text class="TextShape"><tspan class="TextParagraph" font-family="Liberation Sans, sans-serif" font-size="353px" font-weight="400"><tspan class="TextPosition" x="4652" y="6418"><tspan fill="rgb(0,0,0)" stroke="none">10000</tspan></tspan></tspan></text>
 <text class="TextShape"><tspan class="TextParagraph" font-family="Liberation Sans, sans-serif" font-size="353px" font-weight="400"><tspan class="TextPosition" x="7434" y="6418"><tspan fill="rgb(0,0,0)" stroke="none">100000</tspan></tspan></tspan></text>
 <text class="TextShape"><tspan class="TextParagraph" font-family="Liberation Sans, sans-serif" font-size="353px" font-weight="400"><tspan class="TextPosition" x="10217" y="6418"><tspan fill="rgb(0,0,0)" stroke="none">1000000</tspan></tspan></tspan></text>
 <text class="TextShape"><tspan class="TextParagraph" font-family="Liberation Sans, sans-serif" font-size="353px" font-weight="400"><tspan class="TextPosition" x="12998" y="6418"><tspan fill="rgb(0,0,0)" stroke="none">10000000</tspan></tspan></tspan></text>
 <text class="TextShape"><tspan class="TextParagraph" font-family="Liberation Sans, sans-serif" font-size="353px" font-weight="400"><tspan class="TextPosition" x="1329" y="5971"><tspan fill="rgb(0,0,0)" stroke="none">0.00</tspan></tspan></tspan></text>
 <text class="TextShape"><tspan class="TextParagraph" font-family="Liberation Sans, sans-serif" font-size="353px" font-weight="400"><tspan class="TextPosition" x="1329" y="5545"><tspan fill="rgb(0,0,0)" stroke="none">0.50</tspan></tspan></tspan></text>
 <text class="TextShape"><tspan class="TextParagraph" font-family="Liberation Sans, sans-serif" font-size="353px" font-weight="400"><tspan class="TextPosition" x="1329" y="5120"><tspan fill="rgb(0,0,0)" stroke="none">1.00</tspan></tspan></tspan></text>
 <text class="TextShape"><tspan class="TextParagraph" font-family="Liberation Sans, sans-serif" font-size="353px" font-weight="400"><tspan class="TextPosition" x="1329" y="4694"><tspan fill="rgb(0,0,0)" stroke="none">1.50</tspan></tspan></tspan></text>
 <text class="TextShape"><tspan class="TextParagraph" font-family="Liberation Sans, sans-serif" font-size="353px" font-weight="400"><tspan class="TextPosition" x="1329" y="4269"><tspan fill="rgb(0,0,0)" stroke="none">2.00</tspan></tspan></tspan></text>
 <text class="TextShape"><tspan class="TextParagraph" font-family="Liberation Sans, sans-serif" font-size="353px" font-weight="400"><tspan class="TextPosition" x="1329" y="3844"><tspan fill="rgb(0,0,0)" stroke="none">2.50</tspan></tspan></tspan></text>
 <text class="TextShape"><tspan class="TextParagraph" font-family="Liberation Sans, sans-serif" font-size="353px" font-weight="400"><tspan class="TextPosition" x="1329" y="3418"><tspan fill="rgb(0,0,0)" stroke="none">3.00</tspan></tspan></tspan></text>
 <text class="TextShape"><tspan class="TextParagraph" font-family="Liberation Sans, sans-serif" font-size="353px" font-weight="400"><tspan class="TextPosition" x="1329" y="2993"><tspan fill="rgb(0,0,0)" stroke="none">3.50</tspan></tspan></tspan></text>
 <text class="TextShape"><tspan class="TextParagraph" font-family="Liberation Sans, sans-serif" font-size="353px" font-weight="400"><tspan class="TextPosition" x="1329" y="2567"><tspan fill="rgb(0,0,0)" stroke="none">4.00</tspan></tspan></tspan></text>
 <text class="TextShape"><tspan class="TextParagraph" font-family="Liberation Sans, sans-serif" font-size="353px" font-weight="400"><tspan class="TextPosition" x="1329" y="2143"><tspan fill="rgb(0,0,0)" stroke="none">4.50</tspan></tspan></tspan></text>
 <text class="TextShape"><tspan class="TextParagraph" font-family="Liberation Sans, sans-serif" font-size="353px" font-weight="400"><tspan class="TextPosition" x="1329" y="1718"><tspan fill="rgb(0,0,0)" stroke="none">5.00</tspan></tspan></tspan></text>
 <text class="TextShape"><tspan class="TextParagraph" font-family="Segoe UI" font-size="459px" font-weight="700"><tspan class="TextPosition" x="3894" y="940"><tspan fill="rgb(0,0,0)" stroke="none">Teardown in bulks of 1000 items</tspan></tspan></tspan></text>
 <path fill="none" stroke="rgb(0,69,134)" stroke-width="80" stroke-linejoin="round" d="M 667,7993 L 1467,7993"/>
 <path fill="rgb(0,69,134)" stroke="none" d="M 961,7888 L 961,8099 1172,8099 1172,7888 961,7888 Z"/>
 <path fill="none" stroke="rgb(0,69,134)" stroke-linejoin="round" d="M 961,7888 L 961,8099 1172,8099 1172,7888 961,7888 Z"/>
 <path fill="none" stroke="rgb(255,66,14)" stroke-width="80" stroke-linejoin="round" d="M 7568,7993 L 8368,7993"/>
 <path fill="rgb(255,66,14)" stroke="none" d="M 7862,7993 L 7968,8099 8073,7993 7968,7888 7862,7993 Z"/>
 <path fill="none" stroke="rgb(255,66,14)" stroke-linejoin="round" d="M 7862,7993 L 7968,8099 8073,7993 7968,7888 7862,7993 Z"/>
 <path fill="none" stroke="rgb(255,211,32)" stroke-width="80" stroke-linejoin="round" d="M 667,8491 L 1467,8491"/>
 <path fill="rgb(255,211,32)" stroke="none" d="M 961,8386 L 961,8597 1172,8597 1172,8386 961,8386 Z"/>
 <path fill="none" stroke="rgb(255,211,32)" stroke-linejoin="round" d="M 961,8386 L 961,8597 1172,8597 1172,8386 961,8386 Z"/>
 <path fill="none" stroke="rgb(87,157,28)" stroke-width="80" stroke-linejoin="round" d="M 7568,8491 L 8368,8491"/>
 <path fill="rgb(87,157,28)" stroke="none" d="M 7862,8597 L 8073,8597 7968,8386 7862,8597 Z"/>
 <path fill="none" stroke="rgb(87,157,28)" stroke-linejoin="round" d="M 7862,8597 L 8073,8597 7968,8386 7862,8597 Z"/>
 <path fill="none" stroke="rgb(126,0,33)" stroke-width="80" stroke-linejoin="round" d="M 667,8989 L 1467,8989"/>
 <path fill="rgb(126,0,33)" stroke="none" d="M 961,8884 L 961,9095 1172,8989 961,8884 Z"/>
 <path fill="none" stroke="rgb(126,0,33)" stroke-linejoin="round" d="M 961,8884 L 961,9095 1172,8989 961,8884 Z"/>
 <path fill="none" stroke="rgb(131,202,255)" stroke-width="80" stroke-linejoin="round" d="M 7568,8989 L 8368,8989"/>
 <path fill="rgb(131,202,255)" stroke="none" d="M 8073,8989 L 8073,8984 8073,8980 8072,8975 8071,8971 8070,8966 8069,8962 8068,8957 8067,8953 8065,8949 8063,8944 8061,8940 8059,8936 8056,8932 8054,8928 8051,8925 8048,8921 8045,8918 8042,8914 8039,8911 8035,8908 8032,8905 8028,8903 8024,8900 8020,8898 8016,8895 8012,8893 8008,8892 8004,8890 7999,8888 7995,8887 7990,8886 7986,8885 7981,8884 7977,8884 7972,8884 7968,8884 7963,8884 7958,8884 7954,8884 7949,8885 7945,8886 7940,8887 7936,8888 7931,8890 7927,8892 7923,8893 7919,8895 7915,8898 7911,8900 7907,8903 7903,8905 7900,8908 7896,8911 7893,8914 7890,8918 7887,8921 7884,8925 7881,8928 7879,8932 7876,8936 7874,8940 7872,8944 7870,8949 7868,8953 7867,8957 7866,8962 7865,8966 7864,8971 7863,8975 7862,8980 7862,8984 7862,8989 7862,8994 7862,8998 7863,9003 7864,9007 7865,9012 7866,9016 7867,9021 7868,9025 7870,9029 7872,9034 7874,9038 7876,9042 7879,9046 7881,9050 7884,9053 7887,9057 7890,9060 7893,9064 7896,9067 7900,9070 7903,9073 7907,9075 7911,9078 7915,9080 7919,9083 7923,9085 7927,9086 7931,9088 7936,9090 7940,9091 7945,9092 7949,9093 7954,9094 7958,9094 7963,9094 7968,9095 7972,9094 7977,9094 7981,9094 7986,9093 7990,9092 7995,9091 7999,9090 8004,9088 8008,9086 8012,9085 8016,9083 8020,9080 8024,9078 8028,9075 8032,9073 8035,9070 8039,9067 8042,9064 8045,9060 8048,9057 8051,9053 8054,9050 8056,9046 8059,9042 8061,9038 8063,9034 8065,9029 8067,9025 8068,9021 8069,9016 8070,9012 8071,9007 8072,9003 8073,8998 8073,8994 8073,8989 Z"/>
 <path fill="none" stroke="rgb(131,202,255)" stroke-linejoin="round" d="M 8073,8989 L 8073,8984 8073,8980 8072,8975 8071,8971 8070,8966 8069,8962 8068,8957 8067,8953 8065,8949 8063,8944 8061,8940 8059,8936 8056,8932 8054,8928 8051,8925 8048,8921 8045,8918 8042,8914 8039,8911 8035,8908 8032,8905 8028,8903 8024,8900 8020,8898 8016,8895 8012,8893 8008,8892 8004,8890 7999,8888 7995,8887 7990,8886 7986,8885 7981,8884 7977,8884 7972,8884 7968,8884 7963,8884 7958,8884 7954,8884 7949,8885 7945,8886 7940,8887 7936,8888 7931,8890 7927,8892 7923,8893 7919,8895 7915,8898 7911,8900 7907,8903 7903,8905 7900,8908 7896,8911 7893,8914 7890,8918 7887,8921 7884,8925 7881,8928 7879,8932 7876,8936 7874,8940 7872,8944 7870,8949 7868,8953 7867,8957 7866,8962 7865,8966 7864,8971 7863,8975 7862,8980 7862,8984 7862,8989 7862,8994 7862,8998 7863,9003 7864,9007 7865,9012 7866,9016 7867,9021 7868,9025 7870,9029 7872,9034 7874,9038 7876,9042 7879,9046 7881,9050 7884,9053 7887,9057 7890,9060 7893,9064 7896,9067 7900,9070 7903,9073 7907,9075 7911,9078 7915,9080 7919,9083 7923,9085 7927,9086 7931,9088 7936,9090 7940,9091 7945,9092 7949,9093 7954,9094 7958,9094 7963,9094 7968,9095 7972,9094 7977,9094 7981,9094 7986,9093 7990,9092 7995,9091 7999,9090 8004,9088 8008,9086 8012,9085 8016,9083 8020,9080 8024,9078 8028,9075 8032,9073 8035,9070 8039,9067 8042,9064 8045,9060 8048,9057 8051,9053 8054,9050 8056,9046 8059,9042 8061,9038 8063,9034 8065,9029 8067,9025 8068,9021 8069,9016 8070,9012 8071,9007 8072,9003 8073,8998 8073,8994 8073,8989 Z"/>
 <text class="TextShape"><tspan class="TextParagraph" font-family="Liberation Sans, sans-serif" font-size="353px" font-weight="400"><tspan class="TextPosition" x="1567" y="8113"><tspan fill="rgb(0,0,0)" stroke="none">TeardownSet::delete_range()           </tspan></tspan></tspan></text>
 <text class="TextShape"><tspan class="TextParagraph" font-family="Liberation Sans, sans-serif" font-size="353px" font-weight="400"><tspan class="TextPosition" x="8468" y="8113"><tspan fill="rgb(0,0,0)" stroke="none">TeardownMap::delete_range()         </tspan></tspan></tspan></text>
 <text class="TextShape"><tspan class="TextParagraph" font-family="Liberation Sans, sans-serif" font-size="353px" font-weight="400"><tspan class="TextPosition" x="1567" y="8611"><tspan fill="rgb(0,0,0)" stroke="none">TeardownSet::filter_range()         </tspan></tspan></tspan></text>
 <text class="TextShape"><tspan class="TextParagraph" font-family="Liberation Sans, sans-serif" font-size="353px" font-weight="400"><tspan class="TextPosition" x="8468" y="8611"><tspan fill="rgb(0,0,0)" stroke="none">IntervalTeardownSet::delete_overlap()</tspan></tspan></tspan></text>
 <text class="TextShape"><tspan class="TextParagraph" font-family="Liberation Sans, sans-serif" font-size="353px" font-weight="400"><tspan class="TextPosition" x="1567" y="9109"><tspan fill="rgb(0,0,0)" stroke="none">IntervalTeardownMap::delete_overlap()</tspan></tspan></tspan></text>
 <text class="TextShape"><tspan class="TextParagraph" font-family="Liberation Sans, sans-serif" font-size="353px" font-weight="400"><tspan class="TextPosition" x="8468" y="9109"><tspan fill="rgb(0,0,0)" stroke="none">IntervalTeardownSet::filter_overlap()</tspan></tspan></tspan></text>
 <text class="TextShape"><tspan class="TextParagraph" font-family="Segoe UI" font-size="318px" font-weight="700"><tspan class="TextPosition" x="7787" y="7102"><tspan fill="rgb(0,0,0)" stroke="none">N</tspan></tspan></tspan></text>
 <text class="TextShape" transform="translate(860,4914) rotate(-90) translate(-860,-4914)"><tspan class="TextParagraph" font-family="Segoe UI" font-size="318px" font-weight="700"><tspan class="TextPosition" x="860" y="4914"><tspan fill="rgb(0,0,0)" stroke="none">Times slower</tspan></tspan></tspan></text>
</svg>