<?xml version="1.0" encoding="UTF-8"?>
<!DOCTYPE svg PUBLIC "-//W3C//DTD SVG 1.1//EN" "http://www.w3.org/Graphics/SVG/1.1/DTD/svg11.dtd">
<svg width="148mm" height="95mm" viewBox="0 0 14800 9500" version="1.1" xmlns="http://www.w3.org/2000/svg" stroke-width="28.222" stroke-linejoin="round" xml:space="preserve">
 <path fill="rgb(255,255,255)" stroke="none" d="M 7387,9473 L -5,9473 -5,-1 14778,-1 14778,9473 7387,9473 Z"/>
 <path fill="none" stroke="rgb(0,0,0)" stroke-linejoin="round" d="M 7387,9473 L -5,9473 -5,-1 14778,-1 14778,9473 7387,9473 Z"/>
 <path fill="none" stroke="rgb(179,179,179)" stroke-linejoin="round" d="M 7990,5850 L 2240,5850 2240,1597 13740,1597 13740,5850 7990,5850 Z"/>
 <path fill="none" stroke="rgb(179,179,179)" stroke-linejoin="round" d="M 13739,5849 L 2240,5849"/>
 <path fill="none" stroke="rgb(179,179,179)" stroke-linejoin="round" d="M 13739,5423 L 2240,5423"/>
 <path fill="none" stroke="rgb(179,179,179)" stroke-linejoin="round" d="M 13739,4998 L 2240,4998"/>
 <path fill="none" stroke="rgb(179,179,179)" stroke-linejoin="round" d="M 13739,4573 L 2240,4573"/>
 <path fill="none" stroke="rgb(179,179,179)" stroke-linejoin="round" d="M 13739,4148 L 2240,4148"/>
 <path fill="none" stroke="rgb(179,179,179)" stroke-linejoin="round" d="M 13739,3723 L 2240,3723"/>
 <path fill="none" stroke="rgb(179,179,179)" stroke-linejoin="round" d="M 13739,3297 L 2240,3297"/>
 <path fill="none" stroke="rgb(179,179,179)" stroke-linejoin="round" d="M 13739,2872 L 2240,2872"/>
 <path fill="none" stroke="rgb(179,179,179)" stroke-linejoin="round" d="M 13739,2446 L 2240,2446"/>
 <path fill="none" stroke="rgb(179,179,179)" stroke-linejoin="round" d="M 13739,2021 L 2240,2021"/>
 <path fill="none" stroke="rgb(179,179,179)" stroke-linejoin="round" d="M 13739,1596 L 2240,1596"/>
 <path fill="none" stroke="rgb(179,179,179)" stroke-linejoin="round" d="M 2240,5999 L 2240,5849"/>
 <path fill="none" stroke="rgb(179,179,179)" stroke-linejoin="round" d="M 2240,5999 L 2240,5849"/>
 <path fill="none" stroke="rgb(179,179,179)" stroke-linejoin="round" d="M 4156,5999 L 4156,5849"/>
 <path fill="none" stroke="rgb(179,179,179)" stroke-linejoin="round" d="M 4156,5999 L 4156,5849"/>
 <path fill="none" stroke="rgb(179,179,179)" stroke-linejoin="round" d="M 6073,5999 L 6073,5849"/>
 <path fill="none" stroke="rgb(179,179,179)" stroke-linejoin="round" d="M 6073,5999 L 6073,5849"/>
 <path fill="none" stroke="rgb(179,179,179)" stroke-linejoin="round" d="M 7989,5999 L 7989,5849"/>
 <path fill="none" stroke="rgb(179,179,179)" stroke-linejoin="round" d="M 7989,5999 L 7989,5849"/>
 <path fill="none" stroke="rgb(179,179,179)" stroke-linejoin="round" d="M 9906,5999 L 9906,5849"/>
 <path fill="none" stroke="rgb(179,179,179)" stroke-linejoin="round" d="M 9906,5999 L 9906,5849"/>
 <path fill="none" stroke="rgb(179,179,179)" stroke-linejoin="round" d="M 11823,5999 L 11823,5849"/>
 <path fill="none" stroke="rgb(179,179,179)" stroke-linejoin="round" d="M 11823,5999 L 11823,5849"/>
 <path fill="none" stroke="rgb(179,179,179)" stroke-linejoin="round" d="M 13739,5999 L 13739,5849"/>
 <path fill="none" stroke="rgb(179,179,179)" stroke-linejoin="round" d="M 13739,5999 L 13739,5849"/>
 <path fill="none" stroke="rgb(179,179,179)" stroke-linejoin="round" d="M 2240,5849 L 13739,5849"/>
 <path fill="none" stroke="rgb(179,179,179)" stroke-linejoin="round" d="M 2090,5849 L 2240,5849"/>
 <path fill="none" stroke="rgb(179,179,179)" stroke-linejoin="round" d="M 2090,5849 L 2240,5849"/>
 <path fill="none" stroke="rgb(179,179,179)" stroke-linejoin="round" d="M 2090,5423 L 2240,5423"/>
 <path fill="none" stroke="rgb(179,179,179)" stroke-linejoin="round" d="M 2090,5423 L 2240,5423"/>
 <path fill="none" stroke="rgb(179,179,179)" stroke-linejoin="round" d="M 2090,4998 L 2240,4998"/>
 <path fill="none" stroke="rgb(179,179,179)" stroke-linejoin="round" d="M 2090,4998 L 2240,4998"/>
 <path fill="none" stroke="rgb(179,179,179)" stroke-linejoin="round" d="M 2090,4573 L 2240,4573"/>
 <path fill="none" stroke="rgb(179,179,179)" stroke-linejoin="round" d="M 2090,4573 L 2240,4573"/>
 <path fill="none" stroke="rgb(179,179,179)" stroke-linejoin="round" d="M 2090,4148 L 2240,4148"/>
 <path fill="none" stroke="rgb(179,179,179)" stroke-linejoin="round" d="M 2090,4148 L 2240,4148"/>
 <path fill="none" stroke="rgb(179,179,179)" stroke-linejoin="round" d="M 2090,3723 L 2240,3723"/>
 <path fill="none" stroke="rgb(179,179,179)" stroke-linejoin="round" d="M 2090,3723 L 2240,3723"/>
 <path fill="none" stroke="rgb(179,179,179)" stroke-linejoin="round" d="M 2090,3297 L 2240,3297"/>
 <path fill="none" stroke="rgb(179,179,179)" stroke-linejoin="round" d="M 2090,3297 L 2240,3297"/>
 <path fill="none" stroke="rgb(179,179,179)" stroke-linejoin="round" d="M 2090,2872 L 2240,2872"/>
 <path fill="none" stroke="rgb(179,179,179)" stroke-linejoin="round" d="M 2090,2872 L 2240,2872"/>
 <path fill="none" stroke="rgb(179,179,179)" stroke-linejoin="round" d="M 2090,2446 L 2240,2446"/>
 <path fill="none" stroke="rgb(179,179,179)" stroke-linejoin="round" d="M 2090,2446 L 2240,2446"/>
 <path fill="none" stroke="rgb(179,179,179)" stroke-linejoin="round" d="M 2090,2021 L 2240,2021"/>
 <path fill="none" stroke="rgb(179,179,179)" stroke-linejoin="round" d="M 2090,2021 L 2240,2021"/>
 <path fill="none" stroke="rgb(179,179,179)" stroke-linejoin="round" d="M 2090,1596 L 2240,1596"/>
 <path fill="none" stroke="rgb(179,179,179)" stroke-linejoin="round" d="M 2090,1596 L 2240,1596"/>
 <path fill="none" stroke="rgb(179,179,179)" stroke-linejoin="round" d="M 2240,5849 L 2240,1596"/>
 <path fill="none" stroke="rgb(0,69,134)" stroke-width="80" stroke-linejoin="round" d="M 2240,4998 L 4156,4998 6073,4998 7989,4998 9906,4998 11823,4998 13739,4998"/>
 <path fill="rgb(0,69,134)" stroke="none" d="M 2115,4873 L 2115,5123 2365,5123 2365,4873 2115,4873 Z"/>
 <path fill="none" stroke="rgb(0,69,134)" stroke-linejoin="round" d="M 2115,4873 L 2115,5123 2365,5123 2365,4873 2115,4873 Z"/>
 <path fill="rgb(0,69,134)" stroke="none" d="M 4031,4873 L 4031,5123 4281,5123 4281,4873 4031,4873 Z"/>
 <path fill="none" stroke="rgb(0,69,134)" stroke-linejoin="round" d="M 4031,4873 L 4031,5123 4281,5123 4281,4873 4031,4873 Z"/>
 <path fill="rgb(0,69,134)" stroke="none" d="M 5948,4873 L 5948,5123 6198,5123 6198,4873 5948,4873 Z"/>
 <path fill="none" stroke="rgb(0,69,134)" stroke-linejoin="round" d="M 5948,4873 L 5948,5123 6198,5123 6198,4873 5948,4873 Z"/>
 <path fill="rgb(0,69,134)" stroke="none" d="M 7864,4873 L 7864,5123 8114,5123 8114,4873 7864,4873 Z"/>
 <path fill="none" stroke="rgb(0,69,134)" stroke-linejoin="round" d="M 7864,4873 L 7864,5123 8114,5123 8114,4873 7864,4873 Z"/>
 <path fill="rgb(0,69,134)" stroke="none" d="M 9781,4873 L 9781,5123 10031,5123 10031,4873 9781,4873 Z"/>
 <path fill="none" stroke="rgb(0,69,134)" stroke-linejoin="round" d="M 9781,4873 L 9781,5123 10031,5123 10031,4873 9781,4873 Z"/>
 <path fill="rgb(0,69,134)" stroke="none" d="M 11698,4873 L 11698,5123 11948,5123 11948,4873 11698,4873 Z"/>
 <path fill="none" stroke="rgb(0,69,134)" stroke-linejoin="round" d="M 11698,4873 L 11698,5123 11948,5123 11948,4873 11698,4873 Z"/>
 <path fill="rgb(0,69,134)" stroke="none" d="M 13614,4873 L 13614,5123 13864,5123 13864,4873 13614,4873 Z"/>
 <path fill="none" stroke="rgb(0,69,134)" stroke-linejoin="round" d="M 13614,4873 L 13614,5123 13864,5123 13864,4873 13614,4873 Z"/>
 <path fill="none" stroke="rgb(255,66,14)" stroke-width="80" stroke-linejoin="round" d="M 2240,4932 L 4156,4897 6073,4872 7989,4927 9906,4914 11823,4728 13739,4828"/>
 <path fill="rgb(255,66,14)" stroke="none" d="M 2115,4932 L 2240,5057 2365,4932 2240,4807 2115,4932 Z"/>
 <path fill="none" stroke="rgb(255,66,14)" stroke-linejoin="round" d="M 2115,4932 L 2240,5057 2365,4932 2240,4807 2115,4932 Z"/>
 <path fill="rgb(255,66,14)" stroke="none" d="M 4031,4897 L 4156,5022 4281,4897 4156,4772 4031,4897 Z"/>
 <path fill="none" stroke="rgb(255,66,14)" stroke-linejoin="round" d="M 4031,4897 L 4156,5022 4281,4897 4156,4772 4031,4897 Z"/>
 <path fill="rgb(255,66,14)" stroke="none" d="M 5948,4872 L 6073,4997 6198,4872 6073,4747 5948,4872 Z"/>
 <path fill="none" stroke="rgb(255,66,14)" stroke-linejoin="round" d="M 5948,4872 L 6073,4997 6198,4872 6073,4747 5948,4872 Z"/>
 <path fill="rgb(255,66,14)" stroke="none" d="M 7864,4927 L 7989,5052 8114,4927 7989,4802 7864,4927 Z"/>
 <path fill="none" stroke="rgb(255,66,14)" stroke-linejoin="round" d="M 7864,4927 L 7989,5052 8114,4927 7989,4802 7864,4927 Z"/>
 <path fill="rgb(255,66,14)" stroke="none" d="M 9781,4914 L 9906,5039 10031,4914 9906,4789 9781,4914 Z"/>
 <path fill="none" stroke="rgb(255,66,14)" stroke-linejoin="round" d="M 9781,4914 L 9906,5039 10031,4914 9906,4789 9781,4914 Z"/>
 <path fill="rgb(255,66,14)" stroke="none" d="M 11698,4728 L 11823,4852 11948,4728 11823,4603 11698,4728 Z"/>
 <path fill="none" stroke="rgb(255,66,14)" stroke-linejoin="round" d="M 11698,4728 L 11823,4852 11948,4728 11823,4603 11698,4728 Z"/>
 <path fill="rgb(255,66,14)" stroke="none" d="M 13614,4828 L 13739,4953 13864,4828 13739,4704 13614,4828 Z"/>
 <path fill="none" stroke="rgb(255,66,14)" stroke-linejoin="round" d="M 13614,4828 L 13739,4953 13864,4828 13739,4704 13614,4828 Z"/>
 <path fill="none" stroke="rgb(255,211,32)" stroke-width="80" stroke-linejoin="round" d="M 2240,4559 L 4156,4448 6073,4362 7989,4790 9906,4836 11823,4851 13739,4895"/>
 <path fill="rgb(255,211,32)" stroke="none" d="M 2115,4434 L 2115,4684 2365,4684 2365,4434 2115,4434 Z"/>
 <path fill="none" stroke="rgb(255,211,32)" stroke-linejoin="round" d="M 2115,4434 L 2115,4684 2365,4684 2365,4434 2115,4434 Z"/>
 <path fill="rgb(255,211,32)" stroke="none" d="M 4031,4323 L 4031,4573 4281,4573 4281,4323 4031,4323 Z"/>
 <path fill="none" stroke="rgb(255,211,32)" stroke-linejoin="round" d="M 4031,4323 L 4031,4573 4281,4573 4281,4323 4031,4323 Z"/>
 <path fill="rgb(255,211,32)" stroke="none" d="M 5948,4237 L 5948,4487 6198,4487 6198,4237 5948,4237 Z"/>
 <path fill="none" stroke="rgb(255,211,32)" stroke-linejoin="round" d="M 5948,4237 L 5948,4487 6198,4487 6198,4237 5948,4237 Z"/>
 <path fill="rgb(255,211,32)" stroke="none" d="M 7864,4666 L 7864,4915 8114,4915 8114,4666 7864,4666 Z"/>
 <path fill="none" stroke="rgb(255,211,32)" stroke-linejoin="round" d="M 7864,4666 L 7864,4915 8114,4915 8114,4666 7864,4666 Z"/>
 <path fill="rgb(255,211,32)" stroke="none" d="M 9781,4712 L 9781,4961 10031,4961 10031,4712 9781,4712 Z"/>
 <path fill="none" stroke="rgb(255,211,32)" stroke-linejoin="round" d="M 9781,4712 L 9781,4961 10031,4961 10031,4712 9781,4712 Z"/>
 <path fill="rgb(255,211,32)" stroke="none" d="M 11698,4727 L 11698,4976 11948,4976 11948,4727 11698,4727 Z"/>
 <path fill="none" stroke="rgb(255,211,32)" stroke-linejoin="round" d="M 11698,4727 L 11698,4976 11948,4976 11948,4727 11698,4727 Z"/>
 <path fill="rgb(255,211,32)" stroke="none" d="M 13614,4770 L 13614,5020 13864,5020 13864,4770 13614,4770 Z"/>
 <path fill="none" stroke="rgb(255,211,32)" stroke-linejoin="round" d="M 13614,4770 L 13614,5020 13864,5020 13864,4770 13614,4770 Z"/>
 <path fill="none" stroke="rgb(87,157,28)" stroke-width="80" stroke-linejoin="round" d="M 2240,4643 L 4156,3428 6073,2680 7989,3802 9906,3732 11823,3391 13739,3725"/>
 <path fill="rgb(87,157,28)" stroke="none" d="M 2115,4767 L 2365,4767 2240,4518 2115,4767 Z"/>
 <path fill="none" stroke="rgb(87,157,28)" stroke-linejoin="round" d="M 2115,4767 L 2365,4767 2240,4518 2115,4767 Z"/>
 <path fill="rgb(87,157,28)" stroke="none" d="M 4031,3553 L 4281,3553 4156,3303 4031,3553 Z"/>
 <path fill="none" stroke="rgb(87,157,28)" stroke-linejoin="round" d="M 4031,3553 L 4281,3553 4156,3303 4031,3553 Z"/>
 <path fill="rgb(87,157,28)" stroke="none" d="M 5948,2805 L 6198,2805 6073,2555 5948,2805 Z"/>
 <path fill="none" stroke="rgb(87,157,28)" stroke-linejoin="round" d="M 5948,2805 L 6198,2805 6073,2555 5948,2805 Z"/>
 <path fill="rgb(87,157,28)" stroke="none" d="M 7864,3927 L 8114,3927 7989,3677 7864,3927 Z"/>
 <path fill="none" stroke="rgb(87,157,28)" stroke-linejoin="round" d="M 7864,3927 L 8114,3927 7989,3677 7864,3927 Z"/>
 <path fill="rgb(87,157,28)" stroke="none" d="M 9781,3857 L 10031,3857 9906,3607 9781,3857 Z"/>
 <path fill="none" stroke="rgb(87,157,28)" stroke-linejoin="round" d="M 9781,3857 L 10031,3857 9906,3607 9781,3857 Z"/>
 <path fill="rgb(87,157,28)" stroke="none" d="M 11698,3516 L 11948,3516 11823,3266 11698,3516 Z"/>
 <path fill="none" stroke="rgb(87,157,28)" stroke-linejoin="round" d="M 11698,3516 L 11948,3516 11823,3266 11698,3516 Z"/>
 <path fill="rgb(87,157,28)" stroke="none" d="M 13614,3850 L 13864,3850 13739,3600 13614,3850 Z"/>
 <path fill="none" stroke="rgb(87,157,28)" stroke-linejoin="round" d="M 13614,3850 L 13864,3850 13739,3600 13614,3850 Z"/>
 <path fill="none" stroke="rgb(126,0,33)" stroke-width="80" stroke-linejoin="round" d="M 2240,4527 L 4156,3229 6073,2522 7989,3722 9906,3614 11823,3240 13739,3580"/>
 <path fill="rgb(126,0,33)" stroke="none" d="M 2115,4402 L 2115,4652 2365,4527 2115,4402 Z"/>
 <path fill="none" stroke="rgb(126,0,33)" stroke-linejoin="round" d="M 2115,4402 L 2115,4652 2365,4527 2115,4402 Z"/>
 <path fill="rgb(126,0,33)" stroke="none" d="M 4031,3104 L 4031,3354 4281,3229 4031,3104 Z"/>
 <path fill="none" stroke="rgb(126,0,33)" stroke-linejoin="round" d="M 4031,3104 L 4031,3354 4281,3229 4031,3104 Z"/>
 <path fill="rgb(126,0,33)" stroke="none" d="M 5948,2397 L 5948,2647 6198,2522 5948,2397 Z"/>
 <path fill="none" stroke="rgb(126,0,33)" stroke-linejoin="round" d="M 5948,2397 L 5948,2647 6198,2522 5948,2397 Z"/>
 <path fill="rgb(126,0,33)" stroke="none" d="M 7864,3597 L 7864,3847 8114,3722 7864,3597 Z"/>
 <path fill="none" stroke="rgb(126,0,33)" stroke-linejoin="round" d="M 7864,3597 L 7864,3847 8114,3722 7864,3597 Z"/>
 <path fill="rgb(126,0,33)" stroke="none" d="M 9781,3489 L 9781,3739 10031,3614 9781,3489 Z"/>
 <path fill="none" stroke="rgb(126,0,33)" stroke-linejoin="round" d="M 9781,3489 L 9781,3739 10031,3614 9781,3489 Z"/>
 <path fill="rgb(126,0,33)" stroke="none" d="M 11698,3115 L 11698,3365 11948,3240 11698,3115 Z"/>
 <path fill="none" stroke="rgb(126,0,33)" stroke-linejoin="round" d="M 11698,3115 L 11698,3365 11948,3240 11698,3115 Z"/>
 <path fill="rgb(126,0,33)" stroke="none" d="M 13614,3455 L 13614,3705 13864,3580 13614,3455 Z"/>
 <path fill="none" stroke="rgb(126,0,33)" stroke-linejoin="round" d="M 13614,3455 L 13614,3705 13864,3580 13614,3455 Z"/>
 <path fill="none" stroke="rgb(131,202,255)" stroke-width="80" stroke-linejoin="round" d="M 2240,4036 L 4156,3084 6073,2201 7989,3659 9906,3599 11823,3247 13739,3600"/>
 <path fill="rgb(131,202,255)" stroke="none" d="M 2365,4036 L 2364,4030 2364,4025 2363,4019 2363,4014 2362,4009 2360,4003 2359,3998 2357,3993 2355,3988 2353,3983 2350,3978 2348,3973 2345,3969 2342,3964 2339,3960 2335,3955 2332,3951 2328,3947 2324,3944 2320,3940 2316,3937 2311,3933 2307,3930 2302,3927 2297,3925 2292,3922 2287,3920 2282,3918 2277,3916 2272,3915 2267,3914 2261,3913 2256,3912 2250,3911 2245,3911 2240,3911 2234,3911 2229,3911 2223,3912 2218,3913 2212,3914 2207,3915 2202,3916 2197,3918 2192,3920 2187,3922 2182,3925 2177,3927 2172,3930 2168,3933 2163,3937 2159,3940 2155,3944 2151,3947 2147,3951 2144,3955 2140,3960 2137,3964 2134,3969 2131,3973 2129,3978 2126,3983 2124,3988 2122,3993 2120,3998 2119,4003 2117,4009 2116,4014 2116,4019 2115,4025 2115,4030 2115,4036 2115,4041 2115,4047 2116,4052 2116,4057 2117,4063 2119,4068 2120,4073 2122,4078 2124,4084 2126,4089 2129,4093 2131,4098 2134,4103 2137,4107 2140,4112 2144,4116 2147,4120 2151,4124 2155,4128 2159,4131 2163,4135 2168,4138 2172,4141 2177,4144 2182,4147 2187,4149 2192,4151 2197,4153 2202,4155 2207,4156 2212,4158 2218,4159 2223,4160 2229,4160 2234,4161 2240,4161 2245,4161 2250,4160 2256,4160 2261,4159 2267,4158 2272,4156 2277,4155 2282,4153 2287,4151 2292,4149 2297,4147 2302,4144 2307,4141 2311,4138 2316,4135 2320,4131 2324,4128 2328,4124 2332,4120 2335,4116 2339,4112 2342,4107 2345,4103 2348,4098 2350,4093 2353,4089 2355,4084 2357,4078 2359,4073 2360,4068 2362,4063 2363,4057 2363,4052 2364,4047 2364,4041 2365,4036 Z"/>
 <path fill="none" stroke="rgb(131,202,255)" stroke-linejoin="round" d="M 2365,4036 L 2364,4030 2364,4025 2363,4019 2363,4014 2362,4009 2360,4003 2359,3998 2357,3993 2355,3988 2353,3983 2350,3978 2348,3973 2345,3969 2342,3964 2339,3960 2335,3955 2332,3951 2328,3947 2324,3944 2320,3940 2316,3937 2311,3933 2307,3930 2302,3927 2297,3925 2292,3922 2287,3920 2282,3918 2277,3916 2272,3915 2267,3914 2261,3913 2256,3912 2250,3911 2245,3911 2240,3911 2234,3911 2229,3911 2223,3912 2218,3913 2212,3914 2207,3915 2202,3916 2197,3918 2192,3920 2187,3922 2182,3925 2177,3927 2172,3930 2168,3933 2163,3937 2159,3940 2155,3944 2151,3947 2147,3951 2144,3955 2140,3960 2137,3964 2134,3969 2131,3973 2129,3978 2126,3983 2124,3988 2122,3993 2120,3998 2119,4003 2117,4009 2116,4014 2116,4019 2115,4025 2115,4030 2115,4036 2115,4041 2115,4047 2116,4052 2116,4057 2117,4063 2119,4068 2120,4073 2122,4078 2124,4084 2126,4089 2129,4093 2131,4098 2134,4103 2137,4107 2140,4112 2144,4116 2147,4120 2151,4124 2155,4128 2159,4131 2163,4135 2168,4138 2172,4141 2177,4144 2182,4147 2187,4149 2192,4151 2197,4153 2202,4155 2207,4156 2212,4158 2218,4159 2223,4160 2229,4160 2234,4161 2240,4161 2245,4161 2250,4160 2256,4160 2261,4159 2267,4158 2272,4156 2277,4155 2282,4153 2287,4151 2292,4149 2297,4147 2302,4144 2307,4141 2311,4138 2316,4135 2320,4131 2324,4128 2328,4124 2332,4120 2335,4116 2339,4112 2342,4107 2345,4103 2348,4098 2350,4093 2353,4089 2355,4084 2357,4078 2359,4073 2360,4068 2362,4063 2363,4057 2363,4052 2364,4047 2364,4041 2365,4036 Z"/>
 <path fill="rgb(131,202,255)" stroke="none" d="M 4281,3084 L 4281,3079 4281,3073 4280,3068 4279,3062 4278,3057 4277,3052 4276,3047 4274,3041 4272,3036 4270,3031 4267,3026 4265,3022 4262,3017 4259,3012 4256,3008 4252,3004 4248,3000 4245,2996 4241,2992 4237,2988 4232,2985 4228,2982 4223,2979 4219,2976 4214,2973 4209,2971 4204,2969 4199,2967 4194,2965 4189,2963 4183,2962 4178,2961 4173,2960 4167,2960 4162,2959 4156,2959 4151,2959 4145,2960 4140,2960 4135,2961 4129,2962 4124,2963 4119,2965 4114,2967 4108,2969 4104,2971 4099,2973 4094,2976 4089,2979 4085,2982 4080,2985 4076,2988 4072,2992 4068,2996 4064,3000 4061,3004 4057,3008 4054,3012 4051,3017 4048,3022 4045,3026 4043,3031 4041,3036 4039,3041 4037,3047 4036,3052 4034,3057 4033,3062 4032,3068 4032,3073 4031,3079 4031,3084 4031,3090 4032,3095 4032,3100 4033,3106 4034,3111 4036,3117 4037,3122 4039,3127 4041,3132 4043,3137 4045,3142 4048,3147 4051,3151 4054,3156 4057,3160 4061,3165 4064,3169 4068,3173 4072,3176 4076,3180 4080,3183 4085,3187 4089,3190 4094,3192 4099,3195 4104,3197 4108,3200 4114,3202 4119,3203 4124,3205 4129,3206 4135,3207 4140,3208 4145,3209 4151,3209 4156,3209 4162,3209 4167,3209 4173,3208 4178,3207 4183,3206 4189,3205 4194,3203 4199,3202 4204,3200 4209,3197 4214,3195 4219,3192 4223,3190 4228,3187 4232,3183 4237,3180 4241,3176 4245,3173 4248,3169 4252,3165 4256,3160 4259,3156 4262,3151 4265,3147 4267,3142 4270,3137 4272,3132 4274,3127 4276,3122 4277,3117 4278,3111 4279,3106 4280,3100 4281,3095 4281,3090 4281,3084 Z"/>
 <path fill="none" stroke="rgb(131,202,255)" stroke-linejoin="round" d="M 4281,3084 L 4281,3079 4281,3073 4280,3068 4279,3062 4278,3057 4277,3052 4276,3047 4274,3041 4272,3036 4270,3031 4267,3026 4265,3022 4262,3017 4259,3012 4256,3008 4252,3004 4248,3000 4245,2996 4241,2992 4237,2988 4232,2985 4228,2982 4223,2979 4219,2976 4214,2973 4209,2971 4204,2969 4199,2967 4194,2965 4189,2963 4183,2962 4178,2961 4173,2960 4167,2960 4162,2959 4156,2959 4151,2959 4145,2960 4140,2960 4135,2961 4129,2962 4124,2963 4119,2965 4114,2967 4108,2969 4104,2971 4099,2973 4094,2976 4089,2979 4085,2982 4080,2985 4076,2988 4072,2992 4068,2996 4064,3000 4061,3004 4057,3008 4054,3012 4051,3017 4048,3022 4045,3026 4043,3031 4041,3036 4039,3041 4037,3047 4036,3052 4034,3057 4033,3062 4032,3068 4032,3073 4031,3079 4031,3084 4031,3090 4032,3095 4032,3100 4033,3106 4034,3111 4036,3117 4037,3122 4039,3127 4041,3132 4043,3137 4045,3142 4048,3147 4051,3151 4054,3156 4057,3160 4061,3165 4064,3169 4068,3173 4072,3176 4076,3180 4080,3183 4085,3187 4089,3190 4094,3192 4099,3195 4104,3197 4108,3200 4114,3202 4119,3203 4124,3205 4129,3206 4135,3207 4140,3208 4145,3209 4151,3209 4156,3209 4162,3209 4167,3209 4173,3208 4178,3207 4183,3206 4189,3205 4194,3203 4199,3202 4204,3200 4209,3197 4214,3195 4219,3192 4223,3190 4228,3187 4232,3183 4237,3180 4241,3176 4245,3173 4248,3169 4252,3165 4256,3160 4259,3156 4262,3151 4265,3147 4267,3142 4270,3137 4272,3132 4274,3127 4276,3122 4277,3117 4278,3111 4279,3106 4280,3100 4281,3095 4281,3090 4281,3084 Z"/>
 <path fill="rgb(131,202,255)" stroke="none" d="M 6198,2201 L 6198,2196 6198,2190 6197,2185 6196,2179 6195,2174 6194,2169 6192,2164 6191,2158 6189,2153 6186,2148 6184,2143 6181,2139 6179,2134 6176,2129 6172,2125 6169,2121 6165,2117 6162,2113 6158,2109 6154,2105 6149,2102 6145,2099 6140,2096 6136,2093 6131,2090 6126,2088 6121,2086 6116,2084 6111,2082 6106,2080 6100,2079 6095,2078 6089,2077 6084,2077 6079,2076 6073,2076 6068,2076 6062,2077 6057,2077 6051,2078 6046,2079 6041,2080 6036,2082 6030,2084 6025,2086 6020,2088 6015,2090 6011,2093 6006,2096 6001,2099 5997,2102 5993,2105 5989,2109 5985,2113 5981,2117 5977,2121 5974,2125 5971,2129 5968,2134 5965,2139 5962,2143 5960,2148 5958,2153 5956,2158 5954,2164 5952,2169 5951,2174 5950,2179 5949,2185 5949,2190 5948,2196 5948,2201 5948,2207 5949,2212 5949,2217 5950,2223 5951,2228 5952,2233 5954,2239 5956,2244 5958,2249 5960,2254 5962,2259 5965,2264 5968,2268 5971,2273 5974,2277 5977,2281 5981,2286 5985,2289 5989,2293 5993,2297 5997,2300 6001,2303 6006,2307 6011,2309 6015,2312 6020,2314 6025,2317 6030,2319 6036,2320 6041,2322 6046,2323 6051,2324 6057,2325 6062,2326 6068,2326 6073,2326 6079,2326 6084,2326 6089,2325 6095,2324 6100,2323 6106,2322 6111,2320 6116,2319 6121,2317 6126,2314 6131,2312 6136,2309 6140,2307 6145,2303 6149,2300 6154,2297 6158,2293 6162,2289 6165,2286 6169,2281 6172,2277 6176,2273 6179,2268 6181,2264 6184,2259 6186,2254 6189,2249 6191,2244 6192,2239 6194,2233 6195,2228 6196,2223 6197,2217 6198,2212 6198,2207 6198,2201 Z"/>
 <path fill="none" stroke="rgb(131,202,255)" stroke-linejoin="round" d="M 6198,2201 L 6198,2196 6198,2190 6197,2185 6196,2179 6195,2174 6194,2169 6192,2164 6191,2158 6189,2153 6186,2148 6184,2143 6181,2139 6179,2134 6176,2129 6172,2125 6169,2121 6165,2117 6162,2113 6158,2109 6154,2105 6149,2102 6145,2099 6140,2096 6136,2093 6131,2090 6126,2088 6121,2086 6116,2084 6111,2082 6106,2080 6100,2079 6095,2078 6089,2077 6084,2077 6079,2076 6073,2076 6068,2076 6062,2077 6057,2077 6051,2078 6046,2079 6041,2080 6036,2082 6030,2084 6025,2086 6020,2088 6015,2090 6011,2093 6006,2096 6001,2099 5997,2102 5993,2105 5989,2109 5985,2113 5981,2117 5977,2121 5974,2125 5971,2129 5968,2134 5965,2139 5962,2143 5960,2148 5958,2153 5956,2158 5954,2164 5952,2169 5951,2174 5950,2179 5949,2185 5949,2190 5948,2196 5948,2201 5948,2207 5949,2212 5949,2217 5950,2223 5951,2228 5952,2233 5954,2239 5956,2244 5958,2249 5960,2254 5962,2259 5965,2264 5968,2268 5971,2273 5974,2277 5977,2281 5981,2286 5985,2289 5989,2293 5993,2297 5997,2300 6001,2303 6006,2307 6011,2309 6015,2312 6020,2314 6025,2317 6030,2319 6036,2320 6041,2322 6046,2323 6051,2324 6057,2325 6062,2326 6068,2326 6073,2326 6079,2326 6084,2326 6089,2325 6095,2324 6100,2323 6106,2322 6111,2320 6116,2319 6121,2317 6126,2314 6131,2312 6136,2309 6140,2307 6145,2303 6149,2300 6154,2297 6158,2293 6162,2289 6165,2286 6169,2281 6172,2277 6176,2273 6179,2268 6181,2264 6184,2259 6186,2254 6189,2249 6191,2244 6192,2239 6194,2233 6195,2228 6196,2223 6197,2217 6198,2212 6198,2207 6198,2201 Z"/>
 <path fill="rgb(131,202,255)" stroke="none" d="M 8114,3659 L 8114,3653 8114,3648 8113,3643 8112,3637 8111,3632 8110,3627 8108,3621 8106,3616 8104,3611 8102,3606 8100,3601 8097,3596 8094,3592 8091,3587 8088,3583 8085,3579 8081,3574 8077,3571 8073,3567 8069,3563 8065,3560 8061,3557 8056,3554 8052,3551 8047,3548 8042,3546 8037,3543 8032,3541 8027,3540 8021,3538 8016,3537 8011,3536 8005,3535 8000,3534 7994,3534 7989,3534 7984,3534 7978,3534 7973,3535 7967,3536 7962,3537 7957,3538 7951,3540 7946,3541 7941,3543 7936,3546 7931,3548 7927,3551 7922,3554 7917,3557 7913,3560 7909,3563 7905,3567 7901,3571 7897,3574 7893,3579 7890,3583 7887,3587 7884,3592 7881,3596 7878,3601 7876,3606 7874,3611 7872,3616 7870,3621 7868,3627 7867,3632 7866,3637 7865,3643 7864,3648 7864,3653 7864,3659 7864,3664 7864,3670 7865,3675 7866,3681 7867,3686 7868,3691 7870,3697 7872,3702 7874,3707 7876,3712 7878,3717 7881,3721 7884,3726 7887,3731 7890,3735 7893,3739 7897,3743 7901,3747 7905,3751 7909,3755 7913,3758 7917,3761 7922,3764 7927,3767 7931,3770 7936,3772 7941,3774 7946,3776 7951,3778 7957,3780 7962,3781 7967,3782 7973,3783 7978,3783 7984,3784 7989,3784 7994,3784 8000,3783 8005,3783 8011,3782 8016,3781 8021,3780 8027,3778 8032,3776 8037,3774 8042,3772 8047,3770 8052,3767 8056,3764 8061,3761 8065,3758 8069,3755 8073,3751 8077,3747 8081,3743 8085,3739 8088,3735 8091,3731 8094,3726 8097,3721 8100,3717 8102,3712 8104,3707 8106,3702 8108,3697 8110,3691 8111,3686 8112,3681 8113,3675 8114,3670 8114,3664 8114,3659 Z"/>
 <path fill="none" stroke="rgb(131,202,255)" stroke-linejoin="round" d="M 8114,3659 L 8114,3653 8114,3648 8113,3643 8112,3637 8111,3632 8110,3627 8108,3621 8106,3616 8104,3611 8102,3606 8100,3601 8097,3596 8094,3592 8091,3587 8088,3583 8085,3579 8081,3574 8077,3571 8073,3567 8069,3563 8065,3560 8061,3557 8056,3554 8052,3551 8047,3548 8042,3546 8037,3543 8032,3541 8027,3540 8021,3538 8016,3537 8011,3536 8005,3535 8000,3534 7994,3534 7989,3534 7984,3534 7978,3534 7973,3535 7967,3536 7962,3537 7957,3538 7951,3540 7946,3541 7941,3543 7936,3546 7931,3548 7927,3551 7922,3554 7917,3557 7913,3560 7909,3563 7905,3567 7901,3571 7897,3574 7893,3579 7890,3583 7887,3587 7884,3592 7881,3596 7878,3601 7876,3606 7874,3611 7872,3616 7870,3621 7868,3627 7867,3632 7866,3637 7865,3643 7864,3648 7864,3653 7864,3659 7864,3664 7864,3670 7865,3675 7866,3681 7867,3686 7868,3691 7870,3697 7872,3702 7874,3707 7876,3712 7878,3717 7881,3721 7884,3726 7887,3731 7890,3735 7893,3739 7897,3743 7901,3747 7905,3751 7909,3755 7913,3758 7917,3761 7922,3764 7927,3767 7931,3770 7936,3772 7941,3774 7946,3776 7951,3778 7957,3780 7962,3781 7967,3782 7973,3783 7978,3783 7984,3784 7989,3784 7994,3784 8000,3783 8005,3783 8011,3782 8016,3781 8021,3780 8027,3778 8032,3776 8037,3774 8042,3772 8047,3770 8052,3767 8056,3764 8061,3761 8065,3758 8069,3755 8073,3751 8077,3747 8081,3743 8085,3739 8088,3735 8091,3731 8094,3726 8097,3721 8100,3717 8102,3712 8104,3707 8106,3702 8108,3697 8110,3691 8111,3686 8112,3681 8113,3675 8114,3670 8114,3664 8114,3659 Z"/>
 <path fill="rgb(131,202,255)" stroke="none" d="M 10031,3599 L 10031,3594 10030,3588 10030,3583 10029,3578 10028,3572 10027,3567 10025,3562 10023,3557 10021,3551 10019,3546 10017,3542 10014,3537 10011,3532 10008,3528 10005,3523 10002,3519 9998,3515 9994,3511 9990,3507 9986,3504 9982,3500 9978,3497 9973,3494 9968,3491 9964,3488 9959,3486 9954,3484 9949,3482 9943,3480 9938,3479 9933,3477 9928,3476 9922,3475 9917,3475 9911,3474 9906,3474 9900,3474 9895,3475 9890,3475 9884,3476 9879,3477 9873,3479 9868,3480 9863,3482 9858,3484 9853,3486 9848,3488 9843,3491 9839,3494 9834,3497 9830,3500 9825,3504 9821,3507 9817,3511 9814,3515 9810,3519 9807,3523 9803,3528 9800,3532 9798,3537 9795,3542 9793,3546 9790,3551 9788,3557 9787,3562 9785,3567 9784,3572 9783,3578 9782,3583 9781,3588 9781,3594 9781,3599 9781,3605 9781,3610 9782,3616 9783,3621 9784,3626 9785,3632 9787,3637 9788,3642 9790,3647 9793,3652 9795,3657 9798,3662 9800,3666 9803,3671 9807,3675 9810,3680 9814,3684 9817,3688 9821,3691 9825,3695 9830,3698 9834,3702 9839,3705 9843,3708 9848,3710 9853,3713 9858,3715 9863,3717 9868,3719 9873,3720 9879,3721 9884,3722 9890,3723 9895,3724 9900,3724 9906,3724 9911,3724 9917,3724 9922,3723 9928,3722 9933,3721 9938,3720 9943,3719 9949,3717 9954,3715 9959,3713 9964,3710 9968,3708 9973,3705 9978,3702 9982,3698 9986,3695 9990,3691 9994,3688 9998,3684 10002,3680 10005,3675 10008,3671 10011,3666 10014,3662 10017,3657 10019,3652 10021,3647 10023,3642 10025,3637 10027,3632 10028,3626 10029,3621 10030,3616 10030,3610 10031,3605 10031,3599 Z"/>
 <path fill="none" stroke="rgb(131,202,255)" stroke-linejoin="round" d="M 10031,3599 L 10031,3594 10030,3588 10030,3583 10029,3578 10028,3572 10027,3567 10025,3562 10023,3557 10021,3551 10019,3546 10017,3542 10014,3537 10011,3532 10008,3528 10005,3523 10002,3519 9998,3515 9994,3511 9990,3507 9986,3504 9982,3500 9978,3497 9973,3494 9968,3491 9964,3488 9959,3486 9954,3484 9949,3482 9943,3480 9938,3479 9933,3477 9928,3476 9922,3475 9917,3475 9911,3474 9906,3474 9900,3474 9895,3475 9890,3475 9884,3476 9879,3477 9873,3479 9868,3480 9863,3482 9858,3484 9853,3486 9848,3488 9843,3491 9839,3494 9834,3497 9830,3500 9825,3504 9821,3507 9817,3511 9814,3515 9810,3519 9807,3523 9803,3528 9800,3532 9798,3537 9795,3542 9793,3546 9790,3551 9788,3557 9787,3562 9785,3567 9784,3572 9783,3578 9782,3583 9781,3588 9781,3594 9781,3599 9781,3605 9781,3610 9782,3616 9783,3621 9784,3626 9785,3632 9787,3637 9788,3642 9790,3647 9793,3652 9795,3657 9798,3662 9800,3666 9803,3671 9807,3675 9810,3680 9814,3684 9817,3688 9821,3691 9825,3695 9830,3698 9834,3702 9839,3705 9843,3708 9848,3710 9853,3713 9858,3715 9863,3717 9868,3719 9873,3720 9879,3721 9884,3722 9890,3723 9895,3724 9900,3724 9906,3724 9911,3724 9917,3724 9922,3723 9928,3722 9933,3721 9938,3720 9943,3719 9949,3717 9954,3715 9959,3713 9964,3710 9968,3708 9973,3705 9978,3702 9982,3698 9986,3695 9990,3691 9994,3688 9998,3684 10002,3680 10005,3675 10008,3671 10011,3666 10014,3662 10017,3657 10019,3652 10021,3647 10023,3642 10025,3637 10027,3632 10028,3626 10029,3621 10030,3616 10030,3610 10031,3605 10031,3599 Z"/>
 <path fill="rgb(131,202,255)" stroke="none" d="M 11948,3247 L 11948,3241 11947,3236 11947,3230 11946,3225 11945,3219 11943,3214 11942,3209 11940,3204 11938,3199 11936,3194 11934,3189 11931,3184 11928,3179 11925,3175 11922,3170 11918,3166 11915,3162 11911,3158 11907,3154 11903,3151 11899,3147 11894,3144 11890,3141 11885,3138 11880,3136 11875,3133 11871,3131 11865,3129 11860,3127 11855,3126 11850,3124 11844,3123 11839,3123 11834,3122 11828,3122 11823,3122 11817,3122 11812,3122 11806,3123 11801,3123 11796,3124 11790,3126 11785,3127 11780,3129 11775,3131 11770,3133 11765,3136 11760,3138 11756,3141 11751,3144 11747,3147 11742,3151 11738,3154 11734,3158 11731,3162 11727,3166 11723,3170 11720,3175 11717,3179 11714,3184 11712,3189 11709,3194 11707,3199 11705,3204 11703,3209 11702,3214 11701,3219 11700,3225 11699,3230 11698,3236 11698,3241 11698,3247 11698,3252 11698,3257 11699,3263 11700,3268 11701,3274 11702,3279 11703,3284 11705,3289 11707,3294 11709,3299 11712,3304 11714,3309 11717,3314 11720,3318 11723,3323 11727,3327 11731,3331 11734,3335 11738,3339 11742,3342 11747,3346 11751,3349 11756,3352 11760,3355 11765,3357 11770,3360 11775,3362 11780,3364 11785,3366 11790,3367 11796,3369 11801,3370 11806,3370 11812,3371 11817,3371 11823,3372 11828,3371 11834,3371 11839,3370 11844,3370 11850,3369 11855,3367 11860,3366 11865,3364 11871,3362 11875,3360 11880,3357 11885,3355 11890,3352 11894,3349 11899,3346 11903,3342 11907,3339 11911,3335 11915,3331 11918,3327 11922,3323 11925,3318 11928,3314 11931,3309 11934,3304 11936,3299 11938,3294 11940,3289 11942,3284 11943,3279 11945,3274 11946,3268 11947,3263 11947,3257 11948,3252 11948,3247 Z"/>
 <path fill="none" stroke="rgb(131,202,255)" stroke-linejoin="round" d="M 11948,3247 L 11948,3241 11947,3236 11947,3230 11946,3225 11945,3219 11943,3214 11942,3209 11940,3204 11938,3199 11936,3194 11934,3189 11931,3184 11928,3179 11925,3175 11922,3170 11918,3166 11915,3162 11911,3158 11907,3154 11903,3151 11899,3147 11894,3144 11890,3141 11885,3138 11880,3136 11875,3133 11871,3131 11865,3129 11860,3127 11855,3126 11850,3124 11844,3123 11839,3123 11834,3122 11828,3122 11823,3122 11817,3122 11812,3122 11806,3123 11801,3123 11796,3124 11790,3126 11785,3127 11780,3129 11775,3131 11770,3133 11765,3136 11760,3138 11756,3141 11751,3144 11747,3147 11742,3151 11738,3154 11734,3158 11731,3162 11727,3166 11723,3170 11720,3175 11717,3179 11714,3184 11712,3189 11709,3194 11707,3199 11705,3204 11703,3209 11702,3214 11701,3219 11700,3225 11699,3230 11698,3236 11698,3241 11698,3247 11698,3252 11698,3257 11699,3263 11700,3268 11701,3274 11702,3279 11703,3284 11705,3289 11707,3294 11709,3299 11712,3304 11714,3309 11717,3314 11720,3318 11723,3323 11727,3327 11731,3331 11734,3335 11738,3339 11742,3342 11747,3346 11751,3349 11756,3352 11760,3355 11765,3357 11770,3360 11775,3362 11780,3364 11785,3366 11790,3367 11796,3369 11801,3370 11806,3370 11812,3371 11817,3371 11823,3372 11828,3371 11834,3371 11839,3370 11844,3370 11850,3369 11855,3367 11860,3366 11865,3364 11871,3362 11875,3360 11880,3357 11885,3355 11890,3352 11894,3349 11899,3346 11903,3342 11907,3339 11911,3335 11915,3331 11918,3327 11922,3323 11925,3318 11928,3314 11931,3309 11934,3304 11936,3299 11938,3294 11940,3289 11942,3284 11943,3279 11945,3274 11946,3268 11947,3263 11947,3257 11948,3252 11948,3247 Z"/>
 <path fill="rgb(131,202,255)" stroke="none" d="M 13864,3600 L 13864,3595 13864,3589 13863,3584 13863,3579 13862,3573 13860,3568 13859,3563 13857,3558 13855,3552 13853,3547 13850,3543 13848,3538 13845,3533 13842,3529 13839,3524 13835,3520 13832,3516 13828,3512 13824,3508 13820,3505 13816,3501 13811,3498 13807,3495 13802,3492 13797,3489 13792,3487 13787,3485 13782,3483 13777,3481 13772,3480 13767,3478 13761,3477 13756,3476 13750,3476 13745,3475 13739,3475 13734,3475 13729,3476 13723,3476 13718,3477 13712,3478 13707,3480 13702,3481 13697,3483 13692,3485 13687,3487 13682,3489 13677,3492 13672,3495 13668,3498 13663,3501 13659,3505 13655,3508 13651,3512 13647,3516 13644,3520 13640,3524 13637,3529 13634,3533 13631,3538 13629,3543 13626,3547 13624,3552 13622,3558 13620,3563 13619,3568 13617,3573 13616,3579 13616,3584 13615,3589 13615,3595 13614,3600 13615,3606 13615,3611 13616,3617 13616,3622 13617,3627 13619,3633 13620,3638 13622,3643 13624,3648 13626,3653 13629,3658 13631,3663 13634,3667 13637,3672 13640,3676 13644,3681 13647,3685 13651,3689 13655,3692 13659,3696 13663,3699 13668,3703 13672,3706 13677,3709 13682,3711 13687,3714 13692,3716 13697,3718 13702,3719 13707,3721 13712,3722 13718,3723 13723,3724 13729,3725 13734,3725 13739,3725 13745,3725 13750,3725 13756,3724 13761,3723 13767,3722 13772,3721 13777,3719 13782,3718 13787,3716 13792,3714 13797,3711 13802,3709 13807,3706 13811,3703 13816,3699 13820,3696 13824,3692 13828,3689 13832,3685 13835,3681 13839,3676 13842,3672 13845,3667 13848,3663 13850,3658 13853,3653 13855,3648 13857,3643 13859,3638 13860,3633 13862,3627 13863,3622 13863,3617 13864,3611 13864,3606 13864,3600 Z"/>
 <path fill="none" stroke="rgb(131,202,255)" stroke-linejoin="round" d="M 13864,3600 L 13864,3595 13864,3589 13863,3584 13863,3579 13862,3573 13860,3568 13859,3563 13857,3558 13855,3552 13853,3547 13850,3543 13848,3538 13845,3533 13842,3529 13839,3524 13835,3520 13832,3516 13828,3512 13824,3508 13820,3505 13816,3501 13811,3498 13807,3495 13802,3492 13797,3489 13792,3487 13787,3485 13782,3483 13777,3481 13772,3480 13767,3478 13761,3477 13756,3476 13750,3476 13745,3475 13739,3475 13734,3475 13729,3476 13723,3476 13718,3477 13712,3478 13707,3480 13702,3481 13697,3483 13692,3485 13687,3487 13682,3489 13677,3492 13672,3495 13668,3498 13663,3501 13659,3505 13655,3508 13651,3512 13647,3516 13644,3520 13640,3524 13637,3529 13634,3533 13631,3538 13629,3543 13626,3547 13624,3552 13622,3558 13620,3563 13619,3568 13617,3573 13616,3579 13616,3584 13615,3589 13615,3595 13614,3600 13615,3606 13615,3611 13616,3617 13616,3622 13617,3627 13619,3633 13620,3638 13622,3643 13624,3648 13626,3653 13629,3658 13631,3663 13634,3667 13637,3672 13640,3676 13644,3681 13647,3685 13651,3689 13655,3692 13659,3696 13663,3699 13668,3703 13672,3706 13677,3709 13682,3711 13687,3714 13692,3716 13697,3718 13702,3719 13707,3721 13712,3722 13718,3723 13723,3724 13729,3725 13734,3725 13739,3725 13745,3725 13750,3725 13756,3724 13761,3723 13767,3722 13772,3721 13777,3719 13782,3718 13787,3716 13792,3714 13797,3711 13802,3709 13807,3706 13811,3703 13816,3699 13820,3696 13824,3692 13828,3689 13832,3685 13835,3681 13839,3676 13842,3672 13845,3667 13848,3663 13850,3658 13853,3653 13855,3648 13857,3643 13859,3638 13860,3633 13862,3627 13863,3622 13863,3617 13864,3611 13864,3606 13864,3600 Z"/>
 <text class="TextShape"><tspan class="TextParagraph" font-family="Liberation Sans, sans-serif" font-size="353px" font-weight="400"><tspan class="TextPosition" x="2056" y="6417"><tspan fill="rgb(0,0,0)" stroke="none">10</tspan></tspan></tspan></text>
 <text class="TextShape"><tspan class="TextParagraph" font-family="Liberation Sans, sans-serif" font-size="353px" font-weight="400"><tspan class="TextPosition" x="3878" y="6417"><tspan fill="rgb(0,0,0)" stroke="none">100</tspan></tspan></tspan></text>
 <text class="TextShape"><tspan class="TextParagraph" font-family="Liberation Sans, sans-serif" font-size="353px" font-weight="400"><tspan class="TextPosition" x="5702" y="6417"><tspan fill="rgb(0,0,0)" stroke="none">1000</tspan></tspan></tspan></text>
 <text class="TextShape"><tspan class="TextParagraph" font-family="Liberation Sans, sans-serif" font-size="353px" font-weight="400"><tspan class="TextPosition" x="7527" y="6417"><tspan fill="rgb(0,0,0)" stroke="none">10000</tspan></tspan></tspan></text>
 <text class="TextShape"><tspan class="TextParagraph" font-family="Liberation Sans, sans-serif" font-size="353px" font-weight="400"><tspan class="TextPosition" x="9351" y="6417"><tspan fill="rgb(0,0,0)" stroke="none">100000</tspan></tspan></tspan></text>
 <text class="TextShape"><tspan class="TextParagraph" font-family="Liberation Sans, sans-serif" font-size="353px" font-weight="400"><tspan class="TextPosition" x="11175" y="6417"><tspan fill="rgb(0,0,0)" stroke="none">1000000</tspan></tspan></tspan></text>
 <text class="TextShape"><tspan class="TextParagraph" font-family="Liberation Sans, sans-serif" font-size="353px" font-weight="400"><tspan class="TextPosition" x="12998" y="6417"><tspan fill="rgb(0,0,0)" stroke="none">10000000</tspan></tspan></tspan></text>
 <text class="TextShape"><tspan class="TextParagraph" font-family="Liberation Sans, sans-serif" font-size="353px" font-weight="400"><tspan class="TextPosition" x="1329" y="5970"><tspan fill="rgb(0,0,0)" stroke="none">0.00</tspan></tspan></tspan></text>
 <text class="TextShape"><tspan class="TextParagraph" font-family="Liberation Sans, sans-serif" font-size="353px" font-weight="400"><tspan class="TextPosition" x="1329" y="5544"><tspan fill="rgb(0,0,0)" stroke="none">0.50</tspan></tspan></tspan></text>
 <text class="TextShape"><tspan class="TextParagraph" font-family="Liberation Sans, sans-serif" font-size="353px" font-weight="400"><tspan class="TextPosition" x="1329" y="5119"><tspan fill="rgb(0,0,0)" stroke="none">1.00</tspan></tspan></tspan></text>
 <text class="TextShape"><tspan class="TextParagraph" font-family="Liberation Sans, sans-serif" font-size="353px" font-weight="400"><tspan class="TextPosition" x="1329" y="4693"><tspan fill="rgb(0,0,0)" stroke="none">1.50</tspan></tspan></tspan></text>
 <text class="TextShape"><tspan class="TextParagraph" font-family="Liberation Sans, sans-serif" font-size="353px" font-weight="400"><tspan class="TextPosition" x="1329" y="4268"><tspan fill="rgb(0,0,0)" stroke="none">2.00</tspan></tspan></tspan></text>
 <text class="TextShape"><tspan class="TextParagraph" font-family="Liberation Sans, sans-serif" font-size="353px" font-weight="400"><tspan class="TextPosition" x="1329" y="3843"><tspan fill="rgb(0,0,0)" stroke="none">2.50</tspan></tspan></tspan></text>
 <text class="TextShape"><tspan class="TextParagraph" font-family="Liberation Sans, sans-serif" font-size="353px" font-weight="400"><tspan class="TextPosition" x="1329" y="3417"><tspan fill="rgb(0,0,0)" stroke="none">3.00</tspan></tspan></tspan></text>
 <text class="TextShape"><tspan class="TextParagraph" font-family="Liberation Sans, sans-serif" font-size="353px" font-weight="400"><tspan class="TextPosition" x="1329" y="2992"><tspan fill="rgb(0,0,0)" stroke="none">3.50</tspan></tspan></tspan></text>
 <text class="TextShape"><tspan class="TextParagraph" font-family="Liberation Sans, sans-serif" font-size="353px" font-weight="400"><tspan class="TextPosition" x="1329" y="2566"><tspan fill="rgb(0,0,0)" stroke="none">4.00</tspan></tspan></tspan></text>
 <text class="TextShape"><tspan class="TextParagraph" font-family="Liberation Sans, sans-serif" font-size="353px" font-weight="400"><tspan class="TextPosition" x="1329" y="2142"><tspan fill="rgb(0,0,0)" stroke="none">4.50</tspan></tspan></tspan></text>
 <text class="TextShape"><tspan class="TextParagraph" font-family="Liberation Sans, sans-serif" font-size="353px" font-weight="400"><tspan class="TextPosition" x="1329" y="1717"><tspan fill="rgb(0,0,0)" stroke="none">5.00</tspan></tspan></tspan></text>
 <text class="TextShape"><tspan class="TextParagraph" font-family="Segoe UI" font-size="459px" font-weight="700"><tspan class="TextPosition" x="3141" y="939"><tspan fill="rgb(0,0,0)" stroke="none">Full refill/teardown in bulks of 10 items</tspan></tspan></tspan></text>
 <path fill="none" stroke="rgb(0,69,134)" stroke-width="80" stroke-linejoin="round" d="M 667,7992 L 1467,7992"/>
 <path fill="rgb(0,69,134)" stroke="none" d="M 961,7887 L 961,8098 1172,8098 1172,7887 961,7887 Z"/>
 <path fill="none" stroke="rgb(0,69,134)" stroke-linejoin="round" d="M 961,7887 L 961,8098 1172,8098 1172,7887 961,7887 Z"/>
 <path fill="none" stroke="rgb(255,66,14)" stroke-width="80" stroke-linejoin="round" d="M 7568,7992 L 8368,7992"/>
 <path fill="rgb(255,66,14)" stroke="none" d="M 7862,7992 L 7968,8098 8073,7992 7968,7887 7862,7992 Z"/>
 <path fill="none" stroke="rgb(255,66,14)" stroke-linejoin="round" d="M 7862,7992 L 7968,8098 8073,7992 7968,7887 7862,7992 Z"/>
 <path fill="none" stroke="rgb(255,211,32)" stroke-width="80" stroke-linejoin="round" d="M 667,8490 L 1467,8490"/>
 <path fill="rgb(255,211,32)" stroke="none" d="M 961,8385 L 961,8596 1172,8596 1172,8385 961,8385 Z"/>
 <path fill="none" stroke="rgb(255,211,32)" stroke-linejoin="round" d="M 961,8385 L 961,8596 1172,8596 1172,8385 961,8385 Z"/>
 <path fill="none" stroke="rgb(87,157,28)" stroke-width="80" stroke-linejoin="round" d="M 7568,8490 L 8368,8490"/>
 <path fill="rgb(87,157,28)" stroke="none" d="M 7862,8596 L 8073,8596 7968,8385 7862,8596 Z"/>
 <path fill="none" stroke="rgb(87,157,28)" stroke-linejoin="round" d="M 7862,8596 L 8073,8596 7968,8385 7862,8596 Z"/>
 <path fill="none" stroke="rgb(126,0,33)" stroke-width="80" stroke-linejoin="round" d="M 667,8988 L 1467,8988"/>
 <path fill="rgb(126,0,33)" stroke="none" d="M 961,8883 L 961,9094 1172,8988 961,8883 Z"/>
 <path fill="none" stroke="rgb(126,0,33)" stroke-linejoin="round" d="M 961,8883 L 961,9094 1172,8988 961,8883 Z"/>
 <path fill="none" stroke="rgb(131,202,255)" stroke-width="80" stroke-linejoin="round" d="M 7568,8988 L 8368,8988"/>
 <path fill="rgb(131,202,255)" stroke="none" d="M 8073,8988 L 8073,8983 8073,8979 8072,8974 8071,8970 8070,8965 8069,8961 8068,8956 8067,8952 8065,8948 8063,8943 8061,8939 8059,8935 8056,8931 8054,8927 8051,8924 8048,8920 8045,8917 8042,8913 8039,8910 8035,8907 8032,8904 8028,8902 8024,8899 8020,8897 8016,8894 8012,8892 8008,8891 8004,8889 7999,8887 7995,8886 7990,8885 7986,8884 7981,8883 7977,8883 7972,8883 7968,8883 7963,8883 7958,8883 7954,8883 7949,8884 7945,8885 7940,8886 7936,8887 7931,8889 7927,8891 7923,8892 7919,8894 7915,8897 7911,8899 7907,8902 7903,8904 7900,8907 7896,8910 7893,8913 7890,8917 7887,8920 7884,8924 7881,8927 7879,8931 7876,8935 7874,8939 7872,8943 7870,8948 7868,8952 7867,8956 7866,8961 7865,8965 7864,8970 7863,8974 7862,8979 7862,8983 7862,8988 7862,8993 7862,8997 7863,9002 7864,9006 7865,9011 7866,9015 7867,9020 7868,9024 7870,9028 7872,9033 7874,9037 7876,9041 7879,9045 7881,9049 7884,9052 7887,9056 7890,9059 7893,9063 7896,9066 7900,9069 7903,9072 7907,9074 7911,9077 7915,9079 7919,9082 7923,9084 7927,9085 7931,9087 7936,9089 7940,9090 7945,9091 7949,9092 7954,9093 7958,9093 7963,9093 7968,9094 7972,9093 7977,9093 7981,9093 7986,9092 7990,9091 7995,9090 7999,9089 8004,9087 8008,9085 8012,9084 8016,9082 8020,9079 8024,9077 8028,9074 8032,9072 8035,9069 8039,9066 8042,9063 8045,9059 8048,9056 8051,9052 8054,9049 8056,9045 8059,9041 8061,9037 8063,9033 8065,9028 8067,9024 8068,9020 8069,9015 8070,9011 8071,9006 8072,9002 8073,8997 8073,8993 8073,8988 Z"/>
 <path fill="none" stroke="rgb(131,202,255)" stroke-linejoin="round" d="M 8073,8988 L 8073,8983 8073,8979 8072,8974 8071,8970 8070,8965 8069,8961 8068,8956 8067,8952 8065,8948 8063,8943 8061,8939 8059,8935 8056,8931 8054,8927 8051,8924 8048,8920 8045,8917 8042,8913 8039,8910 8035,8907 8032,8904 8028,8902 8024,8899 8020,8897 8016,8894 8012,8892 8008,8891 8004,8889 7999,8887 7995,8886 7990,8885 7986,8884 7981,8883 7977,8883 7972,8883 7968,8883 7963,8883 7958,8883 7954,8883 7949,8884 7945,8885 7940,8886 7936,8887 7931,8889 7927,8891 7923,8892 7919,8894 7915,8897 7911,8899 7907,8902 7903,8904 7900,8907 7896,8910 7893,8913 7890,8917 7887,8920 7884,8924 7881,8927 7879,8931 7876,8935 7874,8939 7872,8943 7870,8948 7868,8952 7867,8956 7866,8961 7865,8965 7864,8970 7863,8974 7862,8979 7862,8983 7862,8988 7862,8993 7862,8997 7863,9002 7864,9006 7865,9011 7866,9015 7867,9020 7868,9024 7870,9028 7872,9033 7874,9037 7876,9041 7879,9045 7881,9049 7884,9052 7887,9056 7890,9059 7893,9063 7896,9066 7900,9069 7903,9072 7907,9074 7911,9077 7915,9079 7919,9082 7923,9084 7927,9085 7931,9087 7936,9089 7940,9090 7945,9091 7949,9092 7954,9093 7958,9093 7963,9093 7968,9094 7972,9093 7977,9093 7981,9093 7986,9092 7990,9091 7995,9090 7999,9089 8004,9087 8008,9085 8012,9084 8016,9082 8020,9079 8024,9077 8028,9074 8032,9072 8035,9069 8039,9066 8042,9063 8045,9059 8048,9056 8051,9052 8054,9049 8056,9045 8059,9041 8061,9037 8063,9033 8065,9028 8067,9024 8068,9020 8069,9015 8070,9011 8071,9006 8072,9002 8073,8997 8073,8993 8073,8988 Z"/>
 <text class="TextShape"><tspan class="TextParagraph" font-family="Liberation Sans, sans-serif" font-size="353px" font-weight="400"><tspan class="TextPosition" x="1567" y="8112"><tspan fill="rgb(0,0,0)" stroke="none">TeardownSet::delete_range()         </tspan></tspan></tspan></text>
 <text class="TextShape"><tspan class="TextParagraph" font-family="Liberation Sans, sans-serif" font-size="353px" font-weight="400"><tspan class="TextPosition" x="8468" y="8112"><tspan fill="rgb(0,0,0)" stroke="none">TeardownMap::delete_range()         </tspan></tspan></tspan></text>
 <text class="TextShape"><tspan class="TextParagraph" font-family="Liberation Sans, sans-serif" font-size="353px" font-weight="400"><tspan class="TextPosition" x="1567" y="8610"><tspan fill="rgb(0,0,0)" stroke="none">TeardownSet::filter_range()         </tspan></tspan></tspan></text>
 <text class="TextShape"><tspan class="TextParagraph" font-family="Liberation Sans, sans-serif" font-size="353px" font-weight="400"><tspan class="TextPosition" x="8468" y="8610"><tspan fill="rgb(0,0,0)" stroke="none">IntervalTeardownSet::delete_overlap()</tspan></tspan></tspan></text>
 <text class="TextShape"><tspan class="TextParagraph" font-family="Liberation Sans, sans-serif" font-size="353px" font-weight="400"><tspan class="TextPosition" x="1567" y="9108"><tspan fill="rgb(0,0,0)" stroke="none">IntervalTeardownMap::delete_overlap()</tspan></tspan></tspan></text>
 <text class="TextShape"><tspan class="TextParagraph" font-family="Liberation Sans, sans-serif" font-size="353px" font-weight="400"><tspan class="TextPosition" x="8468" y="9108"><tspan fill="rgb(0,0,0)" stroke="none">IntervalTeardownSet::filter_overlap()</tspan></tspan></tspan></text>
 <text class="TextShape"><tspan class="TextParagraph" font-family="Segoe UI" font-size="318px" font-weight="700"><tspan class="TextPosition" x="7787" y="7101"><tspan fill="rgb(0,0,0)" stroke="none">N</tspan></tspan></tspan></text>
 <text class="TextShape" transform="translate(860,4913) rotate(-90) translate(-860,-4913)"><tspan class="TextParagraph" font-family="Segoe UI" font-size="318px" font-weight="700"><tspan class="TextPosition" x="860" y="4913"><tspan fill="rgb(0,0,0)" stroke="none">Times slower</tspan></tspan></tspan></text>
</svg>